<?xml version="1.0" ?>
<svg xmlns="http://www.w3.org/2000/svg" version="1.1" width="320" height="320">
  <defs/>
  <g>
    <path d="M 189.54579162597656 284.98016357421875 C 178.55299377441406 282.4829406738281 178.15296936035156 279.2372131347656 178.79147338867188 275.07464599609375 C 177.51531982421875 280.5168762207031 183.44456481933594 283.94580078125 178.6398468017578 279.74267578125 C 174.9785919189453 274.49932861328125 169.205810546875 269.6326904296875 168.82635498046875 267.695068359375 C 162.72763061523438 272.333251953125 153.44129943847656 279.65289306640625 151.41943359375 283.7055969238281 C 151.93919372558594 281.68505859375 151.72756958007812 280.2416687011719 156.30471801757812 277.2367858886719 C 156.34996032714844 273.5082702636719 156.06295776367188 271.43377685546875 159.0274658203125 268.7572326660156 C 162.37603759765625 268.3585510253906 162.64190673828125 264.56610107421875 164.8046112060547 262.7815246582031 C 166.6112823486328 262.2977294921875 169.00149536132812 259.5928955078125 135.66433715820312 287.6168212890625 C 136.6133270263672 280.6006774902344 82.81945037841797 253.61941528320312 105.19615936279297 225.53543090820312 C 147.97926330566406 192.6223602294922 148.58103942871094 194.12429809570312 142.09793090820312 133.6302490234375 C 138.05979919433594 138.53346252441406 136.02452087402344 162.72543334960938 151.3596954345703 144.73558044433594 C 163.59442138671875 134.9354248046875 163.47467041015625 132.80322265625 163.45132446289062 132.34860229492188 C 161.26852416992188 134.22506713867188 157.75677490234375 140.01060485839844 146.63623046875 151.29087829589844 C 138.77883911132812 153.87255859375 133.44456481933594 154.92417907714844 152.43753051757812 214.69656372070312 C 128.69070434570312 133.5159912109375 145.82701110839844 175.8955078125 152.51950073242188 200.86517333984375 C 116.78382110595703 208.3738250732422 114.75048828125 213.30206298828125 96.63101196289062 236.31752014160156 C 93.9266357421875 260.4888916015625 92.5225830078125 263.18096923828125 92.91259002685547 262.8564758300781 C 92.19707489013672 267.20111083984375 91.36683654785156 269.67059326171875 90.23107147216797 272.0817565917969 C 88.32908630371094 271.65966796875 87.09986114501953 271.152099609375 85.5185775756836 270.4600830078125 C 83.3330307006836 271.6313781738281 82.59209442138672 273.63067626953125 82.69051361083984 274.84185791015625 C 83.44427490234375 270.43841552734375 88.12870025634766 265.8521423339844 88.44163513183594 264.80712890625 C 89.17178344726562 262.6291198730469 90.25236511230469 260.7964782714844 89.9864273071289 261.1405334472656 C 91.31039428710938 259.60687255859375 91.98385620117188 258.77325439453125 94.51617431640625 234.35044860839844 C 110.5067138671875 209.159423828125 111.30889129638672 208.01431274414062 111.285400390625 203.36163330078125 C 111.72699737548828 191.85289001464844 111.6005630493164 179.1175994873047 110.02793884277344 160.67385864257812 C 123.88261413574219 147.72625732421875 133.80198669433594 139.6742706298828 138.97084045410156 134.93817138671875 C 146.92510986328125 128.76629638671875 151.6945343017578 124.68670654296875 155.3614959716797 122.39970397949219 C 157.4919891357422 119.40158081054688 177.6566162109375 88.07620239257812 184.67356872558594 92.8807144165039 C 188.39849853515625 92.97625732421875 190.43702697753906 94.07814025878906 192.45103454589844 94.85908508300781 C 193.79476928710938 95.9288558959961 196.1236572265625 95.90926361083984 198.47634887695312 98.63053894042969 C 196.54354858398438 100.25369262695312 202.30447387695312 101.10359191894531 205.45567321777344 114.58213806152344 C 207.83462524414062 120.99689483642578 222.4493408203125 121.72132110595703 224.96231079101562 123.9710693359375 C 228.24363708496094 118.64390563964844 226.52171325683594 135.7209014892578 215.6735382080078 156.78726196289062 C 225.3739471435547 134.95962524414062 213.87376403808594 165.07614135742188 199.99952697753906 200.66424560546875 C 153.95297241210938 189.56932067871094 156.16213989257812 190.9143829345703 152.32302856445312 196.21829223632812 C 117.14363861083984 239.5366668701172 115.157958984375 241.71351623535156 140.14361572265625 278.5450439453125 C 182.4976043701172 272.7741394042969 217.8184814453125 246.85073852539062 218.18606567382812 242.8328094482422 C 217.3307647705078 226.67535400390625 211.67355346679688 215.1836395263672 207.93789672851562 207.34934997558594 C 198.04380798339844 197.73248291015625 205.58493041992188 175.85574340820312 211.59906005859375 172.27127075195312 C 216.71826171875 160.78854370117188 227.4474639892578 134.85079956054688 225.9091339111328 131.63072204589844 C 216.34292602539062 118.73812103271484 210.32827758789062 122.44065856933594 263.8715515136719 150.48171997070312 C 279.4043884277344 134.22572326660156 268.8468017578125 105.75994873046875 266.72833251953125 90.55990600585938 C 271.262939453125 87.63424682617188 266.8061218261719 86.3167724609375 274.926513671875 86.47895050048828 C 272.8769836425781 85.52178192138672 285.0403747558594 95.49824523925781 271.12188720703125 88.02399444580078 C 277.0965881347656 88.0322494506836 286.3194885253906 89.13223266601562 292.21990966796875 92.27345275878906 C 330.18634033203125 77.51923370361328 337.7259521484375 107.85391235351562 309.67498779296875 110.01611328125 C 296.5648193359375 117.94979095458984 293.9692077636719 123.0584487915039 290.3873596191406 141.61233520507812 C 284.44732666015625 182.820068359375 245.66966247558594 171.1261749267578 246.036376953125 171.87704467773438 C 240.06951904296875 203.25755310058594 238.03013610839844 207.45809936523438 236.39747619628906 212.30947875976562 C 234.6715545654297 216.58587646484375 234.29977416992188 219.77174377441406 234.33787536621094 222.9508819580078 C 234.92556762695312 226.5379638671875 232.30441284179688 258.03076171875 235.58648681640625 267.062255859375 C 236.75491333007812 272.39117431640625 239.33482360839844 276.5523376464844 248.60812377929688 278.60638427734375 C 240.59140014648438 283.6644592285156 235.50978088378906 283.9784240722656 231.8933563232422 284.3450622558594 C 224.56643676757812 282.2360534667969 221.3255615234375 282.5880126953125 211.7450714111328 279.6807556152344 C 196.2637939453125 280.5235595703125 212.7005157470703 280.87646484375 217.35267639160156 279.421142578125 C 221.81439208984375 280.98370361328125 222.806396484375 279.6667785644531 229.55551147460938 274.43426513671875 C 234.45225524902344 275.7701110839844 228.06149291992188 265.2270202636719 228.5391845703125 241.82452392578125 C 226.71910095214844 225.57772827148438 227.03903198242188 224.49688720703125 226.8810577392578 221.75523376464844 C 225.64749145507812 217.0792236328125 226.16201782226562 211.4281005859375 228.7809600830078 204.534423828125 C 229.80799865722656 207.52134704589844 240.7441864013672 171.10633850097656 243.4395294189453 138.60032653808594 C 245.4241943359375 133.87547302246094 249.89434814453125 144.80279541015625 245.50912475585938 139.32455444335938 C 245.38011169433594 134.0924835205078 239.14349365234375 156.775390625 242.39224243164062 160.25881958007812 C 239.72897338867188 162.32669067382812 254.64305114746094 113.10801696777344 252.0615997314453 123.36772918701172 C 237.56613159179688 157.40220642089844 235.04141235351562 173.8807373046875 229.44802856445312 208.6055908203125 C 211.72080993652344 195.24276733398438 212.82464599609375 198.37245178222656 227.19886779785156 204.29161071777344 C 224.0732421875 223.22743225097656 227.86376953125 240.20584106445312 228.73464965820312 249.41253662109375 C 181.77642822265625 267.2567443847656 185.35675048828125 289.8238525390625 193.40625 282.9878845214844 C 198.21966552734375 292.27410888671875 190.45053100585938 269.33978271484375 189.54579162597656 284.98016357421875" stroke-width="0.0" fill="rgb(0, 0, 0)" opacity="1.0" stroke="rgb(0, 0, 0)" stroke-opacity="1" stroke-linecap="round" stroke-linejoin="round"/>
  </g>
</svg>
