<?xml version="1.0" ?>
<svg xmlns="http://www.w3.org/2000/svg" version="1.1" width="320" height="320">
  <defs/>
  <g>
    <path d="M 189.19815063476562 290.9543762207031 C 182.7113800048828 289.7982177734375 181.40982055664062 288.1245422363281 182.45762634277344 283.900146484375 C 179.53524780273438 290.2312927246094 189.58953857421875 290.72271728515625 180.7633514404297 292.0481872558594 C 169.07530212402344 290.8565368652344 156.1617431640625 290.3594970703125 149.64315795898438 283.1950378417969 C 149.02426147460938 284.3433532714844 147.7244415283203 283.3481750488281 146.17413330078125 286.77520751953125 C 146.37860107421875 283.9318542480469 153.40476989746094 281.5338134765625 153.96543884277344 279.8482666015625 C 156.77793884277344 278.57904052734375 156.7781219482422 275.5591125488281 159.42251586914062 272.826171875 C 158.6209259033203 271.2676696777344 161.5757293701172 268.53704833984375 162.04672241210938 265.5359191894531 C 162.9738006591797 265.3445739746094 163.90391540527344 263.3796081542969 149.14675903320312 291.83612060546875 C 149.00209045410156 289.8142395019531 106.29621124267578 249.87803649902344 115.13601684570312 240.86550903320312 C 137.91583251953125 192.98988342285156 138.32943725585938 195.67022705078125 136.3331298828125 144.22393798828125 C 131.69012451171875 150.97409057617188 130.51133728027344 170.90415954589844 145.53932189941406 153.9104766845703 C 157.62957763671875 140.5771484375 157.1583251953125 137.22067260742188 156.74742126464844 141.35150146484375 C 154.89767456054688 142.71328735351562 151.57803344726562 148.54971313476562 140.3488311767578 158.59365844726562 C 132.83946228027344 161.27896118164062 128.36204528808594 162.4718017578125 147.2174072265625 222.10829162597656 C 119.85620880126953 142.52047729492188 143.63230895996094 182.95594787597656 140.771240234375 216.6248779296875 C 102.62471008300781 213.5094757080078 100.21409606933594 219.4850616455078 81.34521484375 240.4867401123047 C 75.65656280517578 257.51080322265625 77.07608032226562 262.4827880859375 76.73422241210938 265.2745361328125 C 82.4932632446289 276.92083740234375 77.76129913330078 283.58544921875 78.0236587524414 288.16156005859375 C 71.32286834716797 289.14495849609375 66.40190887451172 286.8548583984375 61.792720794677734 281.72064208984375 C 61.4286994934082 280.23004150390625 60.04106903076172 278.91815185546875 58.87834930419922 278.29840087890625 C 66.16975402832031 271.2315368652344 73.63726043701172 266.81689453125 75.07484436035156 265.7218017578125 C 68.95716857910156 270.448974609375 68.85974884033203 265.0340881347656 70.05744934082031 260.43170166015625 C 69.86737060546875 260.6963806152344 70.24808502197266 256.4271545410156 66.40087127685547 230.55873107910156 C 91.99867248535156 212.44615173339844 92.84402465820312 211.54122924804688 94.04217529296875 202.37722778320312 C 97.96952819824219 191.4903106689453 101.74958038330078 181.4654083251953 104.9481201171875 170.72164916992188 C 120.28738403320312 156.1798858642578 128.7718505859375 148.63726806640625 134.3619842529297 144.2039031982422 C 141.57823181152344 138.4554901123047 145.6600341796875 133.9491424560547 149.2140655517578 131.06085205078125 C 150.928955078125 129.0467529296875 170.58978271484375 96.27583312988281 179.19131469726562 102.04972839355469 C 183.73817443847656 102.25811767578125 185.73667907714844 104.15458679199219 187.80316162109375 105.6983413696289 C 188.494873046875 106.3885498046875 194.73072814941406 108.26792907714844 192.47378540039062 106.58045196533203 C 187.8920440673828 110.9854965209961 199.48141479492188 112.16309356689453 197.0437469482422 120.3510513305664 C 196.4698486328125 121.27058410644531 209.2266082763672 131.81320190429688 222.48170471191406 133.4801483154297 C 218.49200439453125 151.6453857421875 214.4891357421875 161.55133056640625 219.1600799560547 148.67201232910156 C 223.18885803222656 133.97018432617188 213.3745880126953 174.12179565429688 197.21075439453125 208.27377319335938 C 145.72059631347656 201.17349243164062 150.86766052246094 195.10214233398438 147.53884887695312 199.35853576660156 C 126.11140441894531 248.00473022460938 123.34615325927734 251.21701049804688 152.4318389892578 288.4847106933594 C 174.40797424316406 282.1230773925781 178.8060760498047 244.71142578125 185.31427001953125 232.95632934570312 C 189.96754455566406 220.23992919921875 195.046875 208.19741821289062 196.95989990234375 204.01271057128906 C 200.24441528320312 195.9748077392578 205.9866943359375 178.43507385253906 207.3908233642578 177.57827758789062 C 210.71958923339844 166.62261962890625 221.87290954589844 137.95986938476562 220.65402221679688 134.98385620117188 C 213.64697265625 126.92584991455078 208.8415985107422 132.04476928710938 255.23492431640625 158.158935546875 C 275.0757141113281 142.05853271484375 263.3902893066406 112.10055541992188 262.4154968261719 97.67472839355469 C 267.3048095703125 94.7923583984375 263.41259765625 93.43119812011719 270.30487060546875 92.90292358398438 C 272.45849609375 94.11128234863281 280.8389587402344 103.74312591552734 266.8640441894531 92.82801818847656 C 274.8358154296875 93.56280517578125 282.3263854980469 95.50328063964844 287.7890625 99.30147552490234 C 326.163330078125 82.53627014160156 334.0878601074219 115.97023010253906 307.1364440917969 116.18651580810547 C 290.4449768066406 123.96391296386719 286.6131896972656 130.5039825439453 283.7366027832031 145.94290161132812 C 276.0722961425781 188.20635986328125 242.42784118652344 179.21630859375 242.85568237304688 181.9278564453125 C 242.0930938720703 200.6118927001953 240.17050170898438 209.1554412841797 239.7350616455078 216.80453491210938 C 238.47293090820312 224.8819580078125 238.52410888671875 229.85113525390625 239.56959533691406 234.43222045898438 C 244.98529052734375 244.01321411132812 242.6333465576172 257.3856201171875 245.2248077392578 266.2743835449219 C 247.3898468017578 274.88226318359375 250.88711547851562 280.89337158203125 262.2277526855469 286.7804260253906 C 249.64743041992188 292.7347717285156 242.30447387695312 290.39727783203125 239.84024047851562 290.2124328613281 C 232.46710205078125 284.2348937988281 226.60498046875 285.5011291503906 212.26028442382812 285.322998046875 C 194.1790008544922 284.77935791015625 220.11395263671875 286.04034423828125 220.31375122070312 285.7735900878906 C 225.46327209472656 287.79010009765625 233.37600708007812 290.4854431152344 240.68984985351562 283.03125 C 249.33447265625 282.93408203125 236.1294403076172 257.26287841796875 227.9592742919922 246.4227752685547 C 228.112548828125 239.8328399658203 229.43081665039062 237.0838165283203 229.1881103515625 234.0189208984375 C 227.92918395996094 227.4230499267578 226.3194580078125 219.585205078125 221.60243225097656 206.9249267578125 C 221.30931091308594 203.258544921875 233.13143920898438 177.70408630371094 239.5272216796875 146.07579040527344 C 241.869384765625 139.61544799804688 242.86279296875 150.2414093017578 239.43673706054688 138.78253173828125 C 237.7501220703125 145.70748901367188 234.18980407714844 166.25149536132812 232.5753173828125 161.43106079101562 C 237.31832885742188 154.85275268554688 246.2132110595703 114.87123107910156 246.13211059570312 128.11180114746094 C 233.46762084960938 163.8827362060547 230.36276245117188 179.96461486816406 221.13815307617188 203.52444458007812 C 211.97573852539062 197.89601135253906 210.94508361816406 203.66378784179688 211.60391235351562 213.09539794921875 C 198.7563934326172 222.91189575195312 195.8588409423828 234.69650268554688 198.67758178710938 246.51759338378906 C 167.4801483154297 269.7365417480469 174.25357055664062 282.4586181640625 185.44297790527344 292.31072998046875 C 189.92034912109375 286.08807373046875 182.7243194580078 270.507568359375 189.19815063476562 290.9543762207031" stroke-width="0.0" fill="rgb(0, 0, 0)" opacity="1.0" stroke="rgb(0, 0, 0)" stroke-opacity="1" stroke-linecap="round" stroke-linejoin="round"/>
  </g>
</svg>
