<?xml version="1.0" ?>
<svg xmlns="http://www.w3.org/2000/svg" version="1.1" width="320" height="320">
  <defs/>
  <g>
    <path d="M 179.9456787109375 251.0616455078125 C 173.931640625 256.57232666015625 170.58047485351562 255.5861053466797 168.92367553710938 251.4840545654297 C 170.71800231933594 256.35797119140625 175.1533203125 253.23281860351562 169.4442596435547 255.2182159423828 C 161.4958953857422 255.40121459960938 147.96197509765625 257.2658996582031 141.3592071533203 252.5562286376953 C 140.32424926757812 255.01651000976562 140.06259155273438 255.55625915527344 139.06201171875 257.11676025390625 C 140.01345825195312 254.74008178710938 140.148681640625 253.83103942871094 141.06300354003906 252.56626892089844 C 142.54013061523438 250.03366088867188 143.16790771484375 248.2354278564453 145.9530029296875 246.98316955566406 C 150.16754150390625 247.20042419433594 151.7342529296875 243.5672149658203 152.61192321777344 241.31881713867188 C 153.33651733398438 237.901123046875 159.25131225585938 234.61346435546875 151.29827880859375 239.69541931152344 C 153.7974395751953 233.12747192382812 130.90745544433594 220.71035766601562 137.52374267578125 211.56008911132812 C 133.74998474121094 175.8853302001953 133.3661651611328 173.61569213867188 128.34815979003906 108.87364959716797 C 123.6246109008789 114.705810546875 122.64321899414062 137.54078674316406 135.42300415039062 123.34668731689453 C 147.5902099609375 109.89749145507812 148.1949920654297 104.37928009033203 147.0650634765625 110.42330169677734 C 143.73123168945312 112.45040893554688 144.05584716796875 112.00125122070312 133.04965209960938 125.79109954833984 C 126.00857543945312 128.9071502685547 124.2836685180664 129.62413024902344 135.65078735351562 185.51666259765625 C 100.52091979980469 125.62788391113281 111.73353576660156 152.04551696777344 106.90654754638672 184.76840209960938 C 88.9144058227539 181.59793090820312 87.74777221679688 187.8649139404297 74.16375732421875 210.8533935546875 C 71.86993408203125 227.2098388671875 73.1517562866211 233.68209838867188 73.20821380615234 233.47280883789062 C 76.64300537109375 241.20565795898438 80.0436782836914 247.44386291503906 81.89280700683594 250.0107421875 C 79.22552490234375 251.95901489257812 76.61820220947266 252.733642578125 72.56149291992188 253.10549926757812 C 71.72880554199219 252.74392700195312 70.24251556396484 253.20616149902344 67.73350524902344 253.28355407714844 C 67.15585327148438 250.23574829101562 68.1093521118164 243.0526580810547 68.11924743652344 241.52845764160156 C 67.89132690429688 238.31463623046875 67.04473114013672 235.21253967285156 66.42573547363281 232.91885375976562 C 66.86470031738281 229.3433837890625 66.9630355834961 226.14971923828125 62.239437103271484 203.1409149169922 C 79.7313461303711 182.66372680664062 80.62493133544922 181.132080078125 79.92527770996094 168.8238067626953 C 85.66663360595703 159.6663360595703 89.32386016845703 150.23109436035156 93.9261474609375 136.51416015625 C 104.00175476074219 124.49283599853516 120.0127944946289 113.49456024169922 123.60297393798828 109.32356262207031 C 130.21090698242188 102.46112060546875 134.46286010742188 99.89749908447266 138.06546020507812 97.75877380371094 C 140.06932067871094 95.69142150878906 161.8859405517578 62.78315734863281 169.1166534423828 67.688232421875 C 173.2805938720703 68.16453552246094 175.3157958984375 69.38187408447266 178.1591796875 70.90386962890625 C 179.67713928222656 72.23539733886719 184.03955078125 72.36780548095703 185.84304809570312 74.76078796386719 C 182.16986083984375 80.184814453125 192.02784729003906 81.16422271728516 190.00599670410156 92.31410217285156 C 193.06236267089844 91.43653869628906 206.3883514404297 99.76673889160156 213.60401916503906 98.81822967529297 C 210.2361602783203 115.32975006103516 208.5463409423828 118.78182220458984 203.5544891357422 134.40748596191406 C 212.2710723876953 113.59683227539062 199.24420166015625 147.6810760498047 188.0106658935547 175.4942169189453 C 145.45086669921875 163.8678741455078 151.20339965820312 167.83738708496094 150.8193817138672 176.14947509765625 C 148.73928833007812 211.80807495117188 147.80747985839844 216.4320831298828 154.2657470703125 238.47531127929688 C 158.0621795654297 235.43186950683594 163.652587890625 207.67845153808594 170.92271423339844 198.9745635986328 C 176.9961700439453 188.1510772705078 182.4549560546875 177.73683166503906 188.75099182128906 172.24302673339844 C 193.0725860595703 165.94271850585938 199.60052490234375 151.30345153808594 199.97540283203125 150.9918670654297 C 203.6175994873047 138.75326538085938 213.8077392578125 110.79212188720703 211.81222534179688 106.64376831054688 C 203.95228576660156 95.67118835449219 199.09840393066406 98.81885528564453 242.52532958984375 122.82099914550781 C 252.30267333984375 111.6819076538086 242.4978790283203 75.93588256835938 242.96240234375 63.58722686767578 C 246.9366455078125 61.522361755371094 243.79696655273438 60.33747100830078 249.56996154785156 59.90809631347656 C 251.70570373535156 60.456764221191406 262.1119384765625 68.45177459716797 248.19247436523438 61.55402374267578 C 255.0301055908203 61.433876037597656 261.4780578613281 62.296852111816406 265.809814453125 65.30075073242188 C 299.5469665527344 58.59307098388672 301.3959655761719 83.61161041259766 285.1358337402344 81.79034423828125 C 268.32275390625 86.7718505859375 265.5654602050781 96.31529235839844 267.1471862792969 117.53079223632812 C 266.3290100097656 158.0015869140625 231.68136596679688 147.60702514648438 231.84103393554688 147.49740600585938 C 230.73519897460938 181.31785583496094 230.1746826171875 185.47744750976562 231.50482177734375 191.07986450195312 C 232.45269775390625 196.249755859375 235.43637084960938 202.9944305419922 237.4086456298828 209.504150390625 C 235.6217041015625 216.8107147216797 235.58665466308594 228.60093688964844 240.80361938476562 239.44158935546875 C 241.6613006591797 242.9015350341797 245.1514434814453 246.41307067871094 258.4177551269531 249.73448181152344 C 246.8714599609375 257.9032287597656 239.34317016601562 256.7978515625 238.78384399414062 256.8064880371094 C 229.84332275390625 254.53407287597656 223.6162872314453 254.93702697753906 213.97634887695312 252.4374237060547 C 200.60150146484375 254.22215270996094 212.69183349609375 255.4482879638672 218.25086975097656 254.42494201660156 C 220.04925537109375 253.45184326171875 221.26573181152344 253.27197265625 232.4588165283203 250.18841552734375 C 237.70933532714844 254.04879760742188 232.82345581054688 234.88299560546875 230.53550720214844 223.65634155273438 C 221.5454559326172 209.93743896484375 221.4442901611328 210.2592010498047 221.7672882080078 208.28701782226562 C 221.7600555419922 200.97427368164062 220.04066467285156 193.80120849609375 220.29598999023438 185.7528839111328 C 222.49391174316406 188.0320281982422 228.00584411621094 147.58840942382812 231.0959014892578 121.58124542236328 C 232.44874572753906 117.95360565185547 236.45974731445312 124.72730255126953 231.96238708496094 118.4775619506836 C 231.37205505371094 114.84770965576172 229.0072021484375 128.69033813476562 229.6646270751953 129.15330505371094 C 225.99778747558594 131.83642578125 238.52781677246094 90.01377868652344 235.202392578125 100.58783721923828 C 224.8380584716797 131.9212646484375 228.4252166748047 148.85543823242188 229.20196533203125 187.3405303955078 C 200.65370178222656 167.3773956298828 198.24378967285156 173.74896240234375 193.8837432861328 183.61639404296875 C 184.68896484375 191.5346221923828 180.42922973632812 202.08062744140625 180.75958251953125 211.5800018310547 C 159.94923400878906 236.7914581298828 159.7333984375 239.4873504638672 161.82362365722656 243.01100158691406 C 168.2361297607422 258.80352783203125 165.79550170898438 242.1944122314453 179.9456787109375 251.0616455078125" stroke-width="0.0" fill="rgb(0, 0, 0)" opacity="1.0" stroke="rgb(0, 0, 0)" stroke-opacity="1" stroke-linecap="round" stroke-linejoin="round"/>
  </g>
</svg>
