<?xml version="1.0" ?>
<svg xmlns="http://www.w3.org/2000/svg" version="1.1" width="320" height="320">
  <defs/>
  <g>
    <path d="M 175.87606811523438 252.5036163330078 C 169.61651611328125 255.58956909179688 166.9654998779297 254.61585998535156 165.71058654785156 250.42921447753906 C 166.7871551513672 255.32327270507812 172.343505859375 253.573974609375 167.49583435058594 254.78404235839844 C 160.10427856445312 254.80152893066406 146.53395080566406 256.1051330566406 140.73974609375 251.51760864257812 C 139.6127471923828 254.27322387695312 139.23956298828125 255.28921508789062 137.93756103515625 258.1158142089844 C 138.9406280517578 255.4954833984375 139.19117736816406 254.04156494140625 139.98370361328125 252.5699920654297 C 141.22425842285156 249.93763732910156 141.77728271484375 248.68826293945312 144.81591796875 247.40933227539062 C 148.82937622070312 247.9024658203125 150.21859741210938 244.09017944335938 153.7608642578125 242.59283447265625 C 154.54981994628906 239.28004455566406 157.65408325195312 236.27227783203125 146.491455078125 248.9359588623047 C 146.32810974121094 244.41928100585938 120.65216064453125 222.27870178222656 126.77564239501953 208.67230224609375 C 128.86932373046875 173.36105346679688 128.25311279296875 170.7765350341797 127.99140167236328 106.71821594238281 C 120.8834228515625 117.29105377197266 120.33468627929688 136.83840942382812 133.4790496826172 118.35514068603516 C 145.06298828125 105.80245971679688 145.46261596679688 104.50314331054688 145.4917449951172 103.64529418945312 C 141.5988006591797 107.854736328125 138.24159240722656 113.90962219238281 129.09622192382812 124.60713195800781 C 121.53642272949219 129.30799865722656 119.44525146484375 130.65048217773438 129.327392578125 178.42974853515625 C 106.59178161621094 123.48987579345703 116.02232360839844 150.5137176513672 112.70884704589844 177.75689697265625 C 91.41163635253906 181.61865234375 89.90530395507812 189.3755340576172 80.85191345214844 210.8272247314453 C 75.3147964477539 226.5260009765625 74.6424331665039 234.30894470214844 75.13385772705078 232.8194580078125 C 74.58304595947266 242.6011505126953 75.01537322998047 246.55218505859375 75.58605194091797 249.330078125 C 72.43809509277344 250.14404296875 72.69132995605469 251.26889038085938 67.34379577636719 252.43226623535156 C 66.55464172363281 252.91876220703125 64.5789566040039 253.3677215576172 62.64771270751953 252.9525146484375 C 61.967681884765625 248.76104736328125 64.2191390991211 242.47845458984375 65.00971984863281 239.7594451904297 C 66.37779998779297 235.3436279296875 67.18753814697266 230.92677307128906 66.57256317138672 233.15988159179688 C 68.11924743652344 227.6512451171875 69.67684936523438 223.3720703125 71.97560119628906 204.8937225341797 C 80.87361145019531 185.86729431152344 83.67776489257812 181.32281494140625 85.47978210449219 174.6475067138672 C 88.45311737060547 160.80406188964844 91.16580963134766 149.36839294433594 94.25588989257812 136.88038635253906 C 102.54835510253906 122.96871948242188 110.09640502929688 112.01850891113281 115.85808563232422 107.26131439208984 C 123.26720428466797 102.33891296386719 129.98313903808594 96.95206451416016 134.8694610595703 93.3115463256836 C 138.35916137695312 89.20429992675781 155.73641967773438 65.32748413085938 162.40321350097656 66.32443237304688 C 166.90420532226562 64.82514190673828 171.77674865722656 66.27146911621094 175.44940185546875 66.99354553222656 C 178.25889587402344 69.46885681152344 183.50933837890625 69.8908462524414 185.2211151123047 72.94445037841797 C 185.97840881347656 72.9269790649414 192.11944580078125 76.21641540527344 187.21551513671875 89.39472198486328 C 193.5594024658203 88.41925811767578 207.09934997558594 92.54737091064453 209.23475646972656 94.7469253540039 C 204.11605834960938 112.87007141113281 201.4458770751953 116.88047790527344 196.6532440185547 130.2639617919922 C 203.94674682617188 111.39776611328125 190.56822204589844 141.87704467773438 180.5337677001953 170.0235137939453 C 144.07119750976562 158.25167846679688 151.2550048828125 163.65902709960938 149.59877014160156 174.5265350341797 C 141.77731323242188 210.82418823242188 139.562744140625 217.41700744628906 152.83621215820312 243.0507049560547 C 165.02203369140625 237.34478759765625 175.3287353515625 215.2650909423828 179.4407958984375 206.19805908203125 C 182.85023498535156 194.1145477294922 184.95399475097656 182.2653045654297 186.9816131591797 174.259033203125 C 186.9821319580078 164.18382263183594 192.75482177734375 144.70745849609375 193.32115173339844 144.3236083984375 C 197.46035766601562 131.08786010742188 209.48519897460938 108.9875717163086 208.99942016601562 106.93775939941406 C 201.26170349121094 97.9498062133789 205.64263916015625 94.60343933105469 241.53843688964844 119.81404876708984 C 254.31771850585938 106.09817504882812 247.42861938476562 76.69734954833984 248.22677612304688 65.38959503173828 C 250.9757843017578 63.12125778198242 246.4201202392578 61.77660369873047 250.88397216796875 60.92913055419922 C 253.44822692871094 62.09962463378906 264.8311767578125 72.4832763671875 249.40281677246094 61.12448501586914 C 256.7202453613281 60.819393157958984 265.5385437011719 61.99911880493164 268.61944580078125 63.56884765625 C 294.5381774902344 63.67262649536133 291.0181579589844 79.54463958740234 279.7370910644531 77.31808471679688 C 272.140380859375 89.04247283935547 266.6785888671875 102.8321533203125 263.8394775390625 118.38203430175781 C 260.5710144042969 150.55433654785156 233.6193389892578 145.18438720703125 234.4108123779297 147.285400390625 C 234.175537109375 167.19296264648438 233.32049560546875 178.73895263671875 232.75856018066406 189.46095275878906 C 234.13613891601562 199.2922821044922 234.99717712402344 206.76112365722656 232.81973266601562 213.5780792236328 C 231.59022521972656 219.99099731445312 231.15615844726562 234.87449645996094 233.44976806640625 243.26614379882812 C 231.87120056152344 242.89614868164062 235.7348175048828 245.4443359375 248.88327026367188 246.08273315429688 C 238.75909423828125 255.19932556152344 231.6475067138672 255.9262237548828 231.42807006835938 255.89251708984375 C 223.20419311523438 255.18362426757812 216.90487670898438 255.91238403320312 208.05026245117188 253.32626342773438 C 195.2699432373047 252.92628479003906 207.15380859375 253.95143127441406 211.29592895507812 252.38369750976562 C 213.5135955810547 250.9122314453125 215.72686767578125 249.77658081054688 223.8391571044922 247.2183074951172 C 227.3505096435547 250.53976440429688 221.08505249023438 238.78359985351562 221.3358154296875 227.3541717529297 C 218.4088134765625 214.61053466796875 218.8114471435547 213.78424072265625 218.42318725585938 209.20223999023438 C 218.6987762451172 201.64356994628906 219.49252319335938 191.9044952392578 219.0191192626953 178.95533752441406 C 215.74252319335938 172.7234344482422 222.17727661132812 144.02049255371094 228.4648895263672 120.01366424560547 C 229.91822814941406 116.21317291259766 233.26519775390625 122.92430877685547 229.71456909179688 118.18018341064453 C 229.0795135498047 114.87867736816406 227.18048095703125 128.85130310058594 226.28482055664062 125.38523864746094 C 223.00685119628906 127.28968048095703 235.147216796875 92.96697998046875 231.65652465820312 104.22074127197266 C 219.6186981201172 129.90838623046875 219.17478942871094 144.7842254638672 216.6976318359375 177.58775329589844 C 199.2588653564453 164.7489471435547 198.36851501464844 172.09042358398438 198.29348754882812 183.12112426757812 C 191.0674591064453 194.85618591308594 191.68649291992188 206.27227783203125 193.45187377929688 216.23599243164062 C 165.48568725585938 238.05499267578125 165.58502197265625 243.0658721923828 168.74130249023438 247.12954711914062 C 173.8336181640625 259.94854736328125 165.9032745361328 241.03758239746094 175.87606811523438 252.5036163330078" stroke-width="0.0" fill="rgb(0, 0, 0)" opacity="1.0" stroke="rgb(0, 0, 0)" stroke-opacity="1" stroke-linecap="round" stroke-linejoin="round"/>
  </g>
</svg>
