<?xml version="1.0" ?>
<svg xmlns="http://www.w3.org/2000/svg" version="1.1" width="320" height="320">
  <defs/>
  <g>
    <path d="M 189.7086639404297 286.45245361328125 C 181.3925323486328 286.6568908691406 179.9496307373047 285.5772705078125 180.00390625 280.72943115234375 C 179.45211791992188 286.65350341796875 188.87767028808594 287.96148681640625 183.49212646484375 287.863037109375 C 175.52703857421875 287.05743408203125 161.27359008789062 288.9696044921875 155.39581298828125 284.03802490234375 C 154.1083221435547 283.6183166503906 148.08425903320312 281.4642028808594 147.66722106933594 286.83807373046875 C 151.1594696044922 284.9790344238281 149.09535217285156 282.0086364746094 148.79159545898438 277.2650146484375 C 151.4259033203125 275.4516906738281 149.96653747558594 273.9794616699219 150.80813598632812 272.0196533203125 C 154.19107055664062 266.4924621582031 155.83602905273438 264.12060546875 158.73861694335938 261.37701416015625 C 158.27059936523438 258.88458251953125 163.54443359375 253.13912963867188 147.59764099121094 276.6203918457031 C 139.17459106445312 281.1054992675781 102.1796646118164 244.17901611328125 114.33534240722656 233.1592254638672 C 143.42190551757812 192.52066040039062 144.1475372314453 195.21153259277344 141.98931884765625 137.04132080078125 C 137.1302947998047 144.5006866455078 136.84625244140625 167.39158630371094 150.14324951171875 149.06459045410156 C 163.4012451171875 137.84925842285156 163.30282592773438 131.61119079589844 161.2848358154297 138.04421997070312 C 157.60565185546875 140.23419189453125 158.19874572753906 139.37454223632812 145.61260986328125 153.88827514648438 C 138.84552001953125 156.9346160888672 133.722900390625 158.54257202148438 149.0318603515625 219.21099853515625 C 126.73270416259766 134.90953063964844 147.15060424804688 184.6768341064453 146.59259033203125 208.72799682617188 C 116.27381896972656 210.140380859375 110.88148498535156 217.2026824951172 92.80546569824219 234.75418090820312 C 96.10159301757812 255.09701538085938 111.33457946777344 270.4896240234375 109.89024353027344 272.7752990722656 C 103.62823486328125 285.4261474609375 96.90753173828125 285.16357421875 88.10905456542969 280.87164306640625 C 91.94255828857422 272.8661804199219 87.33494567871094 271.4174499511719 85.49072265625 270.4932861328125 C 84.7505111694336 269.9729309082031 82.2916030883789 270.7687683105469 79.62036895751953 270.32965087890625 C 92.40962982177734 268.09649658203125 90.00172424316406 277.3659973144531 97.0352783203125 269.521484375 C 90.6947250366211 271.43408203125 92.75309753417969 263.794677734375 95.58295440673828 255.94088745117188 C 93.10780334472656 257.4819641113281 92.40188598632812 255.57131958007812 76.40562438964844 225.0033721923828 C 104.46388244628906 208.62158203125 107.770263671875 206.70516967773438 110.18824768066406 200.60116577148438 C 110.24726867675781 193.99740600585938 111.12434387207031 186.37457275390625 109.35185241699219 165.06387329101562 C 124.14972686767578 151.2384490966797 134.05535888671875 143.6446990966797 138.78001403808594 138.55323791503906 C 146.14324951171875 131.34823608398438 150.02423095703125 129.08456420898438 153.70680236816406 126.691162109375 C 155.39068603515625 124.60675048828125 176.35079956054688 91.64686584472656 183.8934783935547 96.8869857788086 C 188.441650390625 97.16300964355469 190.04177856445312 98.62136840820312 191.91017150878906 99.87228393554688 C 192.69544982910156 100.57537841796875 197.359375 101.04267883300781 198.661376953125 103.02151489257812 C 194.8602752685547 107.6644287109375 206.61488342285156 107.9464111328125 203.48907470703125 120.69404602050781 C 208.12686157226562 119.53895568847656 217.94406127929688 127.11544799804688 227.13223266601562 127.43262481689453 C 222.89822387695312 142.34422302246094 220.58685302734375 145.84921264648438 215.18858337402344 162.44342041015625 C 224.58834838867188 135.93722534179688 210.63987731933594 167.7421417236328 201.56105041503906 206.2845458984375 C 150.01844787597656 190.99668884277344 152.7179718017578 193.3744659423828 150.01771545410156 197.0199432373047 C 124.82466125488281 242.08258056640625 122.95243835449219 244.23248291015625 139.52001953125 286.4143371582031 C 179.9175567626953 273.3480224609375 198.70416259765625 244.90724182128906 200.1842041015625 235.837646484375 C 200.9791717529297 223.54794311523438 201.71014404296875 208.5966033935547 201.1218719482422 205.3538818359375 C 198.771484375 194.1929168701172 208.4823455810547 179.58453369140625 211.3403778076172 176.6953125 C 215.60140991210938 164.28599548339844 227.0896759033203 136.6811981201172 224.75184631347656 133.3682403564453 C 216.7272186279297 122.53176879882812 211.64630126953125 126.87908935546875 261.26690673828125 153.20826721191406 C 279.26312255859375 136.24099731445312 267.8697509765625 105.86682891845703 266.4626770019531 93.70307159423828 C 270.48040771484375 90.62745666503906 268.0916748046875 90.08622741699219 273.6221618652344 89.9983901977539 C 274.9891662597656 90.47953796386719 281.8815612792969 99.29667663574219 273.1875305175781 92.92803955078125 C 278.123779296875 92.12060546875 286.59515380859375 92.26719665527344 291.8511047363281 96.09661865234375 C 328.23663330078125 78.38557434082031 337.5400085449219 110.48155212402344 310.6082458496094 111.9129409790039 C 296.9879150390625 120.8442153930664 292.9649963378906 127.78838348388672 289.1912841796875 144.2765350341797 C 281.7735595703125 185.65402221679688 245.66429138183594 173.53504943847656 246.3689727783203 175.4827423095703 C 240.91062927246094 204.9220428466797 237.96127319335938 212.33474731445312 237.39697265625 220.06707763671875 C 235.72222900390625 226.84469604492188 235.89907836914062 231.1232147216797 239.49119567871094 240.4359893798828 C 237.66799926757812 247.8669891357422 236.9475555419922 258.8792724609375 240.59300231933594 267.49298095703125 C 241.74525451660156 272.778076171875 244.2194061279297 277.8162536621094 253.9717254638672 281.8434143066406 C 244.3778076171875 287.0962219238281 238.24949645996094 287.0597229003906 234.13209533691406 286.9937438964844 C 227.00445556640625 283.59429931640625 223.61788940429688 283.6471252441406 214.5176239013672 282.8619079589844 C 201.06163024902344 282.0438537597656 220.342041015625 281.45123291015625 221.9957275390625 280.6904602050781 C 225.36537170410156 281.5072326660156 229.75216674804688 283.1080017089844 235.57569885253906 277.2133483886719 C 243.2470703125 275.6441650390625 232.61553955078125 257.6844482421875 224.88858032226562 246.5580291748047 C 221.17843627929688 240.93516540527344 224.90171813964844 236.89071655273438 225.69032287597656 234.9453582763672 C 225.69976806640625 228.34727478027344 225.1772918701172 220.60304260253906 225.27137756347656 210.1337432861328 C 225.04054260253906 207.7915802001953 237.3859405517578 172.70285034179688 243.063232421875 141.6182098388672 C 244.31422424316406 137.6199951171875 247.50852966308594 147.2069091796875 242.87733459472656 139.7273406982422 C 242.46080017089844 136.3942413330078 238.1538543701172 162.2496337890625 237.02532958984375 159.3372344970703 C 241.18614196777344 154.8807830810547 250.72389221191406 114.91754150390625 248.4286651611328 123.98574829101562 C 235.92652893066406 159.04489135742188 235.0561981201172 176.5670623779297 227.30831909179688 205.62802124023438 C 211.4742431640625 194.92637634277344 210.74879455566406 198.7120819091797 223.69784545898438 204.9750213623047 C 211.7268524169922 223.1750030517578 214.2677764892578 234.4344482421875 217.21661376953125 250.22100830078125 C 176.30677795410156 260.44970703125 178.0127716064453 286.4695129394531 182.1312713623047 289.59197998046875 C 192.0786590576172 280.7198486328125 185.45974731445312 267.1845397949219 189.7086639404297 286.45245361328125" stroke-width="0.0" fill="rgb(0, 0, 0)" opacity="1.0" stroke="rgb(0, 0, 0)" stroke-opacity="1" stroke-linecap="round" stroke-linejoin="round"/>
  </g>
</svg>
