<?xml version="1.0" ?>
<svg xmlns="http://www.w3.org/2000/svg" version="1.1" width="320" height="320">
  <defs/>
  <g>
    <path d="M 179.24559020996094 248.7858428955078 C 173.80186462402344 252.20648193359375 171.03355407714844 251.47325134277344 169.86700439453125 247.6206512451172 C 170.99420166015625 252.50381469726562 175.98878479003906 249.3911590576172 170.6026153564453 251.27865600585938 C 162.76443481445312 252.2329559326172 149.30160522460938 254.26654052734375 142.7606964111328 249.4607696533203 C 141.86122131347656 252.0450897216797 141.6378631591797 252.64373779296875 140.45477294921875 255.18490600585938 C 141.58241271972656 252.22332763671875 141.72727966308594 251.24395751953125 142.5399169921875 249.63575744628906 C 143.62191772460938 246.78868103027344 143.94993591308594 245.32968139648438 146.65829467773438 243.88331604003906 C 150.8524627685547 244.17991638183594 152.2443389892578 240.8199005126953 156.22348022460938 239.47776794433594 C 156.95814514160156 237.17852783203125 160.93788146972656 233.81785583496094 153.50770568847656 241.12890625 C 154.11422729492188 237.20706176757812 131.1544647216797 214.99072265625 136.83485412597656 207.21214294433594 C 135.49154663085938 171.83016967773438 134.7257080078125 169.17630004882812 130.64947509765625 105.70574951171875 C 126.20885467529297 112.03380584716797 125.00422668457031 134.5484161376953 136.68295288085938 119.41178131103516 C 149.0364227294922 105.70209503173828 149.38148498535156 102.82474517822266 149.07986450195312 105.4023666381836 C 147.52894592285156 106.89666748046875 144.51499938964844 112.53130340576172 132.81565856933594 124.31916809082031 C 125.15990447998047 127.9160385131836 127.07576751708984 127.40048217773438 136.4931640625 180.1552734375 C 107.4166488647461 121.77864074707031 124.07571411132812 151.64537048339844 121.9973373413086 183.22528076171875 C 94.69401550292969 183.29051208496094 89.75957489013672 187.51669311523438 75.50265502929688 203.1171875 C 74.51393127441406 224.0087127685547 76.2687759399414 229.563232421875 76.31564331054688 228.92881774902344 C 78.298095703125 237.37294006347656 79.30699157714844 242.20155334472656 81.54750061035156 245.2706298828125 C 78.59895324707031 247.66531372070312 75.82577514648438 248.720458984375 71.41510009765625 249.27345275878906 C 70.96452331542969 249.3009490966797 69.35415649414062 249.66986083984375 66.67608642578125 249.50723266601562 C 65.41458892822266 244.16033935546875 68.4227294921875 237.06346130371094 69.29470825195312 234.46559143066406 C 69.9632339477539 231.70460510253906 70.10554504394531 228.3948516845703 69.90509033203125 230.06507873535156 C 69.96065521240234 226.19949340820312 70.12201690673828 222.9236297607422 65.49716186523438 194.35902404785156 C 84.31343078613281 180.8356170654297 88.9552993774414 179.008056640625 91.90396118164062 175.61892700195312 C 95.9489517211914 163.7164306640625 97.39533233642578 152.3860321044922 98.17826843261719 133.90213012695312 C 105.80317687988281 122.19313049316406 119.22830963134766 111.19515228271484 123.39299011230469 107.04132843017578 C 131.58566284179688 100.81058502197266 136.15521240234375 96.35188293457031 140.91896057128906 93.62816619873047 C 143.16543579101562 91.3199691772461 163.84693908691406 58.810462951660156 170.07208251953125 62.52985763549805 C 175.2976837158203 62.78416442871094 177.68467712402344 63.93659973144531 181.1862335205078 65.591552734375 C 183.14495849609375 67.25619506835938 187.6185302734375 67.83592987060547 189.03036499023438 69.81250762939453 C 185.38279724121094 74.70539855957031 194.10845947265625 76.72256469726562 192.2801513671875 84.52848052978516 C 191.81007385253906 85.5093002319336 210.78564453125 93.01335906982422 215.2192840576172 92.14521026611328 C 211.0030059814453 109.48580169677734 208.46969604492188 114.45972442626953 203.343017578125 129.24319458007812 C 211.0548858642578 110.48979187011719 199.19937133789062 142.6269073486328 191.30825805664062 169.94647216796875 C 148.14743041992188 158.205810546875 154.1646728515625 162.09921264648438 153.2351837158203 172.4885711669922 C 146.5171661376953 208.36874389648438 145.23605346679688 212.2575225830078 158.5812225341797 236.546875 C 164.9767608642578 234.74893188476562 176.90748596191406 212.3289337158203 181.6399383544922 203.813720703125 C 185.0922088623047 191.9744415283203 188.1234893798828 178.9452667236328 191.5123748779297 170.6177215576172 C 194.36065673828125 162.21685791015625 200.08567810058594 147.04769897460938 200.28225708007812 146.8112335205078 C 203.1212921142578 135.35174560546875 213.82894897460938 106.9742202758789 213.47592163085938 100.07376861572266 C 208.13851928710938 90.5143051147461 203.3645477294922 93.01276397705078 245.2578582763672 116.99485778808594 C 255.23878479003906 104.46037292480469 246.4197540283203 71.51216888427734 246.8872833251953 59.95783615112305 C 250.292236328125 57.63529586791992 247.06007385253906 56.117671966552734 252.66224670410156 55.83137512207031 C 255.68397521972656 56.89111328125 265.6579284667969 65.6255874633789 252.14266967773438 57.351505279541016 C 258.25482177734375 56.94143295288086 264.82373046875 57.63389205932617 268.6454162597656 59.69925308227539 C 299.6837463378906 54.9051628112793 301.187744140625 77.9734115600586 286.3480529785156 77.32856750488281 C 272.081787109375 82.44962310791016 268.5494689941406 94.11720275878906 269.2030944824219 114.71176147460938 C 267.4891357421875 151.36196899414062 235.65838623046875 142.09893798828125 236.20474243164062 142.76100158691406 C 235.2328643798828 175.3772430419922 233.69036865234375 181.33163452148438 233.772216796875 188.14610290527344 C 234.28921508789062 194.6841278076172 236.69309997558594 202.12945556640625 236.70350646972656 208.25477600097656 C 234.4574737548828 215.07745361328125 234.64804077148438 226.76609802246094 238.9090118408203 236.6942138671875 C 239.63818359375 239.35813903808594 242.91163635253906 242.3400115966797 256.71771240234375 244.3468780517578 C 245.27157592773438 253.04722595214844 238.08258056640625 252.82537841796875 237.71046447753906 252.837158203125 C 228.48745727539062 251.0558319091797 221.80459594726562 251.31150817871094 214.28530883789062 249.4056854248047 C 201.1316375732422 250.84878540039062 212.05999755859375 251.03097534179688 217.501220703125 249.1553192138672 C 219.12875366210938 248.25975036621094 220.09942626953125 248.05885314941406 229.37876892089844 244.8851776123047 C 234.3390350341797 248.01446533203125 230.2666473388672 233.67388916015625 230.096435546875 220.87405395507812 C 222.70858764648438 208.1654815673828 222.49391174316406 208.62582397460938 222.8709716796875 205.88546752929688 C 223.3605194091797 198.56211853027344 222.23988342285156 190.1167755126953 223.7047576904297 179.8247833251953 C 224.7703094482422 181.14793395996094 230.177734375 142.44338989257812 231.59445190429688 117.65762329101562 C 233.13870239257812 113.34538269042969 236.56846618652344 120.67964172363281 233.14801025390625 115.94747924804688 C 232.3956298828125 112.79949951171875 231.4386749267578 126.56363677978516 230.37974548339844 124.512939453125 C 227.6622314453125 126.75440216064453 240.62147521972656 87.82916259765625 237.22206115722656 98.13618469238281 C 225.9031982421875 129.6759033203125 228.61892700195312 145.88177490234375 228.9320526123047 179.75022888183594 C 204.29217529296875 162.75698852539062 203.12413024902344 169.8504638671875 201.3682403564453 181.9919891357422 C 192.48226928710938 193.17138671875 191.99244689941406 203.89903259277344 194.56517028808594 214.68685913085938 C 165.4872283935547 235.87583923339844 165.0843505859375 237.9983367919922 168.09823608398438 242.532470703125 C 172.73912048339844 254.6726531982422 167.28228759765625 238.3207244873047 179.24559020996094 248.7858428955078" stroke-width="0.0" fill="rgb(0, 0, 0)" opacity="1.0" stroke="rgb(0, 0, 0)" stroke-opacity="1" stroke-linecap="round" stroke-linejoin="round"/>
  </g>
</svg>
