<?xml version="1.0" ?>
<svg xmlns="http://www.w3.org/2000/svg" version="1.1" width="320" height="320">
  <defs/>
  <g>
    <path d="M 181.2519073486328 255.397705078125 C 173.650390625 260.2170715332031 170.94290161132812 259.0215759277344 169.81622314453125 254.73013305664062 C 171.55503845214844 260.16827392578125 176.0463409423828 257.1794738769531 169.40794372558594 259.08758544921875 C 161.31173706054688 259.54010009765625 146.89781188964844 260.7186279296875 141.60610961914062 256.068603515625 C 140.61953735351562 258.3077392578125 138.241455078125 257.3439636230469 136.6896514892578 259.27301025390625 C 137.53384399414062 257.3934020996094 140.87332153320312 257.189208984375 141.8595428466797 256.3580627441406 C 142.59458923339844 254.9962921142578 143.19569396972656 253.74314880371094 146.02098083496094 252.2437744140625 C 148.1421661376953 252.31338500976562 151.3216552734375 251.1674041748047 153.1219482421875 246.5621795654297 C 154.90467834472656 239.91744995117188 159.1280059814453 237.22955322265625 150.93392944335938 241.9661407470703 C 152.99407958984375 236.0193634033203 130.79244995117188 223.94898986816406 137.9999237060547 214.14639282226562 C 130.5487518310547 181.09532165527344 129.69290161132812 177.92137145996094 123.15271759033203 112.42906951904297 C 119.29930114746094 117.41094970703125 117.69430541992188 139.53065490722656 131.65338134765625 125.23135375976562 C 144.18402099609375 111.4873046875 144.9271697998047 107.3208236694336 143.9105224609375 112.57845306396484 C 141.37503051757812 114.10720825195312 141.67095947265625 113.72027587890625 130.8209228515625 127.35649108886719 C 121.79962921142578 130.78236389160156 120.22885131835938 131.24490356445312 131.84494018554688 189.4446563720703 C 94.51917266845703 127.41695404052734 105.92617797851562 152.15438842773438 100.30363464355469 184.58837890625 C 85.53288269042969 183.0218505859375 85.86882781982422 189.6781005859375 73.2034912109375 215.60020446777344 C 70.35794067382812 229.4251251220703 71.93324279785156 234.61636352539062 72.44283294677734 237.58290100097656 C 75.75812530517578 244.6197967529297 80.36907958984375 250.90711975097656 82.28790283203125 253.68966674804688 C 79.36019134521484 255.693359375 76.3742904663086 256.4772644042969 72.08158874511719 256.75274658203125 C 71.6581039428711 256.6713562011719 70.08342742919922 257.1013488769531 68.31072998046875 256.9629211425781 C 67.81619262695312 254.4912109375 68.3175048828125 246.79856872558594 68.26506042480469 245.52166748046875 C 67.537109375 242.17767333984375 66.5125503540039 239.04212951660156 66.03201293945312 236.08177185058594 C 65.42845916748047 232.1872100830078 65.26901245117188 228.58328247070312 60.69750213623047 208.45681762695312 C 76.95260620117188 185.21353149414062 77.47896575927734 183.9107208251953 74.24462127685547 170.5074462890625 C 80.21350860595703 159.86898803710938 83.62530517578125 150.16812133789062 88.2684097290039 137.00831604003906 C 100.13777160644531 125.28632354736328 117.30409240722656 114.29967498779297 121.28120422363281 110.15141296386719 C 127.29432678222656 104.11048126220703 131.28858947753906 101.48394775390625 134.3114776611328 99.54629516601562 C 136.38006591796875 97.25820922851562 158.13815307617188 65.64710235595703 165.53936767578125 71.27168273925781 C 169.14300537109375 71.98754119873047 171.3294677734375 73.22364807128906 173.89231872558594 75.47256469726562 C 175.1380157470703 76.46392822265625 179.22854614257812 76.65411376953125 180.6181640625 78.4584732055664 C 177.6354522705078 85.05469512939453 186.94076538085938 85.60707092285156 185.356689453125 94.66432189941406 C 184.45632934570312 96.68156433105469 203.71871948242188 105.34527587890625 208.62399291992188 103.57715606689453 C 206.52053833007812 118.51595306396484 205.0587921142578 121.62971496582031 199.41030883789062 136.85284423828125 C 209.5422821044922 114.99571228027344 195.40902709960938 148.80322265625 181.67779541015625 178.5851287841797 C 141.9510498046875 167.52593994140625 147.5636444091797 171.10923767089844 148.01788330078125 179.65293884277344 C 150.4056854248047 213.8798828125 149.30088806152344 219.7350311279297 154.0464324951172 241.723876953125 C 157.6863250732422 238.54959106445312 161.7771759033203 211.85751342773438 168.46392822265625 202.80210876464844 C 173.8203582763672 191.094970703125 178.6289520263672 180.54962158203125 183.6924285888672 175.02418518066406 C 187.5930938720703 168.91238403320312 195.00344848632812 152.22779846191406 195.6988983154297 151.71237182617188 C 200.78598022460938 140.61099243164062 209.3843231201172 114.74591064453125 208.18589782714844 112.4521484375 C 197.09246826171875 100.57669067382812 193.4744110107422 103.2697525024414 235.43350219726562 127.9389419555664 C 250.3199920654297 111.93755340576172 239.99266052246094 78.97459411621094 240.43658447265625 67.20660400390625 C 244.5354766845703 65.0456771850586 240.85691833496094 63.108436584472656 245.8695068359375 62.71039581298828 C 248.48756408691406 63.631813049316406 259.695068359375 72.62250518798828 245.64645385742188 64.89885711669922 C 252.435302734375 64.45637512207031 259.1752624511719 65.33515930175781 263.15240478515625 68.14008331298828 C 298.6267395019531 60.70623779296875 300.4669494628906 86.8345718383789 283.6278076171875 85.06127166748047 C 265.4632873535156 89.74910736083984 261.942626953125 100.44966125488281 262.4707336425781 119.12348937988281 C 261.7488708496094 162.90338134765625 226.38812255859375 151.43209838867188 226.67140197753906 150.9915008544922 C 225.21690368652344 185.39898681640625 225.32452392578125 188.86790466308594 227.8072052001953 194.458984375 C 229.35162353515625 199.60032653808594 232.32302856445312 205.1592559814453 235.46670532226562 210.4833984375 C 235.50372314453125 217.42813110351562 235.02603149414062 231.23036193847656 240.9507293701172 242.9086151123047 C 241.77272033691406 246.4988555908203 245.52810668945312 250.57803344726562 259.9769592285156 253.91217041015625 C 247.09461975097656 262.6114501953125 238.85885620117188 261.4541015625 237.8123321533203 261.3908996582031 C 228.65794372558594 257.75775146484375 221.5281524658203 257.828125 213.06326293945312 254.84793090820312 C 199.6413116455078 257.4947814941406 210.7429962158203 259.34820556640625 217.18646240234375 258.2901611328125 C 219.72254943847656 256.4140625 224.61378479003906 259.2128601074219 234.5120849609375 253.46917724609375 C 239.93565368652344 255.60470581054688 232.2559814453125 236.2926025390625 229.3958282470703 227.1156005859375 C 219.93377685546875 213.3786163330078 219.93336486816406 213.94070434570312 219.90438842773438 212.6649627685547 C 218.78872680664062 205.17520141601562 216.93699645996094 198.43235778808594 216.51380920410156 190.908447265625 C 217.16148376464844 191.70928955078125 222.62982177734375 151.1478271484375 227.3737335205078 124.01072692871094 C 228.400634765625 120.74054718017578 232.8521728515625 129.45257568359375 227.9384002685547 124.29358673095703 C 226.8087615966797 119.48413848876953 226.0290069580078 134.10324096679688 225.01708984375 132.3932342529297 C 222.72860717773438 134.5426788330078 235.10911560058594 91.63577270507812 231.73809814453125 103.70488739013672 C 220.60218811035156 134.1533660888672 223.97894287109375 152.47946166992188 222.13644409179688 192.0314483642578 C 195.0867462158203 170.5706787109375 193.12940979003906 176.3690948486328 189.90216064453125 185.91136169433594 C 181.77134704589844 193.7525634765625 178.09539794921875 205.32003784179688 178.56776428222656 215.27821350097656 C 159.28024291992188 239.45518493652344 159.33326721191406 241.9601287841797 161.61553955078125 244.72605895996094 C 168.7361297607422 263.4096374511719 166.9244842529297 246.06442260742188 181.2519073486328 255.397705078125" stroke-width="0.0" fill="rgb(0, 0, 0)" opacity="1.0" stroke="rgb(0, 0, 0)" stroke-opacity="1" stroke-linecap="round" stroke-linejoin="round"/>
  </g>
</svg>
