<?xml version="1.0" ?>
<svg xmlns="http://www.w3.org/2000/svg" version="1.1" width="320" height="320">
  <defs/>
  <g>
    <path d="M 184.63339233398438 256.10333251953125 C 175.7793426513672 260.8963623046875 172.61607360839844 259.3534240722656 171.37889099121094 254.51414489746094 C 172.8783416748047 260.4407043457031 177.90037536621094 257.9651184082031 170.27117919921875 259.4089660644531 C 161.2823486328125 259.15826416015625 147.6542510986328 259.6283264160156 142.28240966796875 254.9332733154297 C 140.94261169433594 258.11834716796875 137.85812377929688 256.89666748046875 135.94671630859375 261.50811767578125 C 137.6910400390625 258.194091796875 138.04287719726562 258.3426513671875 140.7618408203125 257.69671630859375 C 143.4869842529297 255.50857543945312 144.7803955078125 254.77655029296875 148.81591796875 255.02764892578125 C 150.1717071533203 255.95809936523438 154.42347717285156 251.03428649902344 156.44830322265625 247.34765625 C 157.92684936523438 239.48617553710938 161.23223876953125 237.07803344726562 153.0417022705078 241.6900634765625 C 155.7606964111328 235.118896484375 130.9470977783203 222.84483337402344 140.27549743652344 210.96604919433594 C 128.9646759033203 180.69114685058594 127.96805572509766 177.5515594482422 118.45916748046875 111.53675079345703 C 114.44938659667969 116.36456298828125 113.99063110351562 138.9157257080078 129.24365234375 123.32333374023438 C 141.56967163085938 109.34378051757812 142.0558319091797 105.46305084228516 141.02743530273438 111.76725769042969 C 138.84921264648438 113.22218322753906 139.2346954345703 112.6769790649414 127.84099578857422 126.2245864868164 C 118.13018798828125 129.38584899902344 116.25370788574219 129.8551788330078 129.92660522460938 188.8874053955078 C 89.60791778564453 126.49495697021484 103.35519409179688 150.9047393798828 98.2140121459961 182.31130981445312 C 85.46694946289062 183.25344848632812 86.01558685302734 189.89013671875 74.56205749511719 217.50827026367188 C 72.06168365478516 227.982177734375 74.13030242919922 233.45907592773438 74.70700073242188 236.64743041992188 C 78.1856460571289 243.95455932617188 83.04728698730469 250.69223022460938 84.81732940673828 253.524658203125 C 81.90744018554688 255.47946166992188 79.10977172851562 256.19171142578125 75.04027557373047 256.4312438964844 C 74.49576568603516 256.3133544921875 73.08222198486328 256.920166015625 71.38439178466797 257.0946960449219 C 70.73057556152344 254.4862823486328 70.67500305175781 246.71995544433594 70.51667785644531 244.79183959960938 C 69.79085540771484 241.56605529785156 68.64437103271484 238.59176635742188 67.7568130493164 235.5639190673828 C 66.8910903930664 231.4421844482422 66.13168334960938 227.70953369140625 61.35323715209961 209.96609497070312 C 77.1881332397461 186.1207733154297 77.75220489501953 184.58680725097656 72.82088470458984 170.77542114257812 C 77.64400482177734 159.7406768798828 80.16703033447266 149.2344207763672 83.94097137451172 135.1300811767578 C 96.9013900756836 121.83228302001953 113.7047119140625 111.23914337158203 117.84557342529297 107.09877014160156 C 123.44863891601562 101.64866638183594 127.15812683105469 99.2652587890625 130.2375030517578 97.44514465332031 C 132.6984100341797 94.7280502319336 153.59347534179688 63.58677673339844 161.4332275390625 70.30621337890625 C 167.04747009277344 71.9418716430664 169.7201385498047 73.96601104736328 173.13143920898438 76.52926635742188 C 174.40199279785156 77.66496276855469 177.15493774414062 77.5831069946289 178.048828125 78.93473052978516 C 174.5955352783203 86.0929183959961 183.40728759765625 86.52808380126953 181.81985473632812 95.37939453125 C 180.8064727783203 97.76138305664062 203.79945373535156 104.1019287109375 204.39370727539062 104.43048095703125 C 202.4992218017578 117.68950653076172 201.2458953857422 120.62162017822266 196.37428283691406 135.36810302734375 C 206.23150634765625 113.36181640625 191.9979248046875 147.5912322998047 179.47732543945312 178.29904174804688 C 140.9940185546875 167.1498565673828 147.3731689453125 171.13565063476562 148.314208984375 177.76083374023438 C 153.57855224609375 208.9575958251953 152.072265625 216.64962768554688 156.6489715576172 241.7076416015625 C 159.49327087402344 238.8395233154297 162.07852172851562 213.35586547851562 168.41635131835938 204.20904541015625 C 173.0917510986328 192.6770782470703 176.56544494628906 181.76771545410156 180.91505432128906 175.71334838867188 C 183.90892028808594 168.68319702148438 192.2085723876953 149.9738006591797 192.69866943359375 149.61587524414062 C 197.23867797851562 138.27798461914062 205.20530700683594 114.01970672607422 204.90235900878906 112.97813415527344 C 194.63052368164062 101.47563171386719 191.92047119140625 103.50984954833984 230.8772735595703 127.38451385498047 C 247.60189819335938 112.85862731933594 237.96958923339844 80.04834747314453 237.95632934570312 67.34357452392578 C 242.04757690429688 64.95823669433594 238.9479217529297 63.88716506958008 244.65225219726562 63.834877014160156 C 247.16714477539062 64.80553436279297 258.19488525390625 74.95885467529297 243.6809844970703 65.51697540283203 C 250.95025634765625 65.20711517333984 258.3457946777344 66.40795135498047 262.0546875 68.9941635131836 C 298.6693115234375 62.07725524902344 300.25653076171875 89.51952362060547 282.38720703125 85.91414642333984 C 263.55712890625 89.89604949951172 259.2081604003906 100.63603210449219 258.3232116699219 118.19596862792969 C 257.7138671875 161.01300048828125 222.18914794921875 150.99574279785156 222.45498657226562 150.59791564941406 C 221.64903259277344 187.47190856933594 222.3519287109375 189.88658142089844 226.31753540039062 195.1326446533203 C 229.00885009765625 200.217041015625 232.44178771972656 205.71546936035156 236.2251739501953 210.98292541503906 C 236.88491821289062 218.28228759765625 237.52906799316406 230.5410919189453 243.66766357421875 242.29725646972656 C 244.67596435546875 246.31639099121094 248.4156036376953 250.40298461914062 263.7706604003906 254.5009002685547 C 249.45892333984375 263.1429138183594 240.87681579589844 261.7323913574219 240.1922607421875 261.60064697265625 C 231.2204132080078 257.56072998046875 224.66317749023438 257.7696228027344 215.6324920654297 254.80630493164062 C 202.9246063232422 257.9320983886719 218.04791259765625 260.3634338378906 215.9832763671875 258.138916015625 C 219.65489196777344 255.54779052734375 228.79856872558594 259.9599609375 237.7994842529297 254.25030517578125 C 244.0081787109375 255.80746459960938 233.9485321044922 234.90325927734375 232.3781280517578 228.31178283691406 C 220.1814422607422 214.81732177734375 220.17393493652344 215.9070281982422 219.9991455078125 214.6330108642578 C 218.40736389160156 206.67343139648438 216.2352294921875 200.6126708984375 214.41378784179688 194.22581481933594 C 213.9748077392578 193.55938720703125 217.73155212402344 150.67861938476562 224.1600341796875 123.80642700195312 C 224.60079956054688 121.80382537841797 229.17987060546875 129.38568115234375 224.37513732910156 123.81798553466797 C 223.20196533203125 119.42725372314453 222.9099578857422 133.48558044433594 221.46505737304688 130.90060424804688 C 219.4622039794922 133.07723999023438 231.695068359375 91.75789642333984 229.1380157470703 102.6461181640625 C 218.2383575439453 133.62648010253906 220.1830291748047 150.75828552246094 218.3951416015625 192.77084350585938 C 192.17379760742188 170.6690216064453 190.43011474609375 175.9800567626953 188.31918334960938 185.8496551513672 C 180.86997985839844 194.7291259765625 177.92138671875 206.15040588378906 179.05543518066406 215.77915954589844 C 161.30978393554688 239.7346954345703 161.24803161621094 241.65386962890625 164.19668579101562 244.73944091796875 C 171.64004516601562 263.1907958984375 169.1935272216797 244.37342834472656 184.63339233398438 256.10333251953125" stroke-width="0.0" fill="rgb(0, 0, 0)" opacity="1.0" stroke="rgb(0, 0, 0)" stroke-opacity="1" stroke-linecap="round" stroke-linejoin="round"/>
  </g>
</svg>
