<?xml version="1.0" ?>
<svg xmlns="http://www.w3.org/2000/svg" version="1.1" width="320" height="320">
  <defs/>
  <g>
    <path d="M 188.23092651367188 254.25942993164062 C 178.77288818359375 259.9432678222656 174.78689575195312 257.25897216796875 174.15003967285156 252.41111755371094 C 174.7642364501953 259.19671630859375 180.96853637695312 255.8074188232422 172.9007568359375 257.2884216308594 C 163.72645568847656 256.9111022949219 148.74676513671875 257.4341735839844 142.2180633544922 252.1729736328125 C 140.54833984375 255.284423828125 139.24517822265625 258.8077697753906 138.66600036621094 256.592041015625 C 139.7997283935547 255.0604705810547 142.94898986816406 255.5978240966797 144.40411376953125 253.83538818359375 C 148.219970703125 255.463623046875 148.90480041503906 254.09666442871094 152.2069091796875 253.07351684570312 C 153.95335388183594 253.541259765625 157.612060546875 250.78106689453125 160.38925170898438 246.35618591308594 C 162.46432495117188 236.94863891601562 164.45272827148438 235.3911895751953 156.7436065673828 240.8738555908203 C 156.95542907714844 238.3804931640625 131.0037384033203 219.04055786132812 138.10301208496094 208.35752868652344 C 127.36360168457031 179.87684631347656 125.6114501953125 176.30470275878906 116.03580474853516 110.00045013427734 C 112.2457046508789 114.69631958007812 111.82052612304688 136.80844116210938 127.3830795288086 120.8091049194336 C 140.26983642578125 106.9830093383789 140.38128662109375 104.80303955078125 139.40333557128906 109.110595703125 C 136.24464416503906 111.04486083984375 137.07553100585938 110.07122039794922 125.42630004882812 123.60712432861328 C 115.905029296875 127.09011840820312 114.4693374633789 127.48173522949219 124.77033996582031 189.33319091796875 C 88.91818237304688 122.9945068359375 103.88021087646484 147.98095703125 99.32598876953125 180.90087890625 C 86.20549774169922 182.72357177734375 86.91336822509766 188.76873779296875 77.32121276855469 217.5834197998047 C 75.73905181884766 226.82960510253906 77.46980285644531 231.91029357910156 77.98806762695312 234.73046875 C 81.66490173339844 241.72113037109375 86.4143295288086 248.65228271484375 88.49195861816406 251.51246643066406 C 85.25608825683594 253.4038543701172 82.01705169677734 253.91098022460938 78.24479675292969 253.89938354492188 C 77.7932357788086 253.89056396484375 76.14216613769531 254.3904266357422 74.75645446777344 254.63287353515625 C 74.34333801269531 252.14146423339844 74.297119140625 244.7943572998047 74.03178405761719 243.0559844970703 C 73.1165542602539 239.74476623535156 71.97882843017578 236.45291137695312 71.36434936523438 233.6875 C 70.58946228027344 230.10769653320312 69.84053039550781 226.63717651367188 64.02146911621094 210.36720275878906 C 78.90818786621094 185.79551696777344 79.40172576904297 184.22183227539062 73.47962951660156 170.30868530273438 C 77.7238998413086 160.3452911376953 78.7501220703125 148.51751708984375 81.79059600830078 133.32862854003906 C 95.70387268066406 118.3984603881836 111.51351165771484 107.66877746582031 115.71846771240234 103.94844055175781 C 121.33366394042969 98.72535705566406 124.48316192626953 96.69182586669922 127.30580139160156 94.99019622802734 C 129.9131317138672 91.97213745117188 149.5523681640625 60.57594680786133 159.0068817138672 68.4114761352539 C 165.4010009765625 70.29908752441406 168.33645629882812 73.35908508300781 172.1650848388672 75.65662384033203 C 173.75802612304688 77.44807434082031 176.4158477783203 77.55955505371094 176.3437957763672 77.59530639648438 C 173.01907348632812 85.31187438964844 181.041015625 86.0802993774414 179.67916870117188 93.33634185791016 C 178.9413604736328 95.65074157714844 201.10678100585938 101.58442687988281 201.7667999267578 101.66461181640625 C 200.3616180419922 115.56700897216797 198.98516845703125 118.6793441772461 194.77023315429688 132.26641845703125 C 203.8965606689453 109.34738159179688 190.44297790527344 143.86367797851562 178.56253051757812 176.04345703125 C 138.78567504882812 165.2310791015625 144.9705352783203 168.71449279785156 147.16311645507812 176.60177612304688 C 150.4249725341797 207.1404571533203 148.60821533203125 213.4105682373047 160.48329162597656 237.76776123046875 C 162.86215209960938 235.61648559570312 163.906005859375 213.73593139648438 169.1988067626953 205.00091552734375 C 173.4167938232422 193.4950714111328 176.03643798828125 181.87002563476562 179.6184844970703 174.62705993652344 C 183.0469512939453 166.1479034423828 191.8824920654297 147.49505615234375 192.1614532470703 147.38299560546875 C 195.39317321777344 137.18142700195312 202.36782836914062 110.0755615234375 203.44947814941406 112.3848876953125 C 192.239990234375 100.13545989990234 188.7030487060547 102.98835754394531 230.7860565185547 124.41071319580078 C 244.6371612548828 107.1756591796875 235.77171325683594 79.39517211914062 235.906982421875 66.2783203125 C 240.88783264160156 63.94511795043945 237.35897827148438 62.17363357543945 242.6976318359375 62.2050666809082 C 245.20303344726562 63.114498138427734 256.8357849121094 74.13626098632812 242.73580932617188 64.19514465332031 C 250.85791015625 63.57248306274414 257.6941833496094 65.15367889404297 260.826416015625 67.71971893310547 C 298.6305236816406 61.58595275878906 299.74774169921875 90.57659912109375 281.2424011230469 85.54939270019531 C 262.4524230957031 89.72740936279297 259.0902099609375 98.1615219116211 257.0893859863281 114.91056823730469 C 257.47723388671875 159.58135986328125 218.592529296875 149.29931640625 218.86122131347656 148.90357971191406 C 221.50381469726562 179.03440856933594 225.408203125 183.32676696777344 231.94073486328125 188.48561096191406 C 236.6773223876953 193.7674560546875 242.12278747558594 199.10833740234375 245.30824279785156 204.73345947265625 C 245.85675048828125 212.16964721679688 245.01063537597656 224.34475708007812 251.4322967529297 236.76608276367188 C 249.51959228515625 236.34815979003906 255.85369873046875 241.1224822998047 273.1305847167969 248.9853973388672 C 256.765380859375 260.8839416503906 247.66122436523438 259.991455078125 246.54312133789062 260.0644836425781 C 235.1251220703125 255.33311462402344 228.54994201660156 255.14207458496094 219.06692504882812 251.89999389648438 C 202.26327514648438 255.44342041015625 220.5543212890625 259.861328125 218.21177673339844 255.763916015625 C 222.3968048095703 253.50347900390625 229.16481018066406 258.3783264160156 244.30496215820312 252.9409637451172 C 250.5302734375 256.23651123046875 241.08084106445312 229.40475463867188 240.04696655273438 222.03933715820312 C 230.01254272460938 207.1678924560547 229.81509399414062 208.627197265625 229.7326202392578 207.49728393554688 C 227.7022247314453 202.8190155029297 224.08428955078125 198.34368896484375 217.71963500976562 192.5057373046875 C 213.80352783203125 190.04620361328125 215.57235717773438 148.98655700683594 222.0461883544922 120.30107116699219 C 222.63436889648438 118.0325927734375 228.0505828857422 125.73492431640625 223.32089233398438 120.11798095703125 C 221.95289611816406 115.60933685302734 220.25714111328125 130.94053649902344 219.48443603515625 129.621826171875 C 216.8511962890625 132.08340454101562 228.263671875 90.42806243896484 227.2005615234375 100.58182525634766 C 214.802734375 130.68592834472656 216.6702880859375 146.9406280517578 211.75254821777344 190.95413208007812 C 192.30165100097656 167.0663299560547 190.57630920410156 173.64767456054688 189.0171356201172 184.57528686523438 C 181.1569366455078 195.0082550048828 178.89540100097656 206.36378479003906 180.7466278076172 214.99490356445312 C 164.3460693359375 236.4273223876953 164.0758056640625 238.21995544433594 166.87686157226562 241.97650146484375 C 176.74119567871094 261.19525146484375 171.544921875 241.9381103515625 188.23092651367188 254.25942993164062" stroke-width="0.0" fill="rgb(0, 0, 0)" opacity="1.0" stroke="rgb(0, 0, 0)" stroke-opacity="1" stroke-linecap="round" stroke-linejoin="round"/>
  </g>
</svg>
