<?xml version="1.0" ?>
<svg xmlns="http://www.w3.org/2000/svg" version="1.1" width="320" height="320">
  <defs/>
  <g>
    <path d="M 176.1478271484375 249.81912231445312 C 170.05947875976562 253.1792755126953 167.43995666503906 252.46353149414062 166.11834716796875 248.31700134277344 C 167.37271118164062 252.9969940185547 172.68304443359375 251.37913513183594 168.24282836914062 252.49559020996094 C 161.18283081054688 252.7274932861328 147.28167724609375 254.4141082763672 141.41197204589844 250.048828125 C 140.3006134033203 252.71566772460938 139.97659301757812 253.71766662597656 138.5531463623047 256.881103515625 C 139.7093505859375 254.42222595214844 139.97900390625 252.91278076171875 140.7213134765625 251.3698272705078 C 141.86807250976562 248.5526885986328 142.14862060546875 247.24533081054688 145.11129760742188 245.67660522460938 C 149.60140991210938 246.2153778076172 150.95973205566406 243.07476806640625 154.35110473632812 241.7188720703125 C 155.1656036376953 238.5117950439453 158.357666015625 235.3177490234375 149.10879516601562 246.2138671875 C 149.462158203125 242.07330322265625 123.54258728027344 218.28729248046875 129.44564819335938 208.30621337890625 C 130.5215301513672 171.78546142578125 129.7130889892578 169.17259216308594 128.78863525390625 105.73397827148438 C 122.8243408203125 115.42765808105469 121.82308959960938 135.55580139160156 134.15664672851562 118.01229095458984 C 145.57733154296875 105.32730865478516 146.03489685058594 104.09539794921875 146.0045166015625 103.30792236328125 C 143.19430541992188 106.81684875488281 139.82684326171875 112.69644927978516 129.75082397460938 123.5875473022461 C 122.95780181884766 127.85490417480469 121.364501953125 128.91403198242188 131.91915893554688 178.06385803222656 C 108.3680191040039 121.41329193115234 120.58860778808594 150.6897430419922 116.86862182617188 178.7665557861328 C 93.5692138671875 182.32981872558594 91.39673614501953 189.18960571289062 80.75691223144531 208.8113555908203 C 75.38350677490234 226.1876678466797 74.32109069824219 232.85997009277344 74.68785858154297 231.75518798828125 C 74.3299560546875 240.43856811523438 75.05455780029297 244.7223663330078 75.94910430908203 247.46441650390625 C 73.08914184570312 248.65748596191406 73.19942474365234 249.19683837890625 68.02422332763672 250.47494506835938 C 67.45992279052734 250.7080078125 65.4072494506836 251.30015563964844 62.91010284423828 250.90513610839844 C 62.07651138305664 246.5889434814453 64.10468292236328 240.15292358398438 65.13255310058594 237.42202758789062 C 67.15492248535156 233.21839904785156 68.4305191040039 229.41383361816406 67.80171966552734 231.19033813476562 C 69.7275161743164 226.6019287109375 71.21737670898438 223.46690368652344 72.71040344238281 201.70697021484375 C 83.55980682373047 184.8560028076172 86.61192321777344 181.11935424804688 88.62367248535156 176.1112823486328 C 91.2248306274414 161.7861328125 93.50757598876953 150.09486389160156 95.82878112792969 135.30081176757812 C 102.8333511352539 122.61349487304688 113.04588317871094 112.57666015625 118.66047668457031 107.50499725341797 C 127.4966812133789 101.85696411132812 132.90940856933594 97.05567169189453 138.4342803955078 93.57717895507812 C 140.8588104248047 91.10123443603516 159.30615234375 62.469661712646484 165.08786010742188 63.489620208740234 C 169.47747802734375 62.26570510864258 174.21417236328125 63.67593002319336 177.92774963378906 64.44474792480469 C 180.3666229248047 66.9128646850586 185.46575927734375 68.06938171386719 186.91395568847656 70.71830749511719 C 187.61190795898438 70.42906951904297 193.35385131835938 73.48564910888672 189.45315551757812 87.20671081542969 C 194.5452423095703 86.09252166748047 208.6726837158203 91.21585083007812 211.0940399169922 93.24085235595703 C 206.8551788330078 110.31181335449219 203.76226806640625 115.50370025634766 199.01956176757812 129.32164001464844 C 206.01272583007812 111.52424621582031 192.92025756835938 141.1513671875 184.30624389648438 168.48724365234375 C 144.9120635986328 157.00209045410156 151.4576873779297 161.4945068359375 150.04827880859375 172.82472229003906 C 140.568603515625 210.4634246826172 138.49449157714844 215.36944580078125 154.04849243164062 241.52638244628906 C 164.65098571777344 236.4359893798828 176.0982208251953 213.5101776123047 179.82994079589844 204.72665405273438 C 183.19927978515625 193.0271759033203 185.6510009765625 181.00074768066406 187.66744995117188 173.18817138671875 C 187.7597198486328 162.7781219482422 194.02200317382812 144.72695922851562 194.22154235839844 144.5353240966797 C 198.1651611328125 132.25192260742188 210.23736572265625 107.9647216796875 210.1493682861328 103.43257141113281 C 203.21803283691406 94.85208129882812 206.8291778564453 92.02591705322266 242.52920532226562 119.24543762207031 C 255.84873962402344 103.87297821044922 247.71829223632812 73.9287338256836 248.50204467773438 62.28365707397461 C 251.51580810546875 60.20866775512695 247.41322326660156 58.6791877746582 252.33346557617188 58.03700256347656 C 254.91461181640625 59.21913146972656 265.69287109375 68.96117401123047 250.9912567138672 58.81559371948242 C 257.78851318359375 58.160552978515625 265.75482177734375 58.966468811035156 268.8906555175781 60.57893371582031 C 295.6441345214844 58.065040588378906 293.71673583984375 77.63279724121094 281.7666320800781 77.28717041015625 C 273.0060119628906 85.3899154663086 268.276611328125 99.6274185180664 266.33349609375 117.66806030273438 C 262.8264465332031 150.95431518554688 234.1365509033203 143.13619995117188 234.85134887695312 144.9140625 C 234.5850830078125 167.6658477783203 233.03619384765625 178.59225463867188 231.73973083496094 188.12644958496094 C 232.45631408691406 197.0987091064453 233.816650390625 205.42674255371094 231.41464233398438 212.31991577148438 C 230.27728271484375 217.34237670898438 230.7723388671875 232.0445556640625 233.67567443847656 240.47145080566406 C 234.16122436523438 242.0943603515625 236.91009521484375 244.5041046142578 249.40966796875 245.44691467285156 C 239.4069366455078 253.83377075195312 232.87030029296875 253.87925720214844 232.6136016845703 253.8710174560547 C 224.648681640625 253.0469512939453 218.8138427734375 253.84609985351562 210.117431640625 251.8025665283203 C 196.22415161132812 252.4424591064453 208.11520385742188 253.1107635498047 212.19119262695312 250.6285400390625 C 214.0010223388672 249.4332733154297 215.68092346191406 248.5823516845703 223.79502868652344 245.91757202148438 C 227.818359375 248.9776153564453 223.81080627441406 237.1531982421875 224.55062866210938 224.646240234375 C 220.18556213378906 211.56068420410156 219.8323516845703 212.22201538085938 219.7708740234375 207.9496612548828 C 220.29562377929688 200.08514404296875 220.0154266357422 190.7812042236328 219.74188232421875 178.56874084472656 C 217.86221313476562 173.0848388671875 222.912109375 142.21075439453125 229.05548095703125 118.30451202392578 C 230.65220642089844 114.1076431274414 233.83984375 121.1569595336914 230.55938720703125 116.36156463623047 C 229.9951629638672 113.07782745361328 228.01702880859375 127.4584732055664 227.22312927246094 124.82764434814453 C 224.1576690673828 126.47754669189453 237.17454528808594 90.52346801757812 233.24655151367188 102.18867492675781 C 221.4626922607422 129.56756591796875 221.16488647460938 144.54295349121094 218.68878173828125 176.19381713867188 C 200.94906616210938 163.11099243164062 200.04220581054688 170.9373321533203 199.31211853027344 182.07284545898438 C 190.81146240234375 193.88841247558594 191.12892150878906 204.62374877929688 193.14663696289062 213.88352966308594 C 165.20523071289062 237.0443115234375 165.2217254638672 241.5657958984375 168.81724548339844 246.4029541015625 C 173.40802001953125 258.23223876953125 166.50816345214844 239.19236755371094 176.1478271484375 249.81912231445312" stroke-width="0.0" fill="rgb(0, 0, 0)" opacity="1.0" stroke="rgb(0, 0, 0)" stroke-opacity="1" stroke-linecap="round" stroke-linejoin="round"/>
  </g>
</svg>
