<?xml version="1.0" ?>
<svg xmlns="http://www.w3.org/2000/svg" version="1.1" width="320" height="320">
  <defs/>
  <g>
    <path d="M 175.47677612304688 253.78053283691406 C 168.626708984375 257.0709228515625 165.75193786621094 255.86294555664062 164.72096252441406 251.53260803222656 C 165.51002502441406 256.5752258300781 171.81179809570312 255.40919494628906 166.5626983642578 256.28387451171875 C 159.1048126220703 255.99078369140625 145.90574645996094 257.0263671875 139.78079223632812 252.2386016845703 C 138.61944580078125 255.19334411621094 138.2742156982422 256.30523681640625 137.12957763671875 259.56292724609375 C 138.13458251953125 256.6354064941406 138.3105926513672 255.19078063964844 139.06765747070312 253.520263671875 C 140.17141723632812 250.49281311035156 140.50234985351562 249.1011962890625 143.22560119628906 247.56935119628906 C 147.4290313720703 247.79624938964844 148.59161376953125 244.58094787597656 152.2886505126953 243.1086883544922 C 153.0055389404297 238.52430725097656 155.33229064941406 235.7064208984375 145.02052307128906 248.07798767089844 C 144.00306701660156 243.6414794921875 120.2477035522461 224.78463745117188 126.57803344726562 208.287353515625 C 129.6151580810547 174.2667694091797 129.72190856933594 170.40643310546875 130.7313995361328 105.78067016601562 C 120.9126205444336 119.04204559326172 121.15711212158203 139.14523315429688 135.8873291015625 121.46430969238281 C 147.6226806640625 108.58621215820312 147.55589294433594 105.6967544555664 147.20355224609375 103.61223602294922 C 142.23922729492188 107.90843200683594 138.23109436035156 115.1593017578125 129.72921752929688 126.53055572509766 C 119.89364624023438 131.22171020507812 115.95780181884766 132.81321716308594 127.37946319580078 178.0438995361328 C 105.98079681396484 125.8097915649414 114.29065704345703 151.84243774414062 112.48965454101562 179.65574645996094 C 91.30970764160156 182.92401123046875 89.31497192382812 190.41607666015625 81.77400970458984 212.3329315185547 C 77.52752685546875 226.94883728027344 76.02001190185547 236.71939086914062 76.27688598632812 232.40213012695312 C 74.84172821044922 242.8948211669922 74.7447738647461 248.3371124267578 74.24168395996094 251.48605346679688 C 71.13331604003906 251.40640258789062 71.39461517333984 253.99819946289062 66.46072387695312 255.1967010498047 C 65.6619873046875 255.7660675048828 63.42100524902344 256.3520812988281 61.116729736328125 255.9292449951172 C 60.345245361328125 249.591796875 61.89061737060547 243.0190887451172 62.292327880859375 239.84120178222656 C 63.26109313964844 234.7777557373047 63.95024108886719 229.84716796875 63.17951965332031 234.9258575439453 C 64.36947631835938 227.9049835205078 66.19083404541016 221.36338806152344 70.4920883178711 206.26951599121094 C 77.51593017578125 185.45811462402344 80.05300903320312 180.7799530029297 82.75975036621094 172.16519165039062 C 86.97993469238281 160.54873657226562 90.30068969726562 149.45359802246094 95.94013977050781 140.14028930664062 C 105.57896423339844 125.61856842041016 111.45845794677734 114.45272827148438 115.39904022216797 108.01084899902344 C 119.48664855957031 101.12969207763672 124.60908508300781 93.92620849609375 128.20919799804688 89.34161376953125 C 131.72637939453125 83.40885925292969 147.90415954589844 60.646263122558594 155.9835205078125 66.86231231689453 C 164.0054168701172 68.6530532836914 166.86773681640625 70.60047912597656 171.0041961669922 72.05122375488281 C 173.6192169189453 74.22247314453125 179.1591339111328 74.45068359375 180.93453979492188 77.22296142578125 C 182.73196411132812 76.90648651123047 188.84890747070312 79.87297058105469 182.5419158935547 93.60798645019531 C 190.89015197753906 92.06238555908203 203.14993286132812 95.70707702636719 204.12635803222656 96.77107238769531 C 198.2413330078125 110.31095886230469 195.88787841796875 113.26077270507812 190.3161163330078 125.88447570800781 C 197.16619873046875 105.86470794677734 183.17385864257812 136.0726776123047 174.8566131591797 168.5394744873047 C 146.77833557128906 159.25830078125 154.56207275390625 167.38999938964844 152.40377807617188 177.92929077148438 C 147.35604858398438 211.05760192871094 145.5440216064453 216.7882537841797 154.5281524658203 239.5642852783203 C 161.65933227539062 234.32928466796875 170.57583618164062 211.82437133789062 175.52069091796875 203.28436279296875 C 179.64187622070312 191.6612548828125 182.53297424316406 180.34408569335938 185.4541473388672 172.59414672851562 C 187.81341552734375 163.96917724609375 195.41331481933594 147.76388549804688 196.6294708251953 146.9445343017578 C 201.95071411132812 133.75509643554688 214.7877655029297 114.45037841796875 213.31114196777344 112.04983520507812 C 200.51010131835938 100.66151428222656 206.4283447265625 96.30207061767578 240.52005004882812 118.03485107421875 C 249.48583984375 105.49469757080078 243.43002319335938 79.18807983398438 245.09622192382812 66.99121856689453 C 248.29869079589844 65.07147979736328 244.4345703125 63.24647521972656 249.4755096435547 63.01203918457031 C 252.89324951171875 64.57173156738281 263.94757080078125 75.30933380126953 247.05380249023438 62.96617126464844 C 255.06919860839844 63.067962646484375 264.3128356933594 65.2999038696289 267.6247863769531 67.42598724365234 C 292.9212341308594 68.52729034423828 289.3189697265625 82.21630096435547 277.58148193359375 76.96612548828125 C 270.2756042480469 89.77813720703125 264.548095703125 103.88883972167969 260.5599670410156 117.25831604003906 C 258.9139099121094 150.1123809814453 236.02183532714844 148.2713623046875 237.3776092529297 151.78260803222656 C 237.6033172607422 168.99710083007812 237.0568084716797 178.84364318847656 237.93768310546875 189.64561462402344 C 237.50790405273438 200.0261688232422 237.7922821044922 207.8088836669922 237.8621063232422 214.43165588378906 C 237.782958984375 224.0622100830078 236.22222900390625 235.96725463867188 236.9185028076172 241.90505981445312 C 232.9907989501953 241.47886657714844 235.72962951660156 244.0736083984375 250.01524353027344 244.67897033691406 C 238.64186096191406 255.62765502929688 231.00035095214844 256.904541015625 230.8638458251953 256.8907470703125 C 222.89402770996094 256.62103271484375 216.97853088378906 256.8747863769531 207.6057891845703 253.98110961914062 C 194.9244842529297 253.2618408203125 206.76904296875 254.10421752929688 210.8640899658203 253.17977905273438 C 213.4556121826172 251.62905883789062 215.73849487304688 250.59646606445312 226.4481201171875 248.83444213867188 C 229.4409942626953 252.1669921875 220.0062713623047 238.0899200439453 217.93234252929688 228.89205932617188 C 215.1097869873047 216.64613342285156 216.13754272460938 214.435791015625 216.3845977783203 211.90609741210938 C 216.431884765625 202.55941772460938 216.83116149902344 191.9696807861328 217.26617431640625 179.59844970703125 C 216.6141357421875 174.8883056640625 223.98538208007812 147.80992126464844 230.0439453125 122.45089721679688 C 230.86497497558594 118.94427490234375 234.72525024414062 125.36488342285156 229.75323486328125 119.76380920410156 C 228.8001251220703 115.51399230957031 226.7017059326172 128.9002685546875 225.19708251953125 124.22239685058594 C 221.48500061035156 126.42618560791016 232.63218688964844 93.76655578613281 229.44297790527344 105.76647186279297 C 217.80381774902344 130.6249542236328 217.97084045410156 145.57167053222656 216.2086639404297 177.80419921875 C 196.62701416015625 165.10975646972656 195.02191162109375 171.41111755371094 195.61183166503906 182.23147583007812 C 188.83897399902344 193.23741149902344 189.3755645751953 204.61460876464844 190.5746307373047 216.2550048828125 C 165.03805541992188 237.73681640625 164.93284606933594 241.30911254882812 168.1298370361328 245.32069396972656 C 173.78268432617188 258.9723815917969 165.7884521484375 241.1908721923828 175.47677612304688 253.78053283691406" stroke-width="0.0" fill="rgb(0, 0, 0)" opacity="1.0" stroke="rgb(0, 0, 0)" stroke-opacity="1" stroke-linecap="round" stroke-linejoin="round"/>
  </g>
</svg>
