<?xml version="1.0" ?>
<svg xmlns="http://www.w3.org/2000/svg" version="1.1" width="320" height="320">
  <defs/>
  <g>
    <path d="M 176.5631866455078 264.0357360839844 C 167.8363800048828 267.0047607421875 165.36593627929688 266.0862121582031 164.5342254638672 260.60125732421875 C 165.2617950439453 266.8899230957031 171.79910278320312 264.9445495605469 165.53485107421875 265.34820556640625 C 158.76109313964844 264.1923828125 143.92527770996094 266.527587890625 139.954345703125 263.8612976074219 C 138.98538208007812 266.4748229980469 132.34188842773438 264.2070617675781 130.38560485839844 267.9482421875 C 133.39031982421875 263.0594482421875 137.07833862304688 263.68988037109375 138.95851135253906 261.32476806640625 C 141.54852294921875 262.1260681152344 142.13885498046875 260.116455078125 145.3929901123047 258.8341979980469 C 148.07090759277344 258.9243469238281 151.5097198486328 254.9150848388672 152.6030731201172 254.4228973388672 C 155.43704223632812 250.90325927734375 157.0331573486328 249.41046142578125 142.61061096191406 262.2928161621094 C 143.96498107910156 251.3642120361328 106.92610931396484 236.2082977294922 113.39332580566406 225.9678955078125 C 115.86836242675781 185.607421875 114.83021545410156 184.14503479003906 112.8464584350586 117.54231262207031 C 106.88062286376953 126.09542846679688 107.1191177368164 148.97608947753906 121.79801940917969 130.41754150390625 C 133.8726043701172 117.10502624511719 133.79998779296875 114.24932861328125 133.6028594970703 119.76715850830078 C 131.29505920410156 121.20973205566406 131.82077026367188 120.37916564941406 120.47103881835938 133.42860412597656 C 109.68711853027344 137.5618133544922 108.07909393310547 137.8284454345703 115.0863037109375 203.04837036132812 C 87.93682861328125 133.0254669189453 100.04127502441406 160.41720581054688 97.19861602783203 195.47889709472656 C 77.1184310913086 191.61912536621094 75.64629364013672 196.5721893310547 60.83210754394531 220.22451782226562 C 63.625484466552734 239.6848602294922 66.49565124511719 245.45899963378906 66.42293548583984 245.06698608398438 C 71.0150375366211 252.63209533691406 73.60295867919922 259.3704833984375 75.0421142578125 261.4618835449219 C 72.94477081298828 263.12689208984375 71.31981658935547 263.8972473144531 68.18013000488281 264.9779968261719 C 67.39978790283203 264.6502380371094 65.59063720703125 265.4913635253906 61.640777587890625 265.5021667480469 C 60.89044189453125 261.63189697265625 61.409202575683594 254.9060516357422 61.51009750366211 253.4707489013672 C 61.43210983276367 250.6280059814453 60.11039733886719 248.46902465820312 59.26835632324219 246.87286376953125 C 58.836936950683594 243.5137176513672 58.09014129638672 240.05226135253906 44.834434509277344 211.83615112304688 C 67.69672393798828 190.70297241210938 68.2532730102539 189.84774780273438 68.87879180908203 179.88186645507812 C 74.56584930419922 170.76963806152344 76.45195770263672 160.5836944580078 78.70355987548828 145.6766357421875 C 97.06324005126953 128.93209838867188 106.82764434814453 119.69157409667969 112.06729888916016 115.8447036743164 C 116.77041625976562 110.45719146728516 120.35704040527344 107.87641906738281 123.1493911743164 106.25779724121094 C 124.90279388427734 103.95494842529297 144.134521484375 71.36447143554688 152.74069213867188 77.60089874267578 C 159.53524780273438 78.93700408935547 162.8233642578125 81.52633666992188 165.99859619140625 85.11456298828125 C 165.84814453125 84.93719482421875 169.44273376464844 85.60726165771484 169.11460876464844 85.44586181640625 C 165.7372589111328 90.68082427978516 175.3222198486328 91.32320404052734 173.28176879882812 99.34379577636719 C 171.66085815429688 102.70442962646484 195.30117797851562 108.0025634765625 196.64244079589844 107.6206283569336 C 194.27001953125 123.69947814941406 192.88983154296875 126.99199676513672 188.0937042236328 142.49232482910156 C 198.0036163330078 116.37920379638672 185.54144287109375 151.32472229003906 177.78855895996094 183.2779083251953 C 129.20494079589844 177.52919006347656 128.65921020507812 172.44610595703125 131.5733642578125 184.6839141845703 C 125.00586700439453 228.76560974121094 122.98666381835938 232.81422424316406 150.63819885253906 262.82965087890625 C 166.28085327148438 261.048095703125 166.78036499023438 229.76170349121094 169.6794891357422 219.00930786132812 C 174.4531707763672 207.76206970214844 175.91091918945312 196.33734130859375 178.13153076171875 188.71897888183594 C 179.70281982421875 179.98060607910156 186.26535034179688 156.9012908935547 186.94418334960938 156.51974487304688 C 189.36334228515625 147.66622924804688 198.1742706298828 120.11425018310547 196.67770385742188 116.63700866699219 C 188.05215454101562 105.63159942626953 183.900634765625 109.91312408447266 228.89096069335938 131.3720703125 C 241.343017578125 116.21086883544922 232.4417266845703 85.27198028564453 232.75762939453125 72.88768005371094 C 236.50633239746094 70.82060241699219 233.05535888671875 69.87125396728516 237.71690368652344 69.79354858398438 C 241.87310791015625 71.78240203857422 255.06541442871094 79.85165405273438 241.01022338867188 68.31710052490234 C 250.47328186035156 71.58279418945312 257.9243469238281 74.86875915527344 256.13641357421875 77.1291732788086 C 294.6572265625 68.99080657958984 297.3639831542969 99.73980712890625 276.24951171875 93.06127166748047 C 257.30096435546875 97.34474182128906 254.21080017089844 106.12260437011719 253.80491638183594 123.60408020019531 C 250.03369140625 166.64260864257812 214.8852996826172 155.98562622070312 215.28866577148438 155.40728759765625 C 217.52955627441406 187.69873046875 219.33474731445312 192.4961395263672 224.1495819091797 199.52053833007812 C 229.5326690673828 206.78848266601562 236.80596923828125 214.78402709960938 238.80523681640625 222.84219360351562 C 232.5111846923828 228.57618713378906 207.58349609375 245.17947387695312 209.61932373046875 256.85626220703125 C 212.88389587402344 258.9588623046875 217.85122680664062 260.1462097167969 228.9300994873047 259.8360900878906 C 220.2447967529297 266.3958435058594 216.68310546875 267.02850341796875 216.16070556640625 267.1903076171875 C 208.45474243164062 267.8444519042969 201.43704223632812 270.7422790527344 183.02024841308594 270.0598449707031 C 158.0397186279297 254.88339233398438 188.73033142089844 262.0816650390625 191.553955078125 250.71836853027344 C 194.8621368408203 249.3196258544922 197.42718505859375 248.4954071044922 206.2818603515625 246.57229614257812 C 210.50645446777344 251.255859375 203.118408203125 238.6962890625 218.7689666748047 234.2687225341797 C 222.43724060058594 216.66566467285156 223.83990478515625 215.44357299804688 221.62135314941406 220.71144104003906 C 219.78675842285156 215.31649780273438 214.63621520996094 208.1708221435547 209.08860778808594 199.3908233642578 C 207.44325256347656 195.81373596191406 210.69873046875 155.84327697753906 215.1042938232422 127.28596496582031 C 216.79881286621094 121.55401611328125 221.30621337890625 130.52613830566406 216.32017517089844 121.95600128173828 C 215.45201110839844 127.09933471679688 214.64697265625 142.27537536621094 212.6293487548828 138.75460815429688 C 215.91421508789062 135.152587890625 224.4065399169922 95.76770782470703 222.5811004638672 108.0005874633789 C 208.25083923339844 141.6610870361328 212.35400390625 158.0433807373047 208.50274658203125 199.49391174316406 C 190.78018188476562 179.9362030029297 189.794677734375 186.60707092285156 189.34266662597656 197.48977661132812 C 182.19178771972656 209.02877807617188 182.709228515625 218.4305419921875 185.917724609375 226.20382690429688 C 160.13616943359375 250.34494018554688 164.86737060546875 256.9125671386719 170.68699645996094 259.97198486328125 C 173.02671813964844 276.2337341308594 165.49072265625 251.01318359375 176.5631866455078 264.0357360839844" stroke-width="0.0" fill="rgb(0, 0, 0)" opacity="1.0" stroke="rgb(0, 0, 0)" stroke-opacity="1" stroke-linecap="round" stroke-linejoin="round"/>
  </g>
</svg>
