<?xml version="1.0" ?>
<svg xmlns="http://www.w3.org/2000/svg" version="1.1" width="320" height="320">
  <defs/>
  <g>
    <path d="M 156.56878662109375 44.90547561645508 C 189.9623260498047 55.449462890625 197.4302215576172 61.84814453125 198.73992919921875 66.357666015625 C 200.94601440429688 73.18275451660156 202.4811248779297 83.8094253540039 198.02830505371094 85.94194030761719 C 191.17327880859375 98.06600189208984 199.2136688232422 75.97189331054688 183.02951049804688 85.03213500976562 C 179.53038024902344 93.41009521484375 176.73658752441406 95.89652252197266 182.93701171875 107.39866638183594 C 168.55142211914062 119.4301986694336 191.24658203125 117.90654754638672 174.63717651367188 127.4190902709961 C 176.09674072265625 115.70219421386719 179.4912109375 129.18238830566406 175.7562255859375 135.13888549804688 C 166.56300354003906 195.35353088378906 165.9916229248047 154.21536254882812 195.42730712890625 204.57472229003906 C 171.9395294189453 182.3079833984375 171.84988403320312 187.83340454101562 172.4475860595703 192.06822204589844 C 167.62692260742188 200.430908203125 167.5936737060547 205.23997497558594 162.8141632080078 230.63063049316406 C 175.76010131835938 215.13232421875 167.79702758789062 236.70089721679688 160.04833984375 245.32122802734375 C 152.5267791748047 231.6988525390625 172.27418518066406 249.38735961914062 156.8726348876953 257.5331726074219 C 160.91754150390625 282.8059387207031 147.7471466064453 307.9074401855469 122.80347442626953 302.7035217285156 C 103.59972381591797 293.9578857421875 99.7439193725586 279.8275451660156 102.48931884765625 260.0861511230469 C 102.89217376708984 260.3909606933594 101.98577880859375 237.71572875976562 100.43731689453125 236.08291625976562 C 92.41923522949219 232.27932739257812 96.67059326171875 285.5636901855469 102.08590698242188 234.94284057617188 C 102.2471694946289 221.98928833007812 100.25777435302734 226.93707275390625 100.86640930175781 226.02877807617188 C 102.01493072509766 222.57933044433594 100.89453125 224.1427001953125 99.08494567871094 211.86273193359375 C 103.12699890136719 219.7194366455078 103.42826843261719 218.55479431152344 96.8803939819336 208.7631072998047 C 76.885498046875 213.93710327148438 99.61819458007812 196.6593017578125 135.50999450683594 188.6659393310547 C 139.33981323242188 189.24923706054688 139.52664184570312 189.16970825195312 142.6353302001953 195.27462768554688 C 132.2306671142578 194.80014038085938 117.772216796875 199.2039031982422 122.3366470336914 203.1610565185547 C 148.73878479003906 197.23353576660156 137.6452178955078 230.2046356201172 126.03129577636719 242.6609344482422 C 114.67082977294922 232.15892028808594 140.0860595703125 238.81436157226562 132.4847412109375 196.12139892578125 C 116.40675354003906 216.2233123779297 128.77581787109375 240.28158569335938 132.3855743408203 232.95413208007812 C 132.12844848632812 227.73837280273438 123.3023452758789 214.3561553955078 136.2693634033203 222.4524383544922 C 134.90927124023438 241.6776885986328 126.43745422363281 237.1357421875 122.5792007446289 268.146240234375 C 129.21054077148438 280.8152160644531 132.03472900390625 247.7589111328125 128.3573455810547 234.2786865234375 C 138.06747436523438 211.47914123535156 141.7952423095703 197.36936950683594 148.22097778320312 159.07247924804688 C 131.61241149902344 206.63648986816406 148.9341583251953 176.31491088867188 151.62631225585938 144.59918212890625 C 153.82843017578125 159.7015838623047 153.62075805664062 152.48130798339844 158.87033081054688 131.67538452148438 C 160.86505126953125 119.17814636230469 168.9229736328125 103.70823669433594 166.82620239257812 94.01067352294922 C 172.9899444580078 88.45137023925781 171.65780639648438 77.30314636230469 169.34335327148438 85.4127197265625 C 183.4112091064453 66.15512084960938 193.48046875 83.71546936035156 192.2494659423828 75.41165161132812 C 187.41798400878906 66.78563690185547 187.80470275878906 66.89359283447266 187.9908905029297 65.7071762084961 C 190.1337127685547 68.19344329833984 173.42539978027344 59.24191665649414 174.79351806640625 51.05858612060547 C 187.2197265625 58.078636169433594 144.98963928222656 56.54256820678711 156.56878662109375 44.90547561645508" stroke-width="0.0" fill="rgb(0, 0, 0)" opacity="1.0" stroke="rgb(0, 0, 0)" stroke-opacity="1" stroke-linecap="round" stroke-linejoin="round"/>
  </g>
</svg>
