<?xml version="1.0" ?>
<svg xmlns="http://www.w3.org/2000/svg" version="1.1" width="320" height="320">
  <defs/>
  <g>
    <path d="M 184.83203125 42.47119140625 C 206.53912353515625 57.601287841796875 213.16078186035156 60.40132141113281 216.2772216796875 62.73946762084961 C 223.3264617919922 71.03182220458984 225.3730926513672 76.27848815917969 226.08758544921875 83.48079681396484 C 216.010986328125 105.55164337158203 222.7913360595703 86.57303619384766 207.8873291015625 92.56918334960938 C 202.22335815429688 100.55183410644531 198.43008422851562 102.77239227294922 202.15650939941406 114.65699768066406 C 187.05197143554688 125.97561645507812 211.92820739746094 125.88896942138672 192.6221160888672 133.79306030273438 C 195.5361328125 121.38802337646484 197.84475708007812 135.53627014160156 193.82521057128906 141.47573852539062 C 174.280517578125 200.72889709472656 179.50234985351562 159.25228881835938 204.21145629882812 212.67257690429688 C 186.61459350585938 191.01026916503906 185.2147979736328 200.07411193847656 185.0090789794922 201.9404296875 C 180.2238006591797 207.65147399902344 179.79660034179688 210.5542755126953 168.489990234375 232.05331420898438 C 185.22036743164062 218.93075561523438 176.11224365234375 239.2960968017578 168.20814514160156 248.10470581054688 C 161.4933624267578 236.36839294433594 175.0234375 258.83392333984375 161.88975524902344 260.77044677734375 C 161.847900390625 277.9595947265625 150.38409423828125 302.28076171875 128.1936492919922 300.3443908691406 C 105.02803039550781 292.8978271484375 100.36186981201172 280.9410705566406 103.38513946533203 259.61883544921875 C 102.40465545654297 257.8652648925781 108.83597564697266 236.5587615966797 106.8193588256836 233.36602783203125 C 98.37430572509766 228.513671875 96.27093505859375 276.3969421386719 107.12545776367188 236.10194396972656 C 109.68251037597656 225.2043914794922 108.2472915649414 226.7725067138672 109.04605865478516 223.57888793945312 C 110.17359161376953 218.95831298828125 109.59586334228516 220.4454345703125 108.63505554199219 210.13253784179688 C 111.61427307128906 217.41680908203125 112.0871353149414 216.28131103515625 107.26542663574219 208.4210968017578 C 87.99348449707031 207.64968872070312 110.89788055419922 193.77525329589844 145.08001708984375 188.57550048828125 C 145.20985412597656 188.3748321533203 151.0164031982422 189.52569580078125 153.7191925048828 196.7947540283203 C 143.23260498046875 195.64842224121094 129.89646911621094 199.25167846679688 134.00570678710938 203.82701110839844 C 159.1192626953125 199.85714721679688 142.9636993408203 223.5077362060547 131.61927795410156 231.1368408203125 C 125.36570739746094 223.98306274414062 144.65325927734375 236.65711975097656 141.96517944335938 198.78616333007812 C 127.98716735839844 214.31329345703125 134.82569885253906 227.7269287109375 131.29811096191406 241.87303161621094 C 133.0168914794922 235.06625366210938 127.28470611572266 216.807373046875 137.8064727783203 227.16885375976562 C 138.49916076660156 244.1015167236328 129.56787109375 236.59869384765625 124.65713500976562 265.4159240722656 C 131.05584716796875 276.3093566894531 133.49610900878906 243.17422485351562 134.42333984375 235.12063598632812 C 147.36375427246094 210.65211486816406 152.44261169433594 196.35865783691406 164.04150390625 161.71104431152344 C 140.728759765625 207.55889892578125 162.7952880859375 182.03782653808594 168.1036834716797 146.25460815429688 C 167.2550811767578 161.9754638671875 168.56027221679688 155.17713928222656 175.91571044921875 134.63156127929688 C 178.9134979248047 123.08126068115234 188.6317138671875 110.01419067382812 188.02642822265625 98.78938293457031 C 196.3834991455078 93.73528289794922 198.6319580078125 83.39208984375 192.66624450683594 96.8099136352539 C 193.33746337890625 74.43148040771484 222.96383666992188 87.9974365234375 213.07568359375 72.08747100830078 C 209.49208068847656 67.74803924560547 210.05349731445312 67.5359115600586 208.5606231689453 65.31575775146484 C 209.13172912597656 65.48379516601562 198.2830810546875 63.20210266113281 198.60086059570312 57.33412170410156 C 205.15194702148438 59.74188995361328 167.50453186035156 59.51798629760742 184.83203125 42.47119140625" stroke-width="0.0" fill="rgb(0, 0, 0)" opacity="1.0" stroke="rgb(0, 0, 0)" stroke-opacity="1" stroke-linecap="round" stroke-linejoin="round"/>
  </g>
</svg>
