<?xml version="1.0" ?>
<svg xmlns="http://www.w3.org/2000/svg" version="1.1" width="320" height="320">
  <defs/>
  <g>
    <path d="M 245.8623046875 88.54044342041016 C 248.85498046875 87.63401794433594 250.05252075195312 90.14698028564453 251.29530334472656 91.48408508300781 C 257.69500732421875 96.16984558105469 253.12469482421875 110.8862075805664 262.1045227050781 114.52264404296875 C 279.1927185058594 153.10910034179688 274.28485107421875 192.91868591308594 255.35971069335938 156.54434204101562 C 249.0994110107422 156.08062744140625 246.92047119140625 155.47926330566406 235.76934814453125 170.67742919921875 C 222.1060028076172 168.7446746826172 239.0984344482422 184.7196502685547 223.9634552001953 182.5901641845703 C 232.4987335205078 174.62045288085938 227.50828552246094 184.02993774414062 217.7646942138672 187.58779907226562 C 166.0147705078125 220.78602600097656 220.72813415527344 199.84417724609375 198.5313720703125 264.1793212890625 C 189.1580352783203 251.87413024902344 191.52484130859375 251.13232421875 188.0488739013672 239.61373901367188 C 176.5275421142578 239.13327026367188 176.207763671875 239.86460876464844 153.21560668945312 257.5071105957031 C 163.98814392089844 261.9775695800781 175.72299194335938 255.51710510253906 163.33984375 259.754150390625 C 161.84730529785156 245.0500946044922 167.23719787597656 272.0883483886719 149.71380615234375 265.7303466796875 C 133.6040496826172 279.62890625 118.89985656738281 294.0670471191406 111.22393035888672 295.8689270019531 C 90.30647277832031 300.8521423339844 92.95199584960938 300.39739990234375 77.8524169921875 283.6856994628906 C 65.89888000488281 269.0391540527344 92.3010482788086 239.7655792236328 89.98292541503906 230.38607788085938 C 89.60671997070312 233.37265014648438 69.03599548339844 269.3231506347656 101.76969146728516 231.5184326171875 C 86.91111755371094 235.5528106689453 91.71607971191406 228.3892059326172 97.68383026123047 222.92137145996094 C 97.71710205078125 242.808349609375 108.4739761352539 229.14468383789062 112.24234771728516 218.57913208007812 C 112.3446273803711 223.1361083984375 118.56350708007812 213.97911071777344 122.670166015625 204.98304748535156 C 110.63166809082031 189.3490753173828 128.54660034179688 191.1055145263672 145.3900604248047 199.49217224121094 C 150.67552185058594 202.73886108398438 156.19149780273438 207.86061096191406 156.82540893554688 214.40248107910156 C 155.26504516601562 219.53872680664062 143.4264373779297 213.32814025878906 144.1337890625 220.67660522460938 C 146.80027770996094 221.7378387451172 131.19338989257812 239.8189239501953 118.3353500366211 244.888671875 C 111.93894958496094 235.67181396484375 140.06137084960938 257.7540283203125 152.80747985839844 218.2815704345703 C 124.97765350341797 227.5304412841797 127.37569427490234 240.98558044433594 116.15886688232422 257.5701599121094 C 126.64596557617188 249.05581665039062 120.12484741210938 219.1651611328125 136.6484375 242.33059692382812 C 130.0089874267578 258.78961181640625 94.38463592529297 242.579345703125 100.4254150390625 271.52154541015625 C 105.80174255371094 274.53155517578125 134.58741760253906 239.11109924316406 136.15713500976562 235.09475708007812 C 156.1613311767578 222.64886474609375 168.37277221679688 222.8897247314453 196.1123046875 188.83837890625 C 130.97303771972656 234.87603759765625 165.8575439453125 205.377685546875 197.9054718017578 184.04840087890625 C 192.2451934814453 196.35281372070312 208.46893310546875 178.3140411376953 211.90611267089844 178.5237579345703 C 220.75694274902344 168.0908660888672 232.83984375 160.99392700195312 244.01182556152344 148.97140502929688 C 250.40028381347656 150.44764709472656 266.2040100097656 139.21798706054688 231.58404541015625 149.76336669921875 C 220.2390594482422 134.85281372070312 299.3070068359375 168.64517211914062 250.96243286132812 95.45866394042969 C 247.13040161132812 94.0989990234375 246.98049926757812 93.52310180664062 246.89205932617188 91.76702117919922 C 246.8668212890625 91.0797119140625 244.5430145263672 87.68326568603516 245.98109436035156 86.16242980957031 C 248.32962036132812 87.80977630615234 243.99783325195312 84.66146850585938 245.8623046875 88.54044342041016" stroke-width="0.0" fill="rgb(0, 0, 0)" opacity="1.0" stroke="rgb(0, 0, 0)" stroke-opacity="1" stroke-linecap="round" stroke-linejoin="round"/>
  </g>
</svg>
