<?xml version="1.0" ?>
<svg xmlns="http://www.w3.org/2000/svg" version="1.1" width="320" height="320">
  <defs/>
  <g>
    <path d="M 201.4849395751953 47.148902893066406 C 216.81268310546875 61.86604309082031 221.8984375 63.5054931640625 225.02743530273438 65.3495864868164 C 234.35629272460938 73.77159118652344 236.56356811523438 77.44934844970703 239.0421905517578 91.74787139892578 C 229.02999877929688 111.59532165527344 234.916015625 94.77381134033203 221.11788940429688 99.19512939453125 C 214.80581665039062 106.3700180053711 211.14805603027344 108.22745513916016 214.43458557128906 120.63299560546875 C 198.73654174804688 131.44178771972656 222.01168823242188 131.6599884033203 203.23574829101562 139.0704345703125 C 205.82711791992188 126.7806396484375 208.5151824951172 142.32247924804688 203.82167053222656 148.0819549560547 C 183.35025024414062 203.1504669189453 190.3704376220703 162.88023376464844 212.81893920898438 218.87278747558594 C 196.113525390625 198.16561889648438 193.6649932861328 206.1988983154297 193.58026123046875 206.0469512939453 C 188.985107421875 212.09490966796875 187.92283630371094 217.28260803222656 175.21206665039062 235.64566040039062 C 191.44139099121094 222.05384826660156 181.7952423095703 243.5493927001953 173.47738647460938 251.6780548095703 C 166.81661987304688 239.4855194091797 179.78732299804688 262.7263488769531 166.46556091308594 264.0988464355469 C 164.54957580566406 281.0688781738281 151.63034057617188 305.16925048828125 127.13349151611328 300.1395263671875 C 106.52632904052734 286.19091796875 106.90919494628906 286.3035888671875 107.38609313964844 262.39453125 C 107.02908325195312 261.6334533691406 115.48990631103516 239.31797790527344 112.87355041503906 235.0668487548828 C 104.43968200683594 228.92584228515625 100.56477355957031 275.1329345703125 114.01345825195312 237.18048095703125 C 117.39791107177734 226.81068420410156 115.223388671875 229.302001953125 116.5282211303711 225.6669464111328 C 117.59770202636719 221.43887329101562 117.18795013427734 222.3740997314453 117.60144805908203 210.718017578125 C 119.26770782470703 217.00025939941406 119.58769226074219 216.3805389404297 117.052734375 210.23245239257812 C 99.67176055908203 207.903564453125 120.22509765625 194.49485778808594 153.2056121826172 191.68402099609375 C 153.28321838378906 190.89035034179688 157.85446166992188 192.1422882080078 160.3582763671875 201.23590087890625 C 152.17674255371094 199.9980010986328 138.89801025390625 203.13177490234375 142.264892578125 207.06512451171875 C 164.9766082763672 202.32786560058594 149.05270385742188 224.6425018310547 138.226806640625 232.8760223388672 C 132.49974060058594 226.97189331054688 149.39108276367188 239.74453735351562 149.8812713623047 201.63035583496094 C 136.39715576171875 216.81405639648438 141.97674560546875 231.08413696289062 138.52886962890625 243.634521484375 C 140.388671875 236.86082458496094 134.51956176757812 219.4709930419922 143.55636596679688 229.53619384765625 C 143.6258544921875 246.4676513671875 136.1521453857422 240.3317108154297 130.07135009765625 267.0531921386719 C 133.2687530517578 276.87579345703125 138.71017456054688 244.62521362304688 140.489990234375 237.58401489257812 C 153.66595458984375 213.56570434570312 160.6436004638672 199.54896545410156 173.03289794921875 166.94631958007812 C 148.36581420898438 210.32550048828125 171.79872131347656 186.62135314941406 179.88998413085938 151.70834350585938 C 178.12098693847656 166.17405700683594 179.59031677246094 159.26422119140625 186.56533813476562 141.895263671875 C 190.56443786621094 129.1708526611328 200.07261657714844 115.88996124267578 200.71559143066406 103.60909271240234 C 209.54144287109375 99.11799621582031 211.93309020996094 88.91615295410156 204.5379638671875 102.44884490966797 C 203.8685760498047 79.97283172607422 241.94528198242188 96.53050994873047 223.66322326660156 74.12313079833984 C 219.51686096191406 70.63858032226562 219.88404846191406 70.40771484375 218.10739135742188 68.20963287353516 C 218.98812866210938 68.3292236328125 212.07421875 66.94888305664062 212.3677978515625 62.32931900024414 C 216.2601776123047 62.9240837097168 184.84535217285156 65.0787582397461 201.4849395751953 47.148902893066406" stroke-width="0.0" fill="rgb(0, 0, 0)" opacity="1.0" stroke="rgb(0, 0, 0)" stroke-opacity="1" stroke-linecap="round" stroke-linejoin="round"/>
  </g>
</svg>
