<?xml version="1.0" ?>
<svg xmlns="http://www.w3.org/2000/svg" version="1.1" width="320" height="320">
  <defs/>
  <g>
    <path d="M 183.1215057373047 40.28337478637695 C 204.94070434570312 56.2985725402832 211.6389617919922 58.857757568359375 215.2208251953125 61.1120719909668 C 222.3496551513672 70.01773834228516 223.97183227539062 73.82685089111328 224.37860107421875 83.49630737304688 C 213.24134826660156 106.19580841064453 222.33685302734375 85.12118530273438 206.85476684570312 92.04898834228516 C 200.13082885742188 100.17048645019531 196.38185119628906 101.8941879272461 200.7031707763672 113.15029907226562 C 185.09201049804688 125.67398071289062 209.33811950683594 125.49183654785156 190.1470489501953 133.7672119140625 C 193.75137329101562 121.34611511230469 196.54258728027344 135.45687866210938 190.71133422851562 141.8588409423828 C 171.01739501953125 200.27713012695312 175.17056274414062 159.43991088867188 199.88607788085938 211.312744140625 C 183.20228576660156 191.03501892089844 181.92979431152344 200.3939208984375 181.84266662597656 200.9654541015625 C 176.69970703125 207.7961883544922 176.21636962890625 211.59664916992188 165.0996551513672 232.2709197998047 C 180.70724487304688 218.3572998046875 171.80120849609375 238.91851806640625 164.96693420410156 246.7071075439453 C 157.5196990966797 235.39479064941406 170.41928100585938 257.4444274902344 157.98202514648438 259.7889709472656 C 158.01242065429688 278.6150207519531 145.0924072265625 301.0804748535156 123.08341217041016 298.5455627441406 C 101.54077911376953 290.6399841308594 96.916259765625 280.5555419921875 97.91822814941406 259.74786376953125 C 97.00811004638672 258.3536376953125 104.07521057128906 235.2374267578125 102.66448211669922 231.3607177734375 C 93.25364685058594 225.34078979492188 90.69284057617188 272.82208251953125 102.32391357421875 235.04052734375 C 105.95269012451172 224.86045837402344 104.01419830322266 227.1412811279297 104.84241485595703 223.0955810546875 C 105.46945190429688 218.8931121826172 105.11753845214844 219.88909912109375 104.36776733398438 208.4176483154297 C 107.39986419677734 216.75628662109375 107.88015747070312 215.64898681640625 104.26506805419922 208.17784118652344 C 83.07699584960938 207.36138916015625 106.68575286865234 192.90438842773438 139.270263671875 187.21670532226562 C 139.3458251953125 186.28738403320312 148.26193237304688 188.1365203857422 150.64743041992188 195.7409210205078 C 140.3716583251953 194.62416076660156 127.2815170288086 197.4486083984375 131.1613006591797 201.8253631591797 C 155.3145294189453 197.25067138671875 139.08245849609375 222.08566284179688 128.29574584960938 230.83865356445312 C 120.96122741699219 223.4185333251953 140.513671875 236.18821716308594 138.315673828125 196.76771545410156 C 125.77457427978516 213.0977325439453 131.6946563720703 227.35350036621094 128.33511352539062 241.6964111328125 C 129.38975524902344 235.0581512451172 122.53583526611328 216.78829956054688 134.01065063476562 230.06658935546875 C 133.7464599609375 242.69216918945312 124.92668151855469 235.97671508789062 120.61837768554688 264.505615234375 C 126.11410522460938 273.5709228515625 129.9388427734375 241.80697631835938 130.68324279785156 234.81163024902344 C 143.52603149414062 210.0860137939453 149.24740600585938 196.87161254882812 160.4149169921875 162.1584930419922 C 137.68704223632812 206.15866088867188 159.24034118652344 181.8329315185547 166.20654296875 144.87367248535156 C 164.29640197753906 161.59580993652344 165.14712524414062 155.95361328125 172.4947509765625 134.90924072265625 C 176.93698120117188 123.28081512451172 185.3804931640625 109.98985290527344 185.18650817871094 97.70994567871094 C 195.35345458984375 93.1142578125 196.99234008789062 82.32781219482422 189.39161682128906 97.83604431152344 C 190.2190704345703 73.72254943847656 221.75096130371094 87.1907730102539 211.51516723632812 70.70880889892578 C 208.12583923339844 67.17577362060547 208.61602783203125 66.91979217529297 206.92262268066406 64.4092025756836 C 207.6315460205078 64.559814453125 196.91705322265625 61.61606216430664 197.1964569091797 56.190616607666016 C 203.12307739257812 58.672611236572266 164.28579711914062 58.16294479370117 183.1215057373047 40.28337478637695" stroke-width="0.0" fill="rgb(0, 0, 0)" opacity="1.0" stroke="rgb(0, 0, 0)" stroke-opacity="1" stroke-linecap="round" stroke-linejoin="round"/>
  </g>
</svg>
