<?xml version="1.0" ?>
<svg xmlns="http://www.w3.org/2000/svg" version="1.1" width="320" height="320">
  <defs/>
  <g>
    <path d="M 186.70005798339844 43.203369140625 C 206.21771240234375 58.20261764526367 212.39820861816406 60.10016632080078 216.14044189453125 62.23894500732422 C 224.70533752441406 71.45425415039062 225.9354705810547 74.36415100097656 226.2106475830078 86.47808837890625 C 215.99461364746094 106.80191802978516 225.18153381347656 88.20014953613281 209.53260803222656 93.9321517944336 C 203.02798461914062 101.80673217773438 199.56219482421875 103.64459991455078 203.303466796875 115.34312438964844 C 187.60020446777344 126.32331848144531 211.59432983398438 126.29186248779297 192.33937072753906 134.02516174316406 C 195.0941162109375 122.03985595703125 197.98463439941406 137.234619140625 193.16366577148438 143.15721130371094 C 172.59097290039062 197.45703125 178.07406616210938 160.0927734375 199.952880859375 211.1726531982422 C 183.96151733398438 193.29957580566406 182.36402893066406 200.5865020751953 182.04913330078125 202.12606811523438 C 176.991943359375 208.23338317871094 176.74465942382812 211.16912841796875 165.60108947753906 231.35525512695312 C 181.08489990234375 219.6597442626953 171.665283203125 239.06187438964844 164.58973693847656 246.3116455078125 C 158.11207580566406 234.59893798828125 168.512451171875 256.1828918457031 157.8580780029297 257.9819641113281 C 156.39549255371094 275.1737365722656 145.63136291503906 296.8215637207031 124.88870239257812 295.9767761230469 C 102.93579864501953 290.0768737792969 98.47901916503906 280.7286376953125 98.3390121459961 260.6526794433594 C 97.64095306396484 259.5951843261719 105.62471771240234 234.1524658203125 103.89195251464844 229.75064086914062 C 94.14249420166016 223.38259887695312 91.88309478759766 269.2480773925781 104.44520568847656 233.87258911132812 C 107.20846557617188 224.34901428222656 105.24828338623047 226.7548065185547 106.43394470214844 222.5905303955078 C 107.74195098876953 216.73629760742188 107.32111358642578 217.77760314941406 107.39339447021484 207.5137481689453 C 109.56187438964844 214.2895050048828 109.7342758178711 213.8857421875 106.3587646484375 205.90090942382812 C 86.81217956542969 204.19102478027344 108.13594818115234 190.9207763671875 140.89894104003906 186.69244384765625 C 140.98878479003906 186.11886596679688 149.69630432128906 187.901123046875 152.15638732910156 195.8986358642578 C 141.56863403320312 194.39007568359375 129.33596801757812 197.14227294921875 132.80694580078125 201.45416259765625 C 156.28541564941406 198.26007080078125 140.9011993408203 220.86585998535156 130.0344696044922 229.53033447265625 C 122.5533218383789 221.56666564941406 141.53411865234375 234.9557647705078 139.5673828125 197.50466918945312 C 127.08091735839844 212.7342987060547 132.0358428955078 227.60450744628906 129.16943359375 240.6295166015625 C 130.62432861328125 234.0435791015625 124.64134216308594 215.4727325439453 135.29934692382812 229.1402130126953 C 134.7612762451172 242.43685913085938 125.27432250976562 235.81640625 121.25101470947266 262.8549499511719 C 126.13373565673828 270.3268127441406 130.2036590576172 239.8925018310547 132.28330993652344 231.82257080078125 C 144.96893310546875 209.18698120117188 151.07054138183594 196.76927185058594 162.04568481445312 163.7429962158203 C 139.73716735839844 205.3899688720703 160.5789337158203 181.754638671875 168.55462646484375 147.42910766601562 C 167.38475036621094 161.93218994140625 168.42950439453125 155.87567138671875 175.3295440673828 134.6015167236328 C 179.46571350097656 123.48100280761719 188.24172973632812 111.33309173583984 188.29437255859375 99.14924621582031 C 197.80059814453125 94.42133331298828 200.3917236328125 83.76687622070312 192.9898223876953 96.8111572265625 C 192.8974609375 75.95633697509766 226.0825958251953 89.35018920898438 213.4488525390625 71.64515686035156 C 209.80393981933594 68.2632827758789 210.489501953125 67.88898468017578 208.3394317626953 65.35679626464844 C 208.9281005859375 65.46702575683594 199.69837951660156 63.523406982421875 199.93067932128906 58.42574691772461 C 204.84115600585938 60.1911735534668 171.1188201904297 59.63320541381836 186.70005798339844 43.203369140625" stroke-width="0.0" fill="rgb(0, 0, 0)" opacity="1.0" stroke="rgb(0, 0, 0)" stroke-opacity="1" stroke-linecap="round" stroke-linejoin="round"/>
  </g>
</svg>
