<?xml version="1.0" ?>
<svg xmlns="http://www.w3.org/2000/svg" version="1.1" width="320" height="320">
  <defs/>
  <g>
    <path d="M 208.92874145507812 58.26460266113281 C 215.5170440673828 68.36405181884766 219.42172241210938 72.7039794921875 220.74940490722656 74.51252746582031 C 232.05096435546875 82.77574157714844 233.7953338623047 84.64776611328125 241.09811401367188 102.40933990478516 C 231.9308624267578 133.14474487304688 236.7839813232422 111.2685775756836 220.8593292236328 115.1731185913086 C 213.9432830810547 122.28661346435547 209.42080688476562 123.80667114257812 211.83546447753906 135.59616088867188 C 195.0471954345703 144.33790588378906 217.0574951171875 146.9364776611328 199.2557830810547 150.94561767578125 C 202.73902893066406 141.096435546875 204.16973876953125 153.2871856689453 199.9208984375 158.7137908935547 C 170.383544921875 214.69168090820312 178.84828186035156 172.9770050048828 201.35317993164062 233.9816131591797 C 185.81121826171875 213.13916015625 184.43003845214844 215.2329559326172 184.3031463623047 216.35781860351562 C 178.56390380859375 221.16741943359375 178.5294647216797 221.75900268554688 159.6772918701172 245.06202697753906 C 180.33154296875 233.27792358398438 168.44317626953125 249.81272888183594 157.99459838867188 257.8923034667969 C 148.69970703125 242.7941436767578 163.1090545654297 269.6980895996094 149.0774383544922 268.1169128417969 C 146.53135681152344 275.4565734863281 138.05007934570312 299.3569030761719 120.19329833984375 302.15362548828125 C 98.33980560302734 302.60101318359375 91.99382019042969 293.0245361328125 89.36756896972656 269.7829284667969 C 87.32926940917969 265.9119567871094 101.29582214355469 238.6852264404297 101.02631378173828 238.19113159179688 C 89.00045013427734 229.8754425048828 82.70426940917969 278.80242919921875 101.48116302490234 238.47706604003906 C 105.15746307373047 229.43951416015625 102.74652862548828 231.8167724609375 104.76116180419922 227.7633819580078 C 106.53997039794922 222.71714782714844 105.20506286621094 225.89804077148438 105.6397705078125 216.30064392089844 C 106.80838012695312 222.11386108398438 107.43152618408203 221.1280975341797 106.25695037841797 217.72811889648438 C 88.15744018554688 210.92190551757812 109.39096069335938 196.13070678710938 138.96469116210938 198.9065704345703 C 147.03858947753906 200.5059814453125 147.67068481445312 197.98582458496094 152.32421875 209.0854034423828 C 143.94020080566406 207.2394561767578 127.84577178955078 210.92230224609375 130.61099243164062 214.51345825195312 C 155.1514129638672 210.3752899169922 139.8363800048828 231.17886352539062 130.7193603515625 241.5861358642578 C 121.23635864257812 231.84677124023438 136.19155883789062 245.1685791015625 139.2696990966797 208.64364624023438 C 126.3403549194336 222.79103088378906 129.5293731689453 235.9651641845703 124.4101791381836 248.35531616210938 C 128.21046447753906 241.53115844726562 123.7781982421875 222.6334228515625 136.7498016357422 232.8076629638672 C 131.29798889160156 252.11026000976562 118.82306671142578 242.35511779785156 112.63467407226562 270.9613952636719 C 117.96368408203125 276.4385070800781 126.5019760131836 243.13162231445312 128.0353546142578 239.205322265625 C 146.13882446289062 218.57057189941406 154.7082977294922 205.40158081054688 166.64430236816406 175.25132751464844 C 140.44940185546875 219.52066040039062 165.8557586669922 195.44241333007812 174.21353149414062 161.06158447265625 C 172.05581665039062 174.11480712890625 173.78233337402344 170.399169921875 184.8672332763672 150.49990844726562 C 190.09812927246094 141.62864685058594 199.9973602294922 130.10496520996094 199.60662841796875 117.71930694580078 C 209.4063262939453 115.04510498046875 208.86813354492188 99.47622680664062 196.75955200195312 121.96537780761719 C 201.7526397705078 95.73792266845703 250.69432067871094 114.35237121582031 221.10977172851562 82.62213134765625 C 214.82554626464844 78.55593872070312 214.7814178466797 76.94013977050781 214.64492797851562 74.23871612548828 C 215.745361328125 75.22738647460938 204.04452514648438 73.78668212890625 207.407958984375 75.7543716430664 C 213.345703125 74.21141052246094 188.21014404296875 74.33692932128906 208.92874145507812 58.26460266113281" stroke-width="0.0" fill="rgb(0, 0, 0)" opacity="1.0" stroke="rgb(0, 0, 0)" stroke-opacity="1" stroke-linecap="round" stroke-linejoin="round"/>
  </g>
</svg>
