<?xml version="1.0" ?>
<svg xmlns="http://www.w3.org/2000/svg" version="1.1" width="320" height="320">
  <defs/>
  <g>
    <path d="M 189.96669006347656 41.4195556640625 C 217.19131469726562 54.03215026855469 224.30564880371094 59.42453384399414 227.82861328125 63.40739059448242 C 231.0584716796875 70.4593505859375 231.3776092529297 80.31780242919922 231.00096130371094 85.86854553222656 C 219.91354370117188 97.38971710205078 228.1586456298828 79.21715545654297 210.29559326171875 86.63383483886719 C 207.9837646484375 94.45396423339844 204.81614685058594 97.18795776367188 209.13531494140625 107.9800033569336 C 194.7509002685547 119.31805419921875 217.9623260498047 121.33169555664062 199.5137176513672 129.976806640625 C 203.9209442138672 116.3542251586914 207.37722778320312 130.4660186767578 201.0896453857422 138.3821258544922 C 186.7303466796875 188.0186309814453 202.71755981445312 151.46890258789062 219.2898406982422 207.3905487060547 C 196.37779235839844 188.80714416503906 195.34817504882812 194.61534118652344 195.62765502929688 199.08114624023438 C 190.1676483154297 208.23434448242188 190.69998168945312 208.97589111328125 185.28182983398438 228.60333251953125 C 202.39646911621094 220.7718963623047 175.5227508544922 255.38140869140625 184.500732421875 251.10800170898438 C 172.8994598388672 231.1111297607422 195.05621337890625 253.4901885986328 177.03692626953125 261.8736267089844 C 179.0904998779297 289.1322326660156 162.90196228027344 312.206298828125 138.92881774902344 303.4129943847656 C 119.93556213378906 291.9833068847656 115.97630310058594 278.5177307128906 119.95600891113281 261.6098937988281 C 118.42729187011719 259.7038879394531 123.65275573730469 239.82049560546875 118.50809478759766 232.90728759765625 C 112.31930541992188 229.46710205078125 116.44967651367188 274.3089904785156 118.24650573730469 245.1107635498047 C 120.62018585205078 233.79290771484375 121.40838623046875 231.81265258789062 122.11238098144531 228.1775665283203 C 122.22327423095703 218.74925231933594 121.65929412841797 220.49114990234375 120.61738586425781 205.73179626464844 C 124.52300262451172 212.19589233398438 123.19627380371094 213.37059020996094 118.53273010253906 204.5464630126953 C 99.49541473388672 206.1063690185547 121.51136779785156 195.56292724609375 146.9755096435547 189.7872772216797 C 159.94972229003906 188.60484313964844 160.09608459472656 186.91990661621094 164.0592498779297 195.04815673828125 C 158.49200439453125 195.3564453125 146.1378173828125 198.841064453125 148.41818237304688 201.2021484375 C 169.7371368408203 195.39093017578125 148.68716430664062 229.0688934326172 140.3004150390625 235.5618133544922 C 137.17530822753906 233.09925842285156 161.84130859375 246.75323486328125 151.66424560546875 193.0071563720703 C 139.43055725097656 211.08139038085938 152.0601806640625 227.98155212402344 146.92160034179688 247.30194091796875 C 147.4921875 236.15097045898438 139.86215209960938 216.9980010986328 152.2949981689453 226.34568786621094 C 155.2008514404297 244.87326049804688 143.8143768310547 237.16217041015625 139.38385009765625 268.8558349609375 C 146.96621704101562 282.092041015625 152.290283203125 254.82888793945312 142.36865234375 234.80416870117188 C 153.2732696533203 217.0382843017578 163.65292358398438 196.55889892578125 170.92337036132812 167.67893981933594 C 154.4481658935547 210.8955535888672 167.41444396972656 178.27554321289062 176.07769775390625 144.2235870361328 C 177.6979522705078 159.0064697265625 180.04554748535156 142.781982421875 183.40097045898438 133.94747924804688 C 186.8433074951172 119.3826904296875 196.80209350585938 105.51115417480469 194.98886108398438 93.25064086914062 C 200.57228088378906 88.72418212890625 200.41860961914062 78.45393371582031 198.21031188964844 86.94445037841797 C 208.99639892578125 65.80303955078125 226.2876434326172 84.6371841430664 223.39630126953125 75.05450439453125 C 218.29840087890625 67.79651641845703 219.22926330566406 67.5571060180664 217.6194610595703 63.817745208740234 C 219.00375366210938 64.21701049804688 208.59527587890625 58.30449676513672 209.2029266357422 53.79362869262695 C 216.4973602294922 54.97248840332031 178.61634826660156 55.561370849609375 189.96669006347656 41.4195556640625" stroke-width="0.0" fill="rgb(0, 0, 0)" opacity="1.0" stroke="rgb(0, 0, 0)" stroke-opacity="1" stroke-linecap="round" stroke-linejoin="round"/>
  </g>
</svg>
