<?xml version="1.0" ?>
<svg xmlns="http://www.w3.org/2000/svg" version="1.1" width="320" height="320">
  <defs/>
  <g>
    <path d="M 238.97372436523438 87.48223114013672 C 242.37632751464844 82.52252960205078 242.71771240234375 85.28990936279297 243.92176818847656 86.57075500488281 C 253.07061767578125 90.09577941894531 244.17745971679688 106.68294525146484 263.340576171875 120.10980224609375 C 269.56121826171875 161.58456420898438 269.896240234375 161.21630859375 249.05233764648438 145.01290893554688 C 242.32261657714844 148.13897705078125 239.35704040527344 148.512939453125 234.36903381347656 160.45394897460938 C 219.7767333984375 164.0753173828125 236.61793518066406 174.7193145751953 221.40911865234375 172.51229858398438 C 226.5453643798828 167.2886962890625 223.63455200195312 177.71701049804688 214.4162139892578 180.8848114013672 C 170.31704711914062 218.15773010253906 219.10443115234375 192.47166442871094 204.63490295410156 257.47296142578125 C 191.43284606933594 235.6178741455078 190.24032592773438 237.00128173828125 190.060302734375 237.28382873535156 C 180.11231994628906 239.46499633789062 179.60958862304688 240.14578247070312 159.31204223632812 260.9827575683594 C 180.3756561279297 257.5010070800781 165.01504516601562 269.484130859375 160.75572204589844 271.74066162109375 C 135.1348876953125 266.05828857421875 168.60037231445312 282.83349609375 145.06048583984375 282.2746276855469 C 141.3402862548828 288.0350341796875 130.8735809326172 303.381103515625 119.57254028320312 304.29852294921875 C 98.860595703125 311.17059326171875 91.01412963867188 305.2529602050781 81.54418182373047 281.74261474609375 C 75.80766296386719 270.53448486328125 102.27442932128906 241.98097229003906 101.13273620605469 227.87081909179688 C 93.87835693359375 235.64988708496094 75.16862487792969 268.4462890625 99.42868041992188 243.96299743652344 C 94.8360824584961 250.42938232421875 103.41133880615234 242.91165161132812 108.47285461425781 236.9326934814453 C 112.88569641113281 231.37342834472656 111.23343658447266 232.89720153808594 114.25749206542969 224.17897033691406 C 114.21893310546875 225.3845977783203 119.52864837646484 218.99655151367188 122.56996154785156 208.56436157226562 C 109.86749267578125 196.48318481445312 125.57844543457031 197.7665252685547 139.5147705078125 201.45254516601562 C 147.0114288330078 203.9014892578125 157.7965850830078 210.16775512695312 159.05575561523438 217.22817993164062 C 153.35902404785156 215.6796875 140.33819580078125 217.09112548828125 143.41836547851562 222.13021850585938 C 161.92730712890625 221.80734252929688 142.2877197265625 244.13616943359375 129.65859985351562 255.2345733642578 C 124.2010726928711 249.55499267578125 142.4532928466797 264.0970153808594 147.03854370117188 221.15560913085938 C 130.051025390625 233.04490661621094 130.0044403076172 251.44717407226562 119.31108093261719 264.1543273925781 C 125.26033020019531 256.9481201171875 124.79999542236328 230.29051208496094 133.93914794921875 245.3802032470703 C 126.71282196044922 258.9676513671875 109.02363586425781 246.86378479003906 105.34661102294922 278.6347961425781 C 117.24903869628906 286.0823669433594 128.45703125 256.2787780761719 131.21722412109375 239.5347442626953 C 153.8668670654297 229.8475341796875 167.7068328857422 221.5772705078125 193.89105224609375 187.77301025390625 C 140.6650390625 231.00210571289062 168.00137329101562 205.52137756347656 196.51040649414062 179.03924560546875 C 190.972900390625 193.99090576171875 204.84194946289062 173.80836486816406 208.33114624023438 172.9919891357422 C 216.73855590820312 163.285888671875 227.412353515625 155.73919677734375 234.69480895996094 143.15072631835938 C 240.39691162109375 141.16148376464844 249.9371337890625 127.73530578613281 226.39627075195312 144.10598754882812 C 217.26165771484375 130.1698455810547 297.536865234375 152.7384796142578 242.53445434570312 92.4692153930664 C 239.38856506347656 88.84591674804688 239.41067504882812 88.3821029663086 239.3670654296875 86.0601806640625 C 239.51129150390625 85.27694702148438 237.79977416992188 81.409423828125 239.2920684814453 83.78701782226562 C 242.1370849609375 83.14816284179688 245.27471923828125 92.46498107910156 238.97372436523438 87.48223114013672" stroke-width="0.0" fill="rgb(0, 0, 0)" opacity="1.0" stroke="rgb(0, 0, 0)" stroke-opacity="1" stroke-linecap="round" stroke-linejoin="round"/>
  </g>
</svg>
