<?xml version="1.0" ?>
<svg xmlns="http://www.w3.org/2000/svg" version="1.1" width="320" height="320">
  <defs/>
  <g>
    <path d="M 206.23095703125 63.63500213623047 C 214.4815673828125 74.07861328125 215.65914916992188 76.5204849243164 217.60870361328125 77.7308349609375 C 229.9246368408203 86.2933578491211 233.76612854003906 91.48924255371094 237.69638061523438 111.24856567382812 C 229.48812866210938 125.31201171875 234.41610717773438 110.263916015625 218.2671356201172 112.83979034423828 C 213.03375244140625 119.65950012207031 209.38047790527344 121.46866607666016 212.40902709960938 135.2843017578125 C 197.26438903808594 143.4246826171875 218.3223876953125 148.44952392578125 199.21627807617188 152.27359008789062 C 204.0891571044922 141.22413635253906 206.4071807861328 156.48001098632812 198.9081573486328 161.77130126953125 C 173.64593505859375 205.2127685546875 196.7519073486328 170.45468139648438 206.9062042236328 233.46237182617188 C 190.20367431640625 213.13148498535156 187.5087890625 218.9485626220703 187.0261688232422 218.04896545410156 C 178.90602111816406 226.45614624023438 179.25668334960938 227.47921752929688 164.2430877685547 249.982177734375 C 183.07391357421875 240.6209716796875 172.2288055419922 256.9943542480469 166.3772735595703 263.366455078125 C 141.98739624023438 262.5320129394531 178.0982666015625 270.7734680175781 155.86061096191406 275.7277526855469 C 153.92152404785156 290.8142395019531 143.89944458007812 312.66485595703125 124.10758972167969 312.8393859863281 C 101.82737731933594 312.456298828125 94.37487030029297 300.80938720703125 93.37921905517578 276.9290771484375 C 91.48048400878906 272.09234619140625 104.27532958984375 248.4657745361328 101.0483627319336 236.38687133789062 C 96.96077728271484 246.01580810546875 90.62760925292969 284.6583251953125 102.89470672607422 256.0071105957031 C 108.28884887695312 235.796142578125 101.02136993408203 240.32289123535156 102.24838256835938 249.3580322265625 C 111.12128448486328 233.48899841308594 110.00602722167969 235.38685607910156 110.08963012695312 225.49676513671875 C 110.53845977783203 226.8565216064453 113.65704345703125 222.0905303955078 112.39227294921875 212.20184326171875 C 94.17318725585938 208.08692932128906 114.39763641357422 198.39889526367188 140.99530029296875 202.2765350341797 C 150.43011474609375 206.0186004638672 153.06631469726562 207.20462036132812 154.79611206054688 211.63218688964844 C 144.57505798339844 208.15476989746094 134.00140380859375 208.62850952148438 135.03465270996094 210.59112548828125 C 161.6596221923828 215.9477996826172 141.6753387451172 242.75534057617188 129.77911376953125 251.24949645996094 C 119.20465850830078 236.97634887695312 142.64454650878906 249.57696533203125 144.1125946044922 208.8966522216797 C 125.85675811767578 229.065185546875 138.87440490722656 249.39451599121094 128.99903869628906 267.5817565917969 C 129.607421875 257.3856201171875 121.73540496826172 232.80325317382812 129.65296936035156 247.28770446777344 C 127.92911529541016 256.11822509765625 119.6521987915039 249.46107482910156 116.27086639404297 279.998046875 C 124.31488037109375 288.03668212890625 135.60829162597656 259.282470703125 134.96469116210938 243.80435180664062 C 146.88653564453125 225.7644805908203 157.37928771972656 213.62403869628906 169.37387084960938 180.00389099121094 C 145.33644104003906 222.92489624023438 168.46261596679688 201.7525634765625 175.38369750976562 165.62469482421875 C 176.3099822998047 177.0684356689453 179.75796508789062 162.3161163330078 185.34153747558594 155.935302734375 C 189.4729461669922 142.3799285888672 201.58641052246094 130.3772735595703 200.47247314453125 116.77198791503906 C 207.87911987304688 112.65892028808594 211.59149169921875 104.17538452148438 206.05813598632812 115.4427261352539 C 203.30062866210938 99.24018859863281 250.7027587890625 116.59503173828125 218.00209045410156 82.8481674194336 C 214.18089294433594 80.845947265625 213.74481201171875 79.2022705078125 213.38345336914062 77.52114868164062 C 213.40090942382812 76.96544647216797 210.27720642089844 74.45277404785156 211.44908142089844 75.70256042480469 C 214.03030395507812 75.40680694580078 191.26426696777344 77.99555969238281 206.23095703125 63.63500213623047" stroke-width="0.0" fill="rgb(0, 0, 0)" opacity="1.0" stroke="rgb(0, 0, 0)" stroke-opacity="1" stroke-linecap="round" stroke-linejoin="round"/>
  </g>
</svg>
