<?xml version="1.0" ?>
<svg xmlns="http://www.w3.org/2000/svg" version="1.1" width="320" height="320">
  <defs/>
  <g>
    <path d="M 210.85598754882812 50.96001434326172 C 217.89486694335938 62.34706115722656 223.07681274414062 65.82552337646484 225.0677032470703 67.64888763427734 C 237.04920959472656 77.64264678955078 239.5393829345703 81.53939819335938 243.8572540283203 96.469970703125 C 232.8086700439453 126.75517272949219 239.89547729492188 101.63710021972656 221.70883178710938 107.50310516357422 C 214.14112854003906 114.64328002929688 211.0521240234375 116.12423706054688 213.61447143554688 127.8708267211914 C 196.8273162841797 136.72125244140625 218.84088134765625 142.65084838867188 198.96421813964844 144.81773376464844 C 207.40591430664062 134.24546813964844 198.76229858398438 152.00799560546875 204.49984741210938 151.00851440429688 C 170.65994262695312 207.62413024902344 186.99447631835938 167.75180053710938 205.41122436523438 229.49632263183594 C 189.74542236328125 205.8017120361328 186.06658935546875 212.6368865966797 185.7100372314453 213.88978576660156 C 178.560302734375 220.24354553222656 178.60446166992188 221.1416473388672 163.11233520507812 240.6293487548828 C 183.76522827148438 229.85540771484375 171.35133361816406 247.97703552246094 163.09317016601562 255.44586181640625 C 150.06309509277344 240.3957977294922 168.4311981201172 268.034912109375 151.5474395751953 266.44482421875 C 148.90145874023438 276.2758483886719 138.59751892089844 297.7615966796875 122.515869140625 300.4764404296875 C 100.05907440185547 301.0801086425781 92.79283905029297 290.04083251953125 90.9885482788086 267.0340881347656 C 89.22354888916016 264.73931884765625 104.30197143554688 239.08367919921875 98.6549301147461 229.93800354003906 C 98.46282958984375 230.56906127929688 84.00764465332031 265.8597106933594 99.67234802246094 240.35360717773438 C 102.70423889160156 235.75949096679688 97.57438659667969 241.26812744140625 102.66087341308594 232.37814331054688 C 105.696044921875 225.98008728027344 104.94912719726562 226.95904541015625 107.11331939697266 216.18771362304688 C 107.39473724365234 217.1613006591797 108.2989273071289 215.85452270507812 106.72804260253906 210.8814239501953 C 89.99610137939453 205.61668395996094 105.88520812988281 194.95819091796875 128.34165954589844 192.54002380371094 C 146.1655731201172 193.46990966796875 151.85855102539062 195.2664337158203 154.6399688720703 203.7079315185547 C 144.51011657714844 202.43910217285156 128.31797790527344 206.0450897216797 131.23565673828125 210.02178955078125 C 158.46810913085938 205.2029266357422 138.63624572753906 229.2587890625 124.85319519042969 239.4832305908203 C 119.74543762207031 232.80902099609375 135.59237670898438 245.5177459716797 142.4211883544922 203.74610900878906 C 123.87353515625 223.78955078125 126.25069427490234 242.26779174804688 124.47288513183594 257.63421630859375 C 131.7588653564453 246.0176544189453 123.50232696533203 218.4720458984375 134.30845642089844 231.48992919921875 C 133.8438720703125 248.1792449951172 118.88447570800781 237.65208435058594 113.88280487060547 267.91064453125 C 119.25236511230469 272.3598327636719 129.3186492919922 243.77764892578125 130.37722778320312 241.30807495117188 C 145.7633514404297 217.614501953125 153.7055206298828 201.23582458496094 172.58343505859375 172.66839599609375 C 139.03976440429688 210.4365692138672 164.31149291992188 189.98472595214844 176.0255584716797 156.2746124267578 C 173.5844268798828 167.78021240234375 176.23509216308594 160.2880859375 187.82540893554688 144.51795959472656 C 190.64764404296875 128.34214782714844 201.84048461914062 121.0688705444336 201.93870544433594 110.42073822021484 C 209.39474487304688 107.80097198486328 209.77981567382812 93.62787628173828 199.5443878173828 114.47342681884766 C 201.62562561035156 89.43274688720703 253.07089233398438 106.0702133178711 224.65292358398438 76.15593719482422 C 218.79220581054688 72.81539154052734 218.52259826660156 71.05642700195312 217.75262451171875 67.2284927368164 C 219.58653259277344 68.66046142578125 209.29400634765625 69.21768951416016 208.69937133789062 66.44581604003906 C 216.22178649902344 66.76007843017578 190.2526397705078 66.62741088867188 210.85598754882812 50.96001434326172" stroke-width="0.0" fill="rgb(0, 0, 0)" opacity="1.0" stroke="rgb(0, 0, 0)" stroke-opacity="1" stroke-linecap="round" stroke-linejoin="round"/>
  </g>
</svg>
