<?xml version="1.0" ?>
<svg xmlns="http://www.w3.org/2000/svg" version="1.1" width="320" height="320">
  <defs/>
  <g>
    <path d="M 155.1305694580078 42.902557373046875 C 188.8035888671875 51.44287109375 196.46841430664062 58.48988723754883 197.6787872314453 61.93977355957031 C 199.40512084960938 68.7900619506836 200.87583923339844 79.31890106201172 196.00303649902344 81.0061264038086 C 187.8036346435547 93.85233306884766 197.43707275390625 71.53031921386719 178.4675750732422 79.30509948730469 C 175.90313720703125 88.41980743408203 172.84857177734375 91.46498107910156 178.82046508789062 102.64527893066406 C 165.8636932373047 115.63628387451172 190.31124877929688 112.81724548339844 172.31692504882812 124.6457290649414 C 175.6728057861328 110.02156066894531 179.91917419433594 123.14889526367188 174.6858673095703 129.478271484375 C 168.9358673095703 192.19183349609375 166.61866760253906 149.1736602783203 196.39886474609375 201.626708984375 C 173.6324462890625 179.87660217285156 173.80862426757812 184.818359375 172.92239379882812 184.19882202148438 C 169.06658935546875 194.68032836914062 169.53231811523438 203.9792938232422 165.0121612548828 227.21487426757812 C 177.59698486328125 212.21340942382812 171.63748168945312 235.1320343017578 165.39952087402344 243.6577911376953 C 158.41343688964844 224.91070556640625 177.99642944335938 245.93511962890625 163.63973999023438 255.34286499023438 C 168.4010772705078 287.4627990722656 150.31396484375 310.572998046875 124.79911041259766 301.3066101074219 C 108.60970306396484 290.1146240234375 105.99036407470703 276.9102478027344 108.0057144165039 257.11553955078125 C 104.36095428466797 250.00421142578125 104.50614166259766 232.60943603515625 104.11203002929688 234.9866180419922 C 95.34101104736328 230.89468383789062 103.46654510498047 277.21148681640625 102.08539581298828 243.22952270507812 C 106.10840606689453 228.44400024414062 103.75027465820312 232.95108032226562 103.72437286376953 224.5399169921875 C 102.76113891601562 215.9695587158203 102.04237365722656 220.5725860595703 97.36329650878906 206.50506591796875 C 102.22367858886719 221.1513214111328 103.12405395507812 219.4572296142578 96.72447204589844 208.38560485839844 C 75.29794311523438 213.55084228515625 99.86903381347656 198.23927307128906 136.14981079101562 187.3861846923828 C 136.17202758789062 186.24349975585938 139.95419311523438 186.8579864501953 142.9373779296875 191.99038696289062 C 133.07199096679688 191.8501434326172 117.70188903808594 196.40245056152344 123.1092529296875 199.4370880126953 C 153.41004943847656 188.4771728515625 135.09449768066406 227.51866149902344 127.52320861816406 238.48565673828125 C 116.1222152709961 231.99119567871094 144.721923828125 248.487548828125 131.9207000732422 194.3040313720703 C 119.2621841430664 209.82382202148438 131.47569274902344 222.49020385742188 132.46966552734375 241.79684448242188 C 129.18154907226562 233.584228515625 120.13330841064453 218.83871459960938 134.858154296875 229.45523071289062 C 134.38233947753906 238.73526000976562 129.7848358154297 234.82456970214844 128.0875244140625 267.5401611328125 C 133.6390380859375 280.9210205078125 137.02915954589844 248.96031188964844 126.5749282836914 228.24172973632812 C 139.81153869628906 209.612548828125 142.38397216796875 196.37603759765625 149.0241241455078 156.25875854492188 C 134.34141540527344 204.80259704589844 149.2515106201172 174.1978302001953 149.50506591796875 139.4755401611328 C 151.47569274902344 154.75328063964844 151.55319213867188 146.56617736816406 156.6696319580078 127.4549331665039 C 158.052490234375 113.57559967041016 165.751953125 99.31026458740234 162.00450134277344 89.78612518310547 C 168.38134765625 82.77127075195312 168.42837524414062 70.76100158691406 165.62416076660156 80.66389465332031 C 181.8258056640625 60.30364227294922 192.1063995361328 78.10713195800781 190.8873748779297 70.97303771972656 C 185.94363403320312 63.65439224243164 186.85394287109375 64.12041473388672 190.87905883789062 65.97514343261719 C 189.39208984375 63.73088455200195 170.522705078125 55.402706146240234 171.90768432617188 46.830116271972656 C 184.5949249267578 54.5777473449707 142.847900390625 54.78965759277344 155.1305694580078 42.902557373046875" stroke-width="0.0" fill="rgb(0, 0, 0)" opacity="1.0" stroke="rgb(0, 0, 0)" stroke-opacity="1" stroke-linecap="round" stroke-linejoin="round"/>
  </g>
</svg>
