<?xml version="1.0" ?>
<svg xmlns="http://www.w3.org/2000/svg" version="1.1" width="320" height="320">
  <defs/>
  <g>
    <path d="M 204.7720947265625 53.57023620605469 C 212.82212829589844 64.44448852539062 217.19924926757812 69.68417358398438 218.80909729003906 71.91936492919922 C 229.923828125 80.59749603271484 232.90081787109375 85.50664520263672 238.5436248779297 102.69400024414062 C 227.30545043945312 125.19452667236328 232.16993713378906 108.42909240722656 217.12413024902344 112.98246765136719 C 209.5482940673828 118.9376449584961 205.70086669921875 120.08604431152344 208.87057495117188 133.0510711669922 C 191.6024932861328 142.11520385742188 214.1999053955078 142.57046508789062 196.12681579589844 149.38182067871094 C 199.7559356689453 137.6709747314453 199.80335998535156 149.8745880126953 195.17172241210938 155.59915161132812 C 166.73587036132812 213.82565307617188 172.75711059570312 170.4012908935547 196.75527954101562 231.79544067382812 C 181.25460815429688 210.46673583984375 180.7975616455078 211.39120483398438 180.7149658203125 212.05084228515625 C 173.97982788085938 217.71168518066406 173.9434051513672 218.31968688964844 155.09373474121094 241.0245819091797 C 175.5500030517578 229.57427978515625 163.4295196533203 245.36830139160156 155.9751434326172 252.650390625 C 135.49472045898438 251.4626007080078 164.350830078125 260.4406433105469 143.35794067382812 262.768798828125 C 141.8367156982422 267.1644592285156 133.52676391601562 289.34722900390625 122.23761749267578 293.6182556152344 C 100.64636993408203 301.69122314453125 91.98942565917969 294.2173156738281 83.37126159667969 271.869873046875 C 79.19952392578125 265.8446350097656 95.53386688232422 234.20431518554688 94.6104736328125 232.98611450195312 C 82.30485534667969 224.171142578125 80.27411651611328 277.50927734375 96.82658386230469 231.51353454589844 C 100.9738998413086 219.94049072265625 97.00984191894531 226.2550506591797 98.73280334472656 224.85858154296875 C 100.50592803955078 223.13153076171875 98.69187927246094 225.3045654296875 100.92689514160156 215.1670379638672 C 101.40859985351562 219.6239471435547 101.49363708496094 219.55633544921875 99.68528747558594 214.91561889648438 C 81.48817443847656 208.3648223876953 103.02101135253906 190.786376953125 130.77139282226562 193.04373168945312 C 138.99244689941406 194.60150146484375 144.20741271972656 196.4328155517578 147.8953857421875 205.31695556640625 C 139.59034729003906 203.77377319335938 122.15937805175781 207.7755126953125 126.4049301147461 212.61813354492188 C 149.24232482910156 207.2423553466797 135.9539794921875 227.52423095703125 125.53292083740234 238.43829345703125 C 116.02152252197266 232.14862060546875 135.13064575195312 246.39501953125 133.3255157470703 207.00625610351562 C 119.03623962402344 223.29090881347656 123.64765167236328 248.14068603515625 129.40782165527344 238.49285888671875 C 133.08987426757812 230.08668518066406 124.46505737304688 210.7237548828125 134.42529296875 222.00843811035156 C 132.95570373535156 245.81817626953125 112.75300598144531 233.92401123046875 107.21720886230469 266.9198303222656 C 113.23540496826172 270.25457763671875 119.77936553955078 238.33074951171875 124.13682556152344 230.30755615234375 C 143.17709350585938 215.7338104248047 150.6739959716797 202.97520446777344 162.29931640625 171.20199584960938 C 137.089599609375 216.1068572998047 160.3524169921875 192.46766662597656 169.33872985839844 157.93800354003906 C 166.95950317382812 171.3963623046875 168.3983612060547 168.53213500976562 179.29315185546875 147.96661376953125 C 184.7282257080078 138.02716064453125 194.84283447265625 126.40409088134766 195.71316528320312 113.65267944335938 C 205.29664611816406 109.9873275756836 209.32286071777344 101.89804077148438 199.8897705078125 114.99346160888672 C 200.5299530029297 93.360107421875 242.8218994140625 109.42802429199219 219.13912963867188 80.4136962890625 C 212.14547729492188 75.97103118896484 212.06454467773438 74.81000518798828 212.1271514892578 71.01807403564453 C 213.06060791015625 71.82657623291016 201.75674438476562 70.12244415283203 203.3182830810547 71.08231353759766 C 210.7241973876953 69.75675201416016 184.04986572265625 71.47284698486328 204.7720947265625 53.57023620605469" stroke-width="0.0" fill="rgb(0, 0, 0)" opacity="1.0" stroke="rgb(0, 0, 0)" stroke-opacity="1" stroke-linecap="round" stroke-linejoin="round"/>
  </g>
</svg>
