<?xml version="1.0" ?>
<svg xmlns="http://www.w3.org/2000/svg" version="1.1" width="320" height="320">
  <defs/>
  <g>
    <path d="M 177.86972045898438 249.21250915527344 C 171.8848876953125 252.23226928710938 169.3349609375 251.38858032226562 168.1266326904297 247.4342803955078 C 169.0952911376953 252.39866638183594 173.6583251953125 250.1109161376953 169.2611846923828 251.35755920410156 C 162.34767150878906 251.7689666748047 148.62142944335938 253.81777954101562 142.71600341796875 249.67787170410156 C 141.80902099609375 252.07232666015625 141.46775817871094 253.1197509765625 140.2908172607422 255.91151428222656 C 141.23570251464844 253.65017700195312 141.57022094726562 251.96185302734375 142.3650360107422 250.35728454589844 C 143.6528778076172 247.7794189453125 144.0228271484375 246.39822387695312 147.007080078125 245.02981567382812 C 151.09576416015625 245.35610961914062 152.58021545410156 241.9352569580078 155.81228637695312 240.69961547851562 C 156.63796997070312 237.9663543701172 160.2593536376953 234.72698974609375 152.07179260253906 243.607421875 C 152.71551513671875 239.7957763671875 128.42562866210938 215.4264373779297 133.94833374023438 207.6907196044922 C 133.27334594726562 171.84446716308594 132.44276428222656 169.26576232910156 130.25096130371094 105.80368041992188 C 125.03177642822266 114.11224365234375 123.62378692626953 134.7501678466797 136.1039581298828 118.40111541748047 C 147.7906494140625 105.5386962890625 148.2642059326172 104.27527618408203 148.09298706054688 103.56197357177734 C 145.9169921875 106.64038848876953 142.5262908935547 112.12757110595703 131.74156188964844 123.6512222290039 C 125.50934600830078 127.09973907470703 123.94654083251953 127.94554138183594 134.75819396972656 178.82022094726562 C 109.50668334960938 121.15696716308594 124.50205993652344 151.4373016357422 121.17318725585938 181.23695373535156 C 95.87416076660156 183.4002227783203 92.01593017578125 188.88128662109375 79.2662124633789 205.85655212402344 C 76.22633361816406 225.36871337890625 76.21298217773438 231.6986846923828 76.49234771728516 230.69142150878906 C 76.69355773925781 239.2200469970703 76.89034271240234 242.7943878173828 78.67073822021484 245.49034118652344 C 76.17530822753906 247.39883422851562 73.84986114501953 248.27340698242188 70.187744140625 248.97328186035156 C 69.80838012695312 248.96914672851562 67.9244613647461 249.64356994628906 65.75402069091797 249.53599548339844 C 64.43476867675781 244.52566528320312 66.35135650634766 238.70921325683594 67.59761810302734 235.88941955566406 C 69.48207092285156 232.2257080078125 70.40109252929688 228.66358947753906 69.82327270507812 230.36354064941406 C 71.08927917480469 226.32122802734375 72.02857208251953 223.34219360351562 70.8221206665039 197.2311553955078 C 85.29942321777344 183.1138153076172 89.42843627929688 180.52674865722656 92.34514617919922 176.65304565429688 C 95.4619140625 163.8789825439453 96.91960144042969 152.02052307128906 97.74142456054688 134.4066162109375 C 104.76526641845703 121.87484741210938 117.22064971923828 112.13070678710938 121.62955474853516 107.15044403076172 C 130.24893188476562 100.83470153808594 135.1720428466797 96.58533477783203 140.25636291503906 93.38346099853516 C 142.46022033691406 91.04120635986328 162.22096252441406 59.63505554199219 168.1761474609375 62.39704132080078 C 173.17918395996094 62.229862213134766 176.42242431640625 63.763824462890625 179.87286376953125 65.3300552368164 C 181.6706085205078 67.11157989501953 186.49217224121094 68.25080871582031 187.7771759033203 70.38773345947266 C 188.34732055664062 69.93928527832031 194.04747009277344 72.88529205322266 190.8564910888672 87.09355163574219 C 196.91273498535156 85.5009994506836 209.48008728027344 92.62284088134766 214.42428588867188 92.74590301513672 C 209.27651977539062 108.82969665527344 206.3309783935547 115.02384948730469 201.73959350585938 129.0880584716797 C 208.5990447998047 110.74397277832031 196.07469177246094 141.17282104492188 188.8065948486328 168.71287536621094 C 146.79037475585938 157.319580078125 153.15054321289062 161.54232788085938 152.09632873535156 172.33731079101562 C 143.30902099609375 209.47723388671875 141.64271545410156 213.4157257080078 156.7391815185547 239.24008178710938 C 165.5123748779297 235.70449829101562 177.44491577148438 212.67662048339844 181.18057250976562 204.00848388671875 C 184.51846313476562 191.97402954101562 187.24278259277344 179.43699645996094 189.66497802734375 171.5209197998047 C 191.24729919433594 161.808349609375 197.5473175048828 145.76547241210938 197.74237060546875 145.58653259277344 C 200.72438049316406 133.53009033203125 212.09906005859375 107.20292663574219 212.38380432128906 100.7408676147461 C 208.09788513183594 91.14476013183594 204.2926483154297 92.7998275756836 244.04934692382812 117.8815689086914 C 255.83546447753906 104.32743072509766 247.68692016601562 72.94973754882812 248.45071411132812 60.96308517456055 C 251.62966918945312 58.8212890625 248.08360290527344 57.43742370605469 253.35130310058594 57.26667785644531 C 256.09381103515625 58.51116943359375 266.24774169921875 67.67109680175781 252.3424835205078 58.1270637512207 C 258.78558349609375 57.34375 265.4004821777344 57.94623565673828 269.3179626464844 59.88496398925781 C 297.51812744140625 56.04649353027344 297.4484558105469 77.85330200195312 284.3683166503906 77.2665023803711 C 273.0680847167969 82.836669921875 268.6146240234375 96.3504638671875 268.08013916015625 116.10250854492188 C 266.028564453125 150.99293518066406 235.26922607421875 142.07205200195312 235.8522491455078 142.94223022460938 C 234.83831787109375 172.60845947265625 233.03582763671875 180.40557861328125 232.71694946289062 188.15170288085938 C 233.62332153320312 195.9683074951172 235.77113342285156 204.02784729003906 234.2012939453125 210.50099182128906 C 232.3616180419922 216.16680908203125 233.03018188476562 229.1157684326172 236.69847106933594 238.44686889648438 C 237.3431854248047 240.63575744628906 240.3362579345703 243.41268920898438 253.57086181640625 244.418701171875 C 242.68502807617188 253.11631774902344 236.05165100097656 252.99520874023438 235.33612060546875 253.0883331298828 C 227.1158905029297 251.6832275390625 220.87094116210938 252.262939453125 212.46656799316406 250.10052490234375 C 199.09432983398438 250.52801513671875 210.03822326660156 251.41331481933594 215.4394989013672 249.57281494140625 C 217.06918334960938 248.57785034179688 218.38909912109375 248.12469482421875 226.83009338378906 245.3054962158203 C 231.43096923828125 248.55044555664062 227.7648468017578 235.09466552734375 227.9921875 222.5106201171875 C 221.77903747558594 209.48573303222656 221.45751953125 210.00079345703125 221.88681030273438 206.58473205566406 C 222.3569793701172 199.2894287109375 221.865234375 190.64166259765625 221.9515380859375 179.43081665039062 C 221.9318084716797 176.87539672851562 226.98162841796875 141.8185272216797 231.11959838867188 118.44216918945312 C 232.01112365722656 114.88980865478516 235.55751037597656 121.86077880859375 232.1105499267578 116.88146209716797 C 231.51560974121094 113.41549682617188 229.86917114257812 127.2186508178711 228.96803283691406 124.680908203125 C 226.61367797851562 126.54258728027344 240.0404052734375 89.76319885253906 236.2955780029297 99.95843505859375 C 224.2090606689453 129.8529815673828 224.8885955810547 145.37368774414062 223.85369873046875 177.68600463867188 C 202.93484497070312 162.2208251953125 201.92677307128906 169.76266479492188 200.94436645507812 181.16725158691406 C 191.88693237304688 192.95680236816406 191.8688201904297 203.77508544921875 194.14720153808594 213.8190460205078 C 166.01002502441406 236.4671630859375 166.04010009765625 239.8209228515625 169.85345458984375 244.2905731201172 C 173.4189453125 256.0649719238281 166.84939575195312 238.669921875 177.86972045898438 249.21250915527344" stroke-width="0.0" fill="rgb(0, 0, 0)" opacity="1.0" stroke="rgb(0, 0, 0)" stroke-opacity="1" stroke-linecap="round" stroke-linejoin="round"/>
  </g>
</svg>
