<?xml version="1.0" ?>
<svg xmlns="http://www.w3.org/2000/svg" version="1.1" width="320" height="320">
  <defs/>
  <g>
    <path d="M 195.54600524902344 291.5474853515625 C 183.9167022705078 302.72235107421875 166.05482482910156 300.5389099121094 167.51058959960938 285.3376159667969 C 167.21966552734375 294.60906982421875 178.78939819335938 304.77618408203125 166.86375427246094 292.2455139160156 C 160.17198181152344 279.7755126953125 157.97158813476562 292.2525939941406 152.8221893310547 286.4936828613281 C 148.19088745117188 283.7693176269531 146.9888916015625 283.11328125 140.880615234375 291.41278076171875 C 143.189208984375 286.2118835449219 143.40289306640625 285.290283203125 149.3091278076172 284.9288635253906 C 156.2147674560547 285.9770812988281 156.9483642578125 284.6214599609375 160.9616241455078 283.68017578125 C 162.33828735351562 279.0542297363281 164.2986602783203 275.18463134765625 164.79135131835938 274.4189453125 C 166.2324676513672 266.8805236816406 167.02330017089844 265.78607177734375 152.2361602783203 298.4017333984375 C 155.1420135498047 281.92572021484375 98.01278686523438 262.1119079589844 105.71549224853516 251.1717071533203 C 119.76780700683594 199.96461486816406 120.36993408203125 198.67637634277344 120.14767456054688 148.02886962890625 C 114.21195983886719 158.48326110839844 114.30225372314453 177.00595092773438 134.97628784179688 155.23892211914062 C 143.3480224609375 147.18434143066406 142.6070556640625 143.11758422851562 141.9530029296875 147.68423461914062 C 143.45703125 145.00868225097656 140.5293426513672 151.86708068847656 127.36026763916016 164.42083740234375 C 116.2859115600586 165.84735107421875 109.99870300292969 166.2322998046875 123.13330078125 231.65028381347656 C 105.24003601074219 153.88540649414062 120.07662963867188 189.55792236328125 118.6168212890625 221.9266357421875 C 86.45846557617188 214.07901000976562 87.25578308105469 222.21865844726562 70.27396392822266 253.1750030517578 C 66.15296936035156 268.3496398925781 66.24966430664062 272.3573913574219 66.76094818115234 271.64892578125 C 66.7065200805664 277.8805847167969 71.9324722290039 286.65179443359375 76.17153930664062 291.48931884765625 C 70.54085540771484 294.83587646484375 65.86351013183594 294.8083801269531 61.026859283447266 294.08355712890625 C 60.446598052978516 293.8549499511719 58.98069763183594 294.21923828125 57.319496154785156 294.5343322753906 C 57.01724624633789 290.4302062988281 60.16557693481445 278.7417297363281 60.416770935058594 276.5166320800781 C 61.034751892089844 272.4425048828125 62.222625732421875 268.9039306640625 61.97243118286133 269.2753601074219 C 61.53284454345703 269.78265380859375 61.743404388427734 267.3011474609375 57.537841796875 242.82177734375 C 75.64734649658203 217.13499450683594 76.26109313964844 215.26675415039062 77.26023864746094 202.6254119873047 C 80.40728759765625 194.92236328125 83.62105560302734 184.91049194335938 88.03759002685547 173.99380493164062 C 104.80830383300781 160.16293334960938 113.19459533691406 152.05789184570312 120.74037170410156 146.72427368164062 C 127.39957427978516 140.37086486816406 130.29917907714844 136.48268127441406 131.90052795410156 135.2698516845703 C 134.2242431640625 132.80252075195312 153.01490783691406 100.46760559082031 161.3914794921875 106.70338439941406 C 165.89938354492188 107.87467956542969 168.8563690185547 109.39637756347656 171.64117431640625 111.14683532714844 C 172.9793701171875 112.37690734863281 176.25814819335938 111.99252319335938 175.67495727539062 111.59774780273438 C 173.73162841796875 120.6070556640625 182.20455932617188 120.2999267578125 182.05206298828125 132.62283325195312 C 186.36692810058594 130.699951171875 196.0534210205078 138.07455444335938 205.94863891601562 138.8408203125 C 204.92562866210938 150.15533447265625 204.72315979003906 151.2918701171875 200.31736755371094 168.2854461669922 C 211.716796875 140.83709716796875 198.7837677001953 175.7227325439453 187.1057891845703 213.6517333984375 C 128.61929321289062 207.2623748779297 134.7873992919922 200.45628356933594 132.1693572998047 205.4408721923828 C 119.19703674316406 255.90756225585938 118.36323547363281 256.9559326171875 164.32530212402344 297.80615234375 C 178.93814086914062 289.2633056640625 171.4668731689453 254.6349334716797 178.7556610107422 242.24888610839844 C 183.45956420898438 229.3770294189453 186.94686889648438 217.256591796875 188.39361572265625 211.12704467773438 C 186.09681701660156 202.72068786621094 196.36685180664062 176.90298461914062 194.48045349121094 177.17495727539062 C 196.70286560058594 170.0209197998047 204.23020935058594 142.87037658691406 203.6678009033203 141.40591430664062 C 196.15020751953125 131.51596069335938 190.15846252441406 135.5503692626953 239.66958618164062 164.63027954101562 C 260.0536804199219 145.29833984375 250.2913055419922 116.37077331542969 249.8613739013672 100.85786437988281 C 255.35577392578125 99.06747436523438 252.2928009033203 98.45484161376953 258.1495056152344 99.86058044433594 C 250.5299530029297 97.24893188476562 267.4461364746094 109.35659790039062 258.6141662597656 99.43331909179688 C 266.60394287109375 98.68666076660156 274.0448913574219 101.55390930175781 273.0086669921875 104.5217056274414 C 314.7554931640625 90.25483703613281 322.6081237792969 127.52676391601562 296.83160400390625 120.83207702636719 C 277.0469970703125 124.35325622558594 272.8363342285156 133.14883422851562 268.3408203125 147.2509307861328 C 263.9813537597656 195.78024291992188 224.67416381835938 184.67129516601562 224.92361450195312 185.8323516845703 C 226.1365509033203 199.80152893066406 227.19317626953125 203.12472534179688 233.43272399902344 210.83563232421875 C 240.0054168701172 218.36038208007812 247.18096923828125 224.3983917236328 256.335205078125 234.89212036132812 C 256.1965026855469 243.1602325439453 250.05262756347656 263.994140625 253.4645233154297 275.71160888671875 C 249.6482391357422 275.6559753417969 253.7023468017578 277.22210693359375 261.27288818359375 287.11175537109375 C 248.01126098632812 288.9867858886719 255.9018096923828 293.57818603515625 253.05543518066406 296.29278564453125 C 238.08143615722656 295.0290832519531 226.78395080566406 292.5249938964844 222.58331298828125 290.3594665527344 C 206.28163146972656 292.3781433105469 221.68536376953125 293.6205139160156 219.0903778076172 288.2378234863281 C 224.23431396484375 290.2062683105469 227.46607971191406 291.4311828613281 235.66748046875 280.9751892089844 C 249.33108520507812 282.0415344238281 244.33216857910156 251.961669921875 244.0247039794922 249.23715209960938 C 235.55235290527344 235.6857452392578 236.42630004882812 233.7738037109375 236.62818908691406 236.27867126464844 C 232.39202880859375 230.6075897216797 224.60284423828125 224.7362060546875 208.4529266357422 214.6521759033203 C 206.7271728515625 208.347900390625 220.17236328125 183.48973083496094 225.42849731445312 154.6024169921875 C 225.5526123046875 153.4052734375 231.50509643554688 161.05862426757812 224.68165588378906 152.7745819091797 C 223.3764190673828 147.45399475097656 221.7513885498047 168.2069549560547 222.37045288085938 168.7541961669922 C 220.12649536132812 170.48678588867188 232.53692626953125 121.47205352783203 230.82154846191406 132.29747009277344 C 218.64039611816406 164.40481567382812 219.8065948486328 182.07777404785156 204.2234649658203 214.22027587890625 C 195.70962524414062 206.15182495117188 196.09422302246094 205.47445678710938 202.7642364501953 217.03038024902344 C 192.31629943847656 231.14622497558594 190.01556396484375 243.07937622070312 193.4246063232422 249.79856872558594 C 168.2160186767578 279.27532958984375 177.5305938720703 287.6077880859375 194.20826721191406 295.553466796875 C 198.1599884033203 301.0250244140625 189.79989624023438 271.5364685058594 195.54600524902344 291.5474853515625" stroke-width="0.0" fill="rgb(0, 0, 0)" opacity="1.0" stroke="rgb(0, 0, 0)" stroke-opacity="1" stroke-linecap="round" stroke-linejoin="round"/>
  </g>
</svg>
