<?xml version="1.0" ?>
<svg xmlns="http://www.w3.org/2000/svg" version="1.1" width="320" height="320">
  <defs/>
  <g>
    <path d="M 175.07192993164062 266.5855712890625 C 166.3077392578125 271.134033203125 163.14414978027344 270.0548400878906 161.63775634765625 264.2784118652344 C 163.28758239746094 270.1434020996094 170.3518829345703 267.54620361328125 163.44187927246094 268.258544921875 C 156.7099151611328 267.3627624511719 142.7727813720703 270.68756103515625 139.9884033203125 268.8531494140625 C 136.2239227294922 268.0052185058594 132.45260620117188 266.79620361328125 130.46717834472656 270.4217224121094 C 131.9673309326172 266.3875732421875 137.27273559570312 266.0754699707031 141.070556640625 264.0342102050781 C 141.87818908691406 261.597412109375 142.18580627441406 260.61480712890625 144.5791778564453 259.1092529296875 C 147.40872192382812 258.9705810546875 147.870849609375 256.04638671875 150.1631317138672 254.920654296875 C 151.29193115234375 254.4942626953125 154.04153442382812 251.86338806152344 139.17584228515625 263.189697265625 C 141.62503051757812 252.94378662109375 105.84678649902344 239.8319549560547 113.66326904296875 227.9847412109375 C 118.5969009399414 186.0825958251953 118.54993438720703 185.03561401367188 115.48944091796875 121.32186889648438 C 109.56964874267578 129.3609161376953 109.99339294433594 151.10385131835938 125.41459655761719 133.62205505371094 C 138.0370635986328 119.95037841796875 138.07044982910156 118.13670349121094 137.89210510253906 121.8835678100586 C 134.82369995117188 123.80000305175781 135.37075805664062 122.9722671508789 123.86012268066406 137.23492431640625 C 113.0264663696289 140.26353454589844 111.84188079833984 140.44126892089844 117.54798126220703 204.8492889404297 C 92.23304748535156 135.3306427001953 100.56571197509766 162.79574584960938 93.08667755126953 194.44039916992188 C 78.90806579589844 193.4423065185547 79.1581802368164 198.91038513183594 65.85919189453125 227.39675903320312 C 62.897281646728516 247.50059509277344 64.6168441772461 252.83682250976562 64.09273529052734 250.61224365234375 C 66.84136962890625 255.72227478027344 68.11805725097656 261.3729553222656 69.41938018798828 264.037109375 C 66.81275939941406 265.59686279296875 64.96211242675781 266.06597900390625 61.96283721923828 266.4645080566406 C 61.38559341430664 266.3443603515625 58.94411087036133 267.3132629394531 56.49147415161133 267.1233215332031 C 55.58983612060547 261.30084228515625 58.36498260498047 254.3410186767578 59.24390411376953 252.1539306640625 C 58.2791748046875 255.259765625 57.34408950805664 252.7202606201172 58.08565139770508 254.73074340820312 C 57.59822463989258 250.77000427246094 57.512847900390625 246.84231567382812 52.555747985839844 219.32110595703125 C 70.24324035644531 194.5590057373047 70.4335708618164 194.0593719482422 67.43756103515625 182.30731201171875 C 74.19021606445312 170.7304229736328 77.2861328125 160.38731384277344 81.72367095947266 148.83042907714844 C 101.31788635253906 131.99717712402344 110.93580627441406 123.1626205444336 115.93538665771484 119.5160903930664 C 121.66546630859375 114.24451446533203 125.10566711425781 111.87301635742188 127.27433013916016 110.0583267211914 C 129.13973999023438 107.28246307373047 147.8534393310547 75.33391571044922 158.37203979492188 82.34074401855469 C 162.52041625976562 82.8699722290039 164.9672393798828 85.06967163085938 168.17861938476562 87.421875 C 168.8925323486328 88.10589599609375 171.78515625 88.08063507080078 172.69407653808594 89.36991882324219 C 169.36105346679688 95.36570739746094 178.49139404296875 95.98560333251953 176.43605041503906 103.49618530273438 C 175.01780700683594 106.82730102539062 199.97659301757812 112.64199829101562 200.96002197265625 112.68074798583984 C 198.2552947998047 126.95226287841797 196.802001953125 130.47474670410156 192.27249145507812 145.20118713378906 C 202.57565307617188 118.39114379882812 191.87872314453125 155.274169921875 185.17124938964844 188.3214874267578 C 127.41372680664062 177.7357177734375 133.25390625 181.13624572753906 133.22772216796875 187.56520080566406 C 125.84849548339844 231.36343383789062 124.15733337402344 234.96188354492188 149.15655517578125 265.86968994140625 C 167.4420166015625 266.9868469238281 172.00604248046875 234.07644653320312 174.47486877441406 222.89492797851562 C 178.21441650390625 212.7094268798828 179.87930297851562 202.65699768066406 181.771728515625 195.4664764404297 C 182.672607421875 183.50823974609375 188.99867248535156 161.60321044921875 190.74795532226562 160.20628356933594 C 194.01522827148438 151.2725067138672 202.4752197265625 124.12628936767578 200.73443603515625 121.19510650634766 C 191.0957794189453 110.0347900390625 187.38226318359375 114.18167114257812 233.6614227294922 135.803466796875 C 244.40127563476562 122.45563507080078 235.7414093017578 89.17398834228516 234.40574645996094 77.56050872802734 C 239.60679626464844 73.53057098388672 237.36550903320312 72.6985092163086 243.90188598632812 72.99503326416016 C 238.95994567871094 70.64253234863281 255.07058715820312 83.04341888427734 239.79217529296875 73.73180389404297 C 249.02166748046875 73.936767578125 255.9065704345703 75.791748046875 260.2041015625 79.75859069824219 C 297.3982238769531 72.90377807617188 299.5724792480469 102.34513854980469 279.95721435546875 96.89051818847656 C 260.26129150390625 100.84867095947266 257.11529541015625 108.97132110595703 256.5895690917969 126.875732421875 C 255.78517150878906 170.21774291992188 221.6407928466797 160.866943359375 222.0380401611328 161.47421264648438 C 221.88494873046875 191.15277099609375 219.51791381835938 199.904541015625 217.91709899902344 207.89402770996094 C 218.2372589111328 212.95460510253906 222.9517059326172 220.572998046875 226.68411254882812 232.64231872558594 C 218.0063018798828 240.55453491210938 209.09889221191406 253.65615844726562 211.8580780029297 261.78863525390625 C 214.25277709960938 263.6989440917969 217.4534912109375 264.6191101074219 226.49566650390625 263.01605224609375 C 220.36769104003906 269.2897033691406 216.8881072998047 270.2323913574219 216.0867156982422 270.7301330566406 C 210.75814819335938 271.60113525390625 203.2292022705078 274.45550537109375 190.01461791992188 273.2236328125 C 173.47642517089844 267.77362060546875 192.6862030029297 265.22235107421875 196.80604553222656 263.9397888183594 C 199.08526611328125 262.76812744140625 200.52548217773438 262.3013610839844 203.56109619140625 261.2259216308594 C 205.6610565185547 263.2207336425781 202.1001739501953 257.91656494140625 206.948974609375 239.8661346435547 C 204.91978454589844 230.246826171875 209.0219268798828 226.8472442626953 209.28111267089844 226.09413146972656 C 207.75009155273438 219.702392578125 202.58859252929688 210.02540588378906 202.90963745117188 198.53028869628906 C 202.71983337402344 197.10826110839844 218.49362182617188 160.5636749267578 222.15342712402344 133.11351013183594 C 223.43008422851562 128.18763732910156 228.12400817871094 137.95999145507812 221.53790283203125 131.25949096679688 C 220.3629150390625 126.99467468261719 218.9813995361328 144.94277954101562 217.3841552734375 142.20143127441406 C 221.140380859375 138.1599578857422 228.021728515625 98.35184478759766 227.30482482910156 111.38169860839844 C 214.08364868164062 144.3353729248047 216.591064453125 159.5380859375 218.05201721191406 201.3783416748047 C 198.37802124023438 189.35145568847656 194.95883178710938 196.0461883544922 192.61935424804688 204.68743896484375 C 186.2858428955078 214.01376342773438 187.42440795898438 222.68959045410156 191.4711456298828 231.76502990722656 C 162.11080932617188 254.4016571044922 165.4852752685547 265.09759521484375 167.80178833007812 266.5271911621094 C 169.42709350585938 277.75823974609375 162.6448516845703 252.8189697265625 175.07192993164062 266.5855712890625" stroke-width="0.0" fill="rgb(0, 0, 0)" opacity="1.0" stroke="rgb(0, 0, 0)" stroke-opacity="1" stroke-linecap="round" stroke-linejoin="round"/>
  </g>
</svg>
