<?xml version="1.0" ?>
<svg xmlns="http://www.w3.org/2000/svg" version="1.1" width="320" height="320">
  <defs/>
  <g>
    <path d="M 204.46853637695312 294.8283996582031 C 189.46041870117188 304.98883056640625 175.07406616210938 300.4844055175781 177.4506378173828 286.14300537109375 C 176.0288543701172 300.81524658203125 190.39419555664062 296.5713806152344 173.18173217773438 297.0697021484375 C 159.07565307617188 295.768310546875 146.87892150878906 294.83709716796875 141.99732971191406 290.4779357910156 C 140.2852783203125 290.20513916015625 132.6920623779297 287.0706481933594 128.9860382080078 297.0584716796875 C 142.93829345703125 292.752685546875 150.31536865234375 289.1923828125 150.35108947753906 285.91961669921875 C 150.20164489746094 279.6011047363281 153.1907501220703 278.8074035644531 153.52090454101562 275.1927185058594 C 157.32675170898438 275.0194091796875 157.21295166015625 271.87457275390625 160.01126098632812 269.747802734375 C 161.0699005126953 266.9757995605469 161.5084228515625 266.6634216308594 136.00375366210938 299.9237365722656 C 135.65155029296875 298.78790283203125 80.07855987548828 255.89080810546875 79.70720672607422 246.89205932617188 C 111.41783905029297 199.23760986328125 114.98929595947266 208.28021240234375 116.59025573730469 146.12232971191406 C 108.47991943359375 159.39492797851562 108.42231750488281 176.1422119140625 129.713134765625 154.75729370117188 C 138.66912841796875 147.341064453125 137.9479217529297 142.76748657226562 136.66151428222656 149.4368896484375 C 134.96258544921875 150.80099487304688 135.50186157226562 150.19366455078125 122.6981201171875 162.7734375 C 110.80516052246094 165.9627685546875 104.5940933227539 166.80868530273438 127.82732391357422 225.6742706298828 C 106.32072448730469 146.34837341308594 118.87582397460938 184.9541473388672 107.39852142333984 213.17352294921875 C 90.57475280761719 220.62692260742188 88.76200866699219 229.3110809326172 75.36988067626953 253.5266876220703 C 72.88835906982422 269.164794921875 73.27752685546875 274.1287536621094 73.62774658203125 273.7734375 C 74.7030029296875 280.3126525878906 81.6987075805664 288.32623291015625 85.09080505371094 292.759521484375 C 80.10183715820312 295.02435302734375 76.34589385986328 295.5784912109375 71.4653091430664 295.082275390625 C 70.28218078613281 294.48095703125 69.21843719482422 294.4305725097656 67.35912322998047 294.8179931640625 C 67.35779571533203 292.5834655761719 68.34789276123047 282.1852111816406 68.03732299804688 279.3046875 C 68.16726684570312 275.8425598144531 68.69121551513672 272.2694396972656 69.44161224365234 269.4264831542969 C 68.5052719116211 270.1346740722656 68.79194641113281 268.1232604980469 61.51503372192383 245.079833984375 C 76.90419006347656 222.80068969726562 77.35955810546875 221.6614990234375 75.27420806884766 209.13577270507812 C 79.30742645263672 193.4002227783203 80.39093780517578 185.58102416992188 83.4688491821289 173.7510528564453 C 96.31782531738281 160.6394805908203 107.61016845703125 151.29933166503906 115.09844207763672 145.60784912109375 C 121.47917938232422 139.46286010742188 124.77622985839844 136.929443359375 127.40638732910156 135.13616943359375 C 129.5788116455078 133.24317932128906 148.9288330078125 100.73193359375 159.1804656982422 106.46672821044922 C 162.17703247070312 106.748291015625 165.30450439453125 108.93217468261719 169.23170471191406 110.67394256591797 C 169.7898406982422 111.02216339111328 169.25070190429688 107.34357452392578 171.1699981689453 110.27173614501953 C 168.51296997070312 119.46463012695312 178.23883056640625 118.41539001464844 178.27682495117188 131.40174865722656 C 177.80697631835938 133.81771850585938 198.2745361328125 136.23678588867188 200.71945190429688 138.04376220703125 C 199.6651611328125 151.07931518554688 199.02810668945312 153.72186279296875 194.216796875 169.29156494140625 C 203.333251953125 139.30010986328125 192.5682373046875 175.65884399414062 184.23870849609375 214.89340209960938 C 123.7230453491211 201.35690307617188 128.56265258789062 205.26890563964844 124.7637939453125 210.37799072265625 C 86.96224975585938 253.77488708496094 86.59300994873047 254.16094970703125 145.8610382080078 294.246337890625 C 198.17567443847656 304.566162109375 178.02635192871094 270.7103576660156 179.74404907226562 251.56768798828125 C 187.08302307128906 234.7415008544922 187.17922973632812 220.283203125 187.38668823242188 212.06524658203125 C 186.36233520507812 203.906005859375 194.0167236328125 183.17294311523438 194.3541717529297 183.028564453125 C 196.8135986328125 174.03353881835938 202.94627380371094 145.89756774902344 201.52720642089844 142.95254516601562 C 192.8878936767578 131.11215209960938 187.1378173828125 137.11599731445312 236.34085083007812 165.5523223876953 C 255.23941040039062 148.25326538085938 245.8305206298828 118.876708984375 242.3344268798828 102.70347595214844 C 250.00390625 99.77059936523438 246.931396484375 98.24615478515625 255.8000946044922 99.76415252685547 C 254.12734985351562 98.9454116821289 263.26934814453125 109.00178527832031 251.75985717773438 99.36683654785156 C 261.9344787597656 98.74671173095703 270.497802734375 101.49171447753906 267.9180908203125 104.51423645019531 C 308.8437805175781 92.44461059570312 316.28485107421875 125.45599365234375 292.1165466308594 120.80548858642578 C 271.326416015625 123.88612365722656 267.1422424316406 133.16783142089844 264.8134460449219 152.9180145263672 C 260.2695007324219 195.99673461914062 219.62872314453125 184.83277893066406 219.76841735839844 185.27590942382812 C 222.3846893310547 200.22314453125 223.97067260742188 203.02474975585938 234.1547393798828 212.46798706054688 C 241.2885284423828 221.02687072753906 248.8935546875 226.85084533691406 256.4186706542969 234.5938720703125 C 258.6806335449219 240.36477661132812 232.7154083251953 261.9338073730469 231.8240966796875 270.3109130859375 C 220.78302001953125 271.5889892578125 222.00460815429688 272.9188232421875 230.88584899902344 269.4384765625 C 227.2908477783203 281.5468444824219 221.67176818847656 285.8764343261719 216.1692657470703 289.62884521484375 C 209.69686889648438 288.16351318359375 201.27320861816406 281.2931213378906 196.6393585205078 276.306640625 C 187.84732055664062 272.81719970703125 205.77552795410156 285.0010070800781 209.4364471435547 265.8381652832031 C 212.83790588378906 264.6932678222656 213.9491424560547 265.43304443359375 222.92950439453125 263.7242431640625 C 230.05934143066406 268.4769287109375 227.36019897460938 249.7523193359375 239.57855224609375 247.30079650878906 C 240.4685516357422 231.85008239746094 239.83497619628906 239.46234130859375 239.72189331054688 238.90130615234375 C 234.0032501220703 232.35675048828125 226.99961853027344 226.52886962890625 208.50997924804688 217.5692138671875 C 206.34202575683594 212.9961395263672 215.92269897460938 184.28884887695312 222.1050262451172 157.0201416015625 C 222.36019897460938 154.49053955078125 226.57945251464844 142.83737182617188 225.3234100341797 137.2734832763672 C 221.15634155273438 148.8270263671875 216.8057861328125 172.81982421875 215.60906982421875 170.74046325683594 C 221.7439422607422 164.68455505371094 229.59584045410156 121.62818145751953 227.75608825683594 134.26763916015625 C 215.59588623046875 167.71832275390625 216.23329162597656 185.40652465820312 204.49349975585938 215.4887237548828 C 193.55319213867188 204.06686401367188 194.06468200683594 207.2759552001953 205.09140014648438 216.80789184570312 C 193.14797973632812 234.8345489501953 193.9545440673828 246.3756103515625 199.00538635253906 251.53012084960938 C 177.0574951171875 271.0367736816406 189.02159118652344 295.9490051269531 191.61550903320312 298.3057861328125 C 193.6918182373047 306.479736328125 173.81602478027344 271.83062744140625 204.46853637695312 294.8283996582031" stroke-width="0.0" fill="rgb(0, 0, 0)" opacity="1.0" stroke="rgb(0, 0, 0)" stroke-opacity="1" stroke-linecap="round" stroke-linejoin="round"/>
  </g>
</svg>
