<?xml version="1.0" ?>
<svg xmlns="http://www.w3.org/2000/svg" version="1.1" width="320" height="320">
  <defs/>
  <g>
    <path d="M 184.55706787109375 277.5987548828125 C 172.38858032226562 284.937744140625 167.95501708984375 280.97900390625 167.2230224609375 274.45037841796875 C 168.84408569335938 280.75390625 177.12115478515625 279.1065979003906 170.22842407226562 279.7264709472656 C 162.35543823242188 278.7575378417969 149.778076171875 280.72601318359375 146.01580810546875 278.46038818359375 C 139.71888732910156 276.8411560058594 139.26913452148438 278.16796875 137.16905212402344 281.6621398925781 C 138.54891967773438 278.5809631347656 143.4759979248047 278.6973876953125 149.52975463867188 276.95623779296875 C 153.10963439941406 274.2454833984375 154.05503845214844 273.15399169921875 152.46722412109375 269.64691162109375 C 154.59884643554688 266.8975830078125 156.13368225097656 265.6047668457031 156.5230255126953 264.03338623046875 C 157.11167907714844 263.1239318847656 159.15040588378906 261.25860595703125 150.08135986328125 270.44598388671875 C 154.69387817382812 258.70916748046875 121.3067626953125 245.7603302001953 132.3587646484375 235.22410583496094 C 138.50059509277344 198.38507080078125 137.87754821777344 196.4683074951172 129.52963256835938 132.04531860351562 C 125.4000244140625 139.74078369140625 124.94850158691406 160.1936798095703 140.99298095703125 143.97000122070312 C 153.2099609375 132.41331481933594 152.7917022705078 128.3138427734375 151.69322204589844 133.71414184570312 C 149.25509643554688 135.2897186279297 150.124267578125 134.28231811523438 138.85345458984375 147.369873046875 C 127.76399993896484 150.1201629638672 124.38706970214844 150.79052734375 138.6538543701172 213.56727600097656 C 101.22269439697266 148.5966796875 114.07646179199219 173.26290893554688 112.330322265625 205.5720672607422 C 96.17941284179688 203.74722290039062 96.27721405029297 210.09683227539062 83.05960083007812 238.63031005859375 C 79.76262664794922 249.93936157226562 79.14546966552734 255.96768188476562 80.05462646484375 255.09466552734375 C 80.92713928222656 263.4691162109375 83.11842346191406 269.86529541015625 85.0079345703125 273.35076904296875 C 81.2764663696289 275.1850891113281 78.24488067626953 275.425537109375 75.01824951171875 275.4678955078125 C 74.4066162109375 275.4631042480469 73.42262268066406 275.77606201171875 72.73387908935547 275.92919921875 C 71.89510345458984 271.93914794921875 73.11773681640625 264.8215637207031 73.32730102539062 263.0037536621094 C 73.15054321289062 258.87640380859375 73.00128936767578 254.39366149902344 73.57829284667969 250.5337677001953 C 72.88323211669922 251.09413146972656 73.27107238769531 248.8045654296875 69.36328125 229.88902282714844 C 86.57643127441406 205.4476318359375 86.86708068847656 204.2635498046875 84.58488464355469 191.42799377441406 C 88.56243133544922 183.5220184326172 90.33507537841797 174.4178466796875 95.32917785644531 157.8185577392578 C 111.39508819580078 143.9306640625 124.2022933959961 134.57861328125 130.19740295410156 130.2860107421875 C 135.6616668701172 124.70480346679688 138.9771270751953 122.26934051513672 141.71815490722656 120.25798797607422 C 143.54122924804688 118.04820251464844 164.0685577392578 86.07345581054688 172.80203247070312 91.882568359375 C 177.03591918945312 92.73973846435547 178.802490234375 94.00638580322266 181.31280517578125 95.13965606689453 C 182.26046752929688 95.67979431152344 183.495361328125 95.57099914550781 187.05740356445312 98.93962097167969 C 184.499267578125 105.90303039550781 194.76197814941406 105.61901092529297 193.1865997314453 115.00528717041016 C 191.39390563964844 119.35687255859375 214.03489685058594 123.8048095703125 216.02584838867188 125.44461822509766 C 214.76487731933594 138.50991821289062 213.41787719726562 141.53726196289062 209.15158081054688 156.78697204589844 C 217.35145568847656 129.14227294921875 206.16708374023438 163.69622802734375 199.71514892578125 199.4237060546875 C 145.66567993164062 189.21902465820312 150.23895263671875 191.83897399902344 151.05148315429688 198.51959228515625 C 145.54620361328125 238.2483367919922 143.68795776367188 241.93312072753906 159.19561767578125 272.3392333984375 C 175.3835906982422 279.8570556640625 193.66085815429688 248.0262908935547 192.33853149414062 237.74676513671875 C 198.27508544921875 221.96194458007812 201.2340087890625 211.5454559326172 201.6193084716797 206.29193115234375 C 200.69126892089844 198.8037872314453 206.47853088378906 176.73536682128906 207.12026977539062 176.30447387695312 C 209.3668670654297 166.1439208984375 217.92889404296875 136.23268127441406 216.4005889892578 132.34117126464844 C 205.4730682373047 120.7952880859375 200.74081420898438 125.76193237304688 250.13426208496094 149.47560119628906 C 262.32452392578125 133.4864959716797 250.00917053222656 100.42041015625 249.42086791992188 88.14619445800781 C 253.9471435546875 84.94625091552734 249.91720581054688 82.96401977539062 257.0521240234375 82.70863342285156 C 254.3763885498047 81.93956756591797 267.5226135253906 92.8792724609375 253.263427734375 84.82752990722656 C 260.8562316894531 84.59532928466797 268.705078125 85.5806884765625 273.4285888671875 89.15361785888672 C 309.4036560058594 78.33832550048828 312.5205078125 108.66210174560547 292.7931823730469 106.4785385131836 C 275.4644470214844 113.12665557861328 272.9053039550781 119.76019287109375 274.9026794433594 140.6691436767578 C 274.26068115234375 183.2090606689453 235.29183959960938 170.6759490966797 235.5010223388672 171.14004516601562 C 232.12457275390625 197.73355102539062 227.68576049804688 205.71517944335938 221.3769073486328 211.9464111328125 C 219.11048889160156 216.72348022460938 218.94139099121094 221.21832275390625 220.50758361816406 226.83201599121094 C 222.24258422851562 233.75550842285156 222.0421905517578 262.56005859375 224.5247802734375 270.7696533203125 C 226.0408172607422 273.5893249511719 228.50709533691406 276.34588623046875 238.3563232421875 277.15478515625 C 229.584716796875 283.5819091796875 224.568115234375 283.734619140625 223.92532348632812 283.7705078125 C 218.1831817626953 283.3836975097656 210.5475616455078 284.80804443359375 200.6998291015625 281.3968200683594 C 191.57884216308594 280.154296875 203.05616760253906 278.5924072265625 208.5658721923828 276.705078125 C 212.0030975341797 275.891357421875 212.80810546875 275.424560546875 219.4569549560547 272.378662109375 C 223.1007843017578 275.7554626464844 217.81353759765625 264.4671325683594 216.39132690429688 249.41403198242188 C 207.28538513183594 231.96771240234375 207.88601684570312 229.37989807128906 207.75753784179688 225.8745574951172 C 208.727783203125 216.93809509277344 211.53192138671875 208.43238830566406 217.72512817382812 200.23651123046875 C 217.9910125732422 199.08705139160156 231.48851013183594 169.8582763671875 236.6206512451172 144.61947631835938 C 237.7402801513672 140.12852478027344 242.37461853027344 149.09735107421875 236.8800048828125 142.0010223388672 C 236.02772521972656 137.050537109375 233.45849609375 156.62515258789062 232.5551300048828 155.06768798828125 C 235.7692413330078 151.06565856933594 245.96343994140625 109.8540267944336 243.12782287597656 123.6451187133789 C 228.72225952148438 158.60504150390625 232.2904052734375 175.19139099121094 227.5303192138672 213.3834686279297 C 208.1123046875 199.12118530273438 208.48428344726562 202.9844512939453 212.8072967529297 209.98487854003906 C 207.03204345703125 222.99110412597656 209.07278442382812 235.57164001464844 213.62045288085938 245.24734497070312 C 173.34507751464844 266.345703125 173.24737548828125 277.1712951660156 175.02688598632812 279.70855712890625 C 176.35618591308594 288.04119873046875 169.93218994140625 263.0308837890625 184.55706787109375 277.5987548828125" stroke-width="0.0" fill="rgb(0, 0, 0)" opacity="1.0" stroke="rgb(0, 0, 0)" stroke-opacity="1" stroke-linecap="round" stroke-linejoin="round"/>
  </g>
</svg>
