<?xml version="1.0" ?>
<svg xmlns="http://www.w3.org/2000/svg" version="1.1" width="320" height="320">
  <defs/>
  <g>
    <path d="M 190.05172729492188 255.26077270507812 C 180.3012237548828 261.52484130859375 176.66432189941406 259.1059265136719 175.6891326904297 253.49154663085938 C 176.56143188476562 259.7235412597656 182.79794311523438 256.82763671875 175.3418426513672 257.9794616699219 C 166.9085693359375 257.53973388671875 150.07505798339844 258.4151611328125 144.15982055664062 253.95323181152344 C 143.52584838867188 255.856689453125 143.2497100830078 256.3966979980469 142.201416015625 259.67877197265625 C 143.43064880371094 258.45220947265625 143.9701690673828 257.34637451171875 146.829833984375 254.5480499267578 C 149.30703735351562 255.6944580078125 149.81114196777344 254.41635131835938 152.65786743164062 253.3760986328125 C 156.00701904296875 253.9442596435547 158.8229522705078 252.09072875976562 161.4089813232422 247.0653076171875 C 164.00819396972656 239.4607391357422 167.0805206298828 237.08021545410156 154.4475860595703 246.1744842529297 C 154.49485778808594 237.73196411132812 121.57882690429688 224.70242309570312 133.0834197998047 212.99978637695312 C 123.32054901123047 180.1436004638672 121.87806701660156 176.8013153076172 115.24544525146484 110.0587387084961 C 110.26261138916016 117.54070281982422 110.12198638916016 138.073974609375 126.16682434082031 120.97976684570312 C 138.68487548828125 107.74777221679688 138.7544403076172 105.13674926757812 137.5905303955078 110.3535385131836 C 134.91390991210938 112.11038970947266 135.50205993652344 111.15228271484375 123.97389221191406 124.46107482910156 C 114.82264709472656 127.71477508544922 113.31647491455078 128.11756896972656 121.57389831542969 192.9564208984375 C 88.65391540527344 122.461669921875 104.38770294189453 149.4491424560547 103.6870346069336 183.81484985351562 C 88.99079132080078 185.66586303710938 89.83992004394531 192.4766845703125 80.59294891357422 220.80307006835938 C 79.62095642089844 225.6256866455078 80.57718658447266 231.0574188232422 80.93370056152344 233.620361328125 C 85.0397720336914 241.30764770507812 90.44868469238281 248.51560974121094 93.03416442871094 252.70819091796875 C 88.32568359375 254.8544158935547 84.33430480957031 255.1419677734375 80.16848754882812 254.92459106445312 C 79.37581634521484 254.74534606933594 78.07197570800781 254.8775177001953 77.153564453125 255.2229461669922 C 76.73838806152344 252.4547576904297 76.55557250976562 244.62852478027344 76.09383392333984 241.83978271484375 C 75.2739028930664 238.88107299804688 74.13951873779297 235.4267578125 73.5964126586914 232.5204620361328 C 72.99092102050781 229.09799194335938 72.14559936523438 225.97064208984375 66.70582580566406 213.1939239501953 C 80.814697265625 189.2347412109375 81.39984130859375 187.41134643554688 74.6328125 172.19219970703125 C 77.19591522216797 164.0274658203125 77.15280151367188 149.4043426513672 79.94209289550781 134.88052368164062 C 95.64350891113281 119.11087799072266 110.63348388671875 108.80668640136719 114.39453125 105.14409637451172 C 119.35466003417969 99.83924865722656 122.78126525878906 97.77107238769531 125.81739807128906 95.98958587646484 C 128.13198852539062 93.377197265625 147.1292266845703 61.6582145690918 156.92767333984375 68.81327819824219 C 163.0334014892578 70.45504760742188 166.6470184326172 73.51841735839844 170.1441650390625 76.88163757324219 C 171.00625610351562 77.99395751953125 174.40310668945312 79.15741729736328 173.670166015625 78.52568054199219 C 171.34422302246094 85.04011535644531 180.08377075195312 85.84261322021484 177.21644592285156 95.64495849609375 C 182.14846801757812 94.1362533569336 198.02841186523438 102.52336120605469 200.8751220703125 101.80145263671875 C 198.16302490234375 117.15237426757812 196.8820343017578 120.2059555053711 192.65028381347656 133.47218322753906 C 202.58792114257812 109.79119110107422 190.0697784423828 144.10902404785156 178.3291015625 175.86651611328125 C 134.17955017089844 165.70953369140625 140.40399169921875 169.29888916015625 141.7867889404297 178.777587890625 C 142.2106475830078 213.75216674804688 139.91650390625 218.6776580810547 157.89013671875 245.3542938232422 C 164.48275756835938 240.1488494873047 167.75030517578125 216.66162109375 170.71473693847656 208.38784790039062 C 174.4105224609375 196.7842254638672 176.53411865234375 184.76148986816406 178.9676971435547 176.97470092773438 C 181.85658264160156 167.93099975585938 192.1416015625 145.7300567626953 190.57925415039062 145.947509765625 C 194.8197479248047 137.021484375 201.31997680664062 110.213623046875 201.8880615234375 111.52100372314453 C 192.24339294433594 100.46257019042969 188.11456298828125 103.73683166503906 229.77638244628906 124.25690460205078 C 243.99517822265625 108.99805450439453 235.06529235839844 79.35079956054688 234.6932830810547 66.56073760986328 C 239.3691864013672 64.09711456298828 236.6053466796875 63.12434768676758 242.25071716308594 63.060028076171875 C 244.9708251953125 63.95779800415039 256.3756408691406 75.11902618408203 242.22015380859375 65.15533447265625 C 250.2168731689453 64.89867401123047 257.4302978515625 66.40022277832031 260.0188903808594 68.87425231933594 C 297.96539306640625 63.2757568359375 299.2138366699219 92.18363952636719 280.2890625 86.77912139892578 C 261.35418701171875 90.84612274169922 257.2979736328125 100.11249542236328 256.1332092285156 115.59419250488281 C 255.83779907226562 160.78684997558594 214.45794677734375 150.6109619140625 215.00340270996094 149.93063354492188 C 222.9913330078125 169.29034423828125 230.15394592285156 175.05860900878906 243.19834899902344 184.74009704589844 C 250.91790771484375 190.3063507080078 253.93675231933594 196.00006103515625 253.0992431640625 202.5937042236328 C 249.55496215820312 208.7595977783203 246.66502380371094 225.99143981933594 250.64329528808594 238.25271606445312 C 247.6510009765625 237.61614990234375 249.9927215576172 239.91676330566406 263.10650634765625 244.31576538085938 C 252.43130493164062 256.6502990722656 243.90066528320312 257.54901123046875 244.16458129882812 258.16070556640625 C 233.53427124023438 256.73138427734375 226.9331512451172 256.3677978515625 217.3214569091797 252.4304962158203 C 200.4176483154297 254.7784423828125 223.896728515625 260.6701965332031 220.4398193359375 254.09719848632812 C 222.17263793945312 255.65838623046875 224.5487823486328 257.0326232910156 234.37599182128906 254.63064575195312 C 238.43504333496094 258.06231689453125 237.6595458984375 240.2293243408203 243.7705078125 217.92117309570312 C 238.13340759277344 201.40933227539062 239.95291137695312 199.18341064453125 239.47207641601562 201.70138549804688 C 238.18319702148438 198.3883819580078 236.08045959472656 194.97943115234375 220.98313903808594 186.32835388183594 C 207.8688201904297 184.60903930664062 209.62022399902344 149.7914276123047 220.740234375 120.59185028076172 C 221.26853942871094 118.61616516113281 225.59564208984375 127.19718933105469 219.5808868408203 121.3390121459961 C 218.68280029296875 116.16256713867188 218.4435272216797 131.5994110107422 218.09658813476562 130.55563354492188 C 216.1446533203125 132.0515899658203 228.8199920654297 91.44507598876953 226.3326416015625 100.65391540527344 C 214.06979370117188 131.3123321533203 214.47987365722656 148.1907196044922 200.9147186279297 191.64120483398438 C 191.60140991210938 169.36203002929688 190.49066162109375 175.78736877441406 189.80465698242188 186.4611053466797 C 181.79104614257812 197.79052734375 181.1764373779297 208.47381591796875 183.2882080078125 216.1908721923828 C 165.89828491210938 240.5886993408203 166.3391571044922 243.5796661376953 172.09701538085938 246.7488555908203 C 179.00282287597656 262.41766357421875 174.30543518066406 242.61904907226562 190.05172729492188 255.26077270507812" stroke-width="0.0" fill="rgb(0, 0, 0)" opacity="1.0" stroke="rgb(0, 0, 0)" stroke-opacity="1" stroke-linecap="round" stroke-linejoin="round"/>
  </g>
</svg>
