<?xml version="1.0" ?>
<svg xmlns="http://www.w3.org/2000/svg" version="1.1" width="320" height="320">
  <defs/>
  <g>
    <path d="M 179.8798370361328 247.62083435058594 C 174.06924438476562 253.08738708496094 171.01336669921875 252.0818634033203 169.30299377441406 248.126708984375 C 171.0729522705078 253.21043395996094 175.83169555664062 249.99545288085938 170.00685119628906 252.34349060058594 C 162.32052612304688 253.406982421875 148.00770568847656 255.690185546875 141.8367919921875 251.0599822998047 C 141.1958465576172 252.78799438476562 141.0525665283203 252.8753204345703 140.12953186035156 255.0991668701172 C 141.1717987060547 252.55975341796875 141.25645446777344 251.3973846435547 142.1103057861328 249.2418212890625 C 142.92330932617188 246.09974670410156 143.11131286621094 244.51861572265625 145.77894592285156 242.7436981201172 C 149.87353515625 242.57765197753906 150.51052856445312 239.9302978515625 153.22958374023438 238.3469696044922 C 153.62423706054688 236.1470184326172 160.32240295410156 232.4642791748047 152.51905822753906 237.8404083251953 C 155.6358184814453 231.22732543945312 130.406005859375 217.78778076171875 137.4322509765625 208.03517150878906 C 135.43202209472656 172.1975555419922 135.050048828125 170.04566955566406 130.77566528320312 106.27015686035156 C 126.08832550048828 112.53610229492188 125.45732879638672 136.04013061523438 136.31771850585938 120.25743103027344 C 147.8545379638672 105.80227661132812 148.76832580566406 101.55567932128906 148.146728515625 107.03071594238281 C 145.08114624023438 109.43679809570312 145.33204650878906 109.04450988769531 134.44302368164062 124.20733642578125 C 125.94107055664062 128.00784301757812 127.6185073852539 127.51911163330078 136.8803253173828 182.21316528320312 C 104.41393280029297 123.09634399414062 118.51642608642578 151.41172790527344 116.38883972167969 183.7141571044922 C 92.59237670898438 182.0978546142578 89.52677917480469 187.3756561279297 74.53451538085938 206.1331787109375 C 72.91580200195312 224.32354736328125 74.61563873291016 230.38478088378906 74.67967987060547 230.2259063720703 C 77.67240905761719 238.27052307128906 79.94448852539062 243.65882873535156 82.32624816894531 246.54432678222656 C 79.66160583496094 248.89346313476562 77.06475830078125 249.90823364257812 73.30496978759766 250.75563049316406 C 72.11441040039062 250.29214477539062 70.64659881591797 251.11886596679688 67.94843292236328 251.6163787841797 C 66.48992156982422 246.78831481933594 68.67485046386719 239.0415802001953 68.94686126708984 237.23895263671875 C 69.05126953125 234.22410583496094 68.56040954589844 231.34471130371094 68.09971618652344 229.4483642578125 C 68.4255142211914 226.40663146972656 68.4937744140625 223.40440368652344 62.772953033447266 197.1260223388672 C 83.2055435180664 181.20132446289062 85.26765441894531 179.19476318359375 87.08594512939453 173.3138427734375 C 90.87633514404297 160.8125 93.7040023803711 149.97567749023438 97.12980651855469 134.2452392578125 C 106.43304443359375 123.20942687988281 120.4585952758789 111.64092254638672 124.34941101074219 107.3701171875 C 132.4564208984375 100.45722961425781 135.97276306152344 97.95108795166016 139.908447265625 95.77974700927734 C 142.0082550048828 93.61712646484375 163.62759399414062 59.8831901550293 170.22088623046875 64.52264404296875 C 175.11334228515625 64.91471862792969 176.99752807617188 65.93572235107422 180.0453643798828 67.04315185546875 C 182.060546875 68.93557739257812 186.75390625 69.5687484741211 188.0206756591797 71.33428192138672 C 184.6446533203125 76.58599090576172 194.03916931152344 78.08465576171875 192.23504638671875 85.70747375488281 C 191.45326232910156 87.25646209716797 210.42108154296875 95.10957336425781 214.9503631591797 93.6895523071289 C 211.8871612548828 111.47891235351562 209.71023559570312 116.0179672241211 204.1977996826172 131.09979248046875 C 212.8294219970703 109.91810607910156 201.1387481689453 144.34967041015625 191.53759765625 171.96803283691406 C 147.69239807128906 160.09039306640625 153.34410095214844 164.06459045410156 152.6047821044922 173.17617797851562 C 148.17098999023438 209.01995849609375 147.15977478027344 213.07394409179688 156.0799560546875 236.00477600097656 C 160.2342987060547 233.24191284179688 169.56007385253906 207.75286865234375 176.45309448242188 199.94580078125 C 181.6240692138672 189.2122802734375 186.50514221191406 177.4248809814453 191.76148986816406 170.94273376464844 C 195.38807678222656 163.89186096191406 200.99412536621094 149.2157440185547 201.32852172851562 148.8539581298828 C 204.4462127685547 137.13662719726562 214.78419494628906 107.65988159179688 213.7101593017578 101.86952209472656 C 206.84446716308594 91.31674194335938 201.70101928710938 94.33027648925781 245.14849853515625 118.03133392333984 C 253.6504669189453 107.56722259521484 244.56468200683594 71.95006561279297 245.48501586914062 60.289127349853516 C 249.77932739257812 58.07978057861328 246.58908081054688 56.352012634277344 251.17726135253906 56.09098815917969 C 253.86660766601562 56.855712890625 264.8284912109375 65.62052154541016 250.45169067382812 58.092803955078125 C 257.01824951171875 57.81736373901367 263.34814453125 58.59607696533203 267.6990051269531 61.23051071166992 C 300.4073486328125 55.52255630493164 302.1230773925781 80.18855285644531 285.97296142578125 78.5268783569336 C 270.4080505371094 83.52642822265625 267.4205627441406 93.98326873779297 269.1256408691406 115.16667175292969 C 267.76983642578125 153.3607635498047 234.86209106445312 143.55747985839844 235.3033447265625 144.0719451904297 C 234.08334350585938 177.58322143554688 233.06149291992188 182.5935516357422 233.644287109375 188.66429138183594 C 234.3434295654297 193.9152069091797 236.74362182617188 200.3673095703125 237.55274963378906 207.42124938964844 C 234.71824645996094 214.5464324951172 235.54452514648438 226.7560272216797 240.25527954101562 236.955078125 C 240.9825897216797 239.78570556640625 244.15969848632812 243.0474853515625 257.7234802246094 245.13197326660156 C 246.01626586914062 254.00570678710938 238.70750427246094 253.43679809570312 238.29083251953125 253.4263153076172 C 229.43247985839844 251.51414489746094 223.09010314941406 251.57484436035156 215.23406982421875 249.1963653564453 C 202.5662078857422 251.1554412841797 213.10009765625 251.667724609375 218.5746612548828 249.72361755371094 C 219.9973602294922 249.064208984375 221.20603942871094 248.8111572265625 230.93299865722656 246.43576049804688 C 235.94937133789062 249.79345703125 232.1022186279297 233.07818603515625 230.9212188720703 221.58261108398438 C 221.09185791015625 208.1961212158203 222.83544921875 205.79061889648438 223.3015899658203 204.17161560058594 C 223.01795959472656 198.17771911621094 222.15245056152344 190.7571258544922 223.05914306640625 181.61541748046875 C 224.68231201171875 183.70579528808594 230.8742218017578 143.946533203125 231.62074279785156 118.46755981445312 C 233.09298706054688 114.20474243164062 236.8520050048828 121.34205627441406 232.70175170898438 115.6574935913086 C 232.1636199951172 112.67359161376953 231.8399658203125 127.28557586669922 230.79566955566406 125.40960693359375 C 227.84523010253906 128.26150512695312 240.1088104248047 87.6366958618164 236.7609405517578 98.08204650878906 C 225.9048614501953 129.89537048339844 229.6553497314453 146.83689880371094 230.5872802734375 182.34144592285156 C 203.7621612548828 164.70367431640625 202.13784790039062 171.4603729248047 198.86581420898438 182.7230224609375 C 188.9130096435547 191.76358032226562 185.47023010253906 202.04299926757812 186.97117614746094 211.78482055664062 C 161.75314331054688 234.85760498046875 161.40565490722656 237.3059539794922 163.8036346435547 241.77224731445312 C 169.28370666503906 256.00531005859375 166.4143829345703 239.11256408691406 179.8798370361328 247.62083435058594" stroke-width="0.0" fill="rgb(0, 0, 0)" opacity="1.0" stroke="rgb(0, 0, 0)" stroke-opacity="1" stroke-linecap="round" stroke-linejoin="round"/>
  </g>
</svg>
