<?xml version="1.0" ?>
<svg xmlns="http://www.w3.org/2000/svg" version="1.1" width="320" height="320">
  <defs/>
  <g>
    <path d="M 185.62734985351562 274.58343505859375 C 179.3053436279297 273.0338134765625 178.17396545410156 272.18701171875 179.1075439453125 269.04937744140625 C 177.26974487304688 272.0489501953125 184.02938842773438 272.0866394042969 178.48593139648438 269.7657165527344 C 175.5234375 268.5761413574219 165.26351928710938 268.853759765625 164.9342041015625 268.5238342285156 C 162.4287872314453 281.9613037109375 147.25779724121094 278.3504943847656 141.5887908935547 284.7823486328125 C 142.8999481201172 270.6533203125 143.116455078125 268.1987609863281 146.36769104003906 264.69281005859375 C 146.9180908203125 262.4107666015625 150.3063507080078 263.5708923339844 152.64871215820312 261.604736328125 C 155.88404846191406 257.9257507324219 157.76919555664062 257.5824279785156 158.95016479492188 255.63845825195312 C 159.29185485839844 254.21810913085938 164.42568969726562 250.9355926513672 143.32156372070312 267.69561767578125 C 146.53033447265625 254.01771545410156 94.36837768554688 243.48391723632812 111.58621215820312 228.4855499267578 C 142.5052490234375 194.37379455566406 142.08761596679688 192.18734741210938 142.3849334716797 130.55055236816406 C 137.35516357421875 137.4026641845703 135.6263427734375 159.1197967529297 148.643798828125 143.12034606933594 C 161.7727813720703 131.26101684570312 161.70416259765625 127.95709228515625 161.673095703125 132.4584197998047 C 163.10540771484375 129.43673706054688 159.31370544433594 135.94932556152344 146.2481689453125 148.25279235839844 C 137.57469177246094 150.97021484375 132.5929718017578 151.9940643310547 149.74176025390625 206.50062561035156 C 115.25555419921875 145.96548461914062 137.44290161132812 174.2989959716797 137.09234619140625 199.94082641601562 C 111.96448516845703 203.75192260742188 112.64506530761719 210.60446166992188 101.29519653320312 242.87982177734375 C 94.52479553222656 258.3040466308594 91.79389190673828 261.6236572265625 92.15428924560547 261.25042724609375 C 90.7491455078125 265.89056396484375 89.99974822998047 268.2269287109375 90.13557434082031 270.3692321777344 C 87.93705749511719 270.9285888671875 86.15846252441406 270.85809326171875 84.44097900390625 270.71051025390625 C 84.00387573242188 270.8288269042969 83.10429382324219 270.8527526855469 82.45329284667969 270.8789367675781 C 83.30270385742188 267.7928466796875 86.28997802734375 264.2244567871094 86.81481170654297 263.26947021484375 C 87.44841003417969 260.83660888671875 88.63653564453125 258.77313232421875 88.42694091796875 258.966796875 C 90.25936889648438 256.8534851074219 90.75188446044922 255.97500610351562 88.02763366699219 231.8329315185547 C 103.04972839355469 207.03762817382812 103.81269836425781 204.90711975097656 102.59095001220703 195.85174560546875 C 104.38695526123047 186.27862548828125 105.66046905517578 177.5260772705078 107.91249084472656 159.03961181640625 C 122.93054962158203 145.44302368164062 132.5904541015625 137.1026611328125 138.74008178710938 131.939208984375 C 147.3914337158203 124.84906768798828 150.19674682617188 121.19686889648438 153.1431884765625 119.7065658569336 C 155.08609008789062 117.27095794677734 176.7394256591797 87.05255889892578 183.90798950195312 90.96642303466797 C 186.87078857421875 91.14146423339844 188.81065368652344 92.66746520996094 190.20831298828125 93.65470123291016 C 191.10931396484375 94.22730255126953 191.1440887451172 93.67025756835938 193.4765625 96.20584106445312 C 191.34286499023438 97.62653350830078 204.93727111816406 98.59229278564453 203.0158233642578 113.17388153076172 C 202.12779235839844 115.01920318603516 220.31703186035156 123.83444213867188 226.5186004638672 122.48287963867188 C 223.1103057861328 136.57009887695312 221.9879608154297 138.6171112060547 216.24713134765625 155.16151428222656 C 225.7908477783203 131.6057891845703 211.7543487548828 164.13356018066406 197.83102416992188 199.5557403564453 C 151.36056518554688 184.5938720703125 157.22024536132812 188.91650390625 156.10655212402344 203.1492462158203 C 120.02767944335938 236.85537719726562 118.65582275390625 238.10589599609375 153.04405212402344 265.0910339355469 C 188.61135864257812 280.02655029296875 217.5778045654297 249.52197265625 215.42807006835938 240.7108917236328 C 217.51937866210938 219.0021514892578 213.40081787109375 210.80178833007812 208.37046813964844 204.19459533691406 C 197.69737243652344 195.67684936523438 209.2180633544922 173.96827697753906 210.67002868652344 173.17202758789062 C 215.0068817138672 161.3396453857422 226.55484008789062 133.8513641357422 225.365478515625 131.55398559570312 C 216.33143615722656 119.5444564819336 212.0850830078125 123.83816528320312 262.0558166503906 149.8447265625 C 277.6921081542969 134.28848266601562 264.0682678222656 103.90229034423828 263.0526123046875 89.73490905761719 C 269.0616455078125 86.96346282958984 264.15728759765625 84.31179809570312 271.5459289550781 84.64265441894531 C 269.18939208984375 83.13613891601562 282.39447021484375 94.08853149414062 267.29296875 85.43579864501953 C 274.2937927246094 85.48603057861328 283.1250915527344 86.27825927734375 288.1489562988281 89.29712677001953 C 324.0814208984375 77.42630004882812 330.0052490234375 109.09007263183594 306.4813232421875 108.37699890136719 C 292.1533203125 115.7662353515625 289.99932861328125 120.27454376220703 288.4224853515625 140.02499389648438 C 283.7791748046875 183.04457092285156 243.77120971679688 169.62301635742188 244.30804443359375 170.66143798828125 C 233.756103515625 201.02352905273438 232.21011352539062 203.359619140625 230.98825073242188 206.90542602539062 C 230.744384765625 210.7015838623047 230.78897094726562 213.09494018554688 231.23654174804688 214.73281860351562 C 232.40846252441406 218.9862518310547 231.586181640625 259.3013610839844 232.7821807861328 266.7067565917969 C 234.18128967285156 272.16375732421875 236.45849609375 276.0065002441406 246.4645538330078 277.4471435546875 C 237.32354736328125 282.2033386230469 232.85133361816406 282.290283203125 230.39552307128906 282.7894287109375 C 224.15237426757812 282.1844177246094 217.34637451171875 283.4781799316406 203.72764587402344 280.5873107910156 C 192.38031005859375 278.4728698730469 219.02825927734375 278.0089111328125 216.5610809326172 275.2599792480469 C 218.49159240722656 276.6091003417969 221.88050842285156 275.10528564453125 228.38925170898438 272.89630126953125 C 232.48464965820312 276.8565368652344 228.16946411132812 264.5865173339844 231.79855346679688 235.85812377929688 C 224.2224884033203 217.92913818359375 224.6863250732422 216.96083068847656 224.5709686279297 214.89019775390625 C 223.3757781982422 210.94476318359375 224.43577575683594 206.36273193359375 227.46588134765625 201.08670043945312 C 227.69546508789062 202.589111328125 239.20306396484375 169.47401428222656 241.9822540283203 140.60487365722656 C 244.30587768554688 134.96624755859375 249.1183624267578 147.48619079589844 244.4858856201172 141.83041381835938 C 243.80270385742188 136.44407653808594 239.470947265625 158.4404754638672 238.89402770996094 156.61898803710938 C 244.20411682128906 149.6666717529297 252.0318145751953 109.79196166992188 251.07876586914062 120.98151397705078 C 239.6520538330078 157.78945922851562 238.5220947265625 175.48648071289062 230.25341796875 211.01156616210938 C 211.70379638671875 194.1446533203125 212.76170349121094 196.55642700195312 223.47352600097656 202.44529724121094 C 223.3489990234375 216.26156616210938 233.43310546875 233.65066528320312 238.29458618164062 246.8260498046875 C 184.91734313964844 256.543701171875 181.33338928222656 275.8175964355469 185.49197387695312 274.3717346191406 C 190.63180541992188 287.87969970703125 183.4969482421875 258.3891906738281 185.62734985351562 274.58343505859375" stroke-width="0.0" fill="rgb(0, 0, 0)" opacity="1.0" stroke="rgb(0, 0, 0)" stroke-opacity="1" stroke-linecap="round" stroke-linejoin="round"/>
  </g>
</svg>
