<?xml version="1.0" ?>
<svg xmlns="http://www.w3.org/2000/svg" version="1.1" width="320" height="320">
  <defs/>
  <g>
    <path d="M 189.5576934814453 258.2130126953125 C 178.2445831298828 263.97125244140625 174.77017211914062 261.1537780761719 174.1233367919922 255.1383819580078 C 174.48886108398438 262.2968444824219 181.9538116455078 259.534912109375 172.91482543945312 260.1253356933594 C 165.4947967529297 259.34942626953125 151.4509735107422 260.7400817871094 146.41819763183594 257.7025146484375 C 139.32896423339844 255.55111694335938 138.1638946533203 258.4870910644531 136.83016967773438 261.87127685546875 C 138.2855224609375 259.3213195800781 141.50230407714844 255.9333953857422 144.8247528076172 256.3653869628906 C 148.29908752441406 256.4742126464844 149.599853515625 256.6479797363281 151.93663024902344 255.2626190185547 C 153.3179931640625 253.0511474609375 159.81251525878906 253.9300537109375 164.05113220214844 248.90609741210938 C 164.8515167236328 238.33102416992188 165.9193572998047 237.4131317138672 151.7672119140625 255.49588012695312 C 149.9359893798828 245.38377380371094 113.60047912597656 230.21295166015625 123.22045135498047 219.58509826660156 C 119.0892105102539 180.06253051757812 118.58785247802734 178.09860229492188 113.3791275024414 112.2689208984375 C 108.41661071777344 121.93838500976562 108.99002075195312 142.3198699951172 126.9634017944336 120.03544616699219 C 136.49720764160156 109.47975158691406 136.4722900390625 106.8822250366211 136.27259826660156 112.08152770996094 C 133.22251892089844 114.24966430664062 133.94192504882812 113.2785415649414 121.94146728515625 126.18455505371094 C 112.8883056640625 129.6438751220703 110.0604019165039 130.35658264160156 119.38259887695312 196.108154296875 C 85.92636108398438 126.49018859863281 106.8380355834961 152.0861053466797 106.89107513427734 188.3770294189453 C 87.73438262939453 188.91038513183594 86.39801788330078 194.62841796875 75.79596710205078 217.3142547607422 C 77.37129974365234 225.47203063964844 81.65390014648438 231.44952392578125 81.58450317382812 231.11383056640625 C 90.97178649902344 239.59500122070312 95.22405242919922 247.92721557617188 97.82764434814453 254.97991943359375 C 90.74813842773438 257.4124450683594 85.35608673095703 257.1725158691406 80.9445571899414 257.1863098144531 C 80.47775268554688 257.40093994140625 79.23590850830078 257.3446044921875 78.4069595336914 257.340576171875 C 79.3056640625 250.5166778564453 79.46171569824219 244.3470916748047 78.93988037109375 242.45362854003906 C 77.44341278076172 238.55987548828125 75.50472259521484 236.1092987060547 74.05282592773438 234.03311157226562 C 73.201416015625 231.1381072998047 71.0699234008789 227.9066925048828 58.34590148925781 210.82264709472656 C 79.27033233642578 190.24899291992188 79.94271087646484 189.05838012695312 77.3143310546875 176.4539031982422 C 79.04022216796875 170.06175231933594 77.14134979248047 156.8858642578125 79.19017028808594 137.5254669189453 C 95.99003601074219 121.50668334960938 108.9107666015625 111.81671142578125 113.0927505493164 107.6079330444336 C 118.10397338867188 102.25640106201172 121.70272827148438 100.07203674316406 124.19056701660156 97.98666381835938 C 126.37217712402344 95.22906494140625 145.87054443359375 63.44196319580078 155.40731811523438 70.87025451660156 C 162.42665100097656 72.83595275878906 165.43954467773438 75.50077056884766 168.42015075683594 78.41863250732422 C 169.62545776367188 79.62931060791016 172.0496368408203 79.70188903808594 171.5114288330078 79.31597137451172 C 168.59385681152344 86.1531753540039 178.0585174560547 86.14995574951172 175.5172119140625 96.63529205322266 C 180.14674377441406 95.52347564697266 195.88551330566406 104.10684204101562 198.7680206298828 103.35560607910156 C 196.41409301757812 118.09638977050781 194.8778076171875 121.45343017578125 191.20318603515625 134.71896362304688 C 200.2440185546875 109.42974090576172 187.92904663085938 142.5538330078125 177.2406463623047 177.65640258789062 C 130.02529907226562 167.76434326171875 135.680908203125 170.88633728027344 135.28628540039062 179.65098571777344 C 132.46307373046875 222.17791748046875 130.4329833984375 225.9412841796875 153.57456970214844 252.72933959960938 C 164.65530395507812 243.60784912109375 168.96717834472656 219.57113647460938 170.9501953125 211.2359619140625 C 174.35931396484375 199.97117614746094 176.05072021484375 187.78135681152344 178.37060546875 179.9123077392578 C 180.3117218017578 170.33834838867188 190.33706665039062 146.78457641601562 188.7744598388672 147.0154571533203 C 191.92466735839844 138.9834442138672 199.54576110839844 112.97566986083984 198.50946044921875 111.27752685546875 C 190.6180877685547 101.00704193115234 186.89857482910156 105.20014953613281 229.6283416748047 125.14462280273438 C 242.78524780273438 109.84088897705078 234.75733947753906 81.1038818359375 234.28521728515625 67.59197998046875 C 238.37705993652344 65.15370178222656 235.46539306640625 64.309326171875 241.4330596923828 64.69563293457031 C 243.69741821289062 65.64982604980469 254.5791473388672 77.05399322509766 241.03939819335938 66.4312973022461 C 248.93405151367188 66.1087417602539 255.92835998535156 67.8805160522461 258.70013427734375 70.4098892211914 C 297.099609375 65.11012268066406 298.4828796386719 94.47124481201172 278.5936584472656 88.78665161132812 C 259.7169189453125 92.34445190429688 256.3646545410156 100.8097152709961 255.0865936279297 119.41768646240234 C 252.36746215820312 161.56072998046875 213.36563110351562 150.96031188964844 214.0329132080078 150.1501007080078 C 222.67886352539062 166.63601684570312 229.7992401123047 174.367431640625 245.95864868164062 187.67953491210938 C 255.0414581298828 193.02293395996094 257.8381652832031 198.8636474609375 249.9152069091797 207.83665466308594 C 248.29600524902344 211.04415893554688 234.34019470214844 233.3988037109375 236.01560974121094 241.93038940429688 C 231.79611206054688 241.55355834960938 233.61734008789062 245.05223083496094 239.90106201171875 249.81178283691406 C 231.99147033691406 254.8600311279297 225.8895721435547 254.1768035888672 226.00535583496094 257.8902587890625 C 220.06643676757812 257.0910949707031 215.2490692138672 257.0699768066406 207.87281799316406 254.26693725585938 C 191.8670654296875 250.21041870117188 214.25570678710938 257.9717712402344 212.1635284423828 246.7547149658203 C 213.5087890625 243.5417022705078 214.72622680664062 243.00401306152344 219.33963012695312 239.41465759277344 C 221.9940185546875 241.16256713867188 216.40382385253906 236.74375915527344 231.57406616210938 230.59759521484375 C 240.87196350097656 206.5730438232422 241.97885131835938 205.11227416992188 242.30235290527344 204.30755615234375 C 240.864990234375 201.65689086914062 238.19918823242188 197.84710693359375 218.87156677246094 185.35182189941406 C 205.5406036376953 182.7908172607422 207.47634887695312 149.8622283935547 219.4113006591797 121.63448333740234 C 220.0153045654297 119.71138000488281 224.33998107910156 127.1901626586914 219.85629272460938 121.639892578125 C 218.674560546875 117.11467742919922 215.59312438964844 133.0687713623047 215.14512634277344 131.57781982421875 C 217.30740356445312 128.27720642089844 225.1901092529297 90.39619445800781 223.5818634033203 100.55714416503906 C 211.78614807128906 133.54986572265625 212.02117919921875 149.79454040527344 198.3640594482422 191.41758728027344 C 191.50099182128906 172.06947326660156 190.43386840820312 178.79049682617188 189.8163604736328 189.40777587890625 C 181.63270568847656 200.89280700683594 181.80459594726562 210.68109130859375 184.011474609375 218.2949981689453 C 165.28553771972656 243.7875213623047 167.13916015625 248.07887268066406 173.76397705078125 251.200439453125 C 180.93374633789062 266.3319396972656 172.80303955078125 243.21109008789062 189.5576934814453 258.2130126953125" stroke-width="0.0" fill="rgb(0, 0, 0)" opacity="1.0" stroke="rgb(0, 0, 0)" stroke-opacity="1" stroke-linecap="round" stroke-linejoin="round"/>
  </g>
</svg>
