<?xml version="1.0" ?>
<svg xmlns="http://www.w3.org/2000/svg" version="1.1" width="320" height="320">
  <defs/>
  <g>
    <path d="M 184.11257934570312 261.3042907714844 C 174.4721221923828 265.1822814941406 171.4746856689453 263.250732421875 170.73626708984375 258.7938537597656 C 171.00653076171875 266.3655090332031 177.16531372070312 261.98333740234375 168.1412811279297 262.3128967285156 C 160.36856079101562 261.3766174316406 144.21286010742188 263.0091857910156 139.82882690429688 259.5335998535156 C 138.89633178710938 262.36761474609375 137.1211700439453 261.8094177246094 135.54806518554688 266.4510192871094 C 138.18406677246094 261.3325500488281 138.63800048828125 260.21588134765625 143.1207733154297 259.3624267578125 C 145.0287322998047 259.67205810546875 145.22665405273438 258.30963134765625 147.38827514648438 256.9861755371094 C 150.42642211914062 257.0609436035156 153.2768096923828 253.74432373046875 154.9969024658203 250.53916931152344 C 156.52549743652344 248.0657196044922 159.4398956298828 245.82632446289062 146.55287170410156 258.46209716796875 C 146.94229125976562 249.75230407714844 109.04432678222656 231.74424743652344 117.10427856445312 221.37757873535156 C 115.65242004394531 181.69740295410156 115.3200454711914 179.89715576171875 112.4346923828125 114.77822875976562 C 106.8973617553711 123.1916275024414 105.7481460571289 142.47303771972656 122.12364196777344 126.06410217285156 C 134.61257934570312 113.1447982788086 134.5122833251953 109.92764282226562 134.33970642089844 115.3980712890625 C 130.68408203125 117.5557632446289 131.4434356689453 116.58184814453125 120.68880462646484 130.70150756835938 C 110.379638671875 132.64491271972656 108.72731018066406 133.02720642089844 117.69454193115234 200.85882568359375 C 85.15593719482422 129.9188690185547 104.61421203613281 155.4339599609375 104.31724548339844 194.27322387695312 C 80.1548080444336 189.98219299316406 77.792236328125 194.84222412109375 62.11188507080078 214.2516326904297 C 70.7226333618164 231.6049346923828 74.8006820678711 236.4136199951172 74.67608642578125 236.06907653808594 C 86.95437622070312 243.673828125 89.8376693725586 253.1899871826172 90.47161865234375 260.3953552246094 C 85.2274169921875 261.9995422363281 81.4652328491211 262.1943664550781 76.30281829833984 262.20513916015625 C 75.57606506347656 261.89398193359375 73.93132019042969 262.2294006347656 72.2672119140625 262.1602478027344 C 71.48978424072266 256.2821044921875 73.0770263671875 246.78009033203125 72.85379028320312 245.87220764160156 C 71.84868621826172 242.85935974121094 70.17318725585938 241.016357421875 68.80355834960938 239.40867614746094 C 67.57583618164062 236.23431396484375 65.94668579101562 233.42840576171875 45.270423889160156 206.73704528808594 C 71.41060638427734 188.0738067626953 72.63491821289062 187.03155517578125 74.92313385009766 180.87039184570312 C 78.158935546875 172.21868896484375 77.29334259033203 160.3565216064453 78.16070556640625 141.3717803955078 C 97.35798645019531 124.29212951660156 107.4922866821289 115.6816635131836 112.01781463623047 111.83883666992188 C 116.68511199951172 106.2352066040039 120.6024169921875 103.75411224365234 123.49981689453125 101.87861633300781 C 125.10588073730469 99.58284759521484 143.9735870361328 67.45895385742188 152.8250732421875 74.00865173339844 C 159.69729614257812 75.32244110107422 162.93487548828125 77.56798553466797 166.48495483398438 80.64208984375 C 167.4254150390625 81.39044189453125 170.39633178710938 82.05001831054688 169.6472930908203 81.54792022705078 C 166.31536865234375 87.93728637695312 176.33543395996094 87.74627685546875 173.54518127441406 98.83672332763672 C 177.07659912109375 98.09013366699219 196.098876953125 104.83370208740234 197.2503662109375 106.30628967285156 C 194.4966583251953 121.7984848022461 193.6849365234375 123.93579864501953 189.22447204589844 137.4553985595703 C 197.2841339111328 111.31600189208984 185.6752471923828 146.77053833007812 176.68994140625 179.85281372070312 C 126.31021118164062 169.76303100585938 132.08636474609375 172.71653747558594 132.2522735595703 181.73663330078125 C 127.49343872070312 224.80267333984375 125.01130676269531 229.0755615234375 152.57493591308594 260.0880126953125 C 168.23097229003906 256.06964111328125 166.01353454589844 226.51341247558594 169.43931579589844 215.1014862060547 C 173.9302520751953 203.5635986328125 175.6821746826172 191.8536834716797 177.55963134765625 183.8178253173828 C 179.04315185546875 173.4564208984375 188.1021728515625 149.53878784179688 187.14588928222656 149.82400512695312 C 189.6545867919922 142.4008026123047 198.23793029785156 114.65772247314453 197.01544189453125 112.73287200927734 C 188.1520538330078 102.78433227539062 184.6595458984375 106.4434814453125 227.8580322265625 128.0885772705078 C 242.83404541015625 112.00936889648438 233.83616638183594 83.17610931396484 232.9323272705078 69.69369506835938 C 237.0366973876953 67.41712951660156 233.8751220703125 66.81707000732422 239.5712127685547 67.1492919921875 C 242.035400390625 68.3124771118164 253.47752380371094 79.97872161865234 243.69447326660156 67.91607666015625 C 250.1772918701172 68.37214660644531 255.0749053955078 70.76372528076172 257.0350341796875 73.06562042236328 C 295.4271240234375 67.76390838623047 296.11480712890625 96.60443878173828 276.93072509765625 90.15082550048828 C 258.0258483886719 94.4061279296875 254.3917236328125 102.89126586914062 253.31594848632812 119.66613006591797 C 250.86468505859375 163.51771545410156 214.10833740234375 152.65301513671875 214.25982666015625 152.96243286132812 C 219.47439575195312 170.18276977539062 224.62425231933594 178.1393585205078 237.08786010742188 192.97817993164062 C 247.5826416015625 199.30270385742188 252.0707244873047 206.0273895263672 247.27670288085938 213.50868225097656 C 243.18309020996094 217.8099365234375 215.61260986328125 239.79966735839844 217.38522338867188 252.2843780517578 C 211.97264099121094 255.38160705566406 216.81129455566406 254.95089721679688 230.12490844726562 256.3022766113281 C 221.8960418701172 263.5227966308594 220.7857666015625 264.18975830078125 220.44268798828125 264.5897521972656 C 210.1765594482422 265.7596435546875 201.35037231445312 266.2201232910156 186.93984985351562 262.71337890625 C 163.73416137695312 251.85000610351562 186.060546875 265.9884033203125 188.57693481445312 241.96482849121094 C 192.56997680664062 239.31202697753906 197.21080017089844 236.8846893310547 206.7729949951172 235.08424377441406 C 212.58642578125 241.07603454589844 208.55340576171875 230.99188232421875 219.9545440673828 232.56297302246094 C 235.42691040039062 210.82061767578125 237.60548400878906 209.13107299804688 237.0909423828125 210.35745239257812 C 236.10223388671875 208.38351440429688 230.67266845703125 201.794189453125 210.81150817871094 188.4683074951172 C 202.83944702148438 182.52076721191406 208.073486328125 151.39576721191406 216.6107177734375 123.08723449707031 C 217.25711059570312 121.69884490966797 222.4903564453125 129.63064575195312 217.84088134765625 124.37960052490234 C 216.4397430419922 118.33563995361328 213.0653839111328 137.05825805664062 211.78514099121094 134.5455780029297 C 215.60726928710938 130.27850341796875 224.51080322265625 92.197509765625 222.50465393066406 102.3890609741211 C 211.1351318359375 136.7884979248047 213.5367431640625 154.5066680908203 201.0764617919922 192.85736083984375 C 191.33065795898438 174.33578491210938 190.42051696777344 181.77029418945312 189.42462158203125 193.2374725341797 C 181.69647216796875 204.73495483398438 181.9358367919922 214.96539306640625 185.01092529296875 222.25408935546875 C 161.67649841308594 246.2567901611328 167.01351928710938 253.4463348388672 172.7145538330078 256.45928955078125 C 175.52638244628906 272.7463073730469 167.1919708251953 248.12802124023438 184.11257934570312 261.3042907714844" stroke-width="0.0" fill="rgb(0, 0, 0)" opacity="1.0" stroke="rgb(0, 0, 0)" stroke-opacity="1" stroke-linecap="round" stroke-linejoin="round"/>
  </g>
</svg>
