<?xml version="1.0" ?>
<svg xmlns="http://www.w3.org/2000/svg" version="1.1" width="320" height="320">
  <defs/>
  <g>
    <path d="M 189.65139770507812 295.5793762207031 C 179.1458282470703 297.6330261230469 175.6621856689453 294.31341552734375 175.25357055664062 287.97833251953125 C 174.98342895507812 295.4351501464844 186.11509704589844 297.7027282714844 168.02581787109375 296.13189697265625 C 157.98092651367188 288.74017333984375 148.96786499023438 284.0895080566406 145.81613159179688 279.6452331542969 C 144.54103088378906 281.3913269042969 142.5066375732422 280.09942626953125 137.94973754882812 288.35882568359375 C 141.1477508544922 280.9638671875 146.6759033203125 280.5057373046875 147.73439025878906 278.0052490234375 C 150.01800537109375 277.2198486328125 149.96066284179688 273.9022521972656 152.9267120361328 271.6456298828125 C 156.42901611328125 270.66754150390625 157.89820861816406 267.5369567871094 160.36822509765625 266.0350646972656 C 160.68386840820312 263.2161560058594 164.16461181640625 259.8111877441406 145.70574951171875 280.2374267578125 C 146.09054565429688 276.89080810546875 103.48218536376953 260.4523010253906 114.40416717529297 246.5704345703125 C 128.62734985351562 198.57012939453125 128.73561096191406 200.33970642089844 125.7771987915039 148.98240661621094 C 119.62674713134766 159.283935546875 120.54962158203125 176.48158264160156 140.0260772705078 154.74224853515625 C 150.7344512939453 141.19168090820312 150.28994750976562 148.0126190185547 150.0757293701172 145.94798278808594 C 147.6568145751953 147.6974639892578 144.28749084472656 152.43984985351562 132.95046997070312 162.99771118164062 C 121.27349090576172 166.24154663085938 117.3629150390625 165.96543884277344 141.8844451904297 221.0428466796875 C 111.84504699707031 150.83656311035156 133.97943115234375 192.33694458007812 133.32095336914062 224.1737823486328 C 91.41370391845703 213.5770721435547 90.05633544921875 220.04864501953125 70.72344207763672 247.517578125 C 65.72822570800781 262.9850769042969 65.04979705810547 269.2835693359375 63.390220642089844 271.91412353515625 C 63.54879379272461 290.7330627441406 78.40972137451172 283.60382080078125 79.82754516601562 290.8102722167969 C 73.26383209228516 293.4267883300781 67.20306396484375 293.71954345703125 57.67732238769531 292.04412841796875 C 55.74671936035156 292.26837158203125 53.0571403503418 290.37469482421875 51.88385772705078 289.92822265625 C 61.468101501464844 269.2823486328125 53.49539566040039 274.07012939453125 58.001014709472656 272.9369201660156 C 55.64284133911133 273.28082275390625 57.016807556152344 269.7061767578125 57.87608337402344 266.95697021484375 C 59.810089111328125 263.1750793457031 60.382469177246094 260.96112060546875 57.90350341796875 237.58926391601562 C 79.63904571533203 213.17420959472656 80.63825225830078 211.398193359375 83.2511978149414 200.37025451660156 C 85.35578918457031 194.86590576171875 89.74102020263672 185.85272216796875 95.90487670898438 173.79879760742188 C 112.33296203613281 159.58203125 119.7911376953125 151.98538208007812 126.68254089355469 146.87298583984375 C 133.2685089111328 140.6612548828125 138.03770446777344 137.25784301757812 140.52391052246094 134.79708862304688 C 142.42324829101562 132.00721740722656 160.100830078125 101.59588623046875 169.0574493408203 106.92123413085938 C 174.05596923828125 106.53163146972656 176.06590270996094 107.2088623046875 178.3603057861328 108.33062744140625 C 179.61317443847656 109.14930725097656 179.70748901367188 108.88978576660156 181.04824829101562 110.14786529541016 C 179.4021759033203 118.53482055664062 188.79212951660156 117.66558837890625 187.48399353027344 130.38760375976562 C 191.7131805419922 128.91616821289062 201.65493774414062 136.26966857910156 213.46780395507812 136.880615234375 C 211.6077117919922 151.54043579101562 211.4510040283203 152.23678588867188 209.42237854003906 129.75576782226562 C 211.2171630859375 144.3843231201172 199.91891479492188 174.7467803955078 190.78553771972656 212.92274475097656 C 135.9510040283203 205.9578399658203 140.94805908203125 200.63381958007812 138.30465698242188 203.89544677734375 C 128.0994873046875 253.61065673828125 125.69709014892578 257.210693359375 152.03309631347656 297.6563720703125 C 176.1370849609375 290.96240234375 173.7281494140625 250.65786743164062 180.67575073242188 238.6004638671875 C 185.29434204101562 225.30564880371094 188.77566528320312 213.08079528808594 190.0374298095703 207.45382690429688 C 191.67015075683594 197.42637634277344 201.15802001953125 180.07119750976562 201.396484375 179.91427612304688 C 204.5067138671875 169.53623962402344 214.1297607421875 142.46746826171875 213.07138061523438 140.42323303222656 C 202.71612548828125 131.12403869628906 197.8608856201172 136.4489288330078 243.96395874023438 162.97340393066406 C 266.7569885253906 146.02206420898438 256.488037109375 112.08338165283203 256.0611267089844 100.09597778320312 C 260.9280090332031 96.63880920410156 257.3988037109375 95.41017150878906 265.48095703125 95.61348724365234 C 260.2931823730469 93.22708129882812 276.207275390625 107.66988372802734 261.31890869140625 96.45458984375 C 268.8807678222656 96.37895965576172 275.7071228027344 97.73960876464844 280.38604736328125 101.31288146972656 C 319.996337890625 89.31863403320312 325.7524719238281 122.90690612792969 302.9169006347656 119.14556884765625 C 282.7541198730469 124.64678955078125 278.80126953125 132.8162384033203 274.1614685058594 147.30813598632812 C 269.3245849609375 192.58657836914062 232.44647216796875 183.98025512695312 232.93783569335938 185.54055786132812 C 234.58193969726562 201.33416748046875 234.4197235107422 208.7452850341797 236.53567504882812 216.4742431640625 C 237.2457733154297 225.2939453125 238.75462341308594 230.4936981201172 240.86607360839844 234.9984130859375 C 248.79417419433594 242.9606475830078 247.87107849121094 258.2023010253906 252.8231658935547 273.2787170410156 C 251.0195770263672 272.85382080078125 258.5794677734375 281.26861572265625 273.91363525390625 290.53021240234375 C 255.05357360839844 298.62738037109375 245.8268585205078 295.8688659667969 245.29736328125 295.6025390625 C 232.56210327148438 290.38336181640625 227.313720703125 290.3089599609375 219.4989471435547 287.29522705078125 C 198.39796447753906 288.7701416015625 218.44728088378906 289.4862060546875 220.91819763183594 288.7077941894531 C 224.47503662109375 289.6814270019531 230.2034912109375 291.61016845703125 246.38870239257812 289.89202880859375 C 257.393798828125 279.7142639160156 234.75747680664062 256.5949401855469 229.86500549316406 248.78379821777344 C 229.62124633789062 237.82693481445312 229.26504516601562 240.9630126953125 228.07916259765625 236.99325561523438 C 225.8458709716797 231.33267211914062 221.38803100585938 223.40391540527344 213.53887939453125 212.53440856933594 C 214.0009765625 205.41319274902344 225.20326232910156 182.72476196289062 231.38230895996094 150.8584747314453 C 232.4787139892578 147.5319366455078 235.11009216308594 153.4820556640625 231.7461395263672 148.38092041015625 C 231.12318420410156 144.23065185546875 225.2723846435547 165.42855834960938 226.0552520751953 166.0933074951172 C 230.436279296875 160.02362060546875 237.52011108398438 118.48806762695312 238.00860595703125 132.68431091308594 C 225.13414001464844 165.13137817382812 224.93153381347656 181.50222778320312 211.76766967773438 209.84921264648438 C 204.06394958496094 202.03309631347656 203.61651611328125 205.20626831054688 206.0552978515625 214.7999267578125 C 194.38058471679688 226.9649200439453 191.10037231445312 239.783447265625 194.24505615234375 248.7954864501953 C 164.24400329589844 276.5453186035156 175.11297607421875 287.421142578125 189.2490234375 292.2012939453125 C 190.68087768554688 299.7537841796875 182.39804077148438 271.573486328125 189.65139770507812 295.5793762207031" stroke-width="0.0" fill="rgb(0, 0, 0)" opacity="1.0" stroke="rgb(0, 0, 0)" stroke-opacity="1" stroke-linecap="round" stroke-linejoin="round"/>
  </g>
</svg>
