<?xml version="1.0" ?>
<svg xmlns="http://www.w3.org/2000/svg" version="1.1" width="320" height="320">
  <defs/>
  <g>
    <path d="M 178.47637939453125 273.4842529296875 C 168.13514709472656 279.4610595703125 164.37493896484375 276.5599365234375 162.986572265625 270.5439453125 C 164.61846923828125 277.31805419921875 171.2819366455078 275.591552734375 164.5589141845703 276.152099609375 C 156.59649658203125 275.38580322265625 143.7816925048828 277.74395751953125 139.66270446777344 274.9729309082031 C 133.31622314453125 272.92877197265625 132.57757568359375 274.8546142578125 131.2465362548828 277.7409973144531 C 133.63694763183594 273.6147766113281 137.613525390625 273.9444885253906 140.66946411132812 272.6322326660156 C 144.82229614257812 272.98291015625 144.4455108642578 271.3941650390625 146.4033203125 269.0127258300781 C 150.14796447753906 268.055908203125 151.030517578125 266.02392578125 152.53469848632812 264.8074951171875 C 153.8631134033203 262.8393249511719 156.538330078125 260.1677551269531 145.2270965576172 270.9832458496094 C 147.27796936035156 260.2799987792969 111.88575744628906 244.8343963623047 120.43425750732422 233.87344360351562 C 126.93169403076172 192.38221740722656 126.71134185791016 191.19369506835938 121.98677825927734 128.21714782714844 C 116.87779235839844 136.60647583007812 116.7413330078125 158.4944610595703 133.14466857910156 140.18128967285156 C 145.65127563476562 128.56039428710938 145.2555694580078 125.53497314453125 144.995361328125 129.18771362304688 C 141.22787475585938 131.2891387939453 141.8030242919922 130.63690185546875 129.6779022216797 144.82266235351562 C 116.13356018066406 149.0040740966797 123.67328643798828 151.4875030517578 123.83808898925781 212.59078979492188 C 97.76800537109375 139.76177978515625 105.4845962524414 167.37876892089844 100.75393676757812 201.18466186523438 C 86.34122467041016 199.31796264648438 86.40264892578125 205.87538146972656 73.3190689086914 233.99879455566406 C 69.94082641601562 250.5831756591797 70.68135070800781 255.78903198242188 70.79081726074219 254.5269775390625 C 71.89701080322266 260.9040832519531 74.55553436279297 267.05224609375 75.89273834228516 270.6206359863281 C 72.5118637084961 272.1389465332031 69.63574981689453 272.2920227050781 66.74484252929688 272.3984069824219 C 65.93299102783203 272.19354248046875 64.55015563964844 272.3621826171875 63.57990264892578 272.6905212402344 C 62.78822326660156 269.4139099121094 64.29655456542969 261.52764892578125 64.58624267578125 259.5826721191406 C 64.85968017578125 256.7486267089844 64.78636932373047 253.61143493652344 64.70623779296875 255.65528869628906 C 64.74317169189453 252.44839477539062 64.95146942138672 249.71868896484375 60.01621627807617 225.9036407470703 C 76.73439025878906 201.1822509765625 77.02620697021484 200.0673828125 74.51237487792969 186.69296264648438 C 80.0641098022461 177.1364288330078 82.90645599365234 166.65223693847656 87.54197692871094 153.6975860595703 C 104.04124450683594 140.6102752685547 119.10066223144531 127.28076934814453 121.55204772949219 125.95909118652344 C 127.03421783447266 120.66676330566406 130.17396545410156 118.37907409667969 133.5377960205078 115.84593200683594 C 135.4669647216797 113.1051025390625 155.51060485839844 81.57854461669922 166.38815307617188 88.58676147460938 C 169.02989196777344 89.83562469482422 171.3596649169922 91.49371337890625 174.2748260498047 93.62366485595703 C 173.94989013671875 93.20169830322266 178.16390991210938 93.14088439941406 179.61691284179688 94.92544555664062 C 176.92495727539062 102.61419677734375 185.4698944091797 102.1891098022461 184.48284912109375 111.589599609375 C 182.7595672607422 115.2264404296875 206.26602172851562 119.71318817138672 208.24942016601562 121.2756576538086 C 206.6084442138672 134.52056884765625 205.729736328125 137.06109619140625 200.90652465820312 152.0964813232422 C 207.92996215820312 125.36963653564453 197.04705810546875 159.8076171875 192.22555541992188 195.647705078125 C 134.5496826171875 184.6467742919922 140.41244506835938 187.7012939453125 140.51223754882812 194.08746337890625 C 132.87608337402344 236.73101806640625 130.89059448242188 240.59046936035156 151.74896240234375 270.6111145019531 C 170.025146484375 275.90496826171875 181.75221252441406 243.0238494873047 181.82537841796875 231.97386169433594 C 186.84112548828125 219.80239868164062 189.3602752685547 208.03375244140625 191.8435516357422 200.6169891357422 C 193.7533416748047 191.87686157226562 199.43154907226562 171.06503295898438 200.44435119628906 170.20384216308594 C 201.46377563476562 159.3302459716797 209.6760711669922 130.21395874023438 207.55691528320312 126.82579803466797 C 199.39334106445312 114.58731079101562 193.9485626220703 121.526123046875 241.0204620361328 144.39614868164062 C 251.4584503173828 130.941162109375 241.604248046875 96.70738220214844 240.91690063476562 83.86491394042969 C 245.41482543945312 80.81489562988281 242.0049591064453 79.34052276611328 248.68162536621094 79.33740234375 C 250.97618103027344 80.03848266601562 260.7693786621094 88.50794982910156 246.03656005859375 79.7692642211914 C 257.3205261230469 80.38932800292969 266.2254638671875 83.78968048095703 263.9013977050781 86.23046112060547 C 301.7777099609375 75.0885009765625 306.7747802734375 106.29864501953125 285.30389404296875 102.96000671386719 C 266.34783935546875 107.2108154296875 263.6351013183594 114.66895294189453 265.1430969238281 135.06283569335938 C 264.67205810546875 177.5205078125 227.63638305664062 166.7577362060547 227.9674835205078 167.4827423095703 C 228.368896484375 191.5877685546875 223.1949920654297 201.02239990234375 215.94723510742188 207.81231689453125 C 213.96482849121094 214.70726013183594 215.12501525878906 222.1248016357422 218.1212921142578 232.53004455566406 C 215.68869018554688 241.43067932128906 212.82559204101562 259.808349609375 216.3689422607422 267.92034912109375 C 218.20785522460938 270.22137451171875 220.81703186035156 271.92791748046875 230.31263732910156 271.5858459472656 C 222.36317443847656 277.70556640625 218.71434020996094 278.52734375 218.09619140625 278.5854797363281 C 212.96112060546875 279.04473876953125 206.26856994628906 281.495849609375 195.68365478515625 278.907470703125 C 183.70846557617188 276.8961181640625 193.35781860351562 275.47412109375 200.3677978515625 272.69488525390625 C 202.46060180664062 271.25506591796875 203.3641357421875 271.37841796875 209.94363403320312 267.66925048828125 C 213.98162841796875 270.61883544921875 207.9375762939453 261.1323547363281 206.51759338378906 250.45208740234375 C 197.63327026367188 237.0962677001953 201.96365356445312 231.1490936279297 202.84072875976562 227.5679931640625 C 201.91883850097656 217.0159454345703 203.36947631835938 205.0272979736328 211.00686645507812 194.99270629882812 C 211.07879638671875 194.26708984375 224.4581756591797 166.3357696533203 228.20022583007812 141.14007568359375 C 229.5480194091797 136.24978637695312 234.52862548828125 143.65652465820312 228.93991088867188 136.57156372070312 C 228.2003173828125 133.1146240234375 225.8666229248047 152.81204223632812 224.51425170898438 150.61026000976562 C 228.755126953125 145.89471435546875 236.87112426757812 105.86097717285156 235.4816131591797 117.79846954345703 C 221.23350524902344 152.1456756591797 226.0288848876953 167.30413818359375 227.65711975097656 206.98248291015625 C 206.49415588378906 192.94625854492188 205.45138549804688 199.5758056640625 204.10984802246094 210.15737915039062 C 194.94793701171875 221.07553100585938 197.30239868164062 229.5493927001953 201.85740661621094 238.1807861328125 C 166.0127410888672 262.19171142578125 167.60325622558594 272.6882019042969 169.1296844482422 274.029541015625 C 171.12010192871094 284.5293884277344 164.05958557128906 258.87322998046875 178.47637939453125 273.4842529296875" stroke-width="0.0" fill="rgb(0, 0, 0)" opacity="1.0" stroke="rgb(0, 0, 0)" stroke-opacity="1" stroke-linecap="round" stroke-linejoin="round"/>
  </g>
</svg>
