<?xml version="1.0" ?>
<svg xmlns="http://www.w3.org/2000/svg" version="1.1" width="320" height="320">
  <defs/>
  <g>
    <path d="M 184.1072998046875 276.70611572265625 C 176.6778564453125 282.5538330078125 173.34735107421875 281.28863525390625 170.87066650390625 276.28350830078125 C 173.14791870117188 281.7474670410156 178.94229125976562 280.4634704589844 173.28213500976562 281.27435302734375 C 166.5530242919922 280.8233337402344 157.081787109375 281.3543395996094 152.0837860107422 278.0784912109375 C 147.19378662109375 277.3838806152344 145.49813842773438 281.43731689453125 144.53335571289062 283.09344482421875 C 144.6175537109375 280.33770751953125 153.04298400878906 277.82025146484375 157.02133178710938 273.27392578125 C 154.95101928710938 269.2917785644531 154.98269653320312 266.09075927734375 154.3675537109375 265.5623779296875 C 157.05592346191406 263.4344482421875 156.6140899658203 262.2601623535156 157.73916625976562 260.57879638671875 C 158.26812744140625 260.21258544921875 160.60671997070312 257.7571716308594 152.91905212402344 267.4905090332031 C 157.4346466064453 255.73724365234375 117.00263977050781 246.22108459472656 131.11343383789062 234.06707763671875 C 143.3413848876953 199.24972534179688 142.6251983642578 196.8645477294922 136.9539794921875 131.40602111816406 C 132.77267456054688 138.34487915039062 131.59710693359375 160.62466430664062 146.25144958496094 144.30328369140625 C 159.82447814941406 132.9056396484375 159.81625366210938 127.27259826660156 158.8500213623047 132.0565948486328 C 155.54736328125 133.39328002929688 152.84046936035156 138.5532684326172 142.87692260742188 148.21377563476562 C 134.43089294433594 150.64862060546875 130.95289611816406 151.76266479492188 141.35781860351562 210.92578125 C 107.20187377929688 150.8360595703125 123.2462158203125 175.20196533203125 121.06989288330078 204.47012329101562 C 104.20050048828125 204.06532287597656 104.81366729736328 210.09698486328125 92.8292465209961 240.19581604003906 C 88.17219543457031 255.92974853515625 87.74600219726562 260.89697265625 87.90402221679688 260.0909423828125 C 87.46279907226562 265.9385681152344 87.7402572631836 269.0051574707031 88.31983184814453 272.636474609375 C 84.26805114746094 273.77880859375 80.42274475097656 272.4880065917969 79.70832824707031 272.4837646484375 C 78.92410278320312 272.9918212890625 78.35318756103516 274.09295654296875 78.55221557617188 275.7592468261719 C 78.56062316894531 271.25885009765625 81.96022033691406 265.1374206542969 82.27130889892578 263.9310302734375 C 82.74041748046875 261.6820373535156 82.66854858398438 258.4601745605469 82.25703430175781 259.6766357421875 C 83.1967544555664 256.5077819824219 83.47100830078125 254.7362823486328 78.7376937866211 230.5018768310547 C 95.75992584228516 206.2934112548828 96.184814453125 204.9987335205078 93.72126007080078 194.69216918945312 C 97.78921508789062 186.36915588378906 98.94139099121094 178.22479248046875 102.32084655761719 158.40650939941406 C 118.39311218261719 144.70932006835938 130.1223602294922 136.0592803955078 135.3025665283203 132.11871337890625 C 140.904052734375 126.91055297851562 145.6304473876953 122.40730285644531 148.69598388671875 119.96219635009766 C 150.62808227539062 117.23970031738281 171.4525146484375 86.60478973388672 180.2986297607422 92.23835754394531 C 183.84228515625 92.71687316894531 185.7096405029297 93.79959106445312 188.0406494140625 95.46170043945312 C 188.94705200195312 96.11647033691406 193.2637939453125 96.12378692626953 195.0296630859375 98.41390991210938 C 191.64804077148438 106.04054260253906 202.3948516845703 105.7090072631836 200.35813903808594 115.44847869873047 C 198.40658569335938 119.28532409667969 220.7786407470703 123.67356872558594 222.25340270996094 124.96461486816406 C 220.68173217773438 138.33355712890625 219.5257110595703 140.91392517089844 213.95274353027344 157.52963256835938 C 223.52914428710938 132.16737365722656 210.5900115966797 165.67848205566406 199.76406860351562 199.41448974609375 C 151.34609985351562 188.10073852539062 157.07139587402344 190.96131896972656 158.2962646484375 201.53440856933594 C 143.59356689453125 238.93031311035156 142.5331268310547 240.89093017578125 160.60696411132812 264.41217041015625 C 180.44358825683594 279.3091125488281 203.8123321533203 249.28390502929688 202.32540893554688 239.5791015625 C 207.36422729492188 221.9484100341797 207.19558715820312 211.27574157714844 205.87200927734375 205.69386291503906 C 199.51394653320312 197.28903198242188 208.0362548828125 178.19593811035156 209.9007568359375 177.21949768066406 C 213.8026123046875 164.87091064453125 224.2273712158203 136.29966735839844 222.2060546875 132.86483764648438 C 212.55703735351562 121.09034729003906 207.95655822753906 123.95694732666016 256.33197021484375 150.8177490234375 C 270.82635498046875 135.86947631835938 258.7757873535156 102.41828918457031 257.6462097167969 89.51151275634766 C 263.4722595214844 86.46648406982422 259.4424133300781 84.91151428222656 266.03631591796875 84.70611572265625 C 262.33856201171875 83.47793579101562 276.28643798828125 93.8814697265625 260.909423828125 85.77167510986328 C 268.4638366699219 85.38264465332031 276.8423156738281 86.46406555175781 281.8525390625 90.17174530029297 C 315.6861572265625 78.90838623046875 319.7226257324219 108.97297668457031 298.8714904785156 107.4344482421875 C 284.8837585449219 114.72288513183594 282.8584899902344 119.89781188964844 282.8511657714844 141.01441955566406 C 279.74688720703125 183.4219512939453 240.66793823242188 170.43873596191406 240.8579559326172 171.05760192871094 C 234.2364959716797 199.41506958007812 231.5517578125 205.1982421875 227.6983642578125 211.35951232910156 C 225.3755645751953 215.50909423828125 225.21209716796875 219.0242919921875 226.0503387451172 222.33810424804688 C 227.5477752685547 226.86111450195312 226.6297607421875 257.3554992675781 230.08096313476562 266.8133850097656 C 231.55709838867188 271.9669189453125 234.5577392578125 276.2664794921875 244.62831115722656 279.0440368652344 C 235.0738525390625 284.8909606933594 228.87232971191406 284.3708190917969 227.9631805419922 284.3156433105469 C 220.6345672607422 283.1833190917969 214.7239532470703 284.2648620605469 202.56332397460938 281.6051330566406 C 188.76312255859375 278.8638916015625 207.53179931640625 277.9560241699219 214.24122619628906 276.1726989746094 C 217.73483276367188 277.5596618652344 221.4111328125 278.64288330078125 226.19009399414062 274.1302795410156 C 230.44924926757812 275.9322814941406 224.34072875976562 261.9286193847656 222.72891235351562 243.65518188476562 C 217.50538635253906 224.7943115234375 217.36001586914062 226.00656127929688 216.59100341796875 222.85609436035156 C 216.15008544921875 216.41993713378906 217.00294494628906 208.13671875 223.11968994140625 201.42388916015625 C 223.2307586669922 200.2312469482422 236.68653869628906 169.49472045898438 242.73007202148438 145.2634735107422 C 244.08297729492188 140.8738250732422 248.15916442871094 149.9783172607422 242.88853454589844 144.10317993164062 C 241.83299255371094 137.50518798828125 238.60362243652344 155.6258544921875 240.5418243408203 157.31497192382812 C 237.12669372558594 160.5067138671875 252.287109375 112.97019958496094 248.34262084960938 123.34579467773438 C 234.93930053710938 158.21603393554688 237.13462829589844 177.0852508544922 229.99073791503906 215.29611206054688 C 209.8611297607422 196.2341766357422 210.58755493164062 199.8150634765625 219.6181640625 206.89549255371094 C 214.22462463378906 221.1134490966797 219.8613739013672 237.30458068847656 224.76805114746094 248.74502563476562 C 178.52919006347656 261.4949035644531 176.59976196289062 273.3211669921875 177.70767211914062 276.3222961425781 C 179.63284301757812 283.8614807128906 172.86328125 265.5440979003906 184.1072998046875 276.70611572265625" stroke-width="0.0" fill="rgb(0, 0, 0)" opacity="1.0" stroke="rgb(0, 0, 0)" stroke-opacity="1" stroke-linecap="round" stroke-linejoin="round"/>
  </g>
</svg>
