<?xml version="1.0" ?>
<svg xmlns="http://www.w3.org/2000/svg" version="1.1" width="320" height="320">
  <defs/>
  <g>
    <path d="M 173.748291015625 234.32167053222656 C 171.03929138183594 230.4901885986328 169.21115112304688 221.5177459716797 169.6903839111328 212.1663055419922 C 168.3256072998047 203.2657470703125 169.17942810058594 195.04261779785156 163.89573669433594 159.23487854003906 C 165.73023986816406 156.13482666015625 157.6629638671875 157.9506378173828 151.45614624023438 163.25291442871094 C 134.76919555664062 165.34793090820312 153.4498748779297 166.58145141601562 132.61672973632812 154.25694274902344 C 116.39668273925781 189.88870239257812 104.85832977294922 211.48516845703125 97.4051513671875 237.42945861816406 C 95.31867218017578 239.752685546875 105.52149963378906 254.80943298339844 117.04824829101562 273.26824951171875 C 101.69286346435547 278.4373474121094 81.44771575927734 263.98638916015625 79.07783508300781 259.9652404785156 C 78.66008758544922 259.6777038574219 80.77886962890625 250.65020751953125 76.61786651611328 249.00035095214844 C 76.21753692626953 247.04110717773438 76.5684814453125 243.14169311523438 76.30912780761719 246.9568634033203 C 77.57352447509766 241.58364868164062 77.38310241699219 235.128662109375 79.8016357421875 218.01296997070312 C 77.51443481445312 222.8501739501953 82.05905151367188 211.55670166015625 86.60452270507812 199.8027801513672 C 89.56878662109375 191.4701690673828 90.52598571777344 186.64349365234375 93.14422607421875 168.29019165039062 C 94.75594329833984 163.88558959960938 89.35124206542969 155.6195831298828 82.81857299804688 153.2669219970703 C 82.64009094238281 155.90078735351562 81.63802337646484 153.87684631347656 79.88519287109375 158.45555114746094 C 82.16372680664062 152.77044677734375 88.86579895019531 151.55511474609375 82.61902618408203 154.31295776367188 C 82.40982055664062 153.12063598632812 86.98379516601562 145.73704528808594 89.80004119873047 139.8018341064453 C 96.49278259277344 127.17436218261719 96.48906707763672 128.89463806152344 96.50360870361328 123.17276763916016 C 96.05475616455078 116.55308532714844 95.05513000488281 107.30171203613281 95.357666015625 93.8659896850586 C 96.13956451416016 76.27564239501953 99.40211486816406 68.93396759033203 125.56698608398438 55.15007400512695 C 142.12098693847656 96.11752319335938 142.90118408203125 94.7679214477539 121.1745834350586 40.893638610839844 C 125.63896179199219 4.762904167175293 152.92201232910156 29.992584228515625 151.85487365722656 28.960968017578125 C 153.48074340820312 28.191926956176758 148.25318908691406 31.644554138183594 153.89356994628906 50.906253814697266 C 145.06849670410156 56.18055725097656 158.57728576660156 63.17348098754883 143.752685546875 63.6904182434082 C 136.8892059326172 68.62901306152344 134.70382690429688 72.36087799072266 143.44076538085938 102.47713470458984 C 149.83734130859375 78.4521713256836 144.5972900390625 103.12841033935547 142.70388793945312 116.98860168457031 C 140.1396026611328 131.54379272460938 139.61773681640625 133.10301208496094 137.3505401611328 142.10240173339844 C 153.38909912109375 143.8159637451172 149.49609375 145.1114044189453 151.41749572753906 143.6636199951172 C 152.4358367919922 141.07997131347656 154.9605712890625 140.79275512695312 168.98858642578125 140.06973266601562 C 169.45785522460938 139.26222229003906 169.8694305419922 120.53861236572266 177.09959411621094 106.20574188232422 C 184.31703186035156 93.95697021484375 190.54701232910156 86.16014862060547 195.57421875 79.6405029296875 C 196.40879821777344 77.92195129394531 204.79135131835938 66.9052963256836 186.4149932861328 67.31155395507812 C 187.2347412109375 64.94356536865234 191.42474365234375 45.920780181884766 199.4340362548828 27.334365844726562 C 225.1557159423828 18.433792114257812 227.81585693359375 42.43152618408203 228.34719848632812 42.238929748535156 C 228.68679809570312 42.099334716796875 230.62554931640625 42.71310806274414 218.6630096435547 59.85595703125 C 216.92433166503906 63.99464797973633 206.13644409179688 76.34172058105469 215.7294921875 64.98039245605469 C 222.83351135253906 74.28680419921875 229.87771606445312 87.63182067871094 234.6578369140625 102.39725494384766 C 219.43971252441406 102.42334747314453 235.81692504882812 102.02014923095703 235.21888732910156 103.04267120361328 C 226.16017150878906 111.98942565917969 241.45321655273438 93.3480224609375 232.16702270507812 110.440185546875 C 224.76832580566406 124.03871154785156 220.10655212402344 137.8686981201172 218.83570861816406 139.3360595703125 C 218.78585815429688 139.6709442138672 218.3052215576172 140.22557067871094 214.21426391601562 150.33676147460938 C 218.9972686767578 153.08920288085938 215.26063537597656 161.71676635742188 219.13479614257812 177.23886108398438 C 219.1602325439453 181.52261352539062 218.25839233398438 183.93333435058594 217.07762145996094 183.5869903564453 C 216.68795776367188 184.05982971191406 211.33154296875 187.40028381347656 207.1531982421875 186.7615966796875 C 203.90687561035156 184.55783081054688 205.11053466796875 189.3339385986328 203.03492736816406 188.04083251953125 C 205.93328857421875 176.41966247558594 201.9504852294922 190.74232482910156 200.80992126464844 204.75518798828125 C 200.84068298339844 200.69920349121094 200.62156677246094 210.02528381347656 200.2401123046875 216.46322631835938 C 200.4291229248047 221.5924530029297 202.20578002929688 227.6802215576172 202.85498046875 236.07948303222656 C 201.9808349609375 238.22573852539062 203.28196716308594 247.94479370117188 196.50363159179688 262.4663391113281 C 196.18881225585938 266.10498046875 190.59619140625 266.05694580078125 189.93002319335938 277.355224609375 C 189.4655303955078 279.25048828125 187.78562927246094 284.306884765625 188.16310119628906 282.7840270996094 C 179.65386962890625 280.72271728515625 184.28224182128906 283.8956604003906 177.35829162597656 279.9720764160156 C 180.36083984375 288.8261413574219 153.54425048828125 291.3359375 147.10006713867188 276.6382141113281 C 176.78421020507812 274.0460205078125 178.67282104492188 253.97906494140625 178.27053833007812 253.38963317871094 C 175.1142120361328 248.8025360107422 179.19757080078125 269.7135009765625 167.87548828125 264.4696044921875 C 167.2676239013672 264.6127624511719 154.75100708007812 264.640380859375 148.67141723632812 259.2521667480469 C 146.71278381347656 259.8016052246094 143.47792053222656 247.59083557128906 146.90664672851562 258.87353515625 C 145.42837524414062 253.40921020507812 144.77517700195312 250.5145263671875 160.5248565673828 253.5047149658203 C 175.0536651611328 232.38185119628906 174.4031524658203 237.09738159179688 173.748291015625 234.32167053222656" stroke-width="0.0" fill="rgb(0, 0, 0)" opacity="1.0" stroke="rgb(0, 0, 0)" stroke-opacity="1" stroke-linecap="round" stroke-linejoin="round"/>
  </g>
</svg>
