<?xml version="1.0" ?>
<svg xmlns="http://www.w3.org/2000/svg" version="1.1" width="320" height="320">
  <defs/>
  <g>
    <path d="M 172.08306884765625 232.3681182861328 C 169.53355407714844 227.6908416748047 168.1770477294922 220.6307830810547 169.16941833496094 210.2469482421875 C 168.83917236328125 197.4010009765625 171.4427490234375 186.07012939453125 168.9181671142578 158.39410400390625 C 166.5140380859375 158.82640075683594 160.40628051757812 159.4683380126953 154.1752166748047 163.7227325439453 C 138.62078857421875 167.32142639160156 154.682373046875 165.58419799804688 134.26065063476562 153.7671356201172 C 117.08505249023438 188.1200408935547 107.21503448486328 209.45303344726562 98.48152160644531 234.78346252441406 C 94.94761657714844 237.50958251953125 103.47944641113281 250.87881469726562 114.29569244384766 270.0324401855469 C 97.44990539550781 273.65777587890625 82.18838500976562 261.066162109375 79.70885467529297 256.66644287109375 C 79.18463134765625 256.4258117675781 81.32386779785156 247.642578125 77.14214324951172 246.34188842773438 C 76.65178680419922 244.34750366210938 76.74629211425781 239.9276123046875 76.25674438476562 243.8289794921875 C 78.4040756225586 236.7570343017578 79.10881805419922 230.74224853515625 82.6845932006836 214.100341796875 C 79.93116760253906 219.0657501220703 84.99425506591797 209.6434783935547 88.87745666503906 198.80096435546875 C 92.26324462890625 190.7244110107422 93.37500762939453 184.09371948242188 96.94097137451172 164.06683349609375 C 97.67227935791016 162.63552856445312 94.2953109741211 153.9437713623047 88.3718032836914 150.2554473876953 C 86.85292053222656 153.27684020996094 86.15116119384766 151.24017333984375 83.60142517089844 155.7184295654297 C 86.0585708618164 150.80227661132812 92.97834014892578 149.52159118652344 88.09699249267578 151.63729858398438 C 87.9738540649414 150.8638916015625 92.11399841308594 144.1700897216797 94.41600036621094 139.47439575195312 C 100.96992492675781 126.78990173339844 100.81332397460938 130.10218811035156 101.66961669921875 124.66034698486328 C 101.75328826904297 117.63883972167969 101.6505355834961 109.49994659423828 102.47657012939453 97.9600601196289 C 101.57815551757812 78.63603210449219 103.35477447509766 70.96839904785156 129.16250610351562 55.699031829833984 C 146.27198791503906 91.12557983398438 146.4263916015625 90.15530395507812 128.4879913330078 43.31449508666992 C 130.83319091796875 14.757854461669922 157.303466796875 33.399444580078125 157.24490356445312 33.22856140136719 C 158.42584228515625 32.769622802734375 152.87002563476562 36.369972229003906 158.23695373535156 53.668270111083984 C 150.25399780273438 58.64508056640625 162.06126403808594 64.73468780517578 147.93743896484375 65.29866790771484 C 140.34764099121094 71.64710235595703 138.50836181640625 75.69475555419922 148.91717529296875 102.85639953613281 C 153.5387725830078 84.98822021484375 146.98667907714844 110.07061767578125 144.72914123535156 121.52204895019531 C 141.9981231689453 133.6150360107422 141.42666625976562 135.3765106201172 139.96127319335938 142.6302490234375 C 151.5432586669922 143.39968872070312 154.8760528564453 144.51095581054688 157.05517578125 143.7798614501953 C 158.38174438476562 141.83438110351562 162.1243438720703 141.24932861328125 173.98565673828125 140.14930725097656 C 175.30320739746094 137.0714569091797 175.90817260742188 120.9152603149414 181.0483856201172 107.19775390625 C 186.0252227783203 95.78215026855469 191.95457458496094 88.33106994628906 197.87811279296875 80.80819702148438 C 199.8541259765625 77.96235656738281 207.85997009277344 68.34381866455078 190.8332061767578 70.75055694580078 C 191.18276977539062 70.06922912597656 195.11236572265625 49.53361892700195 203.29934692382812 32.006465911865234 C 225.1107635498047 26.925127029418945 229.63986206054688 47.313201904296875 230.1096954345703 47.30720520019531 C 230.45700073242188 46.84975814819336 230.72787475585938 45.70030212402344 220.2207794189453 61.317413330078125 C 219.0889129638672 65.24099731445312 210.47630310058594 76.86787414550781 218.0936737060547 67.04550170898438 C 226.47889709472656 77.30443572998047 231.61795043945312 86.8652114868164 236.28038024902344 97.51114654541016 C 223.3513946533203 97.85951232910156 235.751220703125 97.38163757324219 236.64901733398438 97.64566040039062 C 228.88006591796875 107.13035583496094 240.6019744873047 91.42900848388672 231.91224670410156 108.33393859863281 C 225.78097534179688 119.67964172363281 221.9551239013672 132.09695434570312 220.56942749023438 134.30691528320312 C 219.79029846191406 136.6204376220703 218.66488647460938 138.2025604248047 216.83197021484375 144.09451293945312 C 222.74093627929688 148.48191833496094 218.4510498046875 156.12789916992188 220.76260375976562 169.6019744873047 C 220.91357421875 173.9911346435547 220.0192413330078 175.92059326171875 219.06211853027344 175.35406494140625 C 218.5546417236328 175.73411560058594 212.28903198242188 178.26698303222656 211.3721923828125 178.5951690673828 C 208.18251037597656 177.28665161132812 208.59686279296875 180.50140380859375 206.332763671875 179.3604278564453 C 208.4703826904297 168.7047882080078 205.47633361816406 184.4199981689453 202.60655212402344 198.71612548828125 C 202.4627685546875 202.36949157714844 201.89950561523438 209.58746337890625 201.72567749023438 213.9847869873047 C 202.66575622558594 221.029296875 203.30381774902344 226.65951538085938 202.8373565673828 237.90924072265625 C 202.1987762451172 239.27928161621094 201.75027465820312 248.47824096679688 196.27725219726562 261.345458984375 C 196.1829376220703 264.77264404296875 190.6710968017578 263.98199462890625 190.1660614013672 276.3774719238281 C 189.27247619628906 275.587890625 189.1810760498047 280.5585632324219 189.19012451171875 279.2272033691406 C 180.40921020507812 279.6795654296875 182.4629669189453 281.0982666015625 177.51365661621094 276.92388916015625 C 180.0479278564453 286.28472900390625 153.750244140625 288.1766662597656 148.84228515625 275.2926330566406 C 176.43386840820312 272.78558349609375 177.9144744873047 252.64459228515625 177.23446655273438 251.7139892578125 C 174.18295288085938 246.58444213867188 178.40335083007812 268.787841796875 168.57899475097656 263.03485107421875 C 167.14183044433594 264.02496337890625 156.9826202392578 264.4537658691406 150.67868041992188 259.7545166015625 C 148.30633544921875 260.48699951171875 145.33657836914062 250.27890014648438 147.77008056640625 258.17437744140625 C 146.49191284179688 254.1464385986328 145.41180419921875 249.25650024414062 161.6168670654297 252.90887451171875 C 173.1014862060547 234.29348754882812 172.57443237304688 233.862548828125 172.08306884765625 232.3681182861328" stroke-width="0.0" fill="rgb(0, 0, 0)" opacity="1.0" stroke="rgb(0, 0, 0)" stroke-opacity="1" stroke-linecap="round" stroke-linejoin="round"/>
  </g>
</svg>
