<?xml version="1.0" ?>
<svg xmlns="http://www.w3.org/2000/svg" version="1.1" width="320" height="320">
  <defs/>
  <g>
    <path d="M 173.55398559570312 234.2147674560547 C 171.0782012939453 230.8106689453125 168.82626342773438 223.67567443847656 169.8907012939453 213.6195831298828 C 167.7855224609375 201.6497039794922 169.5143585205078 190.52415466308594 164.4127960205078 160.260498046875 C 162.17481994628906 161.02505493164062 157.40000915527344 162.0859375 150.82757568359375 169.0736846923828 C 133.09475708007812 170.84503173828125 151.4708709716797 172.11141967773438 130.77572631835938 157.0058135986328 C 113.71435546875 188.88473510742188 103.94197082519531 210.36561584472656 97.18722534179688 236.7117156982422 C 95.12816619873047 238.94595336914062 104.87458038330078 254.90084838867188 116.96116638183594 273.20489501953125 C 101.10428619384766 278.6099853515625 80.74449920654297 263.8593444824219 78.67205810546875 259.8482360839844 C 78.44157409667969 260.08001708984375 80.44770812988281 250.06005859375 76.28297424316406 248.77638244628906 C 75.98534393310547 246.74998474121094 76.29200744628906 243.09152221679688 76.06686401367188 246.06634521484375 C 77.69033813476562 240.2556915283203 77.74403381347656 234.64913940429688 79.17208099365234 217.5832061767578 C 77.15685272216797 221.9426727294922 81.78546142578125 211.22634887695312 86.01929473876953 199.58074951171875 C 88.79774475097656 191.15084838867188 89.73493194580078 185.54080200195312 92.6598892211914 167.75184631347656 C 95.13938903808594 162.9810028076172 90.15599822998047 153.4598846435547 82.87910461425781 150.96669006347656 C 82.54439544677734 153.25765991210938 81.8280258178711 151.246337890625 79.5613021850586 155.99830627441406 C 82.78126525878906 148.9923858642578 90.09646606445312 148.58189392089844 81.682373046875 151.19491577148438 C 81.56120300292969 148.98294067382812 85.85557556152344 143.43572998046875 89.42890167236328 137.31651306152344 C 96.70317077636719 124.62844848632812 96.56446838378906 126.60121154785156 97.55818176269531 122.41767120361328 C 97.98969268798828 116.60317993164062 97.54170227050781 109.23294067382812 98.48584747314453 97.80854797363281 C 98.4962158203125 78.2260971069336 101.22455596923828 69.2918930053711 130.34783935546875 56.355037689208984 C 146.4304962158203 97.693603515625 143.6086883544922 92.5965347290039 129.8559112548828 45.82532501220703 C 135.3943634033203 11.78161334991455 159.7947540283203 33.35699462890625 159.66656494140625 33.135772705078125 C 162.52154541015625 32.242061614990234 156.8048095703125 35.03087615966797 161.1968231201172 56.01646041870117 C 151.07492065429688 60.688499450683594 164.16635131835938 68.74230194091797 148.13919067382812 67.26555633544922 C 141.19395446777344 71.48992156982422 139.18820190429688 74.6187515258789 146.71209716796875 100.97213745117188 C 150.19448852539062 79.29704284667969 145.99838256835938 106.92002868652344 143.75245666503906 120.73454284667969 C 140.45169067382812 132.6816864013672 140.00375366210938 133.79408264160156 137.53176879882812 145.7747344970703 C 153.32333374023438 148.6303253173828 148.8471221923828 150.21617126464844 151.1639862060547 148.3365478515625 C 152.74530029296875 145.67807006835938 154.8279266357422 145.36227416992188 168.8428497314453 142.38978576660156 C 169.73318481445312 141.03463745117188 169.0025634765625 121.54444122314453 175.20233154296875 106.59867858886719 C 182.02389526367188 93.86345672607422 188.01150512695312 86.31546783447266 192.61782836914062 79.33920288085938 C 193.060302734375 78.56658172607422 201.66749572753906 66.88653564453125 183.4610595703125 68.86878967285156 C 183.8785858154297 66.63670349121094 186.71290588378906 48.05437469482422 193.02984619140625 30.70726776123047 C 217.54322814941406 20.905759811401367 220.69122314453125 43.53703689575195 221.09695434570312 43.452178955078125 C 221.76983642578125 39.649742126464844 223.28750610351562 40.03882598876953 214.21876525878906 57.831077575683594 C 213.23745727539062 61.725494384765625 203.41358947753906 75.52366638183594 211.6455078125 64.16853332519531 C 220.87496948242188 74.3350601196289 227.7977752685547 85.74201965332031 232.31341552734375 99.45037841796875 C 217.87757873535156 99.98223876953125 233.33633422851562 98.65396118164062 232.4014434814453 100.31034851074219 C 224.37332153320312 110.04129028320312 238.07562255859375 90.6741943359375 229.1927032470703 107.16722869873047 C 222.7185516357422 121.13008880615234 218.65953063964844 135.45729064941406 217.60501098632812 136.75254821777344 C 217.5021209716797 137.58499145507812 216.93829345703125 138.33140563964844 215.00404357910156 145.45321655273438 C 219.87657165527344 148.020751953125 216.4116973876953 157.2631378173828 221.62477111816406 175.87547302246094 C 220.53932189941406 178.34320068359375 219.09449768066406 180.27395629882812 217.73707580566406 179.3013153076172 C 217.03587341308594 179.8016357421875 208.31776428222656 182.89906311035156 204.8848876953125 181.8062286376953 C 204.37049865722656 184.5775604248047 204.2357177734375 184.4947967529297 203.77398681640625 187.6075897216797 C 206.76319885253906 172.30157470703125 203.96351623535156 187.0301055908203 201.79364013671875 201.2224884033203 C 201.61839294433594 204.51858520507812 200.64547729492188 212.50082397460938 200.90133666992188 215.56251525878906 C 201.9144287109375 221.14773559570312 203.2193603515625 227.40892028808594 203.3068389892578 235.98492431640625 C 202.41891479492188 237.75498962402344 203.09982299804688 248.67881774902344 196.13052368164062 262.4268798828125 C 196.1494903564453 266.0677185058594 190.1839141845703 265.7442626953125 189.67190551757812 278.8371887207031 C 188.92417907714844 278.1858215332031 188.5940704345703 283.14764404296875 188.54940795898438 281.3654479980469 C 180.14212036132812 281.9716796875 184.02264404296875 283.8080749511719 177.55227661132812 279.82427978515625 C 180.2929229736328 288.406494140625 153.6854705810547 291.22821044921875 146.97035217285156 276.5099792480469 C 176.0050811767578 274.3205871582031 178.4654083251953 253.75759887695312 177.9692840576172 253.0567626953125 C 174.7921905517578 248.2346954345703 178.8465118408203 270.00634765625 167.61781311035156 264.3055114746094 C 166.8922119140625 264.56170654296875 154.7771453857422 264.7549133300781 148.44479370117188 259.2453308105469 C 146.1972198486328 259.9985046386719 143.29791259765625 247.3968505859375 146.84857177734375 258.8275146484375 C 144.89239501953125 253.0771026611328 144.22129821777344 250.38082885742188 160.20718383789062 253.45301818847656 C 174.77516174316406 232.22166442871094 174.17601013183594 236.8075714111328 173.55398559570312 234.2147674560547" stroke-width="0.0" fill="rgb(0, 0, 0)" opacity="1.0" stroke="rgb(0, 0, 0)" stroke-opacity="1" stroke-linecap="round" stroke-linejoin="round"/>
  </g>
</svg>
