<?xml version="1.0" ?>
<svg xmlns="http://www.w3.org/2000/svg" version="1.1" width="320" height="320">
  <defs/>
  <g>
    <path d="M 177.83103942871094 236.79330444335938 C 175.05789184570312 230.38552856445312 176.23252868652344 218.1110076904297 179.214111328125 206.21238708496094 C 180.0802764892578 195.0159149169922 181.95834350585938 187.70252990722656 180.01187133789062 142.17225646972656 C 169.07931518554688 143.33209228515625 160.00946044921875 140.29107666015625 154.28717041015625 139.52259826660156 C 130.2759246826172 151.88026428222656 161.53599548339844 143.50222778320312 118.7015609741211 136.0057373046875 C 104.8675537109375 177.11109924316406 97.93402099609375 201.95883178710938 97.36690521240234 234.244384765625 C 93.73320007324219 240.03382873535156 104.7088394165039 254.27630615234375 116.29901885986328 272.72119140625 C 99.52450561523438 277.6682434082031 80.15217590332031 264.12908935546875 78.66148376464844 260.78692626953125 C 78.09110260009766 260.42572021484375 79.440673828125 249.88670349121094 72.90715789794922 248.6599578857422 C 71.5238037109375 244.49493408203125 70.44960021972656 239.16334533691406 70.0457534790039 248.9409942626953 C 71.58340454101562 243.6371307373047 70.80038452148438 236.27346801757812 68.62530517578125 214.98301696777344 C 67.09144592285156 221.90553283691406 70.71586608886719 205.70640563964844 73.85625457763672 190.90614318847656 C 75.82039642333984 183.82676696777344 75.86093139648438 179.4599151611328 73.43559265136719 160.7688751220703 C 71.3377456665039 161.85302734375 72.7867202758789 156.1059112548828 66.60986328125 154.38304138183594 C 67.32608795166016 152.52076721191406 64.65414428710938 154.19805908203125 65.16098022460938 151.1512451171875 C 61.66797637939453 153.14808654785156 68.59916687011719 150.2374725341797 65.65235137939453 151.87672424316406 C 64.57504272460938 144.72581481933594 71.39323425292969 128.96298217773438 72.39797973632812 121.6610107421875 C 74.3934097290039 115.30270385742188 74.32474517822266 109.75245666503906 74.23777770996094 105.78466796875 C 73.91092681884766 95.52392578125 73.92071533203125 84.31657409667969 77.77565002441406 76.83348083496094 C 83.90910339355469 65.08411407470703 87.5801773071289 60.216495513916016 100.94205474853516 50.744537353515625 C 120.30332946777344 93.24913787841797 121.38765716552734 92.42151641845703 94.15847778320312 41.145355224609375 C 92.78327941894531 -2.554933547973633 130.87632751464844 29.914226531982422 125.78840637207031 25.60765838623047 C 127.93067932128906 24.554841995239258 121.89396667480469 27.851913452148438 127.65880584716797 48.518898010253906 C 119.5514907836914 52.896575927734375 131.23129272460938 59.66516876220703 117.33258819580078 61.441802978515625 C 109.01403045654297 63.800872802734375 107.58042907714844 65.61003875732422 118.19375610351562 97.17809295654297 C 127.40988159179688 81.5481948852539 119.82764434814453 94.72090911865234 118.97330474853516 96.83746337890625 C 117.767578125 106.90043640136719 117.2164306640625 110.58004760742188 119.56209564208984 119.93248748779297 C 153.13540649414062 126.12088012695312 157.93898010253906 127.10674285888672 161.96697998046875 125.90251159667969 C 163.54306030273438 123.72654724121094 171.29428100585938 123.66781616210938 184.93374633789062 122.87329864501953 C 185.5760040283203 121.89559936523438 187.20977783203125 116.51529693603516 189.27032470703125 107.00394439697266 C 193.71383666992188 97.74542999267578 199.69882202148438 89.00055694580078 205.97808837890625 81.48789978027344 C 206.4568328857422 80.91657257080078 218.8223419189453 66.22196197509766 197.76283264160156 67.989501953125 C 198.54421997070312 66.0030746459961 200.31088256835938 48.37427520751953 208.87498474121094 28.941274642944336 C 233.17872619628906 20.118209838867188 237.3743896484375 40.51829528808594 237.86705017089844 40.47008514404297 C 238.2678680419922 40.364410400390625 241.5547332763672 40.853145599365234 229.0269775390625 60.22720718383789 C 228.0176239013672 64.25679779052734 221.21466064453125 74.30203247070312 227.97377014160156 64.24517059326172 C 234.15380859375 71.23252868652344 241.53509521484375 82.95977020263672 247.6992645263672 94.61004638671875 C 233.76483154296875 95.29170989990234 248.89285278320312 93.91880798339844 248.2447052001953 95.54132080078125 C 242.58038330078125 102.95533752441406 253.07974243164062 86.96366119384766 246.44989013671875 110.79745483398438 C 240.4816131591797 127.03733825683594 237.5226593017578 139.98721313476562 236.61843872070312 141.81077575683594 C 236.2584686279297 145.55426025390625 240.22723388671875 132.17408752441406 236.6324920654297 140.1733856201172 C 234.21075439453125 142.22291564941406 229.38674926757812 156.27781677246094 238.22483825683594 179.85232543945312 C 237.5565185546875 179.52627563476562 236.62982177734375 182.3955078125 235.29367065429688 181.8883514404297 C 234.81748962402344 182.4029541015625 228.25192260742188 186.64761352539062 223.50341796875 186.1336669921875 C 223.52261352539062 188.0845947265625 219.3716278076172 184.27203369140625 218.58724975585938 189.66598510742188 C 227.09751892089844 175.68348693847656 218.6581573486328 189.6623992919922 213.91317749023438 202.3392333984375 C 212.17449951171875 207.10755920410156 209.14942932128906 214.23667907714844 207.33839416503906 220.6374969482422 C 206.19039916992188 227.7957763671875 206.4007110595703 232.06317138671875 206.1680450439453 236.88674926757812 C 205.67257690429688 241.9868621826172 204.02139282226562 251.39608764648438 196.3998565673828 263.40594482421875 C 196.2230987548828 266.95672607421875 189.2652587890625 266.9706115722656 188.5045166015625 279.43511962890625 C 187.82850646972656 281.6971130371094 185.7174835205078 286.5557556152344 186.3578643798828 284.951416015625 C 177.77085876464844 282.35711669921875 183.23878479003906 285.80657958984375 176.10824584960938 281.24981689453125 C 178.34266662597656 289.7501220703125 149.48350524902344 288.8302917480469 143.87046813964844 272.185302734375 C 167.80140686035156 278.2731018066406 172.36093139648438 252.91354370117188 170.86630249023438 249.48361206054688 C 170.29600524902344 246.23435974121094 173.31117248535156 270.4566955566406 161.2936553955078 264.1469421386719 C 157.39566040039062 260.6268615722656 150.81637573242188 259.3701171875 148.71603393554688 252.69708251953125 C 147.17709350585938 252.38717651367188 146.0305938720703 243.66078186035156 149.39309692382812 257.365478515625 C 147.38453674316406 249.58843994140625 147.69256591796875 250.66864013671875 167.54554748535156 254.85403442382812 C 180.83157348632812 237.0247802734375 178.1070556640625 233.34796142578125 177.83103942871094 236.79330444335938" stroke-width="0.0" fill="rgb(0, 0, 0)" opacity="1.0" stroke="rgb(0, 0, 0)" stroke-opacity="1" stroke-linecap="round" stroke-linejoin="round"/>
  </g>
</svg>
