<?xml version="1.0" ?>
<svg xmlns="http://www.w3.org/2000/svg" version="1.1" width="320" height="320">
  <defs/>
  <g>
    <path d="M 173.0011444091797 234.34251403808594 C 170.46385192871094 230.9043731689453 167.93051147460938 223.3134307861328 168.2749786376953 211.78732299804688 C 167.71502685546875 200.5581817626953 169.181640625 189.95481872558594 164.72959899902344 162.66244506835938 C 166.4416961669922 160.3260040283203 159.95005798339844 162.03797912597656 153.11387634277344 168.7441864013672 C 135.5433349609375 170.6896514892578 153.62246704101562 172.09390258789062 132.92434692382812 156.74281311035156 C 114.72257232666016 188.59100341796875 105.05889892578125 210.13388061523438 97.60578155517578 236.56495666503906 C 94.37073516845703 239.30433654785156 103.70604705810547 253.81185913085938 117.2463150024414 272.7324523925781 C 99.9161605834961 278.5095520019531 80.42291259765625 263.20703125 78.31336975097656 259.6633605957031 C 78.11192321777344 259.61083984375 80.21630096435547 249.73768615722656 76.36662292480469 248.57342529296875 C 75.98591613769531 246.9406280517578 76.19168853759766 242.8983917236328 76.12133026123047 245.27035522460938 C 77.58399200439453 239.8461151123047 77.77545166015625 233.83261108398438 80.62015533447266 216.37188720703125 C 78.50331115722656 220.1995849609375 82.96571350097656 210.4318084716797 86.99178314208984 199.18923950195312 C 90.0339584350586 190.91397094726562 91.10186004638672 185.2029571533203 94.09309387207031 166.04356384277344 C 95.92091369628906 161.5799560546875 91.32078552246094 153.177978515625 84.75422668457031 150.912109375 C 84.4180679321289 153.01722717285156 83.5232925415039 150.66038513183594 81.50418853759766 155.3715362548828 C 84.2213363647461 149.47711181640625 91.02335357666016 148.4683380126953 84.282470703125 150.64703369140625 C 84.19802856445312 149.39309692382812 88.54515838623047 143.41603088378906 91.81466674804688 137.99806213378906 C 99.76470947265625 124.84577178955078 99.38397216796875 127.76200103759766 100.31446075439453 122.88113403320312 C 100.98436737060547 115.63999938964844 101.3514633178711 108.15511322021484 102.6874771118164 97.61817932128906 C 102.1122055053711 78.4861831665039 105.1112289428711 70.1818618774414 133.98208618164062 56.741065979003906 C 150.26768493652344 96.70474243164062 146.75732421875 91.22126007080078 133.15951538085938 45.55380630493164 C 136.78662109375 11.734003067016602 162.89694213867188 33.24637222290039 162.55845642089844 32.73936080932617 C 164.7983856201172 31.951011657714844 159.45901489257812 34.71403503417969 164.76104736328125 55.752464294433594 C 155.27099609375 60.72601318359375 168.2950897216797 68.13993072509766 152.0455780029297 67.26679992675781 C 145.4406280517578 71.7468032836914 143.12481689453125 75.61079406738281 149.9693603515625 102.78227996826172 C 153.69317626953125 80.38436889648438 149.21240234375 108.93711853027344 146.3877716064453 122.19261169433594 C 142.6179656982422 134.74676513671875 142.13897705078125 135.8326873779297 139.5806121826172 146.01817321777344 C 155.86541748046875 148.41311645507812 151.06393432617188 150.10560607910156 153.89073181152344 148.12998962402344 C 154.9466552734375 145.89297485351562 156.62123107910156 145.7888641357422 169.7681121826172 143.5693817138672 C 171.39572143554688 138.25611877441406 171.02259826660156 119.46338653564453 178.21368408203125 105.8840560913086 C 184.49160766601562 94.45540618896484 191.1346435546875 86.87897491455078 196.77943420410156 79.62493896484375 C 197.32164001464844 78.52066802978516 206.83766174316406 67.26261901855469 187.60267639160156 68.14178466796875 C 188.25401306152344 68.04095458984375 192.92044067382812 47.951900482177734 200.7877655029297 30.099380493164062 C 225.60508728027344 21.657512664794922 228.40786743164062 44.48583221435547 228.93800354003906 44.374610900878906 C 229.3400421142578 44.32075500488281 229.52862548828125 43.904197692871094 219.55462646484375 60.141929626464844 C 218.59780883789062 63.581146240234375 208.8499298095703 75.5095443725586 216.30059814453125 65.1882553100586 C 224.19970703125 74.66458892822266 230.6922607421875 86.31709289550781 234.91146850585938 100.6695556640625 C 220.44290161132812 100.13814544677734 235.22357177734375 100.11621856689453 234.87586975097656 100.75910186767578 C 225.883544921875 110.65650939941406 240.61032104492188 92.3255386352539 231.49371337890625 108.50242614746094 C 224.1844024658203 122.09388732910156 219.70851135253906 135.200439453125 217.97476196289062 137.34193420410156 C 217.8551483154297 137.8561553955078 217.44947814941406 138.2478790283203 214.31942749023438 146.44410705566406 C 218.86080932617188 148.98379516601562 214.7842559814453 159.47340393066406 219.30722045898438 174.54844665527344 C 218.786376953125 178.60569763183594 218.228515625 179.47543334960938 216.41168212890625 179.86859130859375 C 216.36077880859375 181.00350952148438 210.3441925048828 181.5619659423828 209.1195831298828 182.4377899169922 C 205.99862670898438 180.06521606445312 206.57391357421875 184.68643188476562 203.5730438232422 182.90341186523438 C 205.5031280517578 171.71490478515625 203.20291137695312 186.1626739501953 200.99801635742188 200.14328002929688 C 200.61412048339844 203.82940673828125 199.72894287109375 210.89340209960938 200.0017852783203 215.07635498046875 C 201.15943908691406 220.58395385742188 202.44711303710938 226.1983642578125 202.58058166503906 236.9938201904297 C 201.93621826171875 238.1846466064453 202.1044158935547 248.7157440185547 195.80279541015625 262.4940490722656 C 195.65077209472656 265.8018493652344 190.30441284179688 265.264404296875 189.79144287109375 278.5621032714844 C 189.1083526611328 277.9970703125 188.77523803710938 283.112060546875 189.1440887451172 281.1234436035156 C 180.4123992919922 281.73968505859375 182.4775390625 283.1236877441406 177.3562774658203 279.228271484375 C 179.98809814453125 287.9276123046875 153.5080108642578 290.5460510253906 147.22750854492188 276.3013000488281 C 175.1230010986328 274.601806640625 178.02735900878906 253.42477416992188 177.43289184570312 252.5979461669922 C 174.5078582763672 247.6935272216797 178.42161560058594 269.4791564941406 167.24099731445312 263.599609375 C 166.496337890625 263.8782653808594 154.7857666015625 264.3398742675781 148.75587463378906 258.9941711425781 C 146.47862243652344 259.7385559082031 143.47494506835938 246.95228576660156 147.12570190429688 258.580810546875 C 145.04534912109375 251.08685302734375 145.1607666015625 251.4611358642578 160.26365661621094 253.8413543701172 C 173.91366577148438 232.07057189941406 173.6272430419922 236.12826538085938 173.0011444091797 234.34251403808594" stroke-width="0.0" fill="rgb(0, 0, 0)" opacity="1.0" stroke="rgb(0, 0, 0)" stroke-opacity="1" stroke-linecap="round" stroke-linejoin="round"/>
  </g>
</svg>
