<?xml version="1.0" ?>
<svg xmlns="http://www.w3.org/2000/svg" version="1.1" width="320" height="320">
  <defs/>
  <g>
    <path d="M 171.93487548828125 234.63601684570312 C 168.95843505859375 230.44549560546875 166.65316772460938 222.8396759033203 166.9005584716797 212.3025665283203 C 166.26658630371094 198.72633361816406 168.33941650390625 186.33717346191406 167.27035522460938 156.87808227539062 C 165.39710998535156 157.2063751220703 160.8933563232422 157.61331176757812 155.14602661132812 162.73130798339844 C 140.35353088378906 165.46719360351562 157.45188903808594 165.2076416015625 136.00291442871094 151.8263397216797 C 117.76470184326172 187.8424835205078 106.57331085205078 209.5634307861328 97.589599609375 236.12820434570312 C 95.01171112060547 238.38623046875 104.04717254638672 253.5426025390625 117.10132598876953 272.5747985839844 C 99.5927963256836 278.4664611816406 80.48182678222656 262.7681884765625 78.40864562988281 258.87603759765625 C 78.22311401367188 258.9253845214844 80.39179992675781 248.9481964111328 76.80121612548828 247.31008911132812 C 76.61628723144531 245.7955322265625 76.98099517822266 242.48304748535156 76.84517669677734 244.6727752685547 C 78.281494140625 239.33724975585938 78.5471420288086 233.10060119628906 81.61692810058594 214.4842071533203 C 79.25181579589844 218.02297973632812 84.2977523803711 209.08055114746094 88.9394302368164 197.98468017578125 C 92.31562042236328 189.6702423095703 93.1952133178711 184.21871948242188 96.65376281738281 165.04788208007812 C 97.85385131835938 162.31561279296875 93.82937622070312 154.18682861328125 88.24376678466797 151.49176025390625 C 87.58240509033203 153.38665771484375 87.03789520263672 151.69357299804688 84.89332580566406 155.9410858154297 C 87.49883270263672 150.80126953125 93.58448791503906 149.8133544921875 87.85189819335938 151.85572814941406 C 87.69703674316406 151.21311950683594 92.32281494140625 143.86782836914062 94.67503356933594 139.05166625976562 C 101.39016723632812 125.4226303100586 101.29849243164062 127.83938598632812 102.03287506103516 123.19336700439453 C 102.55308532714844 117.79718017578125 102.08650970458984 109.61417388916016 102.4611587524414 99.26766204833984 C 101.4555892944336 77.43631744384766 104.28262329101562 69.62171173095703 131.9289093017578 55.68600845336914 C 149.28062438964844 95.26313781738281 147.44248962402344 92.00215911865234 129.50074768066406 43.25360870361328 C 131.4477081298828 8.757729530334473 159.46531677246094 31.071659088134766 159.15538024902344 30.662738800048828 C 161.14967346191406 29.877948760986328 155.47706604003906 32.97929763793945 160.7728271484375 52.598182678222656 C 151.6134033203125 57.9520149230957 164.42779541015625 64.9889144897461 149.32308959960938 64.68675994873047 C 143.13497924804688 69.40870666503906 141.18453979492188 73.36779022216797 149.5989990234375 103.42694091796875 C 154.07411193847656 80.35383605957031 148.97744750976562 107.5816650390625 146.42727661132812 120.33967590332031 C 143.74331665039062 133.0179443359375 143.50120544433594 133.58917236328125 141.90093994140625 140.57781982421875 C 157.32025146484375 141.5409698486328 152.35984802246094 143.75509643554688 156.22886657714844 141.954833984375 C 157.5810089111328 140.2357635498047 160.01698303222656 140.34373474121094 172.2106475830078 139.1678466796875 C 173.78770446777344 136.63076782226562 174.2548828125 118.52214050292969 180.87640380859375 106.30748748779297 C 187.24365234375 94.74864959716797 194.5633087158203 87.4280776977539 201.08750915527344 80.16838836669922 C 201.76548767089844 79.11265563964844 211.80990600585938 67.01219940185547 193.3922119140625 67.94911193847656 C 193.84767150878906 67.8089828491211 198.66055297851562 49.081966400146484 207.22976684570312 29.744897842407227 C 232.4433135986328 21.248027801513672 235.14620971679688 44.348487854003906 235.61607360839844 44.3624153137207 C 236.0389862060547 44.338558197021484 237.8577880859375 44.89076232910156 223.92599487304688 62.51764678955078 C 222.74317932128906 65.75946044921875 212.53814697265625 77.84832000732422 221.1459503173828 66.3773193359375 C 227.2150421142578 74.79936218261719 233.0263214111328 86.39250946044922 238.63729858398438 99.32218170166016 C 223.9139404296875 99.55415344238281 239.3267364501953 99.19190979003906 239.3065643310547 99.34848022460938 C 230.3972930908203 108.26473999023438 244.60813903808594 91.02326965332031 236.16700744628906 109.80076599121094 C 227.7256317138672 123.380615234375 223.54495239257812 136.1107940673828 222.1516876220703 137.88670349121094 C 221.81353759765625 139.0567169189453 221.4685516357422 139.35873413085938 216.23353576660156 149.0400390625 C 220.0138702392578 151.47325134277344 215.69061279296875 161.52947998046875 219.66517639160156 175.945068359375 C 219.91677856445312 178.99765014648438 219.59518432617188 180.34043884277344 218.7488250732422 180.768310546875 C 218.8197479248047 181.36000061035156 214.56736755371094 183.68499755859375 211.71694946289062 183.54461669921875 C 208.7772216796875 182.1217498779297 208.83187866210938 185.42428588867188 205.3531951904297 183.70603942871094 C 208.7190399169922 171.9481658935547 204.90008544921875 186.03506469726562 201.9160614013672 199.65972900390625 C 201.7452850341797 203.57371520996094 200.81114196777344 211.01101684570312 200.573486328125 214.70266723632812 C 201.92453002929688 220.67251586914062 203.1854705810547 226.60989379882812 203.2985382080078 235.4871826171875 C 202.59487915039062 237.2268524169922 202.9849395751953 247.79464721679688 196.524658203125 261.8498229980469 C 196.34255981445312 265.788818359375 190.88999938964844 265.0690612792969 190.0643310546875 278.76263427734375 C 189.21505737304688 277.97772216796875 188.92056274414062 282.9755554199219 189.10763549804688 281.2671813964844 C 180.82861328125 281.5382995605469 182.6154327392578 282.8002014160156 177.4674530029297 278.8343811035156 C 180.33119201660156 287.561767578125 154.22291564941406 290.56988525390625 147.4649200439453 276.24493408203125 C 175.98690795898438 274.030029296875 178.12081909179688 252.87228393554688 177.45819091796875 251.95619201660156 C 174.46214294433594 247.2693328857422 178.47535705566406 269.6773986816406 167.5801544189453 263.4504699707031 C 166.59246826171875 263.98529052734375 155.19635009765625 264.54974365234375 149.28514099121094 259.59234619140625 C 146.7322998046875 260.4814453125 143.4169464111328 248.94915771484375 146.7473907470703 258.300537109375 C 145.19744873046875 253.48342895507812 144.45057678222656 250.33682250976562 160.33909606933594 253.63502502441406 C 172.8049774169922 232.90127563476562 172.4864044189453 236.36502075195312 171.93487548828125 234.63601684570312" stroke-width="0.0" fill="rgb(0, 0, 0)" opacity="1.0" stroke="rgb(0, 0, 0)" stroke-opacity="1" stroke-linecap="round" stroke-linejoin="round"/>
  </g>
</svg>
