<?xml version="1.0" ?>
<svg xmlns="http://www.w3.org/2000/svg" version="1.1" width="320" height="320">
  <defs/>
  <g>
    <path d="M 175.16558837890625 236.8919219970703 C 172.5528564453125 234.19735717773438 168.87017822265625 227.06268310546875 167.4455108642578 218.2152862548828 C 166.0495147705078 207.3159637451172 167.02072143554688 195.9884490966797 161.263916015625 163.84983825683594 C 160.8716278076172 163.94552612304688 157.7917022705078 164.90367126464844 150.5128936767578 172.39503479003906 C 131.9208221435547 174.2700958251953 151.654296875 174.4815216064453 129.192626953125 160.47340393066406 C 115.18648529052734 192.9311065673828 105.04735565185547 214.2832489013672 97.25189208984375 238.1326446533203 C 95.48274230957031 239.79605102539062 105.46611785888672 255.90335083007812 116.51895904541016 273.0937194824219 C 102.45162200927734 278.3694763183594 81.50796508789062 265.3658447265625 78.73285675048828 260.4329528808594 C 78.48766326904297 260.3434143066406 80.62085723876953 250.48646545410156 76.21133422851562 248.92041015625 C 75.82262420654297 246.7288818359375 76.22347259521484 243.2972412109375 76.0289535522461 247.06488037109375 C 77.73809814453125 240.8781280517578 77.83843994140625 234.9850616455078 79.56306457519531 218.709228515625 C 76.9677505493164 224.1189422607422 81.56324768066406 213.94076538085938 85.78659057617188 202.5139617919922 C 88.97600555419922 194.147705078125 89.71624755859375 189.37075805664062 92.23030090332031 171.0407257080078 C 94.69051361083984 164.6464080810547 88.00682067871094 155.61618041992188 80.47005462646484 153.89291381835938 C 80.91609191894531 156.7353515625 79.62079620361328 154.09996032714844 78.01876831054688 158.6525421142578 C 80.65230560302734 151.69082641601562 88.34454345703125 150.913818359375 80.5858383178711 153.9273223876953 C 80.50762176513672 152.7962188720703 83.43331146240234 148.2110595703125 86.72124481201172 141.67372131347656 C 93.51287841796875 129.16607666015625 93.61056518554688 130.72860717773438 94.30945587158203 122.87413787841797 C 94.59661102294922 115.92828369140625 94.41671752929688 109.61854553222656 93.62765502929688 99.32255554199219 C 91.33075714111328 78.4360580444336 93.95124816894531 70.13524627685547 121.14387512207031 55.18039321899414 C 141.3059539794922 98.50493621826172 137.24679565429688 92.07280731201172 117.44291687011719 39.841182708740234 C 122.7208251953125 5.538918495178223 149.55795288085938 30.052600860595703 148.01748657226562 28.38446807861328 C 149.6685333251953 27.48052978515625 144.116455078125 31.33108139038086 150.87969970703125 50.828277587890625 C 141.6912841796875 56.313079833984375 154.04940795898438 62.565547943115234 139.55662536621094 63.44279479980469 C 133.42201232910156 68.14429473876953 131.52906799316406 71.65753936767578 141.03579711914062 100.06450653076172 C 143.2465362548828 75.23551940917969 141.02867126464844 103.7340087890625 140.0797576904297 117.95511627197266 C 136.57960510253906 131.45263671875 136.46286010742188 131.9250030517578 135.52297973632812 148.74642944335938 C 151.7989959716797 151.4003143310547 146.9735870361328 152.96144104003906 149.61428833007812 150.44728088378906 C 150.7152099609375 148.3278045654297 151.6053466796875 148.2474365234375 165.72279357910156 142.79234313964844 C 167.43728637695312 139.42591857910156 166.7406005859375 119.69132995605469 172.95465087890625 105.53858947753906 C 180.07591247558594 93.55889892578125 187.11317443847656 86.1706314086914 192.52000427246094 79.651611328125 C 193.72610473632812 77.73878479003906 203.14398193359375 67.17464447021484 184.3389892578125 65.9189682006836 C 184.79379272460938 65.31547546386719 190.3145294189453 46.987815856933594 199.09036254882812 29.489948272705078 C 225.09934997558594 22.915828704833984 225.5845184326172 46.50259780883789 226.057373046875 46.55939865112305 C 227.2397003173828 43.83561706542969 228.71998596191406 44.45587921142578 216.67156982421875 60.201045989990234 C 215.23757934570312 63.19720458984375 203.96246337890625 75.5840835571289 212.03964233398438 65.46017456054688 C 220.98007202148438 79.58106231689453 225.21278381347656 92.19261932373047 227.55581665039062 103.16117095947266 C 215.3179168701172 101.59931182861328 228.63467407226562 102.2131118774414 226.62911987304688 104.4181900024414 C 217.46119689941406 113.07595825195312 234.51248168945312 96.54424285888672 224.5755615234375 108.78106689453125 C 216.6800079345703 120.39289855957031 212.1056671142578 133.73231506347656 211.2781219482422 134.6321563720703 C 210.96487426757812 135.84719848632812 210.36334228515625 136.50877380371094 207.1892547607422 145.77545166015625 C 212.19842529296875 149.05836486816406 207.47601318359375 157.99334716796875 209.7855987548828 173.31729125976562 C 209.3767852783203 177.30023193359375 208.65757751464844 178.34744262695312 207.9016571044922 177.72642517089844 C 207.35955810546875 178.05282592773438 202.1803436279297 179.70135498046875 201.0640106201172 180.5469512939453 C 201.18740844726562 181.311767578125 197.65679931640625 179.08395385742188 197.98617553710938 181.14842224121094 C 196.57037353515625 183.1708984375 193.05441284179688 192.1427459716797 192.0005645751953 204.01148986816406 C 191.48443603515625 208.33697509765625 191.3651580810547 214.3990936279297 191.99851989746094 216.66038513183594 C 193.7065887451172 221.72897338867188 196.717041015625 226.9057159423828 198.02915954589844 237.1959991455078 C 196.66607666015625 238.72178649902344 198.964111328125 249.1124267578125 194.42559814453125 262.44891357421875 C 194.1351318359375 266.4904479980469 189.43544006347656 266.3888854980469 190.15989685058594 279.83447265625 C 188.91700744628906 278.89788818359375 189.27178955078125 282.974365234375 189.25885009765625 282.2470703125 C 182.33975219726562 283.0632629394531 183.39529418945312 283.5797424316406 176.9652099609375 280.09033203125 C 180.1401824951172 288.3874206542969 153.56002807617188 291.4746398925781 147.03610229492188 276.6731262207031 C 175.20498657226562 274.8016052246094 176.88653564453125 255.06564331054688 175.56820678710938 253.15261840820312 C 173.86190795898438 250.39340209960938 178.04600524902344 267.997802734375 167.24777221679688 263.8057861328125 C 166.6372528076172 263.8725891113281 155.96136474609375 264.67742919921875 149.61874389648438 259.8192138671875 C 147.0663604736328 260.73468017578125 143.5847625732422 248.355224609375 147.73365783691406 258.99273681640625 C 145.2919464111328 251.03363037109375 145.6446533203125 251.9752655029297 160.82318115234375 253.09890747070312 C 175.0931396484375 231.33973693847656 174.75267028808594 235.73715209960938 175.16558837890625 236.8919219970703" stroke-width="0.0" fill="rgb(0, 0, 0)" opacity="1.0" stroke="rgb(0, 0, 0)" stroke-opacity="1" stroke-linecap="round" stroke-linejoin="round"/>
  </g>
</svg>
