<?xml version="1.0" ?>
<svg xmlns="http://www.w3.org/2000/svg" version="1.1" width="320" height="320">
  <defs/>
  <g>
    <path d="M 169.62828063964844 237.1734161376953 C 168.2931365966797 232.20230102539062 167.35064697265625 225.14234924316406 169.5116729736328 212.12887573242188 C 170.4086456298828 199.462646484375 174.96014404296875 190.2694549560547 171.7502899169922 168.41424560546875 C 168.20054626464844 169.70547485351562 163.55841064453125 170.8629913330078 155.77615356445312 177.5039825439453 C 134.17208862304688 173.81591796875 159.8434600830078 176.5925750732422 123.70599365234375 154.91217041015625 C 102.34819030761719 187.95822143554688 97.6791000366211 209.8174285888672 96.40819549560547 237.44580078125 C 94.458740234375 239.54681396484375 105.44270324707031 255.18031311035156 116.66828918457031 273.31024169921875 C 102.02318572998047 278.95440673828125 80.98406982421875 265.1600036621094 79.15155029296875 261.5496826171875 C 78.17866516113281 261.0276184082031 79.81961822509766 254.19741821289062 73.41717529296875 247.20166015625 C 71.2222671508789 247.74862670898438 72.09428405761719 241.28460693359375 72.49041748046875 249.49583435058594 C 73.31945037841797 244.71456909179688 71.0688705444336 236.6353302001953 71.91236114501953 214.72076416015625 C 68.67513275146484 222.4193572998047 72.64593505859375 211.3958740234375 76.35733032226562 199.3835906982422 C 78.50921630859375 191.4120635986328 79.35797119140625 186.1373291015625 81.05777740478516 168.81581115722656 C 81.35061645507812 166.73133850097656 79.89238739013672 156.17031860351562 69.4482650756836 151.2840118408203 C 68.78157043457031 153.1465301513672 68.77635955810547 148.21080017089844 65.5832290649414 151.43797302246094 C 60.69347381591797 154.2871551513672 72.176513671875 148.25694274902344 68.15823364257812 150.8872528076172 C 70.99085235595703 141.19960021972656 75.113525390625 137.69036865234375 77.17677307128906 135.1794891357422 C 80.3709487915039 130.39373779296875 82.66056823730469 118.37899780273438 83.64818572998047 114.65995788574219 C 85.35590362548828 105.73609161376953 85.38201904296875 103.35444641113281 84.85731506347656 87.90254211425781 C 90.18917846679688 73.5807876586914 94.05923461914062 65.68004608154297 115.21729278564453 54.66482162475586 C 130.9490509033203 94.78791046142578 133.65814208984375 92.52273559570312 113.20413970947266 49.891143798828125 C 106.79283905029297 -1.7106399536132812 148.01004028320312 32.94913101196289 145.77674865722656 30.046607971191406 C 144.91180419921875 28.813514709472656 140.1488494873047 31.17690658569336 143.8002166748047 52.56768035888672 C 133.7152862548828 57.21435546875 145.66307067871094 65.72335052490234 131.9423828125 64.79474639892578 C 124.70603942871094 68.54175567626953 123.47595977783203 70.23013305664062 131.25015258789062 100.19650268554688 C 136.7496337890625 82.23200988769531 131.22116088867188 100.08121490478516 128.42514038085938 116.57935333251953 C 123.1613540649414 133.08058166503906 123.82023620605469 126.38905334472656 135.55075073242188 146.11477661132812 C 158.56765747070312 159.2084197998047 156.3412628173828 159.63099670410156 158.57406616210938 158.21241760253906 C 159.71072387695312 155.96078491210938 164.75387573242188 155.05917358398438 175.53038024902344 152.57716369628906 C 178.31788635253906 146.89889526367188 176.20179748535156 126.28711700439453 182.7555694580078 113.20955657958984 C 187.8065185546875 100.0605697631836 194.89398193359375 91.65706634521484 200.83042907714844 83.74624633789062 C 202.5545196533203 81.50749969482422 215.63787841796875 67.00999450683594 193.99282836914062 68.10456085205078 C 194.92428588867188 67.90251159667969 196.45333862304688 48.964630126953125 202.97305297851562 28.156108856201172 C 230.9909210205078 17.372127532958984 235.15000915527344 40.34698486328125 235.70567321777344 40.0050048828125 C 235.95220947265625 39.721187591552734 238.6924285888672 40.22099685668945 224.76124572753906 62.090084075927734 C 223.6052703857422 66.27576446533203 214.02880859375 77.41194915771484 224.6595458984375 64.21393585205078 C 231.17803955078125 73.04309844970703 239.21868896484375 88.70565795898438 244.27186584472656 103.09697723388672 C 231.05995178222656 103.15613555908203 246.57823181152344 102.13538360595703 245.306884765625 104.3216781616211 C 237.224365234375 111.68558502197266 250.47769165039062 94.81729888916016 239.93228149414062 114.59734344482422 C 232.17454528808594 130.74154663085938 227.95465087890625 143.82473754882812 227.66165161132812 144.22760009765625 C 227.177978515625 148.4735565185547 228.0343475341797 139.09078979492188 225.0213623046875 154.48928833007812 C 228.56695556640625 156.49774169921875 224.30421447753906 165.8520050048828 229.19650268554688 183.6267852783203 C 228.8113555908203 185.5308837890625 228.49758911132812 186.08657836914062 226.4091339111328 186.50482177734375 C 226.42333984375 188.02056884765625 218.70106506347656 190.01473999023438 217.3848114013672 190.85194396972656 C 217.35760498046875 191.38694763183594 213.19561767578125 187.822998046875 211.6842041015625 194.60787963867188 C 213.9789276123047 180.60586547851562 212.50534057617188 191.39454650878906 208.6480712890625 206.22572326660156 C 207.48182678222656 210.1236114501953 206.77317810058594 214.62550354003906 206.386474609375 220.783935546875 C 206.90945434570312 230.42373657226562 206.73435974121094 233.15179443359375 205.71368408203125 244.61947631835938 C 204.22996520996094 245.83119201660156 202.3519744873047 255.803466796875 195.07142639160156 266.87945556640625 C 194.9850311279297 269.5658264160156 190.12220764160156 269.20751953125 189.5287628173828 280.3916015625 C 188.8199920654297 282.6815185546875 187.26300048828125 287.05059814453125 187.7893829345703 284.9586181640625 C 180.13015747070312 283.5834045410156 183.56800842285156 286.3009338378906 177.8544464111328 282.317138671875 C 179.97621154785156 290.9927062988281 153.14242553710938 292.00714111328125 147.14193725585938 277.13525390625 C 170.17266845703125 278.6739807128906 180.2550811767578 255.55335998535156 180.0687713623047 255.9893798828125 C 177.18341064453125 249.32264709472656 177.5731658935547 272.7344970703125 167.17962646484375 265.82940673828125 C 166.45416259765625 265.5159912109375 152.0183563232422 264.7243957519531 146.23025512695312 258.6986999511719 C 144.303466796875 255.52476501464844 143.66465759277344 247.0618133544922 145.66357421875 260.3922424316406 C 144.80967712402344 254.58755493164062 144.45411682128906 250.23638916015625 158.27960205078125 254.39064025878906 C 171.1143341064453 235.99159240722656 169.04652404785156 233.54905700683594 169.62828063964844 237.1734161376953" stroke-width="0.0" fill="rgb(0, 0, 0)" opacity="1.0" stroke="rgb(0, 0, 0)" stroke-opacity="1" stroke-linecap="round" stroke-linejoin="round"/>
  </g>
</svg>
