<?xml version="1.0" ?>
<svg xmlns="http://www.w3.org/2000/svg" version="1.1" width="320" height="320">
  <defs/>
  <g>
    <path d="M 172.55282592773438 232.18797302246094 C 170.15829467773438 227.871337890625 168.80311584472656 219.8084259033203 170.3535919189453 210.9933319091797 C 170.94679260253906 198.99655151367188 174.046142578125 187.34080505371094 171.9208984375 161.0352783203125 C 168.49412536621094 161.6427001953125 162.0447998046875 161.55149841308594 154.97027587890625 164.46990966796875 C 138.4627227783203 168.81552124023438 153.0057373046875 167.8380889892578 131.34519958496094 155.6308135986328 C 116.04100036621094 186.937255859375 108.1729965209961 209.11795043945312 101.66352844238281 235.2704620361328 C 99.0711898803711 237.67636108398438 107.01679229736328 248.6808319091797 114.79283142089844 265.9665222167969 C 101.93910217285156 268.2948303222656 85.69673156738281 258.6824645996094 83.10029602050781 254.7128448486328 C 81.66561889648438 253.7759552001953 82.62554168701172 247.88385009765625 77.26871490478516 246.65687561035156 C 76.56211853027344 244.11825561523438 76.7945327758789 239.49288940429688 76.95087432861328 244.12620544433594 C 79.65316009521484 237.08279418945312 80.42457580566406 230.91952514648438 83.83306121826172 214.21421813964844 C 80.68052673339844 220.1975860595703 85.22444152832031 210.22779846191406 88.9658432006836 198.81985473632812 C 91.68341827392578 190.0916290283203 93.087158203125 182.4735870361328 98.75387573242188 166.15895080566406 C 93.74324798583984 166.55636596679688 91.8077392578125 157.7223358154297 87.65023803710938 152.91709899902344 C 85.92214965820312 154.96981811523438 85.91292572021484 153.40858459472656 82.36475372314453 156.53451538085938 C 86.92537689208984 151.6937255859375 94.75411224365234 150.28419494628906 89.26416015625 153.00332641601562 C 89.05415344238281 151.04562377929688 93.65013122558594 144.98387145996094 96.14302062988281 140.71473693847656 C 103.64891815185547 128.76934814453125 103.4831771850586 133.36029052734375 103.12290954589844 126.75797271728516 C 103.56837463378906 118.28353118896484 103.91468811035156 109.46099090576172 105.38034057617188 101.01927947998047 C 106.84388732910156 84.29492950439453 108.84918975830078 76.03571319580078 128.63243103027344 59.706939697265625 C 145.05224609375 92.77384948730469 147.98318481445312 90.43681335449219 131.33425903320312 45.63380432128906 C 133.39694213867188 20.229461669921875 155.07501220703125 38.17266845703125 155.8607177734375 37.694374084472656 C 158.88638305664062 36.648040771484375 153.3619384765625 41.05635070800781 159.3650665283203 57.68550109863281 C 153.28414916992188 62.13755798339844 164.60845947265625 66.90631866455078 152.78692626953125 70.39276123046875 C 143.4464569091797 77.3551025390625 141.80702209472656 79.9424819946289 151.40252685546875 102.67855072021484 C 155.35128784179688 87.02720642089844 148.37258911132812 111.8458023071289 144.97705078125 122.38230895996094 C 141.7721710205078 132.9158477783203 141.02780151367188 135.88296508789062 137.9778289794922 145.82789611816406 C 152.65618896484375 144.75575256347656 156.03111267089844 145.52777099609375 158.4307098388672 144.36581420898438 C 159.83909606933594 142.53948974609375 164.86642456054688 142.39669799804688 177.98472595214844 143.50730895996094 C 179.68722534179688 140.4871368408203 181.85765075683594 126.48358917236328 186.42434692382812 111.95238494873047 C 189.95680236816406 99.37139892578125 194.88658142089844 91.20337677001953 199.4611358642578 82.34719848632812 C 201.08425903320312 79.43730163574219 207.98947143554688 70.41148376464844 194.4228973388672 74.08250427246094 C 195.90586853027344 74.06680297851562 201.39996337890625 55.00953674316406 208.98838806152344 34.79095458984375 C 224.21661376953125 29.630874633789062 231.6936798095703 49.046112060546875 232.19729614257812 48.99787139892578 C 233.2597198486328 49.04798889160156 233.4418182373047 48.23707580566406 222.69358825683594 63.54542541503906 C 221.3426055908203 67.2276611328125 212.65875244140625 78.38985443115234 221.76791381835938 67.77818298339844 C 229.0779571533203 76.86573791503906 234.08160400390625 86.64772033691406 240.72186279296875 97.26203918457031 C 226.10337829589844 98.16670227050781 237.66346740722656 97.25044250488281 238.97560119628906 97.54551696777344 C 230.50863647460938 108.53324890136719 241.78726196289062 93.18611907958984 232.3804931640625 108.55300903320312 C 226.10470581054688 118.99049377441406 222.4369354248047 131.54833984375 221.04464721679688 133.7051544189453 C 220.4646453857422 136.83047485351562 219.1261749267578 138.88168334960938 216.37628173828125 147.29505920410156 C 224.0666961669922 151.2627716064453 220.85736083984375 156.99717712402344 222.7685546875 169.71304321289062 C 222.91673278808594 175.06979370117188 221.92724609375 177.187744140625 220.2541961669922 176.10928344726562 C 219.3809814453125 176.86276245117188 214.28363037109375 179.75802612304688 213.29656982421875 180.69117736816406 C 209.62020874023438 179.4032440185547 209.96676635742188 182.2602996826172 207.18338012695312 181.1390380859375 C 208.45016479492188 168.32754516601562 206.0950164794922 184.3194122314453 204.80470275878906 199.9391632080078 C 204.66293334960938 204.1762237548828 204.07325744628906 211.46722412109375 203.5546112060547 216.0061492919922 C 203.27243041992188 222.44456481933594 203.275146484375 227.1726531982422 201.92079162597656 237.01065063476562 C 201.0957794189453 238.31614685058594 200.6836700439453 248.08860778808594 195.91033935546875 259.40802001953125 C 195.5411834716797 264.56304931640625 190.9420928955078 264.0601806640625 190.28408813476562 274.8482666015625 C 189.36412048339844 274.0680847167969 189.6471710205078 277.9345397949219 189.55291748046875 276.7178955078125 C 182.26132202148438 277.65289306640625 184.3699188232422 279.03271484375 178.62269592285156 274.06365966796875 C 181.14205932617188 282.7183532714844 160.06137084960938 282.8692626953125 152.99179077148438 270.67431640625 C 179.10386657714844 272.2777404785156 180.36611938476562 254.033935546875 179.08111572265625 252.4460906982422 C 175.1431427001953 246.2404022216797 178.83328247070312 267.38812255859375 169.49755859375 262.4225769042969 C 166.99388122558594 264.2356262207031 160.13449096679688 264.12554931640625 153.7991943359375 259.1343688964844 C 152.47471618652344 257.5728759765625 149.98016357421875 247.70346069335938 153.9847869873047 258.6253967285156 C 151.98519897460938 252.8473663330078 150.4981689453125 245.0706024169922 166.4278106689453 250.92684936523438 C 173.8382568359375 234.4998321533203 173.12330627441406 233.94287109375 172.55282592773438 232.18797302246094" stroke-width="0.0" fill="rgb(0, 0, 0)" opacity="1.0" stroke="rgb(0, 0, 0)" stroke-opacity="1" stroke-linecap="round" stroke-linejoin="round"/>
  </g>
</svg>
