<?xml version="1.0" ?>
<svg xmlns="http://www.w3.org/2000/svg" version="1.1" width="320" height="320">
  <defs/>
  <g>
    <path d="M 172.45440673828125 235.01658630371094 C 169.44996643066406 230.22134399414062 167.14105224609375 224.71014404296875 167.46749877929688 213.95748901367188 C 166.45852661132812 201.09764099121094 168.34866333007812 189.37319946289062 165.04908752441406 162.68820190429688 C 166.50070190429688 160.7992706298828 160.55372619628906 162.10377502441406 153.79710388183594 169.07638549804688 C 136.14637756347656 170.5727081298828 154.37452697753906 171.5873565673828 133.4033966064453 156.85011291503906 C 116.00318908691406 188.23069763183594 105.68537139892578 209.88632202148438 97.47557830810547 236.6051483154297 C 95.36396026611328 238.67495727539062 104.20885467529297 253.93051147460938 117.08016967773438 272.7939758300781 C 99.76893615722656 278.5111389160156 80.4466552734375 263.19854736328125 78.49093627929688 259.54803466796875 C 78.282470703125 259.5142517089844 80.48165893554688 249.299072265625 76.64212036132812 247.77252197265625 C 76.35135650634766 246.3399200439453 76.52979278564453 242.64544677734375 76.45516204833984 245.1652069091797 C 77.74385833740234 239.75730895996094 77.91744232177734 233.46893310546875 80.77791595458984 216.08775329589844 C 78.69094848632812 219.49627685546875 83.57556915283203 209.8795166015625 88.05030059814453 198.78822326660156 C 91.41211700439453 190.1593475341797 92.54169464111328 185.02122497558594 95.78688049316406 166.91192626953125 C 97.32432556152344 162.71543884277344 92.79853057861328 154.44020080566406 86.71499633789062 151.42234802246094 C 86.11713409423828 153.94631958007812 85.4976806640625 152.0384979248047 82.85223388671875 156.0361785888672 C 85.67402648925781 150.38165283203125 91.93248748779297 149.47755432128906 86.1817626953125 151.7371826171875 C 86.03736877441406 149.79638671875 90.10335540771484 144.06439208984375 93.44879150390625 138.21434020996094 C 100.17131805419922 125.91148376464844 100.0850830078125 127.55088806152344 101.05709075927734 123.0570297241211 C 101.63675689697266 117.02035522460938 101.19214630126953 108.32325744628906 102.34223175048828 98.78015899658203 C 101.85851287841797 77.65156555175781 104.60150146484375 70.21399688720703 133.33428955078125 56.126190185546875 C 150.925048828125 97.76162719726562 147.52406311035156 92.78771209716797 131.7772216796875 44.89954376220703 C 134.19798278808594 9.923440933227539 161.82357788085938 32.063255310058594 161.75868225097656 31.881103515625 C 164.0831756591797 30.982852935791016 158.7655029296875 33.660343170166016 163.59640502929688 54.21980285644531 C 154.33718872070312 59.27180862426758 167.328369140625 67.06294250488281 151.31808471679688 66.36600494384766 C 145.06138610839844 70.80203247070312 142.8519287109375 75.17575073242188 150.33447265625 105.04137420654297 C 155.0289306640625 81.50367736816406 149.6061553955078 109.30925750732422 146.61077880859375 122.12418365478516 C 143.05242919921875 134.5586700439453 142.759521484375 135.2840118408203 140.0382843017578 145.49085998535156 C 155.8662109375 148.28253173828125 151.51113891601562 149.99757385253906 154.66075134277344 147.8668975830078 C 155.81643676757812 145.66676330566406 157.47091674804688 145.64727783203125 170.59678649902344 143.8651123046875 C 172.37142944335938 139.11544799804688 172.84356689453125 120.06614685058594 179.66261291503906 106.14302825927734 C 186.02447509765625 95.20381164550781 193.41783142089844 87.60894012451172 199.23928833007812 80.60765075683594 C 199.84007263183594 79.68675231933594 210.80584716796875 67.74314880371094 191.68409729003906 67.544677734375 C 192.1957550048828 67.43002319335938 197.38607788085938 48.505435943603516 205.77908325195312 29.848594665527344 C 231.1381072998047 21.064552307128906 233.72799682617188 44.640174865722656 234.23228454589844 44.615882873535156 C 234.66751098632812 44.59855270385742 236.34214782714844 45.16716003417969 222.59609985351562 62.34233856201172 C 221.02810668945312 65.35871887207031 210.45193481445312 77.13883972167969 219.87559509277344 66.76451110839844 C 226.21533203125 75.05948638916016 232.07192993164062 87.10142517089844 236.94784545898438 100.4727554321289 C 222.40231323242188 100.22169494628906 238.1258087158203 100.12068939208984 237.7642059326172 100.895751953125 C 228.03890991210938 110.62628173828125 242.89373779296875 93.31735229492188 234.2589569091797 110.27314758300781 C 225.98486328125 123.78113555908203 221.4530029296875 136.23196411132812 219.7368927001953 138.04974365234375 C 219.99215698242188 137.99148559570312 219.2952117919922 138.73912048339844 214.48773193359375 149.12265014648438 C 218.38290405273438 151.52798461914062 213.8052215576172 162.7034454345703 218.2647705078125 176.52256774902344 C 218.18414306640625 179.3334197998047 217.83607482910156 180.9152374267578 216.9048614501953 180.79052734375 C 216.66958618164062 181.14317321777344 212.80694580078125 184.12442016601562 209.1552276611328 183.7543182373047 C 206.4718475341797 181.86448669433594 206.53106689453125 185.64979553222656 203.67950439453125 183.90960693359375 C 205.8455047607422 172.5645294189453 203.25205993652344 186.8411865234375 200.62982177734375 200.68606567382812 C 200.4269256591797 204.32574462890625 199.75709533691406 211.96458435058594 199.9828643798828 215.91371154785156 C 201.27438354492188 221.41519165039062 202.33119201660156 226.96360778808594 202.46812438964844 236.96104431152344 C 201.70431518554688 238.2707977294922 202.18106079101562 248.20448303222656 195.9794921875 262.47723388671875 C 195.74789428710938 266.2919921875 190.62469482421875 265.550048828125 189.86817932128906 278.99713134765625 C 188.87545776367188 278.14263916015625 188.7688751220703 282.697509765625 188.7572021484375 281.1588134765625 C 180.96534729003906 281.91748046875 182.20530700683594 282.79022216796875 177.25662231445312 278.9862365722656 C 180.13539123535156 287.7609558105469 153.87460327148438 290.75 147.3826141357422 276.1167907714844 C 175.51634216308594 274.3570556640625 178.17599487304688 253.09490966796875 177.52554321289062 252.22842407226562 C 174.67828369140625 247.93910217285156 178.3505096435547 269.81903076171875 167.48500061035156 263.5548095703125 C 166.5818328857422 264.0140075683594 155.10800170898438 264.5823669433594 149.03195190429688 259.4792785644531 C 146.58065795898438 260.3058776855469 143.589599609375 248.38116455078125 146.84756469726562 258.4652099609375 C 145.3028564453125 253.5769500732422 144.6046905517578 250.4499969482422 160.1865234375 253.52029418945312 C 172.93585205078125 232.68014526367188 172.74029541015625 236.19149780273438 172.45440673828125 235.01658630371094" stroke-width="0.0" fill="rgb(0, 0, 0)" opacity="1.0" stroke="rgb(0, 0, 0)" stroke-opacity="1" stroke-linecap="round" stroke-linejoin="round"/>
  </g>
</svg>
