<?xml version="1.0" ?>
<svg xmlns="http://www.w3.org/2000/svg" version="1.1" width="320" height="320">
  <defs/>
  <g>
    <path d="M 171.9199981689453 234.60646057128906 C 169.2439727783203 230.60031127929688 167.19911193847656 223.20974731445312 167.74229431152344 212.64703369140625 C 166.92279052734375 198.96755981445312 169.01837158203125 186.8355255126953 167.8746337890625 157.78250122070312 C 166.10719299316406 158.14073181152344 160.66012573242188 158.81170654296875 155.21421813964844 163.9781951904297 C 139.21063232421875 166.29336547851562 156.7653045654297 166.4967498779297 135.52890014648438 153.87754821777344 C 118.10977172851562 188.53565979003906 107.02753448486328 210.3074188232422 97.7403793334961 235.98158264160156 C 95.02275085449219 238.34591674804688 103.73444366455078 253.20350646972656 116.98883056640625 272.6810302734375 C 99.42113494873047 278.25836181640625 80.78987884521484 262.5547180175781 78.65599060058594 258.77642822265625 C 78.484130859375 258.7760314941406 80.58765411376953 248.1621551513672 76.94573974609375 246.67648315429688 C 76.72095489501953 245.2565460205078 76.88983154296875 241.584228515625 76.54454040527344 243.84877014160156 C 78.19591522216797 238.69862365722656 78.68229675292969 232.6405029296875 82.23999786376953 214.5470733642578 C 79.80933380126953 218.4202423095703 84.87435150146484 209.54983520507812 89.27088928222656 198.29452514648438 C 92.8895263671875 190.4350128173828 93.8139877319336 185.1763458251953 97.29205322265625 165.2727813720703 C 98.44712829589844 162.27305603027344 94.53948211669922 154.38951110839844 88.89546203613281 151.6727752685547 C 88.26548767089844 153.6715545654297 87.67037963867188 151.76296997070312 85.49092102050781 155.7019805908203 C 88.0655746459961 150.887939453125 94.06542205810547 150.04037475585938 88.49382781982422 152.32015991210938 C 88.36116790771484 151.4604949951172 92.42982482910156 144.48715209960938 94.88525390625 139.49746704101562 C 101.10757446289062 126.21684265136719 101.0386734008789 128.5308074951172 101.689697265625 123.96157836914062 C 101.9621810913086 118.13980865478516 101.86613464355469 109.63931274414062 102.55146789550781 99.0830078125 C 100.51319885253906 77.33323669433594 103.24390411376953 69.86497497558594 130.75486755371094 55.37456512451172 C 148.27671813964844 94.5855484008789 146.7170867919922 91.62403106689453 128.10610961914062 42.74483871459961 C 129.6603546142578 8.975399017333984 158.1171417236328 30.85599708557129 157.7722930908203 30.428314208984375 C 159.76942443847656 29.659664154052734 153.6576385498047 32.98823928833008 159.00856018066406 52.53303146362305 C 150.26942443847656 57.585426330566406 163.36004638671875 64.59329986572266 148.20550537109375 64.20247650146484 C 141.9801025390625 69.10131072998047 139.96189880371094 73.52847290039062 149.12490844726562 102.23907470703125 C 153.4418487548828 79.94652557373047 148.01193237304688 107.79882049560547 145.91014099121094 120.44049835205078 C 142.99246215820312 132.66140747070312 142.79412841796875 133.23143005371094 141.30238342285156 141.7433624267578 C 156.1351776123047 142.83888244628906 151.70726013183594 145.2611083984375 156.19271850585938 143.6651611328125 C 157.48287963867188 141.70909118652344 160.11595153808594 141.52171325683594 172.81370544433594 140.41799926757812 C 174.45751953125 137.30496215820312 175.16360473632812 119.7310791015625 181.364990234375 106.56610870361328 C 186.9959259033203 95.39299011230469 194.06124877929688 88.01197052001953 200.5100860595703 80.66439819335938 C 202.0814666748047 78.40628814697266 211.89593505859375 66.77349853515625 193.42233276367188 68.15958404541016 C 193.84898376464844 67.98226928710938 198.01390075683594 49.512847900390625 206.42066955566406 30.02469253540039 C 231.62046813964844 21.744918823242188 234.2081298828125 44.837894439697266 234.6796875 44.81840515136719 C 235.08824157714844 44.787715911865234 236.24359130859375 45.143375396728516 223.3302459716797 62.610347747802734 C 222.09483337402344 65.92951965332031 212.49598693847656 77.77217864990234 221.04421997070312 66.43586730957031 C 227.85574340820312 75.13492584228516 233.6463623046875 85.84695434570312 238.9134063720703 99.4447250366211 C 224.10719299316406 100.17677307128906 239.52655029296875 99.13516235351562 239.46653747558594 99.35220336914062 C 231.5685577392578 108.12557983398438 244.7792510986328 91.27183532714844 235.52133178710938 110.2623519897461 C 227.6405487060547 123.33782958984375 223.5915985107422 135.9407958984375 222.16616821289062 137.938232421875 C 221.7183837890625 139.16851806640625 221.20684814453125 139.67393493652344 217.26507568359375 147.95062255859375 C 221.26504516601562 150.45236206054688 217.1426239013672 159.86300659179688 220.91651916503906 174.81961059570312 C 220.90419006347656 178.8929901123047 220.31019592285156 179.89793395996094 219.10137939453125 180.301025390625 C 219.09715270996094 180.95904541015625 213.37815856933594 182.3458709716797 212.43798828125 182.76119995117188 C 209.0301971435547 181.30322265625 209.1934356689453 184.74649047851562 206.01324462890625 183.0998992919922 C 208.93603515625 170.88250732421875 205.32183837890625 185.85260009765625 202.4206085205078 199.80001831054688 C 202.27139282226562 203.30828857421875 201.42796325683594 211.07008361816406 201.40301513671875 215.53794860839844 C 202.43209838867188 221.50186157226562 203.40650939941406 226.77755737304688 203.3902130126953 236.3397674560547 C 202.819091796875 237.62908935546875 202.90371704101562 247.98989868164062 196.43736267089844 262.21356201171875 C 196.3225860595703 265.61602783203125 190.99241638183594 265.0081481933594 190.12777709960938 278.558349609375 C 189.34994506835938 277.8388366699219 189.0395050048828 282.6546630859375 189.10841369628906 281.2479248046875 C 180.9244384765625 281.3350524902344 183.0591278076172 282.7760009765625 177.44012451171875 278.6694030761719 C 180.3668212890625 287.5188293457031 154.06973266601562 290.5618896484375 147.52813720703125 276.17431640625 C 176.19302368164062 273.7447509765625 178.04214477539062 252.91961669921875 177.3682861328125 251.91744995117188 C 174.6555633544922 247.3910675048828 178.5296630859375 269.6065673828125 167.5394744873047 263.4833068847656 C 166.875732421875 263.7565612792969 155.57591247558594 264.614501953125 149.66348266601562 259.88763427734375 C 146.9514617919922 260.8263244628906 143.65960693359375 249.37200927734375 146.70619201660156 258.0747375488281 C 145.33352661132812 253.5180206298828 144.60707092285156 250.33535766601562 160.18911743164062 253.7965545654297 C 172.7901153564453 233.1855926513672 172.3795928955078 236.1378631591797 171.9199981689453 234.60646057128906" stroke-width="0.0" fill="rgb(0, 0, 0)" opacity="1.0" stroke="rgb(0, 0, 0)" stroke-opacity="1" stroke-linecap="round" stroke-linejoin="round"/>
  </g>
</svg>
