<?xml version="1.0" ?>
<svg xmlns="http://www.w3.org/2000/svg" version="1.1" width="320" height="320">
  <defs/>
  <g>
    <path d="M 146.15972900390625 197.4058074951172 C 160.88275146484375 181.66909790039062 186.38235473632812 170.16871643066406 199.16146850585938 161.99560546875 C 218.733154296875 149.5936279296875 227.03665161132812 145.41102600097656 232.2416229248047 141.87026977539062 C 237.52711486816406 139.4483642578125 239.8765106201172 137.68426513671875 242.74237060546875 136.1536865234375 C 243.5340576171875 135.1162567138672 265.5595703125 124.86756896972656 271.5061340332031 118.51359558105469 C 274.57281494140625 114.79518127441406 275.343994140625 112.11614990234375 276.005859375 107.63572692871094 C 268.629638671875 102.70582580566406 274.67669677734375 107.04918670654297 275.6520080566406 107.86247253417969 C 275.6814880371094 109.50062561035156 274.5495300292969 120.80636596679688 271.7286376953125 120.0726089477539 C 271.79339599609375 124.06049346923828 265.5827331542969 121.60160064697266 267.0843200683594 125.24015808105469 C 249.20455932617188 139.57742309570312 249.63845825195312 142.32705688476562 245.93423461914062 144.25689697265625 C 241.8119659423828 147.54873657226562 237.7987823486328 150.75820922851562 233.39889526367188 153.80970764160156 C 225.2177276611328 158.70602416992188 207.84967041015625 170.1561279296875 199.12303161621094 174.45899963378906 C 190.96104431152344 180.3561248779297 169.84188842773438 190.1952362060547 166.41278076171875 193.83291625976562 C 171.0236358642578 201.20069885253906 178.70791625976562 215.18850708007812 193.81053161621094 222.95672607421875 C 186.84005737304688 232.27633666992188 186.84368896484375 234.17166137695312 189.14268493652344 239.32337951660156 C 188.71234130859375 244.5516815185547 190.94146728515625 249.5934295654297 192.1444549560547 255.61956787109375 C 195.992431640625 262.36138916015625 195.77174377441406 263.1322021484375 214.1103515625 271.0877380371094 C 216.46405029296875 268.04180908203125 210.87672424316406 281.40948486328125 190.89505004882812 273.4834899902344 C 192.82635498046875 274.3855285644531 189.65093994140625 275.5982360839844 184.95587158203125 270.9934997558594 C 184.1570587158203 270.6594543457031 187.48117065429688 273.801025390625 184.20928955078125 271.38507080078125 C 184.84115600585938 271.65484619140625 183.58534240722656 270.4257507324219 182.7254180908203 269.5257263183594 C 183.67739868164062 265.97332763671875 182.6370391845703 262.8502502441406 180.41592407226562 259.49627685546875 C 180.00148010253906 257.6005859375 179.73399353027344 255.38497924804688 178.46865844726562 251.67880249023438 C 167.94920349121094 239.62083435058594 168.13925170898438 237.86537170410156 173.99090576171875 226.67247009277344 C 174.07994079589844 225.35784912109375 152.8006591796875 214.52557373046875 146.15972900390625 197.4058074951172" stroke-width="0.0" fill="rgb(0, 0, 0)" opacity="1.0" stroke="rgb(0, 0, 0)" stroke-opacity="1" stroke-linecap="round" stroke-linejoin="round"/>
    <path d="M 80.01439666748047 286.62872314453125 C 48.69544982910156 297.99334716796875 86.97409057617188 269.2265319824219 83.19487762451172 243.38331604003906 C 84.13092803955078 247.60238647460938 80.04975128173828 245.63519287109375 80.7736587524414 245.945068359375 C 83.61607360839844 239.87655639648438 80.14337158203125 250.71530151367188 85.09335327148438 240.0277557373047 C 83.8298568725586 215.3361053466797 94.3737564086914 246.5310516357422 101.11518096923828 226.4678955078125 C 82.60140228271484 225.51766967773438 90.93433380126953 234.6048583984375 107.37599182128906 201.98834228515625 C 117.32559204101562 189.0026092529297 116.51564025878906 179.31439208984375 117.50074768066406 185.58616638183594 C 114.47415161132812 173.78451538085938 116.6044921875 158.9484405517578 107.42337799072266 163.64425659179688 C 121.37397003173828 142.7426300048828 128.09312438964844 144.10032653808594 121.91687774658203 147.14627075195312 C 131.34291076660156 139.0345001220703 133.52630615234375 145.6599884033203 130.96702575683594 135.2955322265625 C 147.27902221679688 117.75159454345703 141.11654663085938 107.56874084472656 143.04888916015625 103.34986114501953 C 142.74462890625 106.0791244506836 141.1233367919922 99.34652709960938 146.91567993164062 115.5300521850586 C 155.7128448486328 130.70465087890625 157.1516571044922 133.60504150390625 157.56617736816406 137.81192016601562 C 156.79798889160156 138.63247680664062 162.94705200195312 137.03033447265625 167.3501434326172 138.51951599121094 C 176.347412109375 142.85226440429688 156.7621612548828 139.85433959960938 175.71958923339844 170.63858032226562 C 171.59454345703125 169.134765625 157.59829711914062 167.4315185546875 157.0299072265625 192.54574584960938 C 156.7299346923828 188.7090301513672 152.55136108398438 186.04441833496094 164.2010498046875 217.94581604003906 C 152.34915161132812 277.17169189453125 181.62701416015625 271.4407653808594 104.9668197631836 230.48780822753906 C 117.02906799316406 266.00689697265625 102.81071472167969 225.51905822753906 80.01439666748047 286.62872314453125" stroke-width="0.0" fill="rgb(0, 0, 0)" opacity="1.0" stroke="rgb(0, 0, 0)" stroke-opacity="1" stroke-linecap="round" stroke-linejoin="round"/>
  </g>
</svg>
