<?xml version="1.0" ?>
<svg xmlns="http://www.w3.org/2000/svg" version="1.1" width="320" height="320">
  <defs/>
  <g>
    <path d="M 129.53451538085938 196.70050048828125 C 145.48648071289062 175.74404907226562 175.22972106933594 160.9412841796875 183.32223510742188 156.20826721191406 C 208.31314086914062 139.3421173095703 212.8568878173828 136.7937469482422 215.6600799560547 134.84527587890625 C 218.4111328125 132.83477783203125 219.54844665527344 131.81324768066406 221.1213836669922 130.72207641601562 C 222.23983764648438 129.60926818847656 244.55929565429688 112.86387634277344 251.10935974121094 104.93800354003906 C 252.94598388671875 104.75687408447266 254.10765075683594 104.3677749633789 255.2823028564453 104.17969512939453 C 251.3065948486328 100.15142059326172 256.7652893066406 105.7801284790039 254.72433471679688 104.34405517578125 C 247.86111450195312 104.65394592285156 246.92832946777344 113.74637603759766 240.54144287109375 112.72346496582031 C 240.820556640625 113.28691101074219 241.6473846435547 117.52401733398438 239.40023803710938 116.45490264892578 C 225.3359375 128.13597106933594 225.61343383789062 134.25794982910156 223.8526611328125 135.60459899902344 C 221.52825927734375 137.38873291015625 219.04135131835938 139.36239624023438 216.5837860107422 141.3741455078125 C 211.92770385742188 144.55441284179688 188.33749389648438 161.83697509765625 183.28443908691406 163.87423706054688 C 178.8418731689453 167.5326385498047 153.91641235351562 181.18215942382812 152.5047149658203 184.45941162109375 C 160.30374145507812 194.49566650390625 171.39002990722656 213.30880737304688 187.29299926757812 221.72488403320312 C 180.4772491455078 232.07293701171875 180.53787231445312 232.5582733154297 184.14073181152344 236.3588409423828 C 183.510986328125 240.5187530517578 186.6940460205078 245.79685974121094 189.0074920654297 252.6921844482422 C 193.79901123046875 260.3290100097656 193.4231719970703 260.7928161621094 212.84481811523438 268.87939453125 C 215.27713012695312 265.904541015625 207.77774047851562 281.71331787109375 184.3794708251953 271.34844970703125 C 187.68801879882812 273.1256408691406 184.79776000976562 274.0926208496094 181.5596923828125 268.01318359375 C 182.07455444335938 269.8189697265625 185.79296875 273.2091064453125 182.55279541015625 270.9015197753906 C 182.46815490722656 270.34765625 181.6733856201172 269.61962890625 180.993408203125 268.9226989746094 C 181.7761688232422 264.92327880859375 180.28347778320312 261.4970703125 177.44903564453125 257.08392333984375 C 176.94483947753906 255.59884643554688 176.18038940429688 252.7798309326172 174.11215209960938 248.33010864257812 C 160.68023681640625 234.21815490722656 161.45468139648438 241.6155548095703 167.20773315429688 226.6250457763672 C 166.896240234375 224.3671875 140.1812744140625 214.0021514892578 129.53451538085938 196.70050048828125" stroke-width="0.0" fill="rgb(0, 0, 0)" opacity="1.0" stroke="rgb(0, 0, 0)" stroke-opacity="1" stroke-linecap="round" stroke-linejoin="round"/>
    <path d="M 80.4194564819336 282.0831298828125 C 48.404781341552734 294.011474609375 84.52613830566406 271.2293701171875 80.00357055664062 241.47923278808594 C 75.39408874511719 242.1575469970703 80.5678482055664 249.70057678222656 80.49072265625 240.5541534423828 C 82.08393859863281 251.38375854492188 80.84440612792969 254.31399536132812 80.78800964355469 237.882080078125 C 77.536376953125 215.86854553222656 91.59741973876953 242.4991912841797 95.70018005371094 222.86883544921875 C 78.2188720703125 221.0756072998047 84.05266571044922 230.37252807617188 101.10562896728516 202.21621704101562 C 99.32705688476562 200.32957458496094 95.78768920898438 198.65843200683594 92.86000061035156 192.7331085205078 C 97.93019104003906 181.56756591796875 107.31822967529297 147.27590942382812 91.08358764648438 155.32862854003906 C 107.28832244873047 136.43325805664062 111.1729507446289 137.29042053222656 105.87300109863281 140.3837890625 C 116.35102081298828 131.43746948242188 121.3387451171875 139.05337524414062 117.99988555908203 128.12713623046875 C 128.43299865722656 111.37811279296875 129.3238525390625 102.58287048339844 123.65088653564453 83.0194320678711 C 128.37652587890625 97.81854248046875 129.0371856689453 101.51465606689453 134.93972778320312 114.8040771484375 C 141.4781036376953 124.5466079711914 141.69154357910156 125.64341735839844 143.6717987060547 132.5382537841797 C 153.0374755859375 130.8249969482422 157.52928161621094 132.19839477539062 157.1915740966797 134.61036682128906 C 163.35067749023438 138.11410522460938 145.83189392089844 135.734130859375 165.94845581054688 165.13821411132812 C 158.05419921875 163.05319213867188 147.9033660888672 161.134033203125 145.47535705566406 183.36618041992188 C 142.9296417236328 179.03834533691406 135.71633911132812 184.5209503173828 147.78526306152344 209.17327880859375 C 137.0476837158203 264.4734191894531 162.8065948486328 264.5303649902344 98.89897918701172 226.7278594970703 C 113.8658676147461 263.9685974121094 96.39287567138672 222.23353576660156 80.4194564819336 282.0831298828125" stroke-width="0.0" fill="rgb(0, 0, 0)" opacity="1.0" stroke="rgb(0, 0, 0)" stroke-opacity="1" stroke-linecap="round" stroke-linejoin="round"/>
  </g>
</svg>
