<?xml version="1.0" ?>
<svg xmlns="http://www.w3.org/2000/svg" version="1.1" width="320" height="320">
  <defs/>
  <g>
    <path d="M 123.99295043945312 170.9989013671875 C 140.53073120117188 153.32257080078125 163.53790283203125 144.8799591064453 174.35641479492188 136.84413146972656 C 192.60398864746094 124.71539306640625 202.11773681640625 119.82994079589844 208.57412719726562 115.13285064697266 C 215.36569213867188 110.92044067382812 218.89328002929688 108.5362319946289 222.96878051757812 106.2955093383789 C 225.1993865966797 104.23287200927734 244.13682556152344 94.7774658203125 251.03628540039062 88.9757080078125 C 254.47512817382812 87.73824310302734 256.1203308105469 86.10946655273438 260.906982421875 85.47358703613281 C 263.64019775390625 89.47545623779297 255.77980041503906 84.91580963134766 258.9470520019531 89.12508392333984 C 252.0933380126953 90.13385772705078 249.5497283935547 101.33068084716797 244.4462890625 100.18868255615234 C 245.41534423828125 103.16896057128906 241.96641540527344 101.7829360961914 242.43870544433594 103.49063110351562 C 231.53321838378906 112.51976776123047 231.5421600341797 114.67871856689453 226.91796875 117.42201232910156 C 220.91018676757812 121.23573303222656 214.7698516845703 125.36173248291016 208.8279266357422 129.17213439941406 C 199.53155517578125 134.57176208496094 183.27157592773438 144.63682556152344 175.06878662109375 149.24281311035156 C 167.87338256835938 154.92430114746094 149.3114013671875 161.9325408935547 146.70472717285156 165.264892578125 C 155.79132080078125 178.0820770263672 163.83485412597656 199.3971405029297 175.7701873779297 211.37832641601562 C 167.67315673828125 219.68753051757812 167.4709014892578 221.05722045898438 169.5138702392578 226.63162231445312 C 168.4847412109375 232.5025634765625 171.3624267578125 239.2458038330078 172.2078094482422 246.4102020263672 C 178.1145782470703 250.77883911132812 179.3113555908203 252.60826110839844 192.91717529296875 259.0440979003906 C 195.79014587402344 254.4225616455078 192.79693603515625 264.5616149902344 177.61410522460938 261.8841552734375 C 179.61181640625 262.37164306640625 178.60179138183594 263.14251708984375 174.00335693359375 262.127197265625 C 172.83612060546875 262.1757507324219 174.83920288085938 263.1313171386719 170.1787567138672 261.84710693359375 C 171.87649536132812 261.9403991699219 169.8694610595703 260.9885559082031 168.26068115234375 260.4916687011719 C 165.6747589111328 259.414306640625 163.92555236816406 257.4482421875 162.6626434326172 253.32334899902344 C 160.885986328125 249.12747192382812 159.9102783203125 244.33514404296875 159.06130981445312 238.836181640625 C 149.3236541748047 225.90106201171875 149.9322509765625 221.94581604003906 156.26963806152344 212.24571228027344 C 156.72723388671875 209.81468200683594 132.91445922851562 192.99378967285156 123.99295043945312 170.9989013671875" stroke-width="0.0" fill="rgb(0, 0, 0)" opacity="1.0" stroke="rgb(0, 0, 0)" stroke-opacity="1" stroke-linecap="round" stroke-linejoin="round"/>
    <path d="M 96.44178009033203 274.58624267578125 C 70.42581176757812 283.6584167480469 95.61244201660156 268.08197021484375 92.77698516845703 237.17958068847656 C 93.14826202392578 233.3548583984375 84.3586196899414 235.40438842773438 86.01451110839844 235.28448486328125 C 90.21656799316406 234.021240234375 89.82156372070312 237.6519317626953 92.38745880126953 228.37205505371094 C 84.96640014648438 206.67477416992188 100.5931167602539 232.404052734375 103.25651550292969 209.99472045898438 C 81.05933380126953 210.31912231445312 88.0235366821289 222.71737670898438 99.62203216552734 189.91433715820312 C 104.92982482910156 175.3174591064453 107.52110290527344 168.5447540283203 110.94131469726562 163.58287048339844 C 100.7891616821289 144.3499755859375 111.30265045166016 125.13855743408203 97.9066390991211 130.4276123046875 C 105.76412963867188 119.1126937866211 109.9986801147461 116.74797821044922 113.04975128173828 114.61747741699219 C 122.15882873535156 108.91675567626953 128.2270965576172 115.13887023925781 122.95309448242188 106.05387115478516 C 130.29837036132812 93.20113372802734 135.16493225097656 90.31068420410156 135.1577911376953 69.37411499023438 C 136.60752868652344 78.34873962402344 137.59963989257812 83.14039611816406 144.6883544921875 97.35212707519531 C 149.416259765625 107.13070678710938 143.2056121826172 120.02484130859375 145.64035034179688 113.82089233398438 C 154.22650146484375 115.5643310546875 159.2667999267578 115.23858642578125 157.2637176513672 115.05195617675781 C 157.6564178466797 119.85799407958984 146.9700469970703 121.71953582763672 164.5679168701172 145.9796142578125 C 155.2176971435547 145.7194366455078 148.1894073486328 147.92828369140625 144.7836456298828 160.2186279296875 C 143.07882690429688 158.77902221679688 137.40582275390625 162.8887176513672 150.16851806640625 196.6463165283203 C 136.9858856201172 234.85919189453125 158.48573303222656 233.84495544433594 107.38750457763672 211.46107482910156 C 125.4317855834961 242.8993377685547 103.44990539550781 219.10006713867188 96.44178009033203 274.58624267578125" stroke-width="0.0" fill="rgb(0, 0, 0)" opacity="1.0" stroke="rgb(0, 0, 0)" stroke-opacity="1" stroke-linecap="round" stroke-linejoin="round"/>
  </g>
</svg>
