<?xml version="1.0" ?>
<svg xmlns="http://www.w3.org/2000/svg" version="1.1" width="320" height="320">
  <defs/>
  <g>
    <path d="M 142.2540283203125 196.23744201660156 C 157.17262268066406 179.6444549560547 181.10260009765625 168.9155731201172 192.6538848876953 161.118408203125 C 212.3511962890625 148.21945190429688 219.85537719726562 144.1382293701172 224.801513671875 140.9605712890625 C 230.00033569335938 138.3389892578125 231.99334716796875 137.01458740234375 234.59078979492188 135.6368865966797 C 235.51333618164062 134.67994689941406 256.5679016113281 123.64138793945312 261.5821228027344 117.48896026611328 C 263.76025390625 113.04312133789062 265.609619140625 111.72236633300781 266.35113525390625 110.03239440917969 C 257.9299621582031 103.9063720703125 265.205810546875 108.62051391601562 266.55718994140625 110.05929565429688 C 264.1267395019531 110.88574981689453 263.6305236816406 121.35049438476562 257.5275573730469 120.9427490234375 C 256.5794982910156 120.51387786865234 257.22381591796875 121.99476623535156 257.5484924316406 122.80926513671875 C 240.59840393066406 139.71539306640625 240.8194122314453 141.65480041503906 237.8848114013672 143.4412078857422 C 233.61788940429688 146.32611083984375 229.95565795898438 149.1543426513672 226.23988342285156 152.10098266601562 C 218.58375549316406 156.57464599609375 200.74423217773438 168.4524383544922 192.78366088867188 172.35086059570312 C 185.79393005371094 178.45501708984375 166.49151611328125 188.11526489257812 163.65805053710938 191.74545288085938 C 168.95159912109375 199.62705993652344 177.286376953125 214.32540893554688 192.08578491210938 222.63270568847656 C 185.3683319091797 232.50833129882812 185.42237854003906 233.76895141601562 188.72750854492188 238.1476287841797 C 187.76138305664062 242.8850860595703 190.3694610595703 248.55978393554688 191.5266571044922 255.0266571044922 C 195.3953857421875 261.36224365234375 195.36282348632812 262.92388916015625 213.98211669921875 270.97137451171875 C 216.12728881835938 268.05322265625 209.79554748535156 281.1818542480469 190.86636352539062 272.5635681152344 C 192.33447265625 273.6975402832031 189.08763122558594 274.9321594238281 185.08790588378906 271.02325439453125 C 185.16867065429688 271.54486083984375 188.31173706054688 273.92230224609375 183.91094970703125 271.3387145996094 C 185.1865234375 271.6559143066406 183.6045684814453 270.2148132324219 182.47979736328125 268.9910888671875 C 183.23223876953125 265.88433837890625 182.1589813232422 262.5497131347656 179.83860778808594 258.6764221191406 C 179.44619750976562 256.84197998046875 178.9523162841797 254.2838897705078 177.59408569335938 250.03640747070312 C 165.7566680908203 235.27223205566406 166.0306854248047 241.7587432861328 172.31881713867188 227.02310180664062 C 172.19285583496094 224.57485961914062 150.00611877441406 214.17578125 142.2540283203125 196.23744201660156" stroke-width="0.0" fill="rgb(0, 0, 0)" opacity="1.0" stroke="rgb(0, 0, 0)" stroke-opacity="1" stroke-linecap="round" stroke-linejoin="round"/>
    <path d="M 79.99232482910156 285.38970947265625 C 49.099220275878906 295.6455993652344 83.56334686279297 272.631103515625 82.53479766845703 243.3701171875 C 84.79656982421875 244.31521606445312 81.25299835205078 239.46307373046875 82.14290618896484 245.12832641601562 C 82.78659057617188 246.22145080566406 77.7281265258789 245.31716918945312 83.90446472167969 241.05352783203125 C 81.28211212158203 215.38351440429688 93.3977279663086 245.21484375 100.02371215820312 224.93064880371094 C 82.46318054199219 222.83175659179688 88.67565155029297 235.06924438476562 105.34471130371094 202.59548950195312 C 113.22087860107422 189.34271240234375 113.79379272460938 183.22555541992188 113.82030487060547 185.08059692382812 C 110.8405532836914 168.91757202148438 111.59326171875 159.03750610351562 103.44326782226562 162.10328674316406 C 116.48196411132812 143.07460021972656 122.81863403320312 144.4818115234375 117.60496520996094 145.57138061523438 C 128.41323852539062 137.61996459960938 129.71722412109375 143.96217346191406 127.39198303222656 133.31675720214844 C 141.53390502929688 115.66580200195312 136.4129638671875 109.09468841552734 137.98837280273438 99.48655700683594 C 138.53013610839844 101.09489440917969 136.1455841064453 99.92633056640625 144.22479248046875 118.67308807373047 C 153.02316284179688 130.30465698242188 152.7317657470703 135.83580017089844 154.03045654296875 133.47216796875 C 153.69366455078125 139.7802734375 160.79103088378906 133.3324737548828 165.51980590820312 137.46682739257812 C 171.16934204101562 140.52587890625 154.30938720703125 140.7833709716797 174.21510314941406 167.12973022460938 C 167.0917510986328 167.38394165039062 154.93557739257812 166.18772888183594 154.9568634033203 189.10238647460938 C 153.4455108642578 185.5185546875 148.23611450195312 185.54974365234375 159.35897827148438 216.92236328125 C 149.1791534423828 273.75787353515625 176.5981903076172 269.5550842285156 103.4384536743164 229.4097900390625 C 115.4640884399414 264.50421142578125 100.97096252441406 225.96224975585938 79.99232482910156 285.38970947265625" stroke-width="0.0" fill="rgb(0, 0, 0)" opacity="1.0" stroke="rgb(0, 0, 0)" stroke-opacity="1" stroke-linecap="round" stroke-linejoin="round"/>
  </g>
</svg>
