<?xml version="1.0" ?>
<svg xmlns="http://www.w3.org/2000/svg" version="1.1" width="320" height="320">
  <defs/>
  <g>
    <path d="M 126.7882080078125 169.9601593017578 C 144.84146118164062 152.10671997070312 166.98768615722656 147.35580444335938 178.3952178955078 140.50643920898438 C 197.25022888183594 127.98152160644531 206.8175506591797 123.17181396484375 213.06947326660156 119.17657470703125 C 219.25387573242188 115.53942108154297 222.15859985351562 113.23882293701172 225.81846618652344 111.43580627441406 C 228.0712432861328 109.30058288574219 248.19680786132812 98.90127563476562 257.51080322265625 95.26113891601562 C 262.4637756347656 91.52985382080078 267.2386474609375 90.949462890625 273.0546569824219 84.18772888183594 C 277.3578186035156 92.60899353027344 263.6654052734375 87.06468200683594 267.7144775390625 94.37810516357422 C 258.41595458984375 96.10856628417969 256.19366455078125 105.69375610351562 252.5637969970703 104.9309310913086 C 253.21119689941406 108.53446960449219 249.8728485107422 106.96199035644531 250.1060028076172 108.98212432861328 C 234.76023864746094 119.0360107421875 234.62628173828125 120.06372833251953 230.42120361328125 122.66033172607422 C 224.73486328125 125.81502532958984 219.11306762695312 129.6116485595703 213.4137420654297 132.7981414794922 C 203.8919677734375 137.8448486328125 186.70388793945312 148.22671508789062 178.19525146484375 152.91053771972656 C 170.23931884765625 157.39669799804688 153.26292419433594 162.00701904296875 151.0142059326172 164.8692169189453 C 160.10467529296875 178.3053741455078 167.9669647216797 201.46884155273438 179.2631378173828 213.83151245117188 C 171.03611755371094 221.35174560546875 170.78614807128906 222.52310180664062 172.62643432617188 228.57998657226562 C 171.2091522216797 234.36572265625 173.60633850097656 241.07546997070312 173.95626831054688 248.14834594726562 C 178.8546905517578 252.41354370117188 180.17051696777344 254.5685577392578 194.80227661132812 261.4971008300781 C 197.74998474121094 257.7421875 193.78912353515625 268.3427734375 177.70481872558594 264.2079162597656 C 180.86572265625 264.87109375 179.8545684814453 265.43389892578125 174.23655700683594 264.0393371582031 C 171.99391174316406 263.9183654785156 174.5794677734375 265.0736389160156 169.40750122070312 263.6859436035156 C 171.91952514648438 263.8000183105469 168.98828125 263.3976745605469 167.31495666503906 262.8083801269531 C 165.54017639160156 261.1777038574219 164.3987274169922 258.3669738769531 163.71180725097656 253.71331787109375 C 162.3751678466797 250.32839965820312 161.8048553466797 245.46189880371094 161.00860595703125 240.34860229492188 C 152.7447052001953 227.1864776611328 153.66162109375 223.03494262695312 160.40704345703125 213.52536010742188 C 160.86412048339844 211.19619750976562 136.072509765625 193.22410583496094 126.7882080078125 169.9601593017578" stroke-width="0.0" fill="rgb(0, 0, 0)" opacity="1.0" stroke="rgb(0, 0, 0)" stroke-opacity="1" stroke-linecap="round" stroke-linejoin="round"/>
    <path d="M 98.80157470703125 277.9862365722656 C 70.08452606201172 285.52734375 97.94693756103516 270.1310119628906 95.51578521728516 236.01409912109375 C 96.49504852294922 235.72686767578125 89.80119323730469 234.38235473632812 92.58573913574219 236.09457397460938 C 93.6355972290039 234.5621337890625 90.97757720947266 240.03219604492188 96.54763793945312 231.1028289794922 C 90.33889770507812 205.91920471191406 105.90496063232422 235.10321044921875 108.01251983642578 210.9683380126953 C 86.2005615234375 209.52688598632812 91.5235824584961 227.02247619628906 104.039794921875 192.91136169433594 C 109.4303207397461 180.24269104003906 110.89089965820312 170.4624481201172 117.51123809814453 163.45030212402344 C 108.09242248535156 142.3800048828125 119.58129119873047 123.35920715332031 105.10626983642578 130.17147827148438 C 109.54173278808594 123.408447265625 113.7993392944336 119.32852172851562 116.2362289428711 117.60157775878906 C 125.45732116699219 108.25579833984375 136.99151611328125 115.6392593383789 130.9933319091797 107.98562622070312 C 135.86795043945312 96.81156921386719 144.36341857910156 96.1539306640625 144.53707885742188 69.53133392333984 C 145.1748809814453 76.01249694824219 146.4698028564453 80.1576156616211 154.43321228027344 96.12130737304688 C 159.4692840576172 106.8863754272461 151.63916015625 122.52703857421875 154.315185546875 112.76667022705078 C 153.38201904296875 117.65118408203125 161.9185333251953 116.97782135009766 163.9125213623047 116.91838073730469 C 163.9967041015625 122.90892028808594 154.1770782470703 121.11817169189453 170.5623321533203 147.09982299804688 C 157.31344604492188 146.76840209960938 152.941162109375 151.5752410888672 149.58978271484375 164.39073181152344 C 144.5784454345703 160.13232421875 141.1720733642578 164.5363006591797 156.5333709716797 202.43299865722656 C 140.70693969726562 242.13491821289062 166.0931854248047 234.19252014160156 111.01811218261719 212.48565673828125 C 131.5479736328125 249.13003540039062 106.4425277709961 217.82130432128906 98.80157470703125 277.9862365722656" stroke-width="0.0" fill="rgb(0, 0, 0)" opacity="1.0" stroke="rgb(0, 0, 0)" stroke-opacity="1" stroke-linecap="round" stroke-linejoin="round"/>
  </g>
</svg>
