<?xml version="1.0" ?>
<svg xmlns="http://www.w3.org/2000/svg" version="1.1" width="320" height="320">
  <defs/>
  <g>
    <path d="M 157.97360229492188 202.14675903320312 C 170.52243041992188 188.91909790039062 192.71145629882812 179.40200805664062 205.81625366210938 170.2886505126953 C 224.9017333984375 159.5896453857422 234.40103149414062 155.0369415283203 240.35621643066406 151.1555938720703 C 245.91748046875 147.65158081054688 248.31704711914062 145.64532470703125 252.2818603515625 144.0925750732422 C 254.8479766845703 142.33041381835938 276.4717712402344 134.81768798828125 288.4455261230469 127.30415344238281 C 290.94049072265625 124.28260803222656 292.25494384765625 123.28091430664062 294.5897216796875 120.93569946289062 C 299.52349853515625 126.68008422851562 293.2978210449219 119.94033813476562 295.12310791015625 122.28065490722656 C 292.62457275390625 122.53978729248047 288.83026123046875 134.89718627929688 282.9828186035156 133.67156982421875 C 282.58526611328125 139.6667938232422 275.9702453613281 136.76992797851562 276.9174499511719 139.85986328125 C 261.2322998046875 151.2753448486328 261.0337219238281 153.03079223632812 256.4560546875 155.35574340820312 C 251.59886169433594 158.6473846435547 246.52059936523438 161.97006225585938 241.17384338378906 164.82345581054688 C 231.92599487304688 169.7877960205078 215.57415771484375 179.55372619628906 206.42845153808594 184.80612182617188 C 197.90054321289062 191.19003295898438 178.25111389160156 198.32142639160156 174.833984375 201.70762634277344 C 176.82955932617188 207.13406372070312 181.51072692871094 217.5973358154297 197.3794708251953 225.87051391601562 C 189.8116455078125 235.04693603515625 189.5914306640625 236.76242065429688 191.07814025878906 241.773193359375 C 191.29483032226562 247.61842346191406 193.97854614257812 253.56321716308594 195.4952392578125 259.7101135253906 C 200.44631958007812 265.4900207519531 200.13575744628906 267.2732238769531 217.55052185058594 275.6368713378906 C 220.63658142089844 270.405517578125 215.54852294921875 283.9386901855469 197.57423400878906 276.2403259277344 C 194.6545867919922 275.66021728515625 189.31927490234375 276.8636779785156 187.0670166015625 273.6368713378906 C 186.1538848876953 272.83941650390625 185.7161102294922 271.6454162597656 187.7535400390625 276.9761657714844 C 189.41458129882812 277.19073486328125 186.58328247070312 275.74444580078125 184.42605590820312 274.28887939453125 C 185.40017700195312 271.3873596191406 185.1578369140625 267.44921875 183.83670043945312 263.4632873535156 C 183.28379821777344 261.82861328125 182.5433807373047 259.161376953125 181.7594451904297 255.10272216796875 C 172.01329040527344 243.87071228027344 172.3986053466797 237.5743408203125 176.50628662109375 227.5238800048828 C 176.73501586914062 226.02578735351562 161.8874053955078 215.73599243164062 157.97360229492188 202.14675903320312" stroke-width="0.0" fill="rgb(0, 0, 0)" opacity="1.0" stroke="rgb(0, 0, 0)" stroke-opacity="1" stroke-linecap="round" stroke-linejoin="round"/>
    <path d="M 80.81890106201172 293.2326354980469 C 48.533138275146484 303.4267272949219 90.39122009277344 273.6430969238281 85.51411437988281 246.75169372558594 C 83.42390441894531 249.93722534179688 90.06297302246094 247.32247924804688 82.42730712890625 249.99302673339844 C 87.3516616821289 247.01832580566406 81.44847106933594 249.92825317382812 87.31475830078125 244.15383911132812 C 88.3265380859375 219.57907104492188 97.17669677734375 249.2127685546875 104.33131408691406 230.31077575683594 C 89.31421661376953 228.1306610107422 95.03065490722656 237.0403289794922 111.49525451660156 206.53829956054688 C 119.93458557128906 191.97113037109375 124.4544677734375 184.37257385253906 124.2500991821289 189.19796752929688 C 125.41889190673828 177.14561462402344 126.38704681396484 166.7156219482422 118.05575561523438 170.5167236328125 C 130.964111328125 151.30738830566406 139.8860626220703 150.26853942871094 137.86373901367188 151.2675018310547 C 143.47093200683594 147.9236602783203 141.88697814941406 151.3030242919922 142.40538024902344 143.6502227783203 C 164.06756591796875 125.07557678222656 154.72813415527344 115.0048599243164 158.0043487548828 112.06523895263672 C 157.4368133544922 114.86726379394531 155.02146911621094 106.89938354492188 159.5194549560547 119.97520446777344 C 171.2889404296875 139.58782958984375 169.96173095703125 136.57374572753906 170.77740478515625 146.9298095703125 C 180.6303253173828 144.85098266601562 175.4578399658203 148.77191162109375 175.68997192382812 148.79527282714844 C 181.75027465820312 146.23291015625 162.82211303710938 149.06182861328125 182.10122680664062 177.39964294433594 C 183.78558349609375 174.10647583007812 165.0908660888672 173.33009338378906 166.42556762695312 200.1922149658203 C 166.42776489257812 194.55252075195312 167.64776611328125 193.21429443359375 180.98764038085938 234.41722106933594 C 165.51397705078125 286.8116455078125 194.4221954345703 274.1860656738281 108.8083724975586 232.77432250976562 C 116.0123519897461 272.39031982421875 105.36298370361328 229.5175323486328 80.81890106201172 293.2326354980469" stroke-width="0.0" fill="rgb(0, 0, 0)" opacity="1.0" stroke="rgb(0, 0, 0)" stroke-opacity="1" stroke-linecap="round" stroke-linejoin="round"/>
  </g>
</svg>
