<?xml version="1.0" ?>
<svg xmlns="http://www.w3.org/2000/svg" version="1.1" width="320" height="320">
  <defs/>
  <g>
    <path d="M 126.15460968017578 170.7468719482422 C 143.7824249267578 153.27426147460938 166.71295166015625 146.48904418945312 178.06845092773438 138.54417419433594 C 196.91806030273438 126.28124237060547 206.50448608398438 121.6020736694336 212.77391052246094 117.23889923095703 C 219.1878662109375 113.65287017822266 222.21788024902344 111.6358871459961 225.5636444091797 109.47399139404297 C 227.94290161132812 107.42916870117188 247.66656494140625 96.70244598388672 256.7696533203125 93.5531005859375 C 260.6051025390625 90.35133361816406 263.8934020996094 89.62686157226562 267.4455261230469 85.48773193359375 C 271.0245361328125 91.6059341430664 262.03192138671875 87.13697814941406 265.5431823730469 92.88968658447266 C 257.4268798828125 93.90276336669922 254.89199829101562 104.58759307861328 251.09255981445312 103.55864715576172 C 251.84823608398438 106.3361587524414 248.2582550048828 104.73812866210938 248.53366088867188 106.74761199951172 C 234.55555725097656 116.0845718383789 234.42578125 117.8365249633789 230.170654296875 120.4371109008789 C 224.42942810058594 123.8613510131836 218.80921936035156 127.53423309326172 213.312744140625 131.08827209472656 C 203.76712036132812 136.2055206298828 186.88156127929688 146.54745483398438 178.14520263671875 151.0799560546875 C 170.56741333007812 156.42393493652344 152.09251403808594 162.27073669433594 149.4766387939453 165.4496612548828 C 158.78843688964844 179.05328369140625 167.02488708496094 201.5535430908203 178.56390380859375 213.21827697753906 C 170.2677459716797 220.97811889648438 169.9389190673828 222.27328491210938 172.0847930908203 228.40786743164062 C 170.63758850097656 234.4142303466797 172.93824768066406 240.97203063964844 173.6588592529297 247.87002563476562 C 179.5675048828125 252.48941040039062 180.38314819335938 254.45663452148438 195.14833068847656 261.0316467285156 C 197.77667236328125 257.3113098144531 194.1520233154297 267.9416198730469 178.67832946777344 263.8753967285156 C 180.5065460205078 264.3546142578125 179.3289794921875 265.3067321777344 174.02809143066406 263.0812683105469 C 172.8553924560547 263.02532958984375 175.06385803222656 264.2748107910156 170.71604919433594 263.2598876953125 C 172.88270568847656 263.7045593261719 170.31224060058594 263.1400451660156 168.6021728515625 262.6612548828125 C 166.34487915039062 261.21038818359375 164.8728485107422 258.6754150390625 163.89599609375 254.26028442382812 C 162.32533264160156 250.4853515625 161.49609375 245.7998046875 160.62136840820312 240.38026428222656 C 151.95498657226562 227.2408447265625 153.014892578125 222.8091583251953 159.6564483642578 213.25111389160156 C 160.02984619140625 211.19100952148438 135.54981994628906 193.73541259765625 126.15460968017578 170.7468719482422" stroke-width="0.0" fill="rgb(0, 0, 0)" opacity="1.0" stroke="rgb(0, 0, 0)" stroke-opacity="1" stroke-linecap="round" stroke-linejoin="round"/>
    <path d="M 98.27789306640625 276.48638916015625 C 70.59619903564453 284.41705322265625 97.82111358642578 269.7534484863281 94.32613372802734 237.78321838378906 C 96.4649887084961 234.90525817871094 89.4183578491211 235.90907287597656 92.6517333984375 236.1539306640625 C 90.95069122314453 234.0668182373047 90.54906463623047 238.4559783935547 94.49303436279297 230.27145385742188 C 88.81519317626953 206.11474609375 104.42190551757812 234.46836853027344 106.43378448486328 210.92391967773438 C 85.42583465576172 210.63563537597656 91.3349838256836 224.9896240234375 102.88742065429688 191.36611938476562 C 108.16412353515625 177.7450714111328 110.12789154052734 169.23837280273438 115.3377685546875 164.135986328125 C 105.0233154296875 145.54495239257812 116.68950653076172 125.01720428466797 101.89486694335938 131.27926635742188 C 109.14401245117188 121.23936462402344 114.64967346191406 116.96450805664062 116.09063720703125 115.8749008178711 C 123.90194702148438 109.1591567993164 134.56570434570312 115.62761688232422 127.3329086303711 107.25823211669922 C 133.9160614013672 94.68492126464844 141.53726196289062 93.54694366455078 141.75926208496094 69.43275451660156 C 142.58425903320312 77.41931915283203 144.1017303466797 82.596923828125 150.7425994873047 97.0081787109375 C 156.22378540039062 106.58159637451172 147.7139434814453 120.75603485107422 151.73512268066406 114.34280395507812 C 152.7401580810547 116.60424041748047 160.13352966308594 117.77163696289062 162.36119079589844 115.9078369140625 C 161.1602020263672 122.77462768554688 151.5141143798828 121.32337188720703 169.52365112304688 148.73770141601562 C 157.031982421875 145.7585906982422 152.11788940429688 149.90646362304688 147.54197692871094 161.88092041015625 C 147.4044189453125 160.0067901611328 143.08302307128906 162.9452667236328 154.63885498046875 200.103759765625 C 139.1333770751953 239.5394744873047 164.33338928222656 236.1925811767578 109.53763580322266 212.6910400390625 C 130.0218963623047 247.91455078125 105.29051971435547 216.6461181640625 98.27789306640625 276.48638916015625" stroke-width="0.0" fill="rgb(0, 0, 0)" opacity="1.0" stroke="rgb(0, 0, 0)" stroke-opacity="1" stroke-linecap="round" stroke-linejoin="round"/>
  </g>
</svg>
