<?xml version="1.0" ?>
<svg xmlns="http://www.w3.org/2000/svg" version="1.1" width="320" height="320">
  <defs/>
  <g>
    <path d="M 124.6865463256836 170.76065063476562 C 141.82447814941406 153.29013061523438 165.14682006835938 145.44500732421875 176.63916015625 137.72430419921875 C 195.24391174316406 125.17774963378906 204.83297729492188 120.33724212646484 211.12596130371094 115.74844360351562 C 217.56285095214844 111.93502807617188 220.64303588867188 109.8648910522461 223.94444274902344 107.80551147460938 C 226.197998046875 105.44535064697266 246.60205078125 95.8565902709961 254.63731384277344 90.93282318115234 C 258.1430358886719 87.90962982177734 261.2500915527344 87.28361511230469 264.16748046875 83.86140441894531 C 267.9906005859375 89.13692474365234 260.5823974609375 83.9113998413086 263.54156494140625 88.17686462402344 C 255.55313110351562 90.09497833251953 253.71897888183594 101.37924194335938 247.74607849121094 100.58132934570312 C 248.90464782714844 103.30661010742188 245.1066436767578 102.26484680175781 245.7173309326172 104.0034408569336 C 234.54066467285156 115.31312561035156 232.66439819335938 115.16323852539062 228.80130004882812 118.2188720703125 C 222.98081970214844 121.97373962402344 217.2161102294922 125.92698669433594 211.4898681640625 129.51434326171875 C 202.1841278076172 134.99058532714844 185.38941955566406 145.39105224609375 176.79176330566406 149.88771057128906 C 169.37008666992188 155.45164489746094 150.5043182373047 162.1594696044922 147.9365997314453 165.47821044921875 C 157.14633178710938 178.58216857910156 165.3096466064453 200.47769165039062 177.28872680664062 212.22622680664062 C 169.09768676757812 220.4008331298828 168.79428100585938 221.85935974121094 170.8195037841797 227.79931640625 C 169.7772216796875 233.55606079101562 172.30320739746094 239.9697265625 173.1169891357422 247.07070922851562 C 178.8914031982422 251.80857849121094 179.96688842773438 253.55679321289062 194.12620544433594 259.85333251953125 C 196.8362579345703 255.55810546875 193.63714599609375 266.6327209472656 178.7083740234375 263.50006103515625 C 180.4753875732422 264.0125427246094 179.918212890625 264.26068115234375 175.03054809570312 262.83514404296875 C 173.6192626953125 263.0077209472656 175.41964721679688 263.8485412597656 170.8787384033203 262.7052917480469 C 172.83953857421875 263.2252502441406 170.41604614257812 262.07208251953125 168.35585021972656 261.57012939453125 C 165.950439453125 260.1534118652344 164.4851837158203 257.84295654296875 163.6156768798828 253.31594848632812 C 162.0953369140625 249.44741821289062 161.11949157714844 244.83758544921875 160.19183349609375 239.52386474609375 C 150.8180389404297 226.47108459472656 151.66163635253906 222.52040100097656 157.87586975097656 212.64720153808594 C 158.21063232421875 210.75054931640625 133.92579650878906 193.5994415283203 124.6865463256836 170.76065063476562" stroke-width="0.0" fill="rgb(0, 0, 0)" opacity="1.0" stroke="rgb(0, 0, 0)" stroke-opacity="1" stroke-linecap="round" stroke-linejoin="round"/>
    <path d="M 97.38831329345703 275.66131591796875 C 70.233154296875 284.8939208984375 96.69161224365234 268.2778625488281 93.44825744628906 238.15553283691406 C 94.20743560791016 234.12847900390625 87.58106994628906 234.67762756347656 86.53153991699219 233.89842224121094 C 92.68158721923828 234.861083984375 90.33300018310547 238.1317596435547 93.44479370117188 229.82606506347656 C 86.16400909423828 206.3759307861328 102.01974487304688 234.16006469726562 104.80640411376953 210.5478515625 C 83.2467041015625 210.67127990722656 89.4274673461914 224.5217742919922 101.31405639648438 189.98158264160156 C 106.53428649902344 175.93777465820312 108.6363754272461 168.40501403808594 112.80351257324219 164.63380432128906 C 102.45259857177734 145.6732177734375 113.14848327636719 125.22024536132812 99.72564697265625 130.96609497070312 C 107.46390533447266 120.03678894042969 112.32203674316406 117.23748016357422 113.88851165771484 114.98165130615234 C 123.05612182617188 109.56507110595703 130.2707977294922 116.34217071533203 124.73736572265625 106.82682037353516 C 132.20693969726562 93.33380126953125 137.8252410888672 91.04759216308594 138.11474609375 69.7969970703125 C 138.76397705078125 78.60771942138672 139.80252075195312 82.73114013671875 146.8055877685547 96.83692169189453 C 152.1101837158203 106.67797088623047 144.91050720214844 121.42909240722656 148.088623046875 113.788818359375 C 153.4924774169922 116.16873931884766 160.5864715576172 116.93212890625 159.84030151367188 115.23820495605469 C 160.0378875732422 120.21045684814453 148.83544921875 120.83033752441406 166.80450439453125 147.5824737548828 C 156.7259979248047 145.6292724609375 150.35386657714844 148.54444885253906 146.41090393066406 161.16822814941406 C 143.86245727539062 159.24098205566406 138.8594207763672 163.34349060058594 151.5208740234375 198.18780517578125 C 137.80824279785156 237.10418701171875 160.71604919433594 234.9796142578125 108.27664947509766 212.25450134277344 C 127.7672119140625 246.068603515625 104.1671142578125 217.32220458984375 97.38831329345703 275.66131591796875" stroke-width="0.0" fill="rgb(0, 0, 0)" opacity="1.0" stroke="rgb(0, 0, 0)" stroke-opacity="1" stroke-linecap="round" stroke-linejoin="round"/>
  </g>
</svg>
