<?xml version="1.0" ?>
<svg xmlns="http://www.w3.org/2000/svg" version="1.1" width="320" height="320">
  <defs/>
  <g>
    <path d="M 94.5119857788086 178.26239013671875 C 115.7919921875 154.2290802001953 150.68666076660156 143.95346069335938 163.62982177734375 138.14466857910156 C 185.1944122314453 127.77509307861328 193.00474548339844 124.60226440429688 198.03851318359375 121.49584197998047 C 203.36630249023438 119.22258758544922 205.86814880371094 118.03952026367188 208.76551818847656 117.0878677368164 C 210.0156707763672 116.09554290771484 232.7205810546875 106.3726577758789 240.4064178466797 98.87872314453125 C 242.10751342773438 98.47564697265625 243.03187561035156 98.31767272949219 244.40724182128906 98.15391540527344 C 238.23458862304688 91.60128021240234 243.8083038330078 97.5782699584961 244.42613220214844 98.45645904541016 C 235.34579467773438 98.54631805419922 233.2254638671875 108.9049072265625 230.27650451660156 107.96002960205078 C 230.83010864257812 111.63617706298828 226.6969757080078 109.52110290527344 226.94346618652344 111.51986694335938 C 214.4438018798828 119.50533294677734 214.32449340820312 124.1783676147461 210.79718017578125 125.6116943359375 C 206.31288146972656 127.3121109008789 202.52931213378906 129.51004028320312 198.04202270507812 132.06558227539062 C 189.9401397705078 135.89573669433594 170.9677276611328 146.55809020996094 162.42071533203125 149.8981170654297 C 154.4971923828125 154.3888702392578 124.42304992675781 162.45538330078125 122.17550659179688 165.5268096923828 C 137.48406982421875 183.6695098876953 146.8175811767578 204.2722930908203 160.51405334472656 213.95240783691406 C 153.64993286132812 221.71556091308594 153.3754425048828 223.6669158935547 155.43833923339844 229.50267028808594 C 154.65866088867188 235.72000122070312 157.60874938964844 242.14437866210938 158.93505859375 249.79049682617188 C 165.4112548828125 254.32144165039062 166.95761108398438 256.40325927734375 177.069580078125 261.2168884277344 C 179.84426879882812 257.3168029785156 178.13546752929688 265.1673278808594 166.9723663330078 264.68182373046875 C 169.7462615966797 265.1232604980469 168.60336303710938 266.45391845703125 162.89073181152344 265.2008361816406 C 161.7629852294922 265.4570007324219 163.76390075683594 266.2146911621094 160.31468200683594 265.40032958984375 C 161.48802185058594 265.1150817871094 159.73147583007812 264.5082702636719 157.61380004882812 264.1828918457031 C 155.90333557128906 263.544921875 153.23924255371094 261.5461120605469 150.22161865234375 259.0536804199219 C 147.63232421875 254.19418334960938 146.27517700195312 248.78269958496094 145.23013305664062 242.5413818359375 C 136.0203094482422 229.66705322265625 136.77212524414062 224.58799743652344 142.19383239746094 215.151611328125 C 142.415771484375 214.17327880859375 111.32269287109375 203.4129638671875 94.5119857788086 178.26239013671875" stroke-width="0.0" fill="rgb(0, 0, 0)" opacity="1.0" stroke="rgb(0, 0, 0)" stroke-opacity="1" stroke-linecap="round" stroke-linejoin="round"/>
    <path d="M 79.77655792236328 279.0449523925781 C 47.018707275390625 289.41241455078125 79.92138671875 272.2466735839844 76.56246948242188 249.16819763183594 C 77.35359954833984 240.86676025390625 72.4875717163086 241.4999237060547 73.90043640136719 239.0845489501953 C 75.38548278808594 236.42404174804688 73.92101287841797 241.73609924316406 74.68818664550781 237.6594696044922 C 64.96874237060547 212.84690856933594 85.91319274902344 240.66754150390625 83.48172760009766 217.05361938476562 C 58.30476760864258 217.57504272460938 68.87909698486328 227.0565948486328 82.19888305664062 186.13711547851562 C 87.13610076904297 168.1940460205078 91.85099029541016 173.55870056152344 67.26986694335938 170.610107421875 C 56.125389099121094 162.52584838867188 83.66573333740234 134.30174255371094 65.82799530029297 133.83448791503906 C 82.94194793701172 114.30047607421875 88.90374755859375 117.09245300292969 82.35804748535156 118.30113983154297 C 91.83734893798828 114.50045776367188 94.51036834716797 118.33775329589844 91.708984375 109.57501983642578 C 103.30267333984375 87.94770812988281 103.38902282714844 83.15400695800781 102.5750503540039 71.55074310302734 C 109.57866668701172 97.87156677246094 114.44326782226562 95.22434997558594 116.22074127197266 110.7345962524414 C 115.97209167480469 117.48873901367188 113.9546127319336 118.86320495605469 120.60729217529297 117.02338409423828 C 129.4920654296875 117.59171295166016 128.36117553710938 120.037353515625 130.96829223632812 119.84535217285156 C 132.07310485839844 122.54786682128906 121.87615966796875 127.0993423461914 141.58119201660156 154.89027404785156 C 132.7196044921875 149.46783447265625 122.50519561767578 144.98365783691406 123.22514343261719 166.20535278320312 C 126.32658386230469 165.54367065429688 118.66789245605469 165.5703582763672 123.38128662109375 186.66891479492188 C 110.32330322265625 228.3700408935547 131.5371856689453 241.89822387695312 87.82881927490234 220.3136749267578 C 108.65669250488281 253.18458557128906 89.88630676269531 217.97479248046875 79.77655792236328 279.0449523925781" stroke-width="0.0" fill="rgb(0, 0, 0)" opacity="1.0" stroke="rgb(0, 0, 0)" stroke-opacity="1" stroke-linecap="round" stroke-linejoin="round"/>
  </g>
</svg>
