<?xml version="1.0" ?>
<svg xmlns="http://www.w3.org/2000/svg" version="1.1" width="320" height="320">
  <defs/>
  <g>
    <path d="M 127.81983184814453 166.2384033203125 C 146.34507751464844 147.5490264892578 167.59719848632812 146.9063262939453 179.40481567382812 141.3535614013672 C 198.75242614746094 129.57081604003906 207.7340087890625 124.86479187011719 214.1783905029297 120.99349212646484 C 220.17819213867188 117.17135620117188 223.3189239501953 115.06173706054688 226.79847717285156 113.3006362915039 C 229.23965454101562 110.90766906738281 249.73289489746094 102.46797943115234 257.7797546386719 97.96484375 C 263.0858459472656 94.29142761230469 268.0138854980469 94.03215789794922 275.1949462890625 87.31466674804688 C 278.90496826171875 95.61181640625 266.7555236816406 90.30337524414062 270.3824462890625 99.32756042480469 C 259.5312194824219 100.313232421875 256.47412109375 111.41395568847656 252.3307647705078 109.68881225585938 C 252.9530029296875 113.25370025634766 249.41757202148438 111.18546295166016 249.61952209472656 113.17639923095703 C 236.31976318359375 120.87857055664062 236.01663208007812 122.36954498291016 231.5189666748047 124.94239044189453 C 225.787109375 127.87228393554688 220.28599548339844 131.35755920410156 214.37960815429688 134.22866821289062 C 205.21124267578125 139.39183044433594 187.63137817382812 149.5958709716797 178.04824829101562 153.92604064941406 C 168.9736785888672 157.23251342773438 155.47653198242188 160.6647491455078 153.16441345214844 163.1896514892578 C 161.64088439941406 177.46702575683594 169.09716796875 201.02499389648438 180.3748321533203 214.29330444335938 C 171.78372192382812 222.01821899414062 171.68914794921875 222.68540954589844 173.55560302734375 229.4153289794922 C 171.7763214111328 234.9240264892578 173.7012481689453 240.62628173828125 174.01052856445312 248.0577392578125 C 178.76519775390625 252.4304962158203 180.18524169921875 254.83099365234375 195.64404296875 261.6839904785156 C 198.1995391845703 258.1389465332031 194.37672424316406 269.5044860839844 177.86801147460938 264.5619201660156 C 179.94168090820312 264.93463134765625 178.56639099121094 265.9330749511719 173.3515167236328 263.708251953125 C 171.76406860351562 263.75640869140625 173.9320831298828 265.1798400878906 169.28053283691406 263.9745178222656 C 171.68963623046875 264.14520263671875 168.5602569580078 263.6003112792969 167.00550842285156 262.7776794433594 C 165.17251586914062 260.77093505859375 164.3257598876953 257.6026611328125 164.17318725585938 252.8882598876953 C 162.61705017089844 249.70559692382812 162.149169921875 245.33995056152344 161.16305541992188 240.3570098876953 C 153.21923828125 226.4362335205078 154.1142578125 223.0284881591797 160.99351501464844 213.73936462402344 C 161.75587463378906 210.42213439941406 137.0324249267578 190.83721923828125 127.81983184814453 166.2384033203125" stroke-width="0.0" fill="rgb(0, 0, 0)" opacity="1.0" stroke="rgb(0, 0, 0)" stroke-opacity="1" stroke-linecap="round" stroke-linejoin="round"/>
    <path d="M 100.09659576416016 277.06005859375 C 71.1762924194336 283.70147705078125 99.66845703125 271.58929443359375 96.95694732666016 235.442626953125 C 96.89949798583984 234.95726013183594 95.92176055908203 236.93063354492188 93.67823791503906 234.02279663085938 C 92.08023071289062 231.65966796875 94.40593719482422 239.8388214111328 98.14705657958984 230.89697265625 C 93.48541259765625 205.37930297851562 107.1361083984375 235.28665161132812 109.82585144042969 210.03131103515625 C 89.41775512695312 207.81788635253906 93.27108764648438 226.0367431640625 104.8163070678711 195.55101013183594 C 110.45368194580078 181.4314422607422 112.09776306152344 171.92193603515625 120.34672546386719 162.5977325439453 C 112.0549545288086 137.43360900878906 121.70465087890625 121.62873077392578 108.52410888671875 129.3623809814453 C 111.19916534423828 125.38035583496094 114.12250518798828 122.33973693847656 117.79956817626953 118.59327697753906 C 127.22238159179688 107.26836395263672 141.2232208251953 115.84494018554688 134.7919464111328 108.0556869506836 C 137.94915771484375 98.60848236083984 147.07974243164062 98.68719482421875 148.50735473632812 69.33861541748047 C 147.3043212890625 73.68850708007812 149.13778686523438 77.93313598632812 157.03326416015625 93.35565948486328 C 164.24899291992188 105.27610778808594 154.52197265625 123.293701171875 159.27857971191406 114.67523193359375 C 157.0358428955078 116.2816162109375 164.91070556640625 116.92709350585938 167.529541015625 117.68305969238281 C 168.0207977294922 123.27519989013672 156.86929321289062 118.93205261230469 173.6363525390625 148.6877899169922 C 160.36932373046875 150.0108642578125 154.36053466796875 153.47085571289062 150.0777130126953 166.20802307128906 C 146.45819091796875 160.40139770507812 141.9568634033203 163.3684844970703 159.92958068847656 204.3218536376953 C 143.369873046875 241.35617065429688 168.7773895263672 234.56674194335938 113.42059326171875 211.97303771972656 C 133.3548126220703 248.71493530273438 107.6550521850586 218.37696838378906 100.09659576416016 277.06005859375" stroke-width="0.0" fill="rgb(0, 0, 0)" opacity="1.0" stroke="rgb(0, 0, 0)" stroke-opacity="1" stroke-linecap="round" stroke-linejoin="round"/>
  </g>
</svg>
