<?xml version="1.0" ?>
<svg xmlns="http://www.w3.org/2000/svg" version="1.1" width="320" height="320">
  <defs/>
  <g>
    <path d="M 154.8246612548828 201.445068359375 C 168.13035583496094 187.36929321289062 192.33712768554688 177.1063690185547 205.19088745117188 167.4495849609375 C 224.9374542236328 156.23455810546875 233.9135284423828 151.76943969726562 239.91122436523438 147.69801330566406 C 246.070068359375 144.22381591796875 249.39454650878906 142.3791046142578 252.21170043945312 140.74905395507812 C 254.3573455810547 138.72952270507812 273.771728515625 131.046630859375 285.37054443359375 124.30096435546875 C 288.1042175292969 122.70015716552734 289.2813720703125 120.87008666992188 291.82037353515625 119.77008819580078 C 285.3289489746094 114.09520721435547 291.4781799316406 119.25497436523438 292.60546875 121.16104125976562 C 288.376220703125 120.92346954345703 285.5126647949219 132.57699584960938 279.88336181640625 131.14495849609375 C 280.8878173828125 134.2480010986328 276.3831481933594 132.00177001953125 277.0118408203125 134.58558654785156 C 260.17218017578125 146.5826416015625 260.1415100097656 149.2386016845703 255.8461151123047 151.61373901367188 C 250.60398864746094 154.6605224609375 246.0130615234375 157.8021240234375 240.93685913085938 160.9345245361328 C 231.90304565429688 166.4480438232422 215.0996551513672 176.54705810546875 205.6844940185547 181.63909912109375 C 197.52005004882812 188.38287353515625 175.76234436035156 196.29222106933594 172.38983154296875 199.8887481689453 C 175.14720153808594 205.6182098388672 180.9620361328125 217.82412719726562 196.48281860351562 225.62124633789062 C 189.38905334472656 235.49774169921875 189.30709838867188 237.8862762451172 191.0328369140625 241.20550537109375 C 190.61074829101562 246.3431396484375 193.30728149414062 251.6939239501953 194.32077026367188 257.5714111328125 C 198.65072631835938 264.9815673828125 198.4490203857422 265.5577392578125 216.20079040527344 274.19097900390625 C 219.63739013671875 268.5506896972656 215.68301391601562 281.8775634765625 196.73020935058594 276.1614990234375 C 194.46473693847656 275.6790466308594 191.2263641357422 276.7916564941406 187.93450927734375 273.702392578125 C 188.55502319335938 276.05712890625 188.20751953125 275.75531005859375 185.91976928710938 273.9425048828125 C 186.10504150390625 272.869384765625 185.17481994628906 272.129638671875 184.27947998046875 271.1861572265625 C 185.30824279785156 267.1460876464844 184.42843627929688 264.08612060546875 182.2460174560547 260.2065734863281 C 181.9071044921875 258.6507263183594 181.69564819335938 257.28546142578125 180.85308837890625 253.88685607910156 C 170.3809356689453 242.67552185058594 170.55856323242188 240.2501220703125 176.93699645996094 230.50201416015625 C 176.7620391845703 226.63168334960938 159.359375 216.08908081054688 154.8246612548828 201.445068359375" stroke-width="0.0" fill="rgb(0, 0, 0)" opacity="1.0" stroke="rgb(0, 0, 0)" stroke-opacity="1" stroke-linecap="round" stroke-linejoin="round"/>
    <path d="M 80.84184265136719 291.71661376953125 C 48.52000427246094 302.4222412109375 89.98312377929688 272.7908630371094 84.87305450439453 245.51646423339844 C 83.02033233642578 247.8851318359375 85.97631072998047 252.47190856933594 86.0405502319336 245.31199645996094 C 88.00186157226562 243.93563842773438 84.40491485595703 247.81484985351562 87.9683837890625 242.10195922851562 C 87.56976318359375 218.512451171875 97.90473175048828 248.83326721191406 104.2055435180664 229.13099670410156 C 88.23548889160156 228.11143493652344 95.52296447753906 237.147216796875 112.1593017578125 204.11163330078125 C 120.098876953125 191.3377227783203 124.81241607666016 179.7769012451172 123.12130737304688 184.58407592773438 C 123.46002197265625 172.43643188476562 124.73077392578125 164.85964965820312 115.9778823852539 169.0968017578125 C 130.5821075439453 147.05718994140625 135.1646270751953 149.1686248779297 132.56715393066406 151.03707885742188 C 142.27468872070312 143.923095703125 140.61473083496094 149.87643432617188 140.0022735595703 141.70285034179688 C 158.83595275878906 124.37454223632812 153.04319763183594 118.19398498535156 155.894775390625 109.78465270996094 C 156.58831787109375 111.21688079833984 154.88844299316406 105.19905090332031 156.82369995117188 117.88631439208984 C 167.79327392578125 136.1715850830078 169.09042358398438 138.03675842285156 168.99305725097656 143.5992431640625 C 169.69317626953125 146.25628662109375 175.04893493652344 143.07669067382812 172.11520385742188 144.40597534179688 C 182.1917266845703 147.89756774902344 161.53102111816406 146.7930908203125 180.89334106445312 174.75384521484375 C 180.44171142578125 173.96302795410156 162.21934509277344 173.85850524902344 163.55511474609375 197.29022216796875 C 163.47869873046875 192.6460723876953 166.5237579345703 188.1283721923828 175.33375549316406 229.53302001953125 C 164.0408935546875 288.0004577636719 190.48265075683594 272.60162353515625 107.97984313964844 232.83621215820312 C 118.11454772949219 270.85205078125 105.10765838623047 227.34165954589844 80.84184265136719 291.71661376953125" stroke-width="0.0" fill="rgb(0, 0, 0)" opacity="1.0" stroke="rgb(0, 0, 0)" stroke-opacity="1" stroke-linecap="round" stroke-linejoin="round"/>
  </g>
</svg>
