<?xml version="1.0" ?>
<svg xmlns="http://www.w3.org/2000/svg" version="1.1" width="320" height="320">
  <defs/>
  <g>
    <path d="M 125.65280151367188 171.2392120361328 C 144.01268005371094 153.57215881347656 166.41436767578125 149.81996154785156 178.2615203857422 143.33877563476562 C 197.47059631347656 131.57582092285156 206.60256958007812 126.93049621582031 212.7998809814453 123.02812194824219 C 219.22219848632812 120.13916778564453 222.14236450195312 118.21956634521484 225.63563537597656 116.49018096923828 C 227.842529296875 114.6640625 248.32489013671875 105.28012084960938 257.6155700683594 98.9603271484375 C 262.17333984375 97.40234375 264.68682861328125 94.57489013671875 271.4422302246094 93.41960144042969 C 274.14678955078125 99.78706359863281 266.6884765625 94.64136505126953 268.9615783691406 98.74999237060547 C 260.33184814453125 99.99984741210938 255.07394409179688 114.81892395019531 250.1352081298828 112.92903137207031 C 250.55575561523438 115.80978393554688 247.59278869628906 114.05645751953125 247.6026153564453 116.39604949951172 C 233.6708221435547 123.47463989257812 233.40817260742188 125.2966079711914 229.26925659179688 127.39879608154297 C 223.91262817382812 130.29055786132812 218.5175018310547 133.5199432373047 212.9817352294922 136.1599884033203 C 203.75242614746094 141.12205505371094 186.04849243164062 151.3686065673828 176.8000946044922 155.7201385498047 C 168.8155059814453 159.91061401367188 151.13046264648438 163.2173309326172 149.39376831054688 165.33465576171875 C 158.470947265625 178.48406982421875 167.8857421875 201.42593383789062 181.0185089111328 214.3646240234375 C 171.54931640625 222.4819793701172 171.36373901367188 223.51226806640625 173.06787109375 228.93580627441406 C 171.6300811767578 234.5811004638672 173.69459533691406 240.7096710205078 174.0350341796875 247.7888641357422 C 177.91790771484375 252.89163208007812 178.50177001953125 254.8245086669922 195.28990173339844 262.1380310058594 C 197.76007080078125 258.51605224609375 194.0345001220703 270.2036437988281 176.18775939941406 264.6038818359375 C 177.67709350585938 265.1112060546875 175.85189819335938 266.4976806640625 170.3855743408203 263.8074951171875 C 169.40538024902344 263.57244873046875 171.43809509277344 264.8514099121094 167.5970001220703 263.08941650390625 C 169.62631225585938 263.53607177734375 167.62367248535156 262.4789123535156 165.960693359375 261.5921630859375 C 164.68524169921875 260.1453857421875 163.8629608154297 257.1485900878906 163.7299346923828 252.2601318359375 C 162.45846557617188 248.6735076904297 162.26014709472656 244.8888702392578 161.69329833984375 240.10179138183594 C 153.2559814453125 227.55816650390625 154.07559204101562 223.65798950195312 160.45697021484375 214.47232055664062 C 160.87545776367188 212.14144897460938 134.7410125732422 194.4311065673828 125.65280151367188 171.2392120361328" stroke-width="0.0" fill="rgb(0, 0, 0)" opacity="1.0" stroke="rgb(0, 0, 0)" stroke-opacity="1" stroke-linecap="round" stroke-linejoin="round"/>
    <path d="M 82.40931701660156 275.06854248046875 C 54.490814208984375 284.0118713378906 83.04698944091797 261.6391296386719 85.98368072509766 237.43040466308594 C 89.58832550048828 234.98794555664062 80.54856872558594 235.3087921142578 86.90596771240234 237.2601318359375 C 85.50202941894531 234.61000061035156 82.8591079711914 240.71316528320312 87.94702911376953 228.08389282226562 C 84.6359634399414 203.48751831054688 97.74722290039062 236.02085876464844 102.56971740722656 210.86605834960938 C 82.30399322509766 209.449951171875 87.94292449951172 226.5792694091797 101.62522888183594 193.95591735839844 C 107.91146087646484 180.8679962158203 109.92926788330078 173.24774169921875 117.0064697265625 165.02378845214844 C 108.33611297607422 143.79397583007812 118.76761627197266 121.13726806640625 104.06108093261719 133.80953979492188 C 109.37516784667969 126.0426254272461 110.65410614013672 124.32008361816406 113.2719497680664 121.66643524169922 C 123.84676361083984 110.07557678222656 135.45309448242188 118.46623992919922 130.0773162841797 111.04137420654297 C 135.0025177001953 98.48087310791016 143.0615692138672 99.20394897460938 142.46261596679688 70.89363098144531 C 142.2176513671875 74.06897735595703 142.9990692138672 79.05902862548828 151.88182067871094 95.06535339355469 C 159.4632568359375 107.26160430908203 151.31228637695312 122.3975830078125 153.52084350585938 113.7776107788086 C 151.33399963378906 117.41661071777344 158.09423828125 117.95056915283203 162.32965087890625 118.71009063720703 C 166.56393432617188 125.42575073242188 151.37982177734375 119.04066467285156 169.9773406982422 148.8377227783203 C 157.19970703125 149.24383544921875 150.4697265625 152.69606018066406 150.33798217773438 172.48477172851562 C 140.48126220703125 162.8487548828125 137.01535034179688 163.93870544433594 155.51785278320312 205.11708068847656 C 138.67857360839844 241.5808868408203 164.6811065673828 234.30628967285156 104.68937683105469 212.6960906982422 C 122.85775756835938 252.76197814941406 98.29622650146484 216.2650146484375 82.40931701660156 275.06854248046875" stroke-width="0.0" fill="rgb(0, 0, 0)" opacity="1.0" stroke="rgb(0, 0, 0)" stroke-opacity="1" stroke-linecap="round" stroke-linejoin="round"/>
  </g>
</svg>
