<?xml version="1.0" ?>
<svg xmlns="http://www.w3.org/2000/svg" version="1.1" width="320" height="320">
  <defs/>
  <g>
    <path d="M 154.7999267578125 202.68960571289062 C 168.0918426513672 189.61610412597656 192.11488342285156 178.53839111328125 205.50555419921875 170.13941955566406 C 223.40847778320312 159.1207733154297 232.22216796875 154.84347534179688 237.60476684570312 151.09617614746094 C 243.24009704589844 148.52651977539062 245.9314727783203 146.79330444335938 249.01861572265625 145.27000427246094 C 250.27638244628906 143.94496154785156 274.5160217285156 133.50634765625 281.25494384765625 128.18869018554688 C 284.6534729003906 125.32916259765625 285.4662170410156 122.98429870605469 286.1480712890625 118.59478759765625 C 289.121337890625 121.94314575195312 284.1486511230469 118.40505981445312 284.6578369140625 119.07373046875 C 283.1157531738281 125.27305603027344 279.7348327636719 125.68557739257812 279.6950378417969 129.32272338867188 C 279.63427734375 136.59877014160156 272.8976745605469 133.07432556152344 274.1142578125 136.4874267578125 C 256.38800048828125 150.1452178955078 256.6413269042969 152.4213409423828 252.54656982421875 155.22177124023438 C 248.0053253173828 157.8135528564453 243.7635498046875 160.84893798828125 238.81393432617188 163.7253875732422 C 230.49749755859375 168.8955078125 214.77999877929688 178.6927490234375 206.09744262695312 183.71018981933594 C 197.6678924560547 190.21932983398438 176.1688995361328 198.6800079345703 172.37356567382812 202.61587524414062 C 174.4591064453125 206.8076171875 181.0322723388672 218.25018310546875 196.26210021972656 225.5661163330078 C 189.55653381347656 236.48764038085938 189.49514770507812 239.32325744628906 191.28733825683594 241.29864501953125 C 190.6188507080078 245.64657592773438 193.5928192138672 251.63629150390625 194.04747009277344 258.1318054199219 C 197.6095428466797 265.0389099121094 197.5736846923828 266.5978088378906 217.4797821044922 275.3104553222656 C 220.6051025390625 271.2095031738281 214.8762969970703 285.5868835449219 193.6788787841797 276.4375915527344 C 195.03036499023438 277.3214111328125 190.7766876220703 279.0467529296875 186.6881561279297 274.76947021484375 C 186.38246154785156 274.7247009277344 185.5401611328125 273.6636962890625 184.677978515625 272.5146484375 C 185.4044189453125 272.8624267578125 184.5183868408203 271.56939697265625 183.66526794433594 270.3821716308594 C 184.2411346435547 268.0281677246094 183.48748779296875 264.5181579589844 181.69131469726562 260.7956237792969 C 181.4246063232422 259.4158935546875 181.14695739746094 257.1560363769531 180.00552368164062 253.58592224121094 C 169.36767578125 240.2621612548828 170.1990966796875 247.0741424560547 176.32278442382812 232.29690551757812 C 176.04957580566406 228.14816284179688 158.54702758789062 218.2777557373047 154.7999267578125 202.68960571289062" stroke-width="0.0" fill="rgb(0, 0, 0)" opacity="1.0" stroke="rgb(0, 0, 0)" stroke-opacity="1" stroke-linecap="round" stroke-linejoin="round"/>
    <path d="M 81.49459075927734 294.04296875 C 49.111289978027344 302.1241760253906 89.08145141601562 279.76593017578125 83.34024810791016 247.0235137939453 C 77.98995971679688 252.43264770507812 82.30644226074219 249.9571075439453 81.29106140136719 244.09275817871094 C 80.99320220947266 246.89500427246094 79.92745971679688 254.61961364746094 85.41798400878906 245.75242614746094 C 84.3227310180664 219.86590576171875 96.24656677246094 250.3850860595703 101.99761962890625 231.8444061279297 C 83.14313507080078 230.2011260986328 92.66445922851562 237.90875244140625 110.80692291259766 200.69398498535156 C 116.95663452148438 190.24932861328125 120.29269409179688 183.12168884277344 119.83590698242188 191.92379760742188 C 120.58537292480469 170.2069854736328 119.27476501464844 169.6979522705078 112.31428527832031 170.18276977539062 C 127.2188491821289 149.5890350341797 132.44366455078125 150.66278076171875 125.5343017578125 155.58030700683594 C 134.86410522460938 146.2723846435547 136.7338104248047 152.99977111816406 135.0299530029297 141.913330078125 C 153.824951171875 127.13325500488281 146.8232879638672 115.75814819335938 149.3788604736328 113.72888946533203 C 148.5555419921875 115.49685668945312 147.96701049804688 109.80071258544922 151.0502166748047 120.60020446777344 C 163.31463623046875 140.12217712402344 163.29713439941406 145.6570281982422 163.39349365234375 144.3033447265625 C 165.5279998779297 143.84373474121094 161.69674682617188 144.03387451171875 169.47727966308594 144.161376953125 C 180.10887145996094 145.99668884277344 157.39210510253906 147.67288208007812 179.43487548828125 175.12135314941406 C 177.99195861816406 173.7064666748047 158.29884338378906 172.77674865722656 161.79440307617188 198.9720916748047 C 163.364013671875 192.82577514648438 162.6651611328125 185.13368225097656 171.98593139648438 226.37335205078125 C 159.09596252441406 285.3876953125 189.66697692871094 279.92529296875 105.68414306640625 234.31874084472656 C 116.30931091308594 272.0550231933594 103.8187026977539 229.4735870361328 81.49459075927734 294.04296875" stroke-width="0.0" fill="rgb(0, 0, 0)" opacity="1.0" stroke="rgb(0, 0, 0)" stroke-opacity="1" stroke-linecap="round" stroke-linejoin="round"/>
  </g>
</svg>
