<?xml version="1.0" ?>
<svg xmlns="http://www.w3.org/2000/svg" version="1.1" width="320" height="320">
  <defs/>
  <g>
    <path d="M 104.24443054199219 190.07601928710938 C 124.40029907226562 163.35879516601562 159.823486328125 148.39622497558594 167.54248046875 144.68946838378906 C 191.80960083007812 129.4042510986328 197.57386779785156 126.71770477294922 201.05389404296875 124.85432434082031 C 204.50917053222656 123.3511962890625 206.15435791015625 122.44232177734375 208.30345153808594 121.64998626708984 C 209.28953552246094 120.87420654296875 235.66598510742188 107.71439361572266 241.8297882080078 102.09435272216797 C 243.32029724121094 100.77672576904297 244.40240478515625 100.09923553466797 245.0360565185547 99.42324829101562 C 247.22738647460938 102.26224517822266 242.674560546875 96.92027282714844 245.0496368408203 99.81245422363281 C 239.99510192871094 99.67463684082031 236.52908325195312 107.8330078125 232.55255126953125 106.31635284423828 C 231.73020935058594 112.29910278320312 227.20948791503906 109.09000396728516 227.43601989746094 111.2448501586914 C 212.1065673828125 119.73393249511719 211.76995849609375 125.79515838623047 209.81703186035156 126.83262634277344 C 206.7548370361328 128.4269561767578 203.70037841796875 130.15272521972656 200.55767822265625 131.74790954589844 C 194.82662963867188 134.6270751953125 171.447265625 149.56552124023438 166.75477600097656 151.27767944335938 C 162.57493591308594 154.18789672851562 131.29055786132812 167.5900421142578 130.15240478515625 170.41969299316406 C 144.48448181152344 188.8664093017578 155.60934448242188 210.04876708984375 171.38497924804688 217.18499755859375 C 165.9078369140625 226.5889892578125 166.2163543701172 228.4136505126953 169.86306762695312 232.12831115722656 C 169.650390625 236.13002014160156 173.2056884765625 240.8190460205078 176.7380828857422 247.39097595214844 C 183.4288787841797 254.97071838378906 183.40855407714844 256.13006591796875 202.29013061523438 256.6378173828125 C 202.9170684814453 253.81101989746094 202.27857971191406 268.90277099609375 184.12008666992188 269.30340576171875 C 178.79058837890625 268.3779296875 176.5567169189453 268.86322021484375 173.27886962890625 264.9971008300781 C 172.9108428955078 264.92041015625 176.22164916992188 267.1606140136719 173.89596557617188 265.5946044921875 C 173.82566833496094 265.0444030761719 172.99417114257812 264.1259460449219 171.97718811035156 263.3519287109375 C 171.7917022705078 260.16412353515625 169.86669921875 257.49188232421875 166.482177734375 254.22427368164062 C 165.44985961914062 252.4129180908203 164.17840576171875 249.80810546875 161.1383514404297 244.8824462890625 C 146.13076782226562 231.18130493164062 147.06768798828125 237.99571228027344 152.4986572265625 222.503662109375 C 152.45101928710938 219.65811157226562 121.17316436767578 209.36192321777344 104.24443054199219 190.07601928710938" stroke-width="0.0" fill="rgb(0, 0, 0)" opacity="1.0" stroke="rgb(0, 0, 0)" stroke-opacity="1" stroke-linecap="round" stroke-linejoin="round"/>
    <path d="M 80.27033996582031 280.32513427734375 C 47.95499801635742 292.3843688964844 80.44688415527344 272.12188720703125 77.48780822753906 249.03762817382812 C 78.36400604248047 241.74807739257812 72.1233901977539 246.90318298339844 77.41371154785156 242.05897521972656 C 76.91170501708984 239.56748962402344 74.0680160522461 246.8948211669922 76.25745391845703 236.82398986816406 C 67.968017578125 214.0562744140625 86.85615539550781 241.27308654785156 86.39131164550781 220.7713623046875 C 66.17500305175781 220.01268005371094 74.94507598876953 231.0390625 89.14700317382812 190.72459411621094 C 93.22862243652344 179.85092163085938 88.82331848144531 184.93687438964844 63.570980072021484 179.23883056640625 C 54.456932067871094 164.02337646484375 88.39612579345703 149.7534942626953 71.77242279052734 139.97494506835938 C 87.84074401855469 122.04935455322266 92.16313171386719 124.75170135498047 88.53596496582031 125.5600357055664 C 97.31462860107422 120.58941650390625 101.88711547851562 127.3120346069336 97.74769592285156 116.05123138427734 C 108.41231536865234 96.16363525390625 108.02680969238281 87.98075866699219 106.001220703125 76.75726318359375 C 111.89221954345703 101.73078155517578 116.922119140625 100.71650695800781 120.931884765625 114.20494079589844 C 120.7652587890625 121.01953125 120.03752136230469 123.96043395996094 125.65647888183594 121.7031021118164 C 131.12539672851562 122.26129150390625 138.07882690429688 122.65918731689453 139.257568359375 125.42654418945312 C 138.29652404785156 126.63679504394531 131.0287322998047 131.1478271484375 150.4289093017578 158.89149475097656 C 139.79937744140625 154.54273986816406 129.90383911132812 150.1758575439453 129.6350860595703 171.80856323242188 C 125.31161499023438 167.4900665283203 118.94026947021484 168.4856719970703 129.5616455078125 193.2098846435547 C 117.05852508544922 242.11866760253906 140.75489807128906 253.1987762451172 91.01652526855469 224.00550842285156 C 109.20767974853516 256.84320068359375 91.43785858154297 220.65426635742188 80.27033996582031 280.32513427734375" stroke-width="0.0" fill="rgb(0, 0, 0)" opacity="1.0" stroke="rgb(0, 0, 0)" stroke-opacity="1" stroke-linecap="round" stroke-linejoin="round"/>
  </g>
</svg>
