<?xml version="1.0" ?>
<svg xmlns="http://www.w3.org/2000/svg" version="1.1" width="320" height="320">
  <defs/>
  <g>
    <path d="M 123.57237243652344 171.0041046142578 C 139.64053344726562 152.88189697265625 162.40960693359375 144.11166381835938 173.21652221679688 136.271728515625 C 191.40316772460938 124.66209411621094 200.81625366210938 119.61447143554688 207.3963623046875 114.86791229248047 C 214.37779235839844 110.40242767333984 218.01644897460938 107.81646728515625 222.1029510498047 105.58717346191406 C 224.3290557861328 103.50035095214844 243.0293426513672 94.21658325195312 250.1694793701172 88.23336029052734 C 253.3029327392578 87.2576675415039 254.93753051757812 85.77171325683594 259.1994323730469 85.30924224853516 C 262.00787353515625 89.5125961303711 254.40565490722656 85.07012176513672 257.3726806640625 89.07658386230469 C 250.39495849609375 89.953369140625 247.55764770507812 101.10712432861328 243.627685546875 99.99819946289062 C 244.2895965576172 101.45225524902344 243.78404235839844 105.26604461669922 242.7850341796875 104.47867584228516 C 230.71273803710938 109.63597106933594 230.75535583496094 114.11585998535156 226.1586151123047 116.81492614746094 C 220.01687622070312 120.72899627685547 213.8284454345703 125.21442413330078 207.6484832763672 129.18304443359375 C 198.2758026123047 134.3968505859375 182.07498168945312 144.29278564453125 174.16647338867188 149.0511932373047 C 166.3870086669922 154.15029907226562 148.68521118164062 161.5149383544922 145.963134765625 165.12277221679688 C 155.13134765625 178.25588989257812 162.70770263671875 198.7886962890625 174.93704223632812 210.65289306640625 C 167.26119995117188 219.15521240234375 167.02757263183594 221.15292358398438 168.92735290527344 226.5228271484375 C 167.94937133789062 232.07679748535156 170.72024536132812 238.89828491210938 171.68260192871094 245.94041442871094 C 177.96194458007812 250.43490600585938 179.28956604003906 251.6817626953125 192.68536376953125 258.1539001464844 C 195.75901794433594 252.74288940429688 193.2261199951172 262.9298095703125 178.2085723876953 261.4173889160156 C 179.86167907714844 261.8501892089844 180.874267578125 262.1636657714844 175.14141845703125 261.25360107421875 C 173.2535858154297 261.516845703125 175.04623413085938 262.2810363769531 170.7006378173828 261.1954650878906 C 172.18170166015625 261.33819580078125 169.94161987304688 260.3573303222656 168.3502960205078 259.89434814453125 C 165.72225952148438 258.9354553222656 163.9307098388672 257.0279846191406 162.2714385986328 253.28549194335938 C 160.17245483398438 249.0009765625 159.1265106201172 243.93093872070312 158.47879028320312 238.3953857421875 C 148.30149841308594 225.41714477539062 149.00660705566406 221.63839721679688 155.160400390625 211.7163543701172 C 155.6328582763672 209.1038055419922 132.5383758544922 192.49380493164062 123.57237243652344 171.0041046142578" stroke-width="0.0" fill="rgb(0, 0, 0)" opacity="1.0" stroke="rgb(0, 0, 0)" stroke-opacity="1" stroke-linecap="round" stroke-linejoin="round"/>
    <path d="M 95.74447631835938 274.46490478515625 C 71.05987548828125 283.2499694824219 95.22193908691406 267.7476806640625 92.41151428222656 235.9016571044922 C 87.9835205078125 234.79148864746094 79.95056915283203 236.17779541015625 84.0489501953125 235.8444366455078 C 88.5264663696289 234.21160888671875 88.80680847167969 239.6623077392578 91.9590072631836 229.0752410888672 C 84.59858703613281 205.84896850585938 99.81880187988281 231.38845825195312 102.34986114501953 209.5595703125 C 80.2588882446289 210.59750366210938 86.85197448730469 221.79788208007812 98.8129653930664 189.4210205078125 C 104.31591033935547 175.4185791015625 106.44418334960938 168.12330627441406 109.66209411621094 162.72019958496094 C 100.5757827758789 143.5339813232422 110.07579803466797 124.67021942138672 97.54795837402344 130.07293701171875 C 104.1659164428711 118.43914794921875 109.39881134033203 115.9585189819336 111.99714660644531 113.78299713134766 C 121.45375061035156 108.56134033203125 126.7703857421875 114.1257095336914 121.26029968261719 106.14539337158203 C 128.56922912597656 93.25794982910156 133.33645629882812 90.26654815673828 134.68153381347656 69.4170913696289 C 135.97488403320312 78.25516510009766 137.19747924804688 83.5011978149414 143.8634490966797 97.15396881103516 C 148.05593872070312 107.37062072753906 142.49720764160156 119.47478485107422 144.43695068359375 113.88382720947266 C 154.20677185058594 114.76909637451172 158.97608947753906 114.0435562133789 156.37953186035156 114.04603576660156 C 156.39706420898438 120.1010513305664 146.53060913085938 122.73713684082031 163.5667724609375 144.90342712402344 C 154.32351684570312 145.13726806640625 147.42620849609375 148.03993225097656 143.97874450683594 159.0556640625 C 142.31231689453125 158.94119262695312 136.49844360351562 163.64805603027344 149.4343719482422 195.60244750976562 C 136.6614227294922 232.78306579589844 156.1577606201172 232.84130859375 107.17082977294922 211.1043701171875 C 123.61900329589844 241.20594787597656 103.33119201660156 220.4302215576172 95.74447631835938 274.46490478515625" stroke-width="0.0" fill="rgb(0, 0, 0)" opacity="1.0" stroke="rgb(0, 0, 0)" stroke-opacity="1" stroke-linecap="round" stroke-linejoin="round"/>
  </g>
</svg>
