<?xml version="1.0" ?>
<svg xmlns="http://www.w3.org/2000/svg" version="1.1" width="320" height="320">
  <defs/>
  <g>
    <path d="M 148.416748046875 198.67849731445312 C 162.88455200195312 184.03634643554688 188.36729431152344 172.99545288085938 201.0902099609375 164.3975067138672 C 220.4385986328125 152.21676635742188 228.69932556152344 147.84303283691406 234.01316833496094 144.203125 C 239.64024353027344 141.2236328125 242.34375 139.5111846923828 245.79421997070312 137.89224243164062 C 247.295166015625 136.34390258789062 269.1759948730469 126.66349792480469 277.69873046875 119.65927124023438 C 279.7709045410156 117.12431335449219 280.1365051269531 116.12898254394531 280.8272399902344 113.83436584472656 C 284.3941650390625 117.10762023925781 278.5237121582031 112.07502746582031 280.58404541015625 114.20061492919922 C 279.7528076171875 116.63359069824219 277.4344787597656 126.41309356689453 272.0248107910156 125.33403015136719 C 272.9290771484375 128.9813232421875 267.3302001953125 126.57093811035156 267.95574951171875 128.43130493164062 C 252.52288818359375 141.13787841796875 252.73809814453125 144.51470947265625 248.6818389892578 146.5893096923828 C 244.15069580078125 149.9528350830078 239.8610382080078 153.50930786132812 235.1348419189453 156.35720825195312 C 227.02993774414062 161.36181640625 209.83151245117188 172.48080444335938 201.30174255371094 176.97219848632812 C 193.14622497558594 183.04959106445312 170.96847534179688 192.13540649414062 167.98236083984375 195.32919311523438 C 171.8484649658203 201.6719512939453 179.257080078125 215.3798065185547 194.38499450683594 223.4752197265625 C 187.15406799316406 232.68016052246094 187.14764404296875 234.53868103027344 189.37313842773438 238.81971740722656 C 189.08609008789062 243.63958740234375 191.74749755859375 249.77975463867188 192.82318115234375 255.7449493408203 C 196.1560821533203 262.9146728515625 195.9590301513672 263.5890197753906 214.19921875 271.4995422363281 C 216.59666442871094 268.2295837402344 211.2010040283203 281.97796630859375 190.7559356689453 273.21783447265625 C 192.24179077148438 274.5989074707031 188.8248291015625 275.72308349609375 184.74632263183594 271.4277038574219 C 184.80142211914062 271.8424987792969 187.41421508789062 274.5857238769531 183.4608612060547 271.7899475097656 C 185.8350067138672 272.028564453125 183.66647338867188 270.7579345703125 182.61846923828125 269.5818786621094 C 183.9290008544922 265.5989685058594 183.1424560546875 262.77728271484375 180.77578735351562 258.79022216796875 C 180.50547790527344 257.4198913574219 180.0943603515625 255.0683135986328 178.351318359375 251.2428741455078 C 169.155029296875 239.53892517089844 169.1596221923828 238.57843017578125 174.74026489257812 227.36749267578125 C 174.7607879638672 225.94400024414062 153.75424194335938 215.3008270263672 148.416748046875 198.67849731445312" stroke-width="0.0" fill="rgb(0, 0, 0)" opacity="1.0" stroke="rgb(0, 0, 0)" stroke-opacity="1" stroke-linecap="round" stroke-linejoin="round"/>
    <path d="M 79.74713134765625 289.02978515625 C 48.48377227783203 297.6417236328125 86.8757553100586 274.4952392578125 84.01602172851562 241.2174530029297 C 86.90453338623047 243.0429229736328 82.53909301757812 244.98782348632812 81.03776550292969 247.11268615722656 C 86.70468139648438 245.6768798828125 82.57909393310547 250.6142120361328 86.01861572265625 239.40255737304688 C 85.26435852050781 217.95855712890625 96.11408996582031 246.71258544921875 102.221435546875 227.75930786132812 C 84.37588500976562 225.65133666992188 93.31885528564453 234.91802978515625 109.3709945678711 200.7581024169922 C 116.0572509765625 189.1265106201172 119.12245178222656 179.86314392089844 118.05389404296875 184.4722137451172 C 117.13761901855469 174.26898193359375 118.5420150756836 158.99119567871094 110.36921691894531 165.213623046875 C 124.30533599853516 144.75125122070312 130.75074768066406 144.61947631835938 124.66796875 148.66043090820312 C 134.72669982910156 140.13279724121094 136.67633056640625 146.71969604492188 134.4920654296875 136.45738220214844 C 150.3641815185547 121.11372375488281 143.8296661376953 109.08187866210938 145.6594696044922 105.76756286621094 C 146.15097045898438 106.14579772949219 143.87954711914062 103.18119049072266 150.49720764160156 117.95249938964844 C 160.70216369628906 134.4475555419922 160.05929565429688 134.92495727539062 161.4272003173828 140.33514404296875 C 158.67164611816406 138.92379760742188 167.5472869873047 139.320068359375 170.1175079345703 140.0414276123047 C 178.20216369628906 144.95761108398438 158.28175354003906 144.23080444335938 177.34457397460938 170.6676788330078 C 176.1217041015625 171.59814453125 159.95643615722656 167.9611358642578 159.1349334716797 193.62889099121094 C 155.2109832763672 187.9170379638672 154.1840057373047 187.53366088867188 166.6117401123047 221.6834716796875 C 155.94676208496094 279.5150451660156 183.73745727539062 271.1061096191406 105.39581298828125 230.88345336914062 C 117.7123031616211 267.57415771484375 103.43754577636719 225.8413543701172 79.74713134765625 289.02978515625" stroke-width="0.0" fill="rgb(0, 0, 0)" opacity="1.0" stroke="rgb(0, 0, 0)" stroke-opacity="1" stroke-linecap="round" stroke-linejoin="round"/>
  </g>
</svg>
