<?xml version="1.0" ?>
<svg xmlns="http://www.w3.org/2000/svg" version="1.1" width="320" height="320">
  <defs/>
  <g>
    <path d="M 154.00814819335938 200.0987091064453 C 167.12527465820312 186.77786254882812 191.54727172851562 175.95066833496094 204.228515625 166.71263122558594 C 223.06961059570312 156.15830993652344 231.5532989501953 151.81715393066406 237.10443115234375 147.69168090820312 C 242.75558471679688 144.39234924316406 245.90029907226562 142.49429321289062 249.05711364746094 140.8427734375 C 251.0081024169922 138.9340362548828 272.2388000488281 131.20260620117188 284.83135986328125 120.88606262207031 C 287.37933349609375 120.47364807128906 288.4088439941406 120.36134338378906 290.3196105957031 120.65068817138672 C 284.1458740234375 114.25603485107422 289.2618408203125 119.21957397460938 290.12103271484375 120.4620361328125 C 281.11163330078125 121.43270111083984 278.32659912109375 133.67373657226562 273.50238037109375 132.60379028320312 C 274.53271484375 136.1141357421875 270.6102600097656 134.1561737060547 270.8659362792969 135.7639923095703 C 256.6452331542969 146.33253479003906 256.49383544921875 149.1673126220703 252.3568115234375 151.3841552734375 C 247.66650390625 154.12257385253906 243.2135009765625 157.35177612304688 238.57662963867188 160.5496826171875 C 230.04116821289062 165.63844299316406 213.73684692382812 175.73245239257812 204.87960815429688 180.32693481445312 C 196.92645263671875 187.09347534179688 174.6758270263672 195.19073486328125 171.1578369140625 198.5274658203125 C 173.80963134765625 203.8490447998047 180.50564575195312 216.47201538085938 195.40138244628906 225.12115478515625 C 189.5078125 234.09031677246094 188.64964294433594 237.2115478515625 190.95089721679688 239.1162872314453 C 190.12612915039062 244.49893188476562 192.17344665527344 250.3308563232422 193.24081420898438 256.6071472167969 C 196.92420959472656 262.935791015625 197.47227478027344 265.96337890625 214.7296142578125 273.04278564453125 C 218.2452392578125 267.1544189453125 215.1044464111328 280.163818359375 196.17947387695312 275.5164489746094 C 194.8024139404297 275.5224609375 192.04022216796875 275.615234375 188.33306884765625 274.00518798828125 C 187.09451293945312 273.7313232421875 186.72837829589844 273.4815673828125 184.1728515625 271.868896484375 C 186.5009307861328 272.5793151855469 184.65830993652344 270.8971862792969 183.6868133544922 269.91070556640625 C 184.37591552734375 266.5182189941406 183.3626708984375 263.6523742675781 181.50106811523438 260.328369140625 C 181.114990234375 258.29876708984375 180.730712890625 255.7660675048828 179.35150146484375 252.02456665039062 C 168.4912109375 237.5149383544922 169.0439910888672 243.5789794921875 175.89402770996094 229.4949951171875 C 175.9540252685547 225.53140258789062 158.14503479003906 214.43511962890625 154.00814819335938 200.0987091064453" stroke-width="0.0" fill="rgb(0, 0, 0)" opacity="1.0" stroke="rgb(0, 0, 0)" stroke-opacity="1" stroke-linecap="round" stroke-linejoin="round"/>
    <path d="M 80.3679428100586 291.20855712890625 C 48.449363708496094 299.8655700683594 88.02008056640625 275.0109558105469 84.56752014160156 246.18881225585938 C 79.10889434814453 248.10743713378906 85.1732177734375 252.16873168945312 87.16900634765625 239.7549591064453 C 86.93316650390625 239.16183471679688 85.94096374511719 244.16961669921875 86.55177307128906 239.9099578857422 C 88.3731460571289 219.48756408691406 95.32581329345703 249.0982666015625 103.48562622070312 229.03598022460938 C 87.5762710571289 226.10379028320312 95.24091339111328 235.13958740234375 111.90242004394531 202.28793334960938 C 120.35131072998047 186.2561492919922 123.02969360351562 179.44224548339844 121.4427719116211 186.1602783203125 C 121.87667083740234 171.99752807617188 121.96958923339844 162.80551147460938 114.33136749267578 167.5063934326172 C 128.70030212402344 146.6449737548828 136.12025451660156 146.489990234375 131.34701538085938 149.18910217285156 C 140.1315460205078 143.22125244140625 139.0690155029297 148.66761779785156 138.1519775390625 140.27537536621094 C 153.91407775878906 125.12513732910156 151.1338653564453 117.0465087890625 151.83184814453125 108.9867172241211 C 153.3662567138672 110.23858642578125 150.5006561279297 104.29127502441406 155.16513061523438 119.01486206054688 C 165.17453002929688 136.1148223876953 165.98704528808594 134.29263305664062 166.74868774414062 142.99867248535156 C 174.5984344482422 141.56451416015625 175.30886840820312 143.74624633789062 171.95767211914062 143.77305603027344 C 181.6376953125 146.34251403808594 160.1835479736328 145.8981170654297 180.01853942871094 174.12252807617188 C 179.28851318359375 173.73672485351562 161.60964965820312 171.0206756591797 162.3558349609375 194.52362060546875 C 162.01544189453125 189.65966796875 157.5398712158203 186.2945556640625 173.16375732421875 225.5555877685547 C 160.2440185546875 283.10272216796875 190.3291473388672 274.5884704589844 106.94783020019531 232.45834350585938 C 118.59246063232422 269.1087646484375 104.99552917480469 227.1641845703125 80.3679428100586 291.20855712890625" stroke-width="0.0" fill="rgb(0, 0, 0)" opacity="1.0" stroke="rgb(0, 0, 0)" stroke-opacity="1" stroke-linecap="round" stroke-linejoin="round"/>
  </g>
</svg>
