<?xml version="1.0" ?>
<svg xmlns="http://www.w3.org/2000/svg" version="1.1" width="320" height="320">
  <defs/>
  <g>
    <path d="M 151.1389923095703 199.02505493164062 C 165.20864868164062 185.146484375 191.24525451660156 173.86329650878906 204.07962036132812 164.84909057617188 C 223.29046630859375 153.15386962890625 231.6168212890625 148.33206176757812 237.88494873046875 144.75491333007812 C 243.03363037109375 140.95318603515625 246.15682983398438 139.2610321044922 249.43414306640625 137.89300537109375 C 251.3231201171875 135.809326171875 271.4937744140625 127.95762634277344 279.0538635253906 122.53245544433594 C 281.8721008300781 120.84312438964844 283.40234375 118.7435302734375 285.0507507324219 117.88241577148438 C 278.398193359375 111.2995376586914 283.9609680175781 116.80361938476562 284.61175537109375 117.63798522949219 C 282.6580505371094 124.52643585205078 274.0749206542969 125.02347564697266 274.281982421875 127.95832824707031 C 274.4156799316406 128.62081909179688 272.7219543457031 127.86224365234375 273.0326843261719 129.0312957763672 C 256.7076110839844 142.5940399169922 256.7741394042969 145.19210815429688 252.88912963867188 147.50584411621094 C 248.27207946777344 150.85829162597656 243.49008178710938 154.0845489501953 238.6609649658203 157.19717407226562 C 230.1431121826172 162.305908203125 213.33094787597656 173.15170288085938 204.56321716308594 177.8647003173828 C 196.31968688964844 184.3951416015625 173.27862548828125 193.53285217285156 169.60923767089844 197.04286193847656 C 172.9989013671875 202.78012084960938 180.26434326171875 216.25027465820312 194.24026489257812 224.0733184814453 C 187.9850311279297 232.6468963623047 187.82492065429688 234.493896484375 190.44815063476562 238.41258239746094 C 188.88233947753906 245.04798889160156 191.90451049804688 250.0153045654297 193.210205078125 256.5346984863281 C 196.37628173828125 262.58587646484375 195.88699340820312 263.0245361328125 213.87411499023438 272.4838562011719 C 217.6943359375 267.6610107421875 212.55604553222656 281.9850158691406 191.60528564453125 273.5505065917969 C 192.3296356201172 274.31658935546875 188.36070251464844 276.3807678222656 183.99758911132812 270.1074523925781 C 182.42681884765625 268.05902099609375 183.28152465820312 269.6376037597656 187.5483856201172 274.9073486328125 C 187.30343627929688 273.09796142578125 185.29310607910156 272.51654052734375 183.77964782714844 271.6041564941406 C 184.74038696289062 267.60772705078125 183.8147735595703 264.19561767578125 181.53738403320312 260.06817626953125 C 181.16758728027344 258.5695495605469 180.82769775390625 255.77330017089844 179.7830352783203 252.4176025390625 C 170.1741943359375 240.44369506835938 170.0738067626953 239.6202392578125 175.7838134765625 228.40719604492188 C 175.65374755859375 225.99659729003906 155.5026092529297 215.19403076171875 151.1389923095703 199.02505493164062" stroke-width="0.0" fill="rgb(0, 0, 0)" opacity="1.0" stroke="rgb(0, 0, 0)" stroke-opacity="1" stroke-linecap="round" stroke-linejoin="round"/>
    <path d="M 80.44571685791016 289.4353942871094 C 48.489051818847656 301.0217590332031 88.28593444824219 270.6682434082031 85.10340118408203 244.57281494140625 C 86.77522277832031 248.75070190429688 81.5294189453125 243.81314086914062 82.14225769042969 247.44338989257812 C 88.98500061035156 238.1194610595703 86.88330078125 242.7655792236328 86.51199340820312 243.0950927734375 C 85.3662109375 216.4430694580078 95.84054565429688 248.1702880859375 103.46600341796875 228.46241760253906 C 86.50643920898438 225.18280029296875 93.50885009765625 236.70513916015625 111.81378936767578 199.0918426513672 C 119.32637023925781 185.24928283691406 122.10152435302734 179.64230346679688 120.51663208007812 185.3026123046875 C 119.56332397460938 176.10693359375 121.63917541503906 161.11953735351562 112.36112976074219 165.73382568359375 C 127.2491226196289 144.03001403808594 131.5951385498047 146.28439331054688 127.6480941772461 148.8260040283203 C 136.73623657226562 140.82235717773438 137.43841552734375 147.58135986328125 136.56741333007812 138.86187744140625 C 153.9371795654297 119.28366088867188 146.73989868164062 115.36725616455078 149.0341796875 105.36998748779297 C 148.86814880371094 106.9549789428711 146.2013397216797 104.75407409667969 153.1299285888672 119.58575439453125 C 163.57623291015625 135.54638671875 163.49978637695312 138.39968872070312 163.8035430908203 139.8728790283203 C 163.08074951171875 143.3404083251953 168.06695556640625 139.91000366210938 172.8404998779297 142.77752685546875 C 178.5225372314453 141.6104736328125 159.64816284179688 144.70449829101562 178.2633056640625 173.49546813964844 C 176.8230743408203 171.2576446533203 160.5756072998047 171.27870178222656 160.36009216308594 195.08323669433594 C 158.97378540039062 190.34716796875 156.2933807373047 186.07623291015625 170.26893615722656 224.01971435546875 C 158.67532348632812 281.1732482910156 187.76673889160156 273.1174621582031 106.1615219116211 231.4856414794922 C 119.25822448730469 268.09063720703125 104.54364776611328 226.81883239746094 80.44571685791016 289.4353942871094" stroke-width="0.0" fill="rgb(0, 0, 0)" opacity="1.0" stroke="rgb(0, 0, 0)" stroke-opacity="1" stroke-linecap="round" stroke-linejoin="round"/>
  </g>
</svg>
