<?xml version="1.0" ?>
<svg xmlns="http://www.w3.org/2000/svg" version="1.1" width="320" height="320">
  <defs/>
  <g>
    <path d="M 124.13330841064453 171.2148895263672 C 139.28598022460938 152.58934020996094 161.81048583984375 142.94375610351562 172.77938842773438 135.772216796875 C 190.64820861816406 124.4186019897461 200.09552001953125 119.17035675048828 206.91493225097656 114.42394256591797 C 213.8113250732422 109.82146453857422 217.68052673339844 107.07740020751953 221.8173370361328 104.65874481201172 C 224.66268920898438 101.96166229248047 241.36898803710938 92.48481750488281 249.67564392089844 87.83092498779297 C 252.62831115722656 86.9662857055664 254.18186950683594 85.7199935913086 257.8214111328125 85.4641342163086 C 260.33868408203125 89.54782104492188 253.4337615966797 85.07330322265625 256.0553894042969 88.70905303955078 C 249.35487365722656 90.0641860961914 247.968017578125 100.49661254882812 243.95082092285156 99.89241790771484 C 244.7104034423828 101.46440887451172 244.72494506835938 105.22090911865234 243.80770874023438 104.61152648925781 C 231.52549743652344 111.68144226074219 230.87228393554688 111.70928955078125 226.2821502685547 115.29066467285156 C 219.87513732910156 120.0643310546875 213.49301147460938 124.88990783691406 207.1031036376953 128.92271423339844 C 197.6099090576172 134.1162109375 181.4756622314453 143.78146362304688 173.61668395996094 148.1869354248047 C 166.1363983154297 153.1161346435547 149.36024475097656 161.1874237060547 146.25350952148438 165.5596160888672 C 154.92178344726562 179.05430603027344 161.62545776367188 198.29920959472656 173.3518829345703 209.56118774414062 C 167.10498046875 217.89279174804688 166.57325744628906 220.4882354736328 168.08438110351562 224.96453857421875 C 167.48214721679688 231.3762969970703 170.29541015625 238.08880615234375 171.62509155273438 244.85604858398438 C 178.89463806152344 249.46182250976562 179.85345458984375 250.4543914794922 192.9462432861328 257.1546325683594 C 196.3992156982422 251.117919921875 194.24749755859375 261.05645751953125 179.3966064453125 260.1708984375 C 181.3406219482422 260.5828857421875 182.48046875 261.09088134765625 176.3861846923828 260.0801086425781 C 174.60433959960938 260.2954406738281 176.5468292236328 261.00927734375 171.82110595703125 259.74566650390625 C 173.1112823486328 259.8080749511719 170.98167419433594 258.90625 169.56004333496094 258.4783630371094 C 166.79275512695312 257.68548583984375 164.70863342285156 256.0620422363281 162.5856475830078 252.91722106933594 C 160.4716796875 248.68495178222656 159.1488494873047 243.6512451171875 158.1716766357422 238.02931213378906 C 148.23886108398438 225.8862762451172 148.5599822998047 221.08529663085938 154.34988403320312 211.21360778808594 C 154.76406860351562 208.257568359375 132.76010131835938 192.09036254882812 124.13330841064453 171.2148895263672" stroke-width="0.0" fill="rgb(0, 0, 0)" opacity="1.0" stroke="rgb(0, 0, 0)" stroke-opacity="1" stroke-linecap="round" stroke-linejoin="round"/>
    <path d="M 94.64483642578125 273.158447265625 C 72.03646087646484 281.5686340332031 94.30487060546875 265.9511413574219 91.58075714111328 236.19671630859375 C 86.69307708740234 234.85928344726562 78.5181884765625 235.1746368408203 80.79234313964844 235.0091094970703 C 86.4414291381836 234.97433471679688 86.85253143310547 239.49781799316406 90.19038391113281 227.08737182617188 C 83.71733093261719 206.69515991210938 97.29077911376953 229.53640747070312 100.64203643798828 209.8034210205078 C 80.51296997070312 211.540771484375 86.2824935913086 220.5571746826172 98.07167053222656 188.30030822753906 C 103.16065216064453 174.24583435058594 105.33853149414062 167.07139587402344 107.92604064941406 161.46527099609375 C 100.06403350830078 142.1304168701172 108.64289855957031 125.95083618164062 97.54971313476562 129.38473510742188 C 102.97480010986328 117.27130889892578 109.09793853759766 115.61561584472656 111.0595474243164 113.42723083496094 C 120.74356842041016 107.97090911865234 125.32948303222656 113.27011108398438 120.54068756103516 106.46934509277344 C 128.2794647216797 92.38562774658203 131.05966186523438 87.60946655273438 133.87457275390625 69.39041900634766 C 136.49795532226562 76.97563171386719 138.29067993164062 82.31370544433594 143.50523376464844 97.04203033447266 C 146.4983673095703 108.07341766357422 141.86935424804688 117.0896987915039 144.97940063476562 113.99048614501953 C 154.64089965820312 113.54656982421875 159.07644653320312 112.24240112304688 155.21438598632812 112.53384399414062 C 156.03721618652344 120.47393798828125 145.8354949951172 123.01546478271484 162.3505859375 143.05892944335938 C 154.54153442382812 144.63394165039062 147.3612518310547 147.850830078125 143.65823364257812 158.9290313720703 C 142.00140380859375 159.05006408691406 135.88470458984375 164.08541870117188 149.3657989501953 195.174560546875 C 137.1100311279297 231.3624725341797 155.11097717285156 232.26893615722656 106.9619369506836 210.83908081054688 C 121.77662658691406 239.956298828125 103.58940887451172 222.01962280273438 94.64483642578125 273.158447265625" stroke-width="0.0" fill="rgb(0, 0, 0)" opacity="1.0" stroke="rgb(0, 0, 0)" stroke-opacity="1" stroke-linecap="round" stroke-linejoin="round"/>
  </g>
</svg>
