<?xml version="1.0" ?>
<svg xmlns="http://www.w3.org/2000/svg" version="1.1" width="320" height="320">
  <defs/>
  <g>
    <path d="M 105.65008544921875 175.6305694580078 C 126.12262725830078 154.4835968017578 156.50149536132812 146.430419921875 169.99879455566406 139.96307373046875 C 190.02369689941406 129.6223907470703 198.875732421875 125.3694839477539 204.8235626220703 121.76338195800781 C 210.786865234375 118.85572052001953 213.71563720703125 117.34637451171875 216.99765014648438 115.87127685546875 C 218.86614990234375 114.18016815185547 239.6249237060547 105.37545776367188 249.02215576171875 99.02445983886719 C 252.136962890625 98.14873504638672 253.16220092773438 97.8322525024414 257.3836364746094 98.20030975341797 C 255.99464416503906 96.85006713867188 253.2152862548828 94.86165618896484 255.8568115234375 99.07069396972656 C 247.99020385742188 100.49463653564453 243.23020935058594 113.33465576171875 238.24758911132812 112.03514099121094 C 238.98028564453125 114.65694427490234 235.6771240234375 113.20280456542969 236.03468322753906 114.95502471923828 C 224.61769104003906 123.1642837524414 224.45220947265625 124.6374282836914 220.5033416748047 126.61505889892578 C 215.28416442871094 129.2724609375 210.7213897705078 132.04281616210938 205.60081481933594 134.8749237060547 C 196.4568634033203 139.5419921875 178.48121643066406 149.04708862304688 169.19923400878906 152.83001708984375 C 161.00401306152344 158.56004333496094 135.27789306640625 165.048828125 132.65599060058594 167.84017944335938 C 145.1051483154297 183.52981567382812 155.2950439453125 204.36282348632812 170.60438537597656 214.23605346679688 C 162.52395629882812 223.0882110595703 162.57720947265625 223.33006286621094 165.9748992919922 228.39547729492188 C 165.9231719970703 233.36892700195312 169.25338745117188 239.2664337158203 170.70359802246094 246.6529998779297 C 175.11959838867188 252.62124633789062 175.22555541992188 253.87704467773438 193.01316833496094 260.02301025390625 C 194.5798797607422 257.5604248046875 190.32945251464844 270.69268798828125 171.81199645996094 264.26275634765625 C 173.0742950439453 265.03485107421875 170.62159729003906 266.8895263671875 165.9212646484375 263.45526123046875 C 166.58091735839844 264.70086669921875 167.72283935546875 265.5032958984375 164.81661987304688 263.7802429199219 C 164.7172393798828 263.34173583984375 163.7877960205078 262.18316650390625 162.50848388671875 261.19232177734375 C 162.01373291015625 259.0161437988281 162.1219024658203 255.57040405273438 160.10435485839844 251.71360778808594 C 159.43576049804688 249.02621459960938 158.7256317138672 245.562744140625 156.869140625 241.20626831054688 C 145.66787719726562 229.86549377441406 145.70761108398438 227.4244842529297 150.42080688476562 216.416015625 C 150.48202514648438 215.3187713623047 119.56857299804688 202.33502197265625 105.65008544921875 175.6305694580078" stroke-width="0.0" fill="rgb(0, 0, 0)" opacity="1.0" stroke="rgb(0, 0, 0)" stroke-opacity="1" stroke-linecap="round" stroke-linejoin="round"/>
    <path d="M 79.63778686523438 277.9158020019531 C 49.31549072265625 290.0982666015625 81.68345642089844 268.677001953125 78.30144500732422 242.26995849609375 C 80.10275268554688 240.45364379882812 75.53824615478516 236.50205993652344 78.0274887084961 242.0872802734375 C 82.91343688964844 240.2135467529297 76.52666473388672 242.73622131347656 78.74076080322266 236.7086944580078 C 71.36408996582031 211.22967529296875 88.63167572021484 240.68016052246094 89.70552825927734 217.092041015625 C 66.78699493408203 215.58692932128906 75.92389678955078 226.34320068359375 89.3219223022461 189.44720458984375 C 95.71808624267578 172.69174194335938 99.5201416015625 168.23033142089844 94.33147430419922 167.57763671875 C 87.42141723632812 156.07838439941406 97.96709442138672 126.53624725341797 81.73042297363281 136.5048828125 C 94.91029357910156 120.24964141845703 98.0931396484375 119.88481903076172 97.03375244140625 120.71597290039062 C 107.7094955444336 114.1156234741211 113.04899597167969 119.9939193725586 108.057861328125 111.28180694580078 C 117.3678970336914 94.90558624267578 120.76910400390625 90.56861114501953 120.86810302734375 70.92689514160156 C 123.0572509765625 88.52816772460938 125.99537658691406 90.52082824707031 131.6378173828125 104.46961975097656 C 133.21922302246094 115.98904418945312 128.41326904296875 119.44171905517578 133.7063751220703 119.00618743896484 C 142.97799682617188 119.99249267578125 143.4256591796875 120.71770477294922 143.26219177246094 120.22340393066406 C 144.45013427734375 122.94061279296875 131.961181640625 125.80015563964844 152.23829650878906 152.4512939453125 C 145.95606994628906 149.92129516601562 133.78346252441406 147.62550354003906 133.41253662109375 167.98129272460938 C 133.01702880859375 162.7798309326172 126.76300048828125 164.6868896484375 137.8592987060547 194.246826171875 C 121.73062133789062 235.58688354492188 145.7672882080078 239.83843994140625 92.10193634033203 218.59425354003906 C 112.65225982666016 254.81134033203125 92.51142883300781 215.43524169921875 79.63778686523438 277.9158020019531" stroke-width="0.0" fill="rgb(0, 0, 0)" opacity="1.0" stroke="rgb(0, 0, 0)" stroke-opacity="1" stroke-linecap="round" stroke-linejoin="round"/>
  </g>
</svg>
