<?xml version="1.0" ?>
<svg xmlns="http://www.w3.org/2000/svg" version="1.1" width="320" height="320">
  <defs/>
  <g>
    <path d="M 125.09689331054688 170.81375122070312 C 142.7522430419922 153.12338256835938 165.8704833984375 145.8735809326172 177.257568359375 138.02227783203125 C 195.9818878173828 125.93060302734375 205.19349670410156 120.84219360351562 211.65908813476562 116.7218017578125 C 217.91366577148438 112.79552459716797 221.0052490234375 110.75819396972656 224.43931579589844 108.75126647949219 C 226.8927001953125 106.4764633178711 246.6463165283203 96.40119171142578 254.3236846923828 92.5799331665039 C 258.5895690917969 89.4407958984375 261.8970031738281 88.99186706542969 265.55322265625 84.71514129638672 C 269.1137390136719 90.81938171386719 259.717041015625 86.47669219970703 263.0454406738281 92.17780303955078 C 255.10731506347656 93.34611511230469 253.0861053466797 103.02399444580078 248.5741729736328 102.21487426757812 C 249.31417846679688 105.44583892822266 245.791748046875 103.96712493896484 246.2337646484375 105.9100570678711 C 233.53150939941406 115.63916778564453 233.39088439941406 116.68275451660156 229.12106323242188 119.5190658569336 C 223.2367401123047 123.08010864257812 217.53256225585938 126.82048034667969 212.01707458496094 130.20753479003906 C 202.6899871826172 135.43234252929688 186.0584259033203 145.87173461914062 177.52313232421875 150.49697875976562 C 169.98094177246094 156.09034729003906 151.30026245117188 162.37374877929688 148.74403381347656 165.6129150390625 C 158.07290649414062 178.8811492919922 166.1812286376953 201.13792419433594 178.27972412109375 213.11891174316406 C 170.03189086914062 221.13577270507812 169.71453857421875 222.36167907714844 171.28477478027344 228.0966796875 C 170.4103546142578 233.74142456054688 172.81625366210938 240.49546813964844 173.7270050048828 247.6066131591797 C 179.31021118164062 251.9913787841797 180.19488525390625 253.86801147460938 194.8753662109375 260.69854736328125 C 197.49974060058594 256.6617736816406 193.68946838378906 267.45819091796875 178.20156860351562 263.57037353515625 C 180.41006469726562 263.8573303222656 179.23097229003906 264.78619384765625 174.32623291015625 263.0862121582031 C 173.14686584472656 263.1268005371094 175.1946258544922 264.2696533203125 170.87509155273438 263.2104187011719 C 173.06446838378906 263.1354675292969 170.87644958496094 262.4842529296875 168.98585510253906 262.059326171875 C 166.58627319335938 260.87493896484375 164.9134521484375 258.4737854003906 163.92532348632812 254.28152465820312 C 162.29656982421875 250.16976928710938 161.37728881835938 245.6382598876953 160.44769287109375 239.9011688232422 C 151.68470764160156 226.8424072265625 152.64523315429688 222.74856567382812 158.8835906982422 213.05239868164062 C 159.20838928222656 211.32398986816406 134.43743896484375 194.00172424316406 125.09689331054688 170.81375122070312" stroke-width="0.0" fill="rgb(0, 0, 0)" opacity="1.0" stroke="rgb(0, 0, 0)" stroke-opacity="1" stroke-linecap="round" stroke-linejoin="round"/>
    <path d="M 97.78160095214844 276.1568603515625 C 70.57621765136719 284.1512145996094 97.36148834228516 269.4674987792969 93.82148742675781 236.79684448242188 C 93.48562622070312 233.02940368652344 88.71349334716797 234.60980224609375 90.19577026367188 234.070556640625 C 90.51880645751953 234.29734802246094 91.04513549804688 239.1710662841797 94.07938385009766 229.38304138183594 C 87.86021423339844 206.68540954589844 103.02269744873047 233.93511962890625 105.34520721435547 210.87477111816406 C 84.496826171875 210.62918090820312 89.94305419921875 225.20950317382812 101.82732391357422 191.33291625976562 C 107.53784942626953 177.16188049316406 109.4491958618164 168.63522338867188 114.07100677490234 164.4983367919922 C 103.64806365966797 145.2456817626953 114.51856231689453 125.27658081054688 100.52983856201172 131.2417449951172 C 107.58056640625 120.51557159423828 112.321533203125 117.55874633789062 114.56244659423828 115.5189437866211 C 122.36248016357422 109.5858154296875 132.02615356445312 115.91944122314453 125.81883239746094 107.11700439453125 C 131.23086547851562 95.4949722290039 139.3578338623047 95.09671020507812 139.0387420654297 69.4029769897461 C 140.12620544433594 79.86647033691406 142.30987548828125 84.35380554199219 149.33091735839844 98.2922134399414 C 153.84378051757812 106.64167022705078 145.9436798095703 121.28887176513672 149.61154174804688 114.23377990722656 C 152.74423217773438 117.04259490966797 160.07334899902344 116.2164077758789 161.16241455078125 116.9930648803711 C 160.39117431640625 121.36455535888672 150.65713500976562 121.57080078125 167.74072265625 148.18980407714844 C 156.5037384033203 145.50975036621094 150.45379638671875 149.25152587890625 147.13194274902344 161.9151611328125 C 146.05245971679688 160.14349365234375 141.8055877685547 163.27542114257812 153.09927368164062 198.8332977294922 C 138.58206176757812 238.34506225585938 162.37225341796875 235.65338134765625 108.62120056152344 212.40623474121094 C 128.81109619140625 247.2516632080078 104.59054565429688 216.76034545898438 97.78160095214844 276.1568603515625" stroke-width="0.0" fill="rgb(0, 0, 0)" opacity="1.0" stroke="rgb(0, 0, 0)" stroke-opacity="1" stroke-linecap="round" stroke-linejoin="round"/>
  </g>
</svg>
