<?xml version="1.0" ?>
<svg xmlns="http://www.w3.org/2000/svg" version="1.1" width="320" height="320">
  <defs/>
  <g>
    <path d="M 123.04296875 199.70004272460938 C 139.35169982910156 177.6949462890625 170.3271026611328 162.52561950683594 182.02818298339844 152.60768127441406 C 199.9896240234375 140.91363525390625 207.63063049316406 136.14791870117188 212.49270629882812 132.76708984375 C 217.64511108398438 129.4186248779297 219.4545135498047 127.7998275756836 222.01861572265625 125.89904022216797 C 223.88865661621094 124.04257202148438 242.80657958984375 114.0136947631836 251.9797821044922 106.1324234008789 C 254.8016357421875 104.80467224121094 255.9012451171875 103.7210693359375 259.9153747558594 103.4314956665039 C 257.66387939453125 101.88317108154297 256.0819396972656 101.1278305053711 259.2435607910156 104.28736877441406 C 257.724609375 109.52113342285156 248.6459197998047 110.23481750488281 247.828125 118.60055541992188 C 245.2723846435547 116.81700134277344 246.0559844970703 121.57240295410156 244.41758728027344 120.68334197998047 C 230.9905548095703 130.19488525390625 231.3414764404297 134.30445861816406 227.95335388183594 136.86102294921875 C 223.45947265625 139.71051025390625 219.45849609375 142.6038818359375 215.5835418701172 145.6039581298828 C 207.8353729248047 150.51976013183594 192.04818725585938 161.16757202148438 183.67266845703125 166.5437469482422 C 175.960693359375 172.6306610107422 149.2606658935547 185.33404541015625 146.78985595703125 189.31106567382812 C 157.2001495361328 201.71702575683594 168.31695556640625 218.42591857910156 185.52853393554688 224.9131622314453 C 178.4408416748047 236.32064819335938 178.6923065185547 236.1409454345703 181.42323303222656 240.3745574951172 C 181.96597290039062 244.4136199951172 185.4606170654297 248.72708129882812 188.25265502929688 254.48806762695312 C 193.95420837402344 260.42901611328125 189.2376708984375 262.32763671875 216.6210479736328 264.66131591796875 C 216.98910522460938 263.93878173828125 210.36328125 284.8948974609375 182.0500946044922 274.5576477050781 C 183.1212921142578 275.4061279296875 183.94541931152344 277.79449462890625 180.2511444091797 269.5842590332031 C 180.7833709716797 271.28082275390625 187.025146484375 275.31231689453125 182.63038635253906 272.9824523925781 C 184.51309204101562 273.23760986328125 182.56414794921875 271.58026123046875 181.3731231689453 270.9476013183594 C 181.3290557861328 266.7139892578125 179.7387237548828 264.0378723144531 176.34500122070312 260.34393310546875 C 175.9097137451172 259.4008483886719 175.1802978515625 257.7906494140625 172.82566833496094 253.8095703125 C 160.01919555664062 243.9195556640625 159.86441040039062 243.1418914794922 164.85275268554688 230.32778930664062 C 164.86026000976562 229.22032165527344 136.61972045898438 221.3073272705078 123.04296875 199.70004272460938" stroke-width="0.0" fill="rgb(0, 0, 0)" opacity="1.0" stroke="rgb(0, 0, 0)" stroke-opacity="1" stroke-linecap="round" stroke-linejoin="round"/>
    <path d="M 82.75630187988281 294.4776916503906 C 47.06023406982422 303.0877685546875 88.97936248779297 285.31097412109375 79.75872802734375 249.93292236328125 C 82.6848373413086 250.0792694091797 78.85833740234375 252.17056274414062 79.35729217529297 254.36865234375 C 75.37319946289062 246.48348999023438 77.18631744384766 254.9249267578125 81.18083190917969 248.00723266601562 C 76.71676635742188 225.69505310058594 92.52105712890625 250.55364990234375 94.15849304199219 232.82046508789062 C 76.27056121826172 233.2564697265625 83.04398345947266 239.54563903808594 98.18327331542969 200.19256591796875 C 105.45892333984375 187.00735473632812 103.48069763183594 181.75845336914062 104.46422576904297 186.9687042236328 C 99.58905792236328 170.6790313720703 99.83460235595703 156.90574645996094 90.62329864501953 161.40113830566406 C 104.38119506835938 138.76231384277344 112.38986206054688 142.2235870361328 108.06875610351562 143.21450805664062 C 115.70305633544922 138.18637084960938 119.0107421875 143.9417724609375 113.37185668945312 130.80856323242188 C 130.23277282714844 114.72538757324219 123.54335021972656 99.79083251953125 125.39935302734375 97.46955871582031 C 129.396240234375 106.62567138671875 125.61634826660156 101.77947998046875 133.11282348632812 117.82701110839844 C 145.4293975830078 132.8415069580078 136.9651336669922 138.16171264648438 147.6856231689453 133.82054138183594 C 143.8217010498047 136.7177734375 155.33718872070312 134.5352325439453 152.6907196044922 135.9267120361328 C 158.0251007080078 140.7070770263672 139.18955993652344 142.89749145507812 162.6995849609375 167.02987670898438 C 158.8140411376953 167.1051788330078 141.63619995117188 164.83810424804688 144.18626403808594 191.61737060546875 C 141.32839965820312 183.11195373535156 135.7533416748047 185.8303985595703 149.05357360839844 212.6851043701172 C 134.5601043701172 263.26104736328125 164.11708068847656 269.62506103515625 99.40125274658203 234.11036682128906 C 114.82306671142578 270.0987548828125 99.91241455078125 229.05751037597656 82.75630187988281 294.4776916503906" stroke-width="0.0" fill="rgb(0, 0, 0)" opacity="1.0" stroke="rgb(0, 0, 0)" stroke-opacity="1" stroke-linecap="round" stroke-linejoin="round"/>
  </g>
</svg>
