<?xml version="1.0" ?>
<svg xmlns="http://www.w3.org/2000/svg" version="1.1" width="320" height="320">
  <defs/>
  <g>
    <path d="M 124.1875228881836 170.7471923828125 C 141.19491577148438 153.33355712890625 164.3285369873047 145.26185607910156 175.32110595703125 137.13548278808594 C 193.67880249023438 124.7178955078125 203.23263549804688 119.8724136352539 209.79945373535156 115.4771499633789 C 216.1037139892578 111.39159393310547 219.54006958007812 109.13754272460938 223.38601684570312 106.96520233154297 C 225.45156860351562 104.68267822265625 245.500244140625 95.41608428955078 253.21434020996094 90.33427429199219 C 256.143798828125 87.78871154785156 258.8323974609375 87.09486389160156 261.3205871582031 84.01069641113281 C 265.2628173828125 89.80977630615234 257.2158203125 85.367919921875 260.2289123535156 89.72771453857422 C 252.8789825439453 91.0541763305664 250.60989379882812 101.5787582397461 246.4759979248047 100.58680725097656 C 247.29078674316406 103.54414367675781 243.8574676513672 102.04961395263672 244.2118682861328 103.6668701171875 C 232.34039306640625 113.01283264160156 232.26036071777344 114.99856567382812 227.6790771484375 118.0068130493164 C 221.63934326171875 121.63238525390625 215.6328582763672 125.50617980957031 210.0213623046875 129.2586212158203 C 200.69700622558594 134.60662841796875 184.3064422607422 144.83509826660156 175.9900360107422 149.51771545410156 C 168.64151000976562 155.09938049316406 149.98123168945312 162.1318359375 147.2984161376953 165.4456024169922 C 156.6039276123047 178.32315063476562 164.78793334960938 200.17047119140625 176.43055725097656 212.00408935546875 C 168.57559204101562 219.90554809570312 168.32736206054688 221.3002166748047 170.48068237304688 227.59303283691406 C 169.07171630859375 233.47097778320312 171.87338256835938 239.93060302734375 172.70510864257812 246.92718505859375 C 178.46783447265625 251.30093383789062 179.43572998046875 253.0382080078125 193.53639221191406 259.4949035644531 C 196.30584716796875 255.22142028808594 192.63294982910156 265.8720397949219 177.50328063964844 262.50433349609375 C 180.042724609375 263.28448486328125 179.23728942871094 263.7240905761719 174.48419189453125 262.416748046875 C 173.23675537109375 262.528564453125 175.07383728027344 263.3742980957031 170.81155395507812 262.4024658203125 C 172.69619750976562 262.3685302734375 170.41940307617188 261.4676208496094 168.650146484375 260.9728088378906 C 166.19090270996094 259.7284851074219 164.47972106933594 257.7868347167969 163.3129119873047 253.69126892089844 C 161.73545837402344 249.5259246826172 160.8037872314453 244.8854217529297 159.94808959960938 239.44419860839844 C 150.23606872558594 226.11965942382812 150.97259521484375 222.36683654785156 157.35023498535156 212.37257385253906 C 157.7421112060547 210.30392456054688 133.53060913085938 193.33042907714844 124.1875228881836 170.7471923828125" stroke-width="0.0" fill="rgb(0, 0, 0)" opacity="1.0" stroke="rgb(0, 0, 0)" stroke-opacity="1" stroke-linecap="round" stroke-linejoin="round"/>
    <path d="M 96.762939453125 275.2043151855469 C 70.55118560791016 284.2137145996094 96.07547760009766 268.7923278808594 93.41057586669922 236.0653839111328 C 91.88841247558594 233.91168212890625 85.17578125 236.68392944335938 87.57678985595703 235.71231079101562 C 91.02641296386719 233.47793579101562 90.34000396728516 239.65072631835938 93.21659088134766 229.1435546875 C 86.0454330444336 206.41302490234375 101.50372314453125 232.939208984375 103.92955017089844 210.3265838623047 C 81.46932220458984 210.34339904785156 88.7348861694336 223.82827758789062 100.17877197265625 190.118896484375 C 105.50908660888672 175.62220764160156 108.03610229492188 167.99343872070312 112.04497528076172 164.46095275878906 C 101.92369842529297 143.89898681640625 112.20475006103516 124.55972290039062 98.71007537841797 131.3241729736328 C 106.84889221191406 119.43346405029297 111.2153091430664 116.61302947998047 113.57765197753906 114.72862243652344 C 122.38773345947266 109.27507781982422 129.22962951660156 115.60830688476562 123.90489959716797 106.3980941772461 C 130.81307983398438 93.14493560791016 136.59619140625 90.98388671875 136.0548095703125 69.4755859375 C 137.7972412109375 79.05827331542969 138.5231170654297 83.63258361816406 145.74363708496094 97.35448455810547 C 150.7419891357422 106.77619171142578 143.93629455566406 120.44330596923828 146.47100830078125 113.81182098388672 C 153.7642822265625 116.81684875488281 160.58059692382812 115.83999633789062 158.98973083496094 115.47693634033203 C 158.60716247558594 120.29706573486328 148.2421875 121.94742584228516 165.74351501464844 147.28236389160156 C 155.48793029785156 145.4730987548828 149.628173828125 148.36622619628906 146.11695861816406 160.39700317382812 C 143.36672973632812 158.56895446777344 138.12620544433594 162.20709228515625 150.89572143554688 197.26736450195312 C 137.5380401611328 235.9359130859375 159.63473510742188 234.66717529296875 107.8228530883789 211.77259826660156 C 125.92819213867188 244.27638244628906 103.5628433227539 217.98548889160156 96.762939453125 275.2043151855469" stroke-width="0.0" fill="rgb(0, 0, 0)" opacity="1.0" stroke="rgb(0, 0, 0)" stroke-opacity="1" stroke-linecap="round" stroke-linejoin="round"/>
  </g>
</svg>
