<?xml version="1.0" ?>
<svg xmlns="http://www.w3.org/2000/svg" version="1.1" width="320" height="320">
  <defs/>
  <g>
    <path d="M 126.09776306152344 171.78086853027344 C 139.7985382080078 153.03810119628906 160.7234344482422 142.53868103027344 171.167724609375 134.84425354003906 C 187.3003692626953 121.88268280029297 196.95709228515625 115.9507827758789 203.6001434326172 110.85082244873047 C 210.5822296142578 106.06893920898438 214.7307891845703 102.97257232666016 218.8837127685547 100.43743896484375 C 222.24285888671875 97.41992950439453 237.25851440429688 88.30797576904297 246.68605041503906 85.23751068115234 C 250.76734924316406 85.36210632324219 252.69479370117188 84.55560302734375 256.1380615234375 85.49362182617188 C 260.1895446777344 90.75869750976562 254.01661682128906 86.23503112792969 256.8965148925781 90.20458221435547 C 250.71075439453125 91.5134506225586 250.486328125 99.75133514404297 244.4076385498047 99.2809829711914 C 245.72076416015625 101.46662139892578 246.48683166503906 105.59049987792969 246.4852752685547 107.80003356933594 C 234.24166870117188 113.09950256347656 230.9295196533203 112.79621887207031 225.49147033691406 116.03181457519531 C 218.07411193847656 119.69969177246094 211.40579223632812 123.6798095703125 204.72637939453125 127.25146484375 C 195.01358032226562 131.9959259033203 179.8940887451172 141.4788055419922 172.7057342529297 146.3120880126953 C 166.1727752685547 152.52305603027344 152.84156799316406 162.70054626464844 148.85983276367188 168.9644775390625 C 154.0853271484375 179.9322052001953 160.49847412109375 197.5247039794922 170.39588928222656 208.13731384277344 C 166.1488494873047 214.51397705078125 166.19723510742188 216.4585418701172 168.68502807617188 222.1309814453125 C 169.31695556640625 226.5388946533203 173.5208282470703 232.19039916992188 177.0408935546875 238.33338928222656 C 182.5194091796875 244.49835205078125 182.95663452148438 245.54757690429688 195.11431884765625 253.93405151367188 C 199.51832580566406 248.74124145507812 195.56109619140625 259.3294372558594 180.22714233398438 258.5483093261719 C 182.3186798095703 259.3570251464844 183.24896240234375 260.0080261230469 177.75599670410156 258.7259826660156 C 175.09329223632812 258.884521484375 177.8424835205078 260.1634826660156 172.78070068359375 258.60760498046875 C 173.98385620117188 258.55303955078125 171.78660583496094 257.5713806152344 170.16847229003906 256.84906005859375 C 168.96229553222656 255.03829956054688 165.969970703125 253.17652893066406 163.98402404785156 249.58071899414062 C 161.77757263183594 246.4295196533203 159.9763946533203 242.90281677246094 157.44259643554688 237.35935974121094 C 149.1487274169922 226.26760864257812 149.1167755126953 219.55206298828125 152.93759155273438 209.25579833984375 C 153.53836059570312 206.37701416015625 133.45297241210938 190.92962646484375 126.09776306152344 171.78086853027344" stroke-width="0.0" fill="rgb(0, 0, 0)" opacity="1.0" stroke="rgb(0, 0, 0)" stroke-opacity="1" stroke-linecap="round" stroke-linejoin="round"/>
    <path d="M 92.4679183959961 268.2215576171875 C 71.74087524414062 275.7576599121094 91.56285095214844 261.0326232910156 90.78379821777344 237.24053955078125 C 83.19031524658203 237.76487731933594 75.9787368774414 237.08670043945312 76.83524322509766 235.0277557373047 C 80.54136657714844 234.44830322265625 79.87409973144531 236.30113220214844 84.2081069946289 224.44268798828125 C 78.33972930908203 206.6002197265625 90.48812866210938 226.1215057373047 92.78948974609375 207.00936889648438 C 79.0659408569336 210.6683349609375 84.46737670898438 218.03701782226562 95.82469177246094 185.90072631835938 C 100.89761352539062 171.90069580078125 102.48782348632812 164.17393493652344 105.44102478027344 159.58447265625 C 100.75318908691406 142.018798828125 107.53707885742188 128.3911590576172 100.82887268066406 132.68128967285156 C 107.30557250976562 120.38202667236328 111.89755249023438 118.21725463867188 114.65007781982422 116.61466979980469 C 119.60658264160156 107.52621459960938 122.47432708740234 112.60240936279297 119.01573181152344 107.58522033691406 C 126.05187225341797 90.77552032470703 126.3824691772461 83.24956512451172 131.38433837890625 66.77706146240234 C 141.3218994140625 71.46884155273438 143.95909118652344 75.54226684570312 144.88658142089844 93.70135498046875 C 145.1632080078125 109.3272705078125 141.5394287109375 118.89349365234375 145.7564239501953 112.40425109863281 C 153.6671142578125 109.06620788574219 159.08331298828125 108.60017395019531 153.8791046142578 108.92195892333984 C 156.48260498046875 120.25926971435547 146.6473388671875 122.00779724121094 161.6344757080078 138.52955627441406 C 154.57650756835938 143.85560607910156 147.3402862548828 148.00685119628906 142.2864227294922 157.937744140625 C 139.1801300048828 157.64157104492188 132.91529846191406 162.716064453125 147.3113250732422 193.09376525878906 C 135.98175048828125 229.0303192138672 153.0322723388672 231.0911865234375 106.51642608642578 211.24351501464844 C 120.25269317626953 238.7587890625 103.63929748535156 223.3141326904297 92.4679183959961 268.2215576171875" stroke-width="0.0" fill="rgb(0, 0, 0)" opacity="1.0" stroke="rgb(0, 0, 0)" stroke-opacity="1" stroke-linecap="round" stroke-linejoin="round"/>
  </g>
</svg>
