<?xml version="1.0" ?>
<svg xmlns="http://www.w3.org/2000/svg" version="1.1" width="320" height="320">
  <defs/>
  <g>
    <path d="M 84.39671325683594 170.76416015625 C 112.69055938720703 147.38125610351562 148.89215087890625 147.35919189453125 157.8451385498047 139.588134765625 C 178.12841796875 123.11068725585938 187.559814453125 117.83686828613281 193.35580444335938 113.80889892578125 C 198.8356475830078 109.90237426757812 201.4685516357422 107.43856048583984 204.3707275390625 105.10623168945312 C 206.2279815673828 102.89610290527344 228.1790771484375 86.62828826904297 236.37078857421875 82.44972229003906 C 243.84632873535156 77.11843872070312 245.66567993164062 73.10282897949219 250.95407104492188 70.53202819824219 C 256.7535095214844 76.76355743408203 248.5210723876953 69.39563751220703 251.61587524414062 72.18663024902344 C 249.94293212890625 82.57601928710938 238.38327026367188 83.95245361328125 237.93740844726562 90.991943359375 C 237.50857543945312 97.22147369384766 229.64617919921875 93.3798828125 230.86135864257812 96.69036102294922 C 214.42861938476562 110.70726776123047 214.68606567382812 113.54422760009766 210.17076110839844 116.58999633789062 C 204.70291137695312 119.91259002685547 199.99778747558594 123.59565734863281 195.44387817382812 127.1756820678711 C 186.30410766601562 133.1548309326172 167.41102600097656 147.345703125 159.7871856689453 152.05824279785156 C 151.85714721679688 158.04026794433594 122.93832397460938 162.7113494873047 118.37037658691406 166.6140899658203 C 132.75885009765625 185.76756286621094 150.30369567871094 216.02529907226562 164.6005859375 227.05567932128906 C 156.60946655273438 235.68753051757812 156.22125244140625 238.42173767089844 157.82418823242188 241.76290893554688 C 157.37840270996094 246.35292053222656 158.7824249267578 254.0201873779297 159.9431915283203 261.26287841796875 C 162.87631225585938 268.9998779296875 163.58450317382812 272.1290283203125 179.55661010742188 280.2470397949219 C 181.7987060546875 276.5416259765625 176.27284240722656 289.6449890136719 159.41830444335938 283.3972473144531 C 161.49058532714844 284.18304443359375 158.67938232421875 284.8615417480469 153.66619873046875 282.19683837890625 C 151.32131958007812 282.0528564453125 149.9796905517578 280.9565734863281 147.06216430664062 278.3060607910156 C 149.3017578125 279.14691162109375 147.5150146484375 277.4680480957031 146.5103302001953 276.2314453125 C 147.48562622070312 274.7290344238281 148.11636352539062 270.0462341308594 146.26580810546875 263.6728820800781 C 145.85964965820312 260.7760925292969 145.7207489013672 258.76165771484375 145.4559783935547 252.6475830078125 C 137.0550537109375 240.21356201171875 137.26600646972656 238.3067626953125 144.5643768310547 229.01394653320312 C 144.52145385742188 226.2438201904297 98.92829895019531 207.36416625976562 84.39671325683594 170.76416015625" stroke-width="0.0" fill="rgb(0, 0, 0)" opacity="1.0" stroke="rgb(0, 0, 0)" stroke-opacity="1" stroke-linecap="round" stroke-linejoin="round"/>
    <path d="M 83.26351928710938 295.3380432128906 C 45.03717803955078 305.2132568359375 92.1080322265625 282.69842529296875 77.45332336425781 248.79664611816406 C 78.8658218383789 251.15811157226562 76.21641540527344 251.74822998046875 78.59040832519531 251.49624633789062 C 77.14388275146484 247.2186737060547 73.26879119873047 250.9216766357422 78.80690002441406 248.99050903320312 C 69.6248779296875 224.8653564453125 88.6373291015625 254.96142578125 89.3116455078125 230.37759399414062 C 65.8141098022461 228.3980255126953 69.85883331298828 241.09982299804688 85.42413330078125 197.34178161621094 C 93.85890197753906 173.09938049316406 97.39596557617188 179.41624450683594 83.43719482421875 177.99977111816406 C 72.55683135986328 172.16836547851562 90.6603012084961 141.16807556152344 70.41405487060547 146.30162048339844 C 85.09754943847656 126.53269958496094 94.85166931152344 123.69552612304688 86.05628967285156 128.45852661132812 C 96.33918762207031 121.52933502197266 102.15159606933594 127.62946319580078 95.82270812988281 117.57827758789062 C 110.14801788330078 90.92718505859375 106.59192657470703 85.4022445678711 108.41990661621094 80.55558013916016 C 112.84674835205078 100.59425354003906 116.77220153808594 100.49253845214844 121.84935760498047 113.96997833251953 C 122.61068725585938 126.32877349853516 121.1490249633789 128.45553588867188 124.2489013671875 125.49553680419922 C 128.76844787597656 127.01958465576172 135.21041870117188 126.16610717773438 131.41165161132812 127.37049865722656 C 146.37960815429688 132.0653076171875 121.75469970703125 134.31344604492188 152.50225830078125 156.58673095703125 C 153.64578247070312 164.22157287597656 151.77224731445312 173.27537536621094 142.49252319335938 163.2027130126953 C 129.52188110351562 139.77359008789062 121.2176742553711 178.1316680908203 128.98048400878906 205.42092895507812 C 118.12509155273438 245.23155212402344 138.63746643066406 256.6400146484375 92.48197937011719 232.02127075195312 C 113.1751480102539 266.488037109375 97.78291320800781 227.2260284423828 83.26351928710938 295.3380432128906" stroke-width="0.0" fill="rgb(0, 0, 0)" opacity="1.0" stroke="rgb(0, 0, 0)" stroke-opacity="1" stroke-linecap="round" stroke-linejoin="round"/>
  </g>
</svg>
