<?xml version="1.0" ?>
<svg xmlns="http://www.w3.org/2000/svg" version="1.1" width="320" height="320">
  <defs/>
  <g>
    <path d="M 194.47987365722656 47.825218200683594 C 208.65025329589844 60.040096282958984 213.4174041748047 62.2381591796875 218.71780395507812 64.27568817138672 C 227.0093994140625 72.75607299804688 229.24490356445312 77.18072509765625 231.1193389892578 85.17737579345703 C 223.7203826904297 109.51665496826172 229.82884216308594 93.42316436767578 213.91275024414062 97.03443908691406 C 207.39356994628906 104.15294647216797 204.20230102539062 105.62535858154297 207.20794677734375 117.42678833007812 C 193.30560302734375 127.73727416992188 214.44644165039062 129.0095672607422 196.39556884765625 135.6686248779297 C 199.51768493652344 124.77975463867188 202.3277587890625 137.82867431640625 196.81314086914062 144.52325439453125 C 177.92657470703125 191.70750427246094 185.92417907714844 160.0113525390625 201.94338989257812 208.24244689941406 C 187.35464477539062 195.36314392089844 184.99237060546875 203.29830932617188 184.58250427246094 202.15061950683594 C 180.39503479003906 207.5541534423828 179.3167724609375 213.43685913085938 168.60865783691406 230.6289520263672 C 182.41966247558594 220.1453857421875 172.82534790039062 238.17752075195312 165.20343017578125 245.473876953125 C 160.27047729492188 234.42752075195312 169.95144653320312 254.72901916503906 158.52682495117188 257.075439453125 C 156.72947692871094 273.7619934082031 145.67617797851562 293.67132568359375 127.0668716430664 292.575439453125 C 107.32907104492188 287.8821105957031 102.8953857421875 279.2314453125 102.77550506591797 259.763671875 C 102.22624206542969 258.99322509765625 109.97339630126953 235.90504455566406 107.62401580810547 229.423828125 C 97.88895416259766 222.95814514160156 96.2679672241211 265.807861328125 107.46705627441406 234.2178955078125 C 110.91026306152344 226.19566345214844 108.8460464477539 229.24322509765625 110.2644271850586 224.85328674316406 C 111.4198226928711 219.73211669921875 110.8878173828125 220.92445373535156 110.28054809570312 210.4782257080078 C 111.49612426757812 216.2455291748047 112.9045639038086 213.1181640625 110.4021987915039 205.12400817871094 C 94.04217529296875 203.55844116210938 110.95215606689453 192.39891052246094 140.56268310546875 188.0421142578125 C 140.57460021972656 187.37496948242188 150.38548278808594 188.51026916503906 152.8701934814453 194.54428100585938 C 142.12692260742188 194.77947998046875 133.13267517089844 197.07730102539062 136.7701873779297 201.2882843017578 C 158.6371307373047 200.6680450439453 144.16677856445312 222.1371612548828 131.94776916503906 230.9423828125 C 125.1958999633789 222.5852508544922 143.92433166503906 234.66600036621094 142.40951538085938 199.54063415527344 C 129.6962432861328 216.27777099609375 133.94773864746094 230.21099853515625 131.62066650390625 240.7821807861328 C 132.955810546875 233.9935760498047 127.40396881103516 215.7551727294922 138.35694885253906 229.9344482421875 C 135.5001983642578 243.39031982421875 126.70228576660156 236.79722595214844 124.2697525024414 260.7872314453125 C 128.97434997558594 267.8437805175781 133.74609375 240.8888397216797 134.5876007080078 230.8428955078125 C 148.6954345703125 211.9930419921875 154.69284057617188 199.17628479003906 164.6862030029297 168.97195434570312 C 143.03224182128906 204.66421508789062 163.01144409179688 182.2940216064453 172.63824462890625 149.11341857910156 C 171.0022735595703 161.37986755371094 173.17970275878906 153.52720642089844 181.53883361816406 138.3053436279297 C 185.3891143798828 126.49382019042969 193.72544860839844 115.36832427978516 194.66331481933594 101.24577331542969 C 202.70101928710938 97.10401153564453 205.9080810546875 86.8679428100586 198.15487670898438 99.58905792236328 C 198.0259246826172 80.52472686767578 233.0928192138672 93.53994750976562 218.0448760986328 72.88101196289062 C 213.3271942138672 69.89562225341797 212.08990478515625 68.59213256835938 209.91177368164062 66.19874572753906 C 210.17832946777344 66.16661834716797 202.8719482421875 64.09873962402344 203.3154296875 60.29733657836914 C 207.4180145263672 61.99374008178711 182.92408752441406 62.44789505004883 194.47987365722656 47.825218200683594" stroke-width="0.0" fill="rgb(0, 0, 0)" opacity="1.0" stroke="rgb(0, 0, 0)" stroke-opacity="1" stroke-linecap="round" stroke-linejoin="round"/>
  </g>
</svg>
