<?xml version="1.0" ?>
<svg xmlns="http://www.w3.org/2000/svg" version="1.1" width="320" height="320">
  <defs/>
  <g>
    <path d="M 194.77383422851562 52.76142883300781 C 206.0501708984375 61.205230712890625 211.61402893066406 64.99102783203125 214.7121124267578 67.60049438476562 C 223.1947479248047 75.95635223388672 226.40992736816406 80.11090087890625 229.3090057373047 85.71539306640625 C 223.90533447265625 110.1242446899414 229.80313110351562 94.22130584716797 213.1293487548828 98.11647033691406 C 207.35633850097656 104.89977264404297 204.3654022216797 106.68719482421875 206.565673828125 118.35633850097656 C 193.28094482421875 129.20765686035156 212.42735290527344 128.96823120117188 196.9654083251953 136.0150909423828 C 199.36306762695312 126.51659393310547 201.62086486816406 138.656494140625 197.03233337402344 145.095947265625 C 180.11756896972656 187.1777801513672 188.612060546875 158.95098876953125 201.92147827148438 204.189208984375 C 188.80972290039062 195.47866821289062 184.57200622558594 204.94752502441406 182.5803985595703 199.70596313476562 C 179.27923583984375 206.0113983154297 178.64254760742188 214.3873748779297 167.81100463867188 231.45941162109375 C 179.8052520751953 221.3815460205078 170.9364013671875 238.39321899414062 163.77818298339844 246.04981994628906 C 158.20831298828125 234.38108825683594 166.7467803955078 253.7329864501953 155.33639526367188 257.1130065917969 C 152.82693481445312 271.0906066894531 141.54959106445312 290.1314697265625 127.59693145751953 289.5699768066406 C 112.34553527832031 284.1741027832031 107.03466796875 274.9751281738281 106.41421508789062 259.3684387207031 C 103.07849884033203 254.37648010253906 107.60863494873047 238.20492553710938 104.91497039794922 231.77743530273438 C 94.63704681396484 224.8912353515625 92.99911499023438 266.13824462890625 104.82372283935547 235.73239135742188 C 107.25208282470703 226.22943115234375 104.56902313232422 229.76742553710938 106.96099853515625 223.1901092529297 C 108.55709838867188 218.3981170654297 106.64258575439453 222.97418212890625 105.57401275634766 211.31661987304688 C 108.50796508789062 218.38772583007812 110.73021697998047 213.52621459960938 106.97091674804688 205.80325317382812 C 93.99431610107422 205.4633026123047 110.67832946777344 194.81646728515625 139.2234344482422 191.45486450195312 C 139.3206329345703 189.7886199951172 144.15084838867188 190.89634704589844 147.6157684326172 197.83120727539062 C 140.7999267578125 197.13414001464844 129.4563446044922 199.7261199951172 132.19677734375 202.8041534423828 C 154.05844116210938 202.16683959960938 141.4980926513672 221.5315704345703 131.29583740234375 229.3889617919922 C 123.73531341552734 222.47360229492188 141.56182861328125 235.62762451171875 138.41099548339844 200.91798400878906 C 126.15498352050781 216.48460388183594 131.0035858154297 230.17584228515625 129.07522583007812 241.89376831054688 C 130.9202117919922 235.3018341064453 124.91070556640625 217.87257385253906 135.62200927734375 232.07875061035156 C 133.5696258544922 246.2324676513672 123.86353302001953 238.51914978027344 121.68447875976562 261.6596984863281 C 128.04226684570312 268.7325134277344 134.1238555908203 241.93699645996094 134.97222900390625 232.50518798828125 C 151.29931640625 215.5487060546875 157.51535034179688 203.42691040039062 164.6651153564453 172.0977783203125 C 142.27447509765625 204.67453002929688 161.2828826904297 181.5509796142578 171.1015625 150.68019104003906 C 170.17198181152344 163.1943817138672 172.36517333984375 153.50860595703125 181.6105194091797 139.2010955810547 C 185.855224609375 128.28067016601562 192.94744873046875 116.55120086669922 193.8656463623047 102.32730865478516 C 201.5135498046875 97.39522552490234 204.3905029296875 86.62271881103516 195.11863708496094 100.30355834960938 C 195.94320678710938 81.59405517578125 228.54208374023438 94.35443115234375 213.42062377929688 77.21311950683594 C 207.78897094726562 72.7264404296875 207.46446228027344 71.66425323486328 206.4527587890625 68.5489501953125 C 207.05162048339844 68.87483978271484 199.8323211669922 66.2467041015625 200.0946044921875 62.153839111328125 C 205.2301025390625 62.94526672363281 185.32496643066406 63.735504150390625 194.77383422851562 52.76142883300781" stroke-width="0.0" fill="rgb(0, 0, 0)" opacity="1.0" stroke="rgb(0, 0, 0)" stroke-opacity="1" stroke-linecap="round" stroke-linejoin="round"/>
  </g>
</svg>
