<?xml version="1.0" ?>
<svg xmlns="http://www.w3.org/2000/svg" version="1.1" width="320" height="320">
  <defs/>
  <g>
    <path d="M 188.74742126464844 44.372230529785156 C 207.52113342285156 59.95744705200195 213.4152374267578 62.13584899902344 216.49436950683594 64.19514465332031 C 225.824951171875 73.3628921508789 227.4964599609375 77.0137939453125 228.21005249023438 89.7142562866211 C 217.3726348876953 108.88013458251953 225.07957458496094 90.98914337158203 210.14772033691406 96.6555404663086 C 203.86924743652344 103.88043212890625 200.4824981689453 105.51407623291016 204.04421997070312 117.6781997680664 C 188.69044494628906 128.14837646484375 211.8722686767578 129.41986083984375 192.63597106933594 136.00985717773438 C 195.5611114501953 124.13568115234375 198.14303588867188 138.82061767578125 193.27513122558594 145.3693389892578 C 171.96224975585938 200.36911010742188 177.7920684814453 161.20376586914062 200.8237762451172 214.19143676757812 C 184.78936767578125 195.56016540527344 183.17422485351562 202.4237060546875 182.83444213867188 204.26539611816406 C 177.59750366210938 210.42543029785156 177.19094848632812 213.4510955810547 165.55177307128906 234.75 C 181.57273864746094 221.11276245117188 171.61215209960938 241.46739196777344 164.60438537597656 248.274169921875 C 157.86093139648438 236.37054443359375 168.52700805664062 259.29656982421875 157.7795867919922 261.3304748535156 C 156.08343505859375 276.46099853515625 145.52590942382812 298.79254150390625 124.19087219238281 298.7397155761719 C 101.97020721435547 292.94317626953125 97.42724609375 283.88531494140625 95.92003631591797 263.9344787597656 C 95.26001739501953 262.8414306640625 104.84258270263672 236.26170349121094 102.55181121826172 231.1665496826172 C 94.07514190673828 226.07974243164062 89.66722106933594 272.84033203125 103.19549560546875 234.78269958496094 C 107.17644500732422 223.48826599121094 104.71553802490234 226.07566833496094 106.1332015991211 222.26512145996094 C 107.3829345703125 218.22930908203125 106.77232360839844 219.9779510498047 106.74371337890625 209.35914611816406 C 108.5177230834961 215.75506591796875 108.89482879638672 215.05703735351562 105.77559661865234 208.2731475830078 C 85.79834747314453 205.30784606933594 107.80191040039062 191.52601623535156 141.54812622070312 188.2444610595703 C 141.57740783691406 187.82550048828125 149.44488525390625 189.62136840820312 152.17227172851562 198.31790161132812 C 141.17481994628906 196.79281616210938 127.96178436279297 200.3054656982422 131.4940185546875 204.0732421875 C 156.31094360351562 200.30186462402344 140.6783447265625 222.9445037841797 129.19752502441406 231.00521850585938 C 122.48404693603516 223.15513610839844 140.12875366210938 235.57699584960938 139.76968383789062 198.9710235595703 C 125.79143524169922 214.25717163085938 132.1165008544922 227.937744140625 128.89837646484375 241.52377319335938 C 130.72735595703125 234.98342895507812 123.64314270019531 216.74720764160156 134.4175262451172 230.82119750976562 C 134.82025146484375 244.77732849121094 123.99272918701172 237.28350830078125 119.57953643798828 265.0926208496094 C 124.75232696533203 272.3394775390625 129.32000732421875 241.12713623046875 131.3894500732422 234.40728759765625 C 144.87351989746094 211.4092559814453 151.2084503173828 198.64088439941406 162.6341552734375 164.47117614746094 C 138.71383666992188 206.88844299316406 160.78648376464844 183.61936950683594 168.70541381835938 148.6447296142578 C 166.68960571289062 162.6378631591797 168.01705932617188 156.90478515625 176.29757690429688 137.994384765625 C 180.68211364746094 126.02644348144531 189.8158721923828 113.34607696533203 190.44052124023438 101.23902130126953 C 199.16551208496094 97.1836929321289 201.29132080078125 87.20442962646484 194.6749267578125 99.0108871459961 C 194.3002471923828 78.91442108154297 228.8749542236328 92.04837036132812 214.3070068359375 72.9965591430664 C 210.48052978515625 69.65460205078125 211.2530517578125 69.28704833984375 209.4066925048828 66.93592071533203 C 209.9769287109375 67.04686737060547 201.1761932373047 64.7568130493164 201.49453735351562 60.118431091308594 C 206.48301696777344 61.72891616821289 171.59402465820312 61.14669418334961 188.74742126464844 44.372230529785156" stroke-width="0.0" fill="rgb(0, 0, 0)" opacity="1.0" stroke="rgb(0, 0, 0)" stroke-opacity="1" stroke-linecap="round" stroke-linejoin="round"/>
  </g>
</svg>
