<?xml version="1.0" ?>
<svg xmlns="http://www.w3.org/2000/svg" version="1.1" width="320" height="320">
  <defs/>
  <g>
    <path d="M 215.50704956054688 54.619117736816406 C 216.25347900390625 61.372100830078125 219.77899169921875 64.97396850585938 221.26400756835938 67.01690673828125 C 233.06405639648438 75.88551330566406 237.6224822998047 81.4830322265625 247.16488647460938 109.60492706298828 C 238.22665405273438 127.37258911132812 243.4182586669922 115.21273040771484 223.65232849121094 111.00357055664062 C 217.23284912109375 114.78651428222656 214.96026611328125 115.47100830078125 216.68968200683594 129.9844970703125 C 200.89480590820312 137.16847229003906 220.85809326171875 145.3564453125 200.60646057128906 145.50482177734375 C 205.96031188964844 136.2235565185547 204.99163818359375 148.73477172851562 198.04615783691406 154.45301818847656 C 165.4230499267578 196.64569091796875 194.10482788085938 162.06871032714844 195.46484375 231.18106079101562 C 178.26962280273438 207.41221618652344 176.69232177734375 209.69480895996094 176.41981506347656 209.9656219482422 C 170.03524780273438 214.02320861816406 169.86659240722656 214.67459106445312 149.3922119140625 234.3626251220703 C 168.82984924316406 227.9471893310547 155.71786499023438 239.449462890625 149.64720153808594 244.19888305664062 C 127.01777648925781 244.31492614746094 156.9212646484375 251.7284698486328 135.16514587402344 254.17556762695312 C 129.8414306640625 263.7315673828125 119.4951400756836 283.6901550292969 108.75728607177734 285.98455810546875 C 89.9970474243164 291.1492004394531 82.28252410888672 284.9194030761719 72.21446990966797 262.4028625488281 C 66.12532043457031 250.18722534179688 88.85865783691406 219.32464599609375 88.87467956542969 212.5447235107422 C 80.01786804199219 204.3228759765625 68.04716491699219 259.1287536621094 89.22415924072266 223.87274169921875 C 92.29561614990234 216.57861328125 89.45249938964844 225.19259643554688 96.07267761230469 213.48223876953125 C 99.53123474121094 206.1568603515625 98.4276123046875 207.91275024414062 99.63631439208984 195.18296813964844 C 99.0562744140625 205.286376953125 102.03334045410156 201.7327423095703 105.2496337890625 187.6459197998047 C 87.55323791503906 176.3828125 109.49696350097656 173.00143432617188 130.04176330566406 180.73228454589844 C 141.22225952148438 186.4140625 144.92037963867188 188.82139587402344 148.31346130371094 194.79815673828125 C 140.70672607421875 191.06211853027344 128.31492614746094 189.94813537597656 130.625 193.4755859375 C 149.16282653808594 195.82492065429688 132.8582000732422 223.14056396484375 118.21240234375 232.95529174804688 C 111.69918823242188 221.20753479003906 134.82752990722656 238.9440460205078 134.2293243408203 195.04295349121094 C 119.01224517822266 204.4281005859375 127.61404418945312 224.14759826660156 123.49984741210938 237.13949584960938 C 124.70361328125 232.50852966308594 114.34134674072266 202.95335388183594 126.89246368408203 224.39833068847656 C 121.02091979980469 241.8470001220703 99.83812713623047 223.49267578125 95.17401123046875 257.4147033691406 C 105.41976928710938 265.0644226074219 114.53765869140625 235.0188751220703 116.24614715576172 220.81240844726562 C 137.95745849609375 205.3585662841797 148.85897827148438 195.85110473632812 167.76683044433594 164.5184326171875 C 133.5035858154297 207.937744140625 162.52320861816406 191.10682678222656 174.1680908203125 153.61207580566406 C 171.664306640625 163.7821502685547 178.99346923828125 150.5559539794922 185.3944854736328 144.9752197265625 C 193.32810974121094 133.39491271972656 206.59559631347656 124.01506805419922 205.824951171875 109.67608642578125 C 214.34530639648438 106.26834106445312 221.42481994628906 100.25564575195312 210.9672393798828 110.78089141845703 C 207.3274383544922 95.94190216064453 265.16064453125 113.3951187133789 222.2271728515625 71.4356689453125 C 215.1602325439453 70.99797821044922 215.02645874023438 70.15559387207031 215.2270050048828 66.31880950927734 C 215.94195556640625 67.06832885742188 210.28890991210938 63.96845626831055 211.31532287597656 60.46149444580078 C 215.87783813476562 61.72958755493164 205.82620239257812 57.233089447021484 215.50704956054688 54.619117736816406" stroke-width="0.0" fill="rgb(0, 0, 0)" opacity="1.0" stroke="rgb(0, 0, 0)" stroke-opacity="1" stroke-linecap="round" stroke-linejoin="round"/>
  </g>
</svg>
