<?xml version="1.0" ?>
<svg xmlns="http://www.w3.org/2000/svg" version="1.1" width="320" height="320">
  <defs/>
  <g>
    <path d="M 190.07130432128906 49.390201568603516 C 203.57684326171875 64.68750762939453 208.3427276611328 67.27645111083984 212.4844512939453 69.8907699584961 C 221.88134765625 77.76753997802734 224.65538024902344 82.57428741455078 226.36317443847656 100.19114685058594 C 215.73390197753906 117.66024780273438 220.86390686035156 100.01046752929688 206.7370147705078 106.3197021484375 C 200.4964141845703 113.83488464355469 195.8330078125 115.67819213867188 199.42625427246094 127.10716247558594 C 182.6043701171875 137.32717895507812 206.18856811523438 137.9852294921875 187.5688018798828 145.42355346679688 C 190.35507202148438 132.94554138183594 192.119384765625 145.7626190185547 187.58395385742188 151.51138305664062 C 162.91355895996094 212.2798614501953 165.76597595214844 168.60940551757812 193.95663452148438 226.47238159179688 C 177.86801147460938 206.0634765625 177.12338256835938 208.35415649414062 177.02183532714844 209.06298828125 C 171.14224243164062 215.20359802246094 171.22592163085938 215.9357147216797 153.2681884765625 240.0267333984375 C 173.90335083007812 228.6426544189453 161.97628784179688 246.24729919433594 152.1204833984375 254.96240234375 C 141.4109344482422 238.77920532226562 158.9139404296875 266.7260437011719 144.14146423339844 264.9351501464844 C 142.48280334472656 272.9175720214844 134.96514892578125 297.5727844238281 118.52346801757812 300.312744140625 C 94.95072937011719 303.5853576660156 87.02047729492188 294.798583984375 82.65650939941406 270.09722900390625 C 80.61700439453125 268.2060241699219 94.89404296875 233.6737518310547 94.51802062988281 237.96707153320312 C 77.84527587890625 228.0465545654297 79.0000228881836 282.1824951171875 94.25350952148438 233.90811157226562 C 96.65960693359375 222.04823303222656 93.42704772949219 229.48483276367188 96.50182342529297 226.46487426757812 C 97.06063079833984 225.61289978027344 94.12188720703125 231.2386016845703 96.44990539550781 219.5775146484375 C 98.8699951171875 224.296875 98.49024963378906 224.6832275390625 96.43753814697266 217.10594177246094 C 76.85258483886719 211.0634002685547 98.14579010009766 194.02264404296875 131.81396484375 195.0124969482422 C 139.28016662597656 195.9305419921875 141.9312744140625 196.7083740234375 144.79432678222656 204.3020782470703 C 132.70538330078125 202.67156982421875 116.56907653808594 207.00421142578125 121.62136840820312 212.95411682128906 C 146.46316528320312 205.82041931152344 132.77651977539062 229.14527893066406 120.72623443603516 241.64730834960938 C 111.73139953613281 231.84359741210938 134.20652770996094 249.12179565429688 128.63771057128906 206.75042724609375 C 114.25057220458984 224.5325927734375 124.5804214477539 246.37002563476562 130.06297302246094 235.5726776123047 C 130.8051300048828 231.4837188720703 122.35649871826172 214.2922821044922 132.22225952148438 225.17367553710938 C 127.66151428222656 247.16238403320312 112.79985809326172 238.13455200195312 106.46089935302734 268.5535583496094 C 113.54419708251953 274.53692626953125 117.32047271728516 240.19076538085938 118.53153991699219 234.85508728027344 C 137.94712829589844 214.46144104003906 146.24501037597656 201.5430145263672 156.77394104003906 170.8067169189453 C 132.6168212890625 215.4084014892578 154.03851318359375 190.3955841064453 161.91139221191406 153.9800567626953 C 159.78408813476562 169.57369995117188 160.68191528320312 166.7429962158203 171.54849243164062 144.7109832763672 C 175.231689453125 134.2410125732422 184.934326171875 121.7878189086914 186.44390869140625 110.02107238769531 C 195.49960327148438 106.35455322265625 197.4955596923828 96.86675262451172 190.77194213867188 108.75595092773438 C 192.42755126953125 87.50100708007812 228.67483520507812 103.59242248535156 211.26025390625 80.27555084228516 C 205.53860473632812 75.01222229003906 205.10205078125 73.788330078125 204.03787231445312 70.3323974609375 C 204.64962768554688 70.72633361816406 198.2495574951172 68.58358764648438 198.97283935546875 65.09890747070312 C 202.92681884765625 66.14047241210938 169.1555938720703 70.25468444824219 190.07130432128906 49.390201568603516" stroke-width="0.0" fill="rgb(0, 0, 0)" opacity="1.0" stroke="rgb(0, 0, 0)" stroke-opacity="1" stroke-linecap="round" stroke-linejoin="round"/>
  </g>
</svg>
