<?xml version="1.0" ?>
<svg xmlns="http://www.w3.org/2000/svg" version="1.1" width="320" height="320">
  <defs/>
  <g>
    <path d="M 141.5255584716797 66.50372314453125 C 174.38973999023438 71.10562896728516 182.8280029296875 77.14380645751953 183.0360870361328 82.40327453613281 C 182.2740478515625 87.57134246826172 183.5870361328125 90.9352798461914 177.3603973388672 98.31088256835938 C 177.23789978027344 109.06761932373047 192.21238708496094 86.17994689941406 168.2237548828125 93.3991928100586 C 163.48191833496094 101.7098159790039 161.09539794921875 104.07205200195312 166.76498413085938 115.95858764648438 C 155.48789978027344 128.0486297607422 178.31065368652344 128.57955932617188 163.86056518554688 135.2662811279297 C 167.5701904296875 120.39652252197266 171.1829833984375 132.3915557861328 163.97250366210938 139.9661407470703 C 161.2208709716797 195.6300506591797 172.645751953125 157.51947021484375 193.4605255126953 207.3109893798828 C 167.1044158935547 189.4561309814453 167.38284301757812 190.910400390625 167.9622802734375 192.24874877929688 C 166.13584899902344 201.27658081054688 168.0145263671875 211.37466430664062 168.5469207763672 236.2276153564453 C 181.83485412597656 222.75372314453125 160.2314910888672 256.88641357421875 174.53652954101562 251.72247314453125 C 160.49844360351562 258.6943359375 184.24411010742188 250.33384704589844 170.42153930664062 265.16156005859375 C 179.55503845214844 305.6209716796875 159.47970581054688 328.4265441894531 131.83396911621094 315.4408874511719 C 115.63924407958984 299.17364501953125 113.52120971679688 286.7808532714844 115.73798370361328 274.0011901855469 C 112.16934204101562 266.7635803222656 114.70941162109375 254.12559509277344 109.72428131103516 248.96514892578125 C 100.29916381835938 246.21221923828125 111.40167999267578 299.3516845703125 107.10296630859375 251.73721313476562 C 110.90853118896484 237.82949829101562 108.0975341796875 242.1810302734375 106.50345611572266 235.33245849609375 C 104.60963439941406 228.6971435546875 104.23363494873047 232.3207550048828 100.88774871826172 218.80999755859375 C 104.59660339355469 233.93617248535156 105.66046905517578 231.5922393798828 99.85240936279297 226.29478454589844 C 83.54059600830078 230.3873291015625 101.81056213378906 209.80523681640625 135.5138702392578 205.5874786376953 C 141.67881774902344 206.76158142089844 141.7620086669922 206.41050720214844 144.6426239013672 211.954345703125 C 130.0821533203125 208.8345184326172 118.6302719116211 211.55279541015625 125.29468536376953 216.20553588867188 C 153.60958862304688 207.471435546875 141.74130249023438 241.53140258789062 134.56732177734375 256.7540283203125 C 118.97419738769531 247.66851806640625 146.2395477294922 256.1195983886719 137.03970336914062 210.96578979492188 C 121.49024963378906 221.99758911132812 129.05911254882812 230.3477325439453 133.04330444335938 250.3711700439453 C 133.1117706298828 241.9966583251953 125.78079223632812 228.90243530273438 141.19436645507812 236.40077209472656 C 147.5703125 259.8404846191406 137.12460327148438 250.18118286132812 134.37733459472656 279.75323486328125 C 143.6377410888672 295.54193115234375 150.7382049560547 262.2376708984375 130.30287170410156 239.98020935058594 C 140.0522918701172 219.05686950683594 141.2040252685547 206.2415008544922 146.8861846923828 175.62698364257812 C 135.89434814453125 225.33253479003906 143.85574340820312 186.7098388671875 143.50628662109375 157.37744140625 C 150.57620239257812 172.7744140625 149.5944061279297 155.56106567382812 152.41725158691406 138.7980194091797 C 151.02471923828125 124.10200500488281 156.7466583251953 113.16262817382812 153.23812866210938 103.16641235351562 C 157.4757080078125 96.81733703613281 158.5915069580078 85.10309600830078 154.76890563964844 95.43745422363281 C 169.9514923095703 79.02519226074219 182.8204803466797 97.07245635986328 179.14259338378906 90.6080093383789 C 173.16973876953125 85.52445983886719 173.80526733398438 85.61222839355469 180.70730590820312 87.54000854492188 C 176.85450744628906 86.02864074707031 162.6604766845703 79.96073913574219 162.81134033203125 72.7730941772461 C 173.8555450439453 72.24346160888672 137.4453887939453 73.13023376464844 141.5255584716797 66.50372314453125" stroke-width="0.0" fill="rgb(0, 0, 0)" opacity="1.0" stroke="rgb(0, 0, 0)" stroke-opacity="1" stroke-linecap="round" stroke-linejoin="round"/>
  </g>
</svg>
