<?xml version="1.0" ?>
<svg xmlns="http://www.w3.org/2000/svg" version="1.1" width="320" height="320">
  <defs/>
  <g>
    <path d="M 186.0780029296875 43.99378967285156 C 206.34365844726562 58.004417419433594 213.38958740234375 60.78443908691406 216.39833068847656 63.20414733886719 C 223.2842254638672 70.53335571289062 225.9488983154297 76.38552856445312 226.15777587890625 86.52608489990234 C 215.80308532714844 106.7887954711914 221.68923950195312 87.5716323852539 207.24737548828125 93.7675552368164 C 202.1337127685547 101.274658203125 198.4093475341797 103.4086685180664 202.9271240234375 115.4823989868164 C 187.6385955810547 127.0531234741211 211.76925659179688 126.16485595703125 192.50296020507812 134.40052795410156 C 195.51312255859375 121.75992584228516 197.94703674316406 135.57861328125 192.4512176513672 142.4169921875 C 173.68460083007812 200.4588165283203 180.215087890625 159.5727996826172 204.95079040527344 213.65065002441406 C 187.80860900878906 192.4606475830078 185.26055908203125 200.82742309570312 185.15530395507812 201.5504150390625 C 178.81236267089844 208.70941162109375 178.58682250976562 210.6143341064453 167.9368896484375 233.21759033203125 C 184.4562530517578 218.3395233154297 175.0096893310547 238.25277709960938 167.01113891601562 247.29356384277344 C 158.48915100097656 235.89697265625 174.64942932128906 258.5397644042969 159.9753875732422 259.96905517578125 C 160.44175720214844 277.4485168457031 149.1421661376953 302.1882019042969 126.00526428222656 299.4273681640625 C 105.69615173339844 291.5093078613281 100.83023071289062 279.02587890625 103.76481628417969 259.8868103027344 C 102.61054992675781 258.1529541015625 108.34130096435547 237.7735595703125 106.38163757324219 233.14907836914062 C 98.77072143554688 228.37313842773438 94.89244079589844 272.89361572265625 106.81246948242188 235.99034118652344 C 110.60889434814453 225.61361694335938 108.11332702636719 228.69931030273438 109.47611236572266 224.47683715820312 C 110.29214477539062 219.04537963867188 109.8573989868164 220.4101104736328 109.00133514404297 208.36453247070312 C 111.51929473876953 215.75311279296875 111.94917297363281 215.07005310058594 108.2844467163086 207.41465759277344 C 90.5907974243164 207.59164428710938 109.07415771484375 195.06150817871094 136.64901733398438 190.0318145751953 C 150.67698669433594 191.44015502929688 151.10374450683594 188.89202880859375 153.9705352783203 197.5420684814453 C 142.89773559570312 195.84466552734375 129.83189392089844 198.89315795898438 134.37158203125 203.72816467285156 C 159.71058654785156 200.2450408935547 142.629150390625 224.59144592285156 131.09266662597656 232.76589965820312 C 124.08350372314453 224.75445556640625 142.73440551757812 237.82901000976562 142.01824951171875 198.4823455810547 C 127.8372573852539 213.56668090820312 134.5257568359375 227.68348693847656 130.90365600585938 242.4190673828125 C 132.96197509765625 236.5116729736328 124.85179901123047 219.5187225341797 137.2225799560547 234.03355407714844 C 136.66500854492188 243.47373962402344 127.74615478515625 236.6482391357422 124.39350891113281 265.71209716796875 C 130.4410858154297 276.9709777832031 132.50001525878906 243.87599182128906 133.3272705078125 236.6214141845703 C 147.38812255859375 211.87254333496094 153.06002807617188 197.8027801513672 163.81582641601562 162.73513793945312 C 140.47047424316406 209.00277709960938 162.70668029785156 183.25869750976562 168.9251708984375 145.76422119140625 C 169.00576782226562 161.76979064941406 169.8178253173828 155.85061645507812 176.28028869628906 137.3907470703125 C 178.7243194580078 123.72860717773438 188.8562774658203 110.51947784423828 188.42959594726562 99.56371307373047 C 196.86619567871094 94.9028549194336 198.6144256591797 85.56002044677734 192.12855529785156 98.81230163574219 C 193.42279052734375 75.4639892578125 223.6829833984375 89.91559600830078 213.35899353027344 72.71485137939453 C 209.24063110351562 67.95112609863281 209.92222595214844 67.74176025390625 208.44415283203125 65.47032928466797 C 209.85275268554688 65.78512573242188 198.57606506347656 63.80815505981445 198.71160888671875 57.382930755615234 C 205.61904907226562 59.17075729370117 168.00912475585938 61.12627410888672 186.0780029296875 43.99378967285156" stroke-width="0.0" fill="rgb(0, 0, 0)" opacity="1.0" stroke="rgb(0, 0, 0)" stroke-opacity="1" stroke-linecap="round" stroke-linejoin="round"/>
  </g>
</svg>
