<?xml version="1.0" ?>
<svg xmlns="http://www.w3.org/2000/svg" version="1.1" width="320" height="320">
  <defs/>
  <g>
    <path d="M 169.95066833496094 70.17518615722656 C 187.6541748046875 74.30249786376953 190.3717498779297 79.55338287353516 192.7364501953125 82.54887390136719 C 200.2112579345703 90.32749938964844 203.3314666748047 95.21102905273438 205.4281768798828 110.44462585449219 C 198.3250732421875 119.74913024902344 202.35777282714844 100.02050018310547 187.52398681640625 108.28494262695312 C 183.90191650390625 115.82923889160156 181.62493896484375 117.22216033935547 186.06845092773438 130.69129943847656 C 173.12429809570312 141.08543395996094 191.27151489257812 146.333984375 176.6871795654297 150.2835235595703 C 180.03875732421875 139.5504913330078 181.12606811523438 149.28431701660156 176.7969512939453 154.45098876953125 C 158.32174682617188 203.85040283203125 186.91737365722656 163.107666015625 193.10397338867188 229.35411071777344 C 171.31613159179688 211.6173858642578 170.5122528076172 213.98931884765625 170.5594940185547 214.59959411621094 C 166.2520751953125 221.2438507080078 166.42518615722656 221.90145874023438 153.85072326660156 251.72540283203125 C 172.92034912109375 241.93698120117188 163.3973388671875 255.93040466308594 157.83787536621094 261.3269348144531 C 141.20455932617188 250.73487854003906 166.053466796875 271.17169189453125 148.47561645507812 275.1638488769531 C 149.8203125 296.26080322265625 138.6955108642578 321.53106689453125 118.63617706298828 321.167724609375 C 95.01644897460938 315.1717224121094 87.83512878417969 299.6917419433594 90.66326141357422 275.0062255859375 C 82.51461791992188 255.78919982910156 99.09759521484375 239.92503356933594 98.69841003417969 253.7062225341797 C 88.95045471191406 251.9996795654297 94.1214828491211 296.5289001464844 97.97932434082031 254.62939453125 C 100.0032958984375 244.18699645996094 98.9634780883789 245.73208618164062 100.0917739868164 238.76791381835938 C 100.32450103759766 231.5374298095703 99.97450256347656 232.41488647460938 99.57233428955078 217.2779541015625 C 100.78117370605469 223.55262756347656 102.06915283203125 222.30577087402344 96.89781951904297 214.87506103515625 C 83.88330078125 217.3287811279297 99.85333251953125 201.9187774658203 129.8040771484375 206.9927520751953 C 142.30050659179688 210.94921875 143.93138122558594 211.97471618652344 145.04498291015625 217.86212158203125 C 129.78375244140625 211.63314819335938 120.95970916748047 212.7797393798828 124.67314147949219 217.40762329101562 C 152.64633178710938 218.75189208984375 136.98358154296875 246.3968505859375 121.0068359375 256.3744201660156 C 110.74864959716797 244.03134155273438 131.14151000976562 259.0860900878906 136.3072967529297 211.2731170654297 C 116.63375091552734 225.6235809326172 123.70784759521484 240.72364807128906 126.53783416748047 258.01971435546875 C 130.08453369140625 246.20960998535156 115.00909423828125 232.33177185058594 134.2184295654297 243.9854736328125 C 125.4570083618164 267.94384765625 116.76583862304688 246.3092803955078 109.95140075683594 284.47393798828125 C 121.12979125976562 299.3487243652344 125.85120391845703 266.375732421875 124.09806823730469 254.25193786621094 C 136.97264099121094 225.9576873779297 145.30035400390625 213.36305236816406 148.2445068359375 183.01962280273438 C 134.42800903320312 228.60475158691406 154.5054931640625 203.38198852539062 156.86245727539062 167.6199951171875 C 159.37454223632812 180.7809295654297 162.9279022216797 153.48013305664062 166.29368591308594 150.29019165039062 C 168.61599731445312 140.1375274658203 177.9581298828125 129.9191131591797 177.51953125 115.7997817993164 C 179.57049560546875 112.50636291503906 178.38165283203125 102.32954406738281 177.15577697753906 113.19003295898438 C 178.17877197265625 97.24374389648438 212.6093292236328 115.03617858886719 192.92982482910156 88.37333679199219 C 187.50115966796875 85.71337127685547 186.81968688964844 83.18133544921875 186.919677734375 79.84962463378906 C 187.53192138671875 80.76239013671875 174.78945922851562 76.0393295288086 176.88800048828125 72.0718765258789 C 186.83258056640625 75.95697021484375 164.4950408935547 80.37003326416016 169.95066833496094 70.17518615722656" stroke-width="0.0" fill="rgb(0, 0, 0)" opacity="1.0" stroke="rgb(0, 0, 0)" stroke-opacity="1" stroke-linecap="round" stroke-linejoin="round"/>
  </g>
</svg>
