<?xml version="1.0" ?>
<svg xmlns="http://www.w3.org/2000/svg" version="1.1" width="320" height="320">
  <defs/>
  <g>
    <path d="M 192.16481018066406 41.95319366455078 C 212.0199432373047 56.10314178466797 218.63137817382812 58.29973220825195 221.78836059570312 60.72663116455078 C 229.47442626953125 68.89756774902344 231.54063415527344 74.71151733398438 232.29653930664062 83.31715393066406 C 222.02027893066406 103.57379150390625 229.0122833251953 85.65322875976562 214.91262817382812 91.84886169433594 C 209.53204345703125 99.23453521728516 206.18795776367188 101.10769653320312 209.71563720703125 113.23438262939453 C 194.0851287841797 124.52800750732422 218.8482208251953 123.7938003540039 199.75038146972656 131.86517333984375 C 202.65943908691406 118.82438659667969 205.19863891601562 134.16920471191406 200.17996215820312 140.84068298339844 C 182.3516082763672 198.68572998046875 187.7148895263672 156.959716796875 210.917236328125 211.29217529296875 C 193.2559051513672 190.41329956054688 191.57821655273438 199.23707580566406 190.96519470214844 202.50177001953125 C 186.56968688964844 207.7097930908203 186.1187286376953 212.59266662597656 174.92735290527344 229.69955444335938 C 191.1169891357422 216.07664489746094 182.38772583007812 238.98153686523438 174.55599975585938 246.7823944091797 C 166.4651336669922 234.08251953125 181.2035675048828 256.822509765625 167.56515502929688 259.2281188964844 C 166.7749786376953 279.36212158203125 152.63510131835938 302.835205078125 129.3543701171875 297.1958312988281 C 110.50618743896484 287.0523681640625 107.01722717285156 276.1800842285156 110.29869842529297 258.10211181640625 C 109.84342193603516 257.020751953125 116.02679443359375 236.52308654785156 112.7209243774414 230.11451721191406 C 106.26079559326172 226.14132690429688 102.18816375732422 272.9828186035156 113.49702453613281 234.68975830078125 C 116.89808654785156 224.19918823242188 114.3844985961914 227.54010009765625 115.5421142578125 223.54434204101562 C 116.97300720214844 215.47796630859375 116.68043518066406 216.1953582763672 116.22827911376953 203.95628356933594 C 117.02767944335938 214.18655395507812 118.01842498779297 212.50515747070312 114.47531127929688 204.7593231201172 C 96.37374877929688 205.2178955078125 117.4966812133789 190.89405822753906 151.95997619628906 187.04953002929688 C 152.2158203125 185.72958374023438 157.095703125 186.98451232910156 159.32571411132812 195.50259399414062 C 151.45997619628906 194.7113800048828 138.7434539794922 197.13250732421875 140.9654541015625 199.8036651611328 C 165.43942260742188 196.92889404296875 149.25363159179688 222.1118621826172 138.9920654296875 230.84420776367188 C 130.46409606933594 222.09580993652344 148.1324005126953 234.86526489257812 148.7082977294922 197.84413146972656 C 135.77992248535156 210.68313598632812 141.1676788330078 226.2930908203125 138.05953979492188 240.13211059570312 C 139.84173583984375 233.68917846679688 132.44847106933594 217.40084838867188 143.5568084716797 229.13790893554688 C 142.75558471679688 243.52117919921875 135.86517333984375 238.16067504882812 131.49171447753906 264.134033203125 C 136.4073944091797 275.2245788574219 139.77061462402344 242.7068634033203 139.62632751464844 234.8400421142578 C 153.1080322265625 210.96981811523438 157.99293518066406 195.82846069335938 170.6296844482422 160.83070373535156 C 146.95431518554688 206.2936553955078 169.8360595703125 181.48304748535156 175.29515075683594 144.15699768066406 C 174.10740661621094 160.23309326171875 174.94459533691406 152.89682006835938 181.6654815673828 135.006103515625 C 185.01467895507812 121.13897705078125 195.3173065185547 107.57327270507812 194.66793823242188 97.14962768554688 C 203.6670379638672 92.24942779541016 205.1306915283203 82.45562744140625 199.4547576904297 94.6423110961914 C 201.31610107421875 72.84808349609375 229.1694793701172 86.5740966796875 219.12249755859375 69.83025360107422 C 215.587890625 65.88215637207031 215.34764099121094 65.32422637939453 214.16476440429688 63.174560546875 C 215.16444396972656 63.34718704223633 206.04689025878906 61.6060791015625 206.3323211669922 56.04543685913086 C 211.37940979003906 57.2241325378418 175.6658935546875 58.88511657714844 192.16481018066406 41.95319366455078" stroke-width="0.0" fill="rgb(0, 0, 0)" opacity="1.0" stroke="rgb(0, 0, 0)" stroke-opacity="1" stroke-linecap="round" stroke-linejoin="round"/>
  </g>
</svg>
