<?xml version="1.0" ?>
<svg xmlns="http://www.w3.org/2000/svg" version="1.1" width="320" height="320">
  <defs/>
  <g>
    <path d="M 163.18605041503906 39.949398040771484 C 196.9561767578125 46.951107025146484 203.89859008789062 53.17521286010742 205.83006286621094 55.89499282836914 C 206.96665954589844 62.66724395751953 207.9070587158203 70.1609115600586 207.01585388183594 77.10755157470703 C 195.9451904296875 87.12554931640625 207.31552124023438 65.57659149169922 188.08724975585938 74.5869140625 C 184.85964965820312 82.62957000732422 182.71791076660156 85.43437194824219 189.42916870117188 97.74575805664062 C 176.08172607421875 110.9056396484375 198.94679260253906 108.06224060058594 184.44326782226562 118.18222045898438 C 184.91946411132812 107.56000518798828 188.39437866210938 120.84756469726562 183.32350158691406 126.74867248535156 C 181.3988800048828 176.35887145996094 192.34774780273438 137.9455108642578 210.86744689941406 196.4268341064453 C 183.95559692382812 177.1136932373047 184.1160430908203 182.38453674316406 184.483642578125 185.73947143554688 C 181.5392608642578 191.98867797851562 182.66636657714844 203.0677947998047 179.8123779296875 221.43798828125 C 186.8719940185547 207.3328399658203 183.1675262451172 229.18836975097656 181.7224884033203 234.4931182861328 C 170.17578125 227.25787353515625 191.29078674316406 241.33892822265625 174.53656005859375 252.52223205566406 C 183.03749084472656 289.2679138183594 161.32760620117188 311.63641357421875 132.89759826660156 295.8023681640625 C 117.07462310791016 277.3459777832031 117.4544677734375 277.52178955078125 118.55497741699219 251.90599060058594 C 116.35037231445312 247.1302032470703 118.90193176269531 233.4390411376953 113.38362121582031 227.4717254638672 C 113.67025756835938 229.7740478515625 113.8758316040039 274.678955078125 114.44412994384766 234.7488250732422 C 118.88202667236328 223.2255401611328 115.55220794677734 227.04763793945312 115.32752227783203 217.86325073242188 C 115.0131607055664 209.27110290527344 114.27488708496094 211.63331604003906 112.00709533691406 198.8278045654297 C 113.1011734008789 203.66464233398438 110.06402587890625 206.86521911621094 102.50555419921875 202.96246337890625 C 95.60105895996094 206.99465942382812 107.50225830078125 192.4502410888672 139.6745147705078 186.69857788085938 C 142.47817993164062 181.18072509765625 151.12576293945312 183.3109893798828 153.28628540039062 187.69338989257812 C 145.64544677734375 188.61001586914062 138.00741577148438 191.60491943359375 132.327880859375 194.148681640625 C 158.48988342285156 191.59580993652344 148.23187255859375 221.6178436279297 140.86297607421875 229.41799926757812 C 128.49456787109375 222.16990661621094 151.0637664794922 231.83517456054688 149.88844299316406 189.0654754638672 C 131.40150451660156 204.77142333984375 138.00460815429688 217.40518188476562 142.42547607421875 242.6650848388672 C 146.89564514160156 225.7126007080078 130.62545776367188 210.80203247070312 140.79840087890625 220.99778747558594 C 142.55535888671875 236.36439514160156 138.8345489501953 233.37274169921875 139.65386962890625 260.7216796875 C 144.13906860351562 276.60272216796875 150.32855224609375 248.910400390625 143.7701416015625 239.14871215820312 C 146.5231170654297 208.54324340820312 150.2469024658203 194.00845336914062 159.20530700683594 154.6136474609375 C 145.6446990966797 197.22976684570312 158.7034912109375 171.1421661376953 160.3808135986328 135.96652221679688 C 164.0520782470703 150.92037963867188 164.38955688476562 132.87039184570312 167.4044952392578 124.32078552246094 C 169.94129943847656 109.96453094482422 175.84877014160156 95.23175048828125 172.95822143554688 83.74365234375 C 177.7572021484375 77.62796020507812 178.2841796875 67.29434967041016 176.19879150390625 74.92236328125 C 191.5222930908203 54.99943542480469 203.1505584716797 73.41635131835938 200.9908447265625 68.05824279785156 C 195.0890655517578 61.855560302734375 195.07240295410156 60.770172119140625 194.98495483398438 57.26336669921875 C 196.84738159179688 59.06884002685547 182.43157958984375 50.407196044921875 184.01036071777344 44.96907043457031 C 195.2272186279297 49.537696838378906 155.26483154296875 50.80034637451172 163.18605041503906 39.949398040771484" stroke-width="0.0" fill="rgb(0, 0, 0)" opacity="1.0" stroke="rgb(0, 0, 0)" stroke-opacity="1" stroke-linecap="round" stroke-linejoin="round"/>
  </g>
</svg>
