<?xml version="1.0" ?>
<svg xmlns="http://www.w3.org/2000/svg" version="1.1" width="320" height="320">
  <defs/>
  <g>
    <path d="M 232.9462127685547 63.74024963378906 C 236.54507446289062 67.572265625 240.25828552246094 74.71090698242188 231.11907958984375 75.35000610351562 C 240.12803649902344 79.63406372070312 239.30349731445312 84.42726135253906 252.48135375976562 97.36946105957031 C 259.5116882324219 119.91512298583984 260.8974609375 140.8243408203125 241.41195678710938 120.14915466308594 C 230.4030303955078 120.36698913574219 228.25009155273438 119.9468765258789 223.21246337890625 137.40187072753906 C 208.7327880859375 140.22560119628906 229.1534423828125 152.3040313720703 210.0009765625 151.43670654296875 C 220.03680419921875 141.48936462402344 216.01792907714844 155.49307250976562 207.0227813720703 159.46127319335938 C 165.13470458984375 196.98463439941406 207.94070434570312 173.83648681640625 194.79214477539062 235.05198669433594 C 186.2310791015625 216.98638916015625 184.18814086914062 218.90158081054688 182.13470458984375 211.06935119628906 C 169.9196014404297 215.71315002441406 169.6471405029297 216.84300231933594 150.8590850830078 234.7395782470703 C 169.6082305908203 230.08184814453125 153.91517639160156 241.8682098388672 149.8629913330078 244.44717407226562 C 131.1237335205078 242.0760040283203 156.80783081054688 254.7706756591797 137.29470825195312 252.52511596679688 C 130.54031372070312 261.39178466796875 120.91464233398438 278.5885009765625 113.87206268310547 280.81805419921875 C 95.11767578125 287.547607421875 91.17762756347656 284.6764221191406 78.32406616210938 265.8013610839844 C 67.87977600097656 256.3079528808594 87.87130737304688 216.23675537109375 93.2779769897461 204.9743194580078 C 93.14185333251953 215.51528930664062 73.86872100830078 252.17626953125 93.88663482666016 221.53187561035156 C 102.8091812133789 209.89999389648438 97.66618347167969 212.7937774658203 103.56299591064453 206.07058715820312 C 98.36239624023438 214.2017822265625 103.07886505126953 206.82437133789062 106.45492553710938 194.85557556152344 C 106.0183334350586 198.25518798828125 109.25575256347656 195.44976806640625 111.33818817138672 185.65296936035156 C 92.776123046875 172.12765502929688 119.07837677001953 171.7120819091797 142.04685974121094 183.84239196777344 C 149.55845642089844 189.64044189453125 152.23483276367188 191.62196350097656 152.9983673095703 196.86495971679688 C 149.10255432128906 194.02920532226562 131.8322296142578 189.41107177734375 133.95556640625 195.2279815673828 C 157.14495849609375 201.6532745361328 134.13661193847656 219.35781860351562 118.8646469116211 225.7526092529297 C 110.75999450683594 213.12062072753906 128.8406982421875 233.3780517578125 139.40650939941406 193.6290283203125 C 119.75430297851562 204.07449340820312 128.40830993652344 224.69818115234375 120.63541412353516 239.7910919189453 C 129.38490295410156 229.1751708984375 122.00057983398438 198.11651611328125 130.48703002929688 221.75889587402344 C 125.10262298583984 235.73873901367188 96.63970947265625 222.9917755126953 99.28608703613281 254.83627319335938 C 105.84678649902344 257.9734191894531 120.78327941894531 229.18521118164062 126.40150451660156 216.42796325683594 C 143.33392333984375 205.3528289794922 156.72384643554688 200.03500366210938 178.611328125 166.16317749023438 C 132.07945251464844 203.78501892089844 166.53236389160156 188.08482360839844 184.73074340820312 156.9054412841797 C 179.54486083984375 168.2336883544922 192.0326385498047 149.5002899169922 196.3274383544922 148.85040283203125 C 203.7681427001953 136.82899475097656 217.0873565673828 127.74442291259766 223.811767578125 112.71565246582031 C 231.21742248535156 112.22090911865234 240.84765625 106.86967468261719 217.13856506347656 121.47633361816406 C 210.08102416992188 105.68370056152344 274.4831237792969 127.61038208007812 240.9623565673828 78.03430938720703 C 235.4152374267578 86.62892150878906 233.1888427734375 82.02799987792969 233.13351440429688 76.31604766845703 C 233.45318603515625 76.56888580322266 227.1334686279297 68.50989532470703 230.1572265625 64.49716186523438 C 236.2015838623047 67.67120361328125 229.2091064453125 66.92658996582031 232.9462127685547 63.74024963378906" stroke-width="0.0" fill="rgb(0, 0, 0)" opacity="1.0" stroke="rgb(0, 0, 0)" stroke-opacity="1" stroke-linecap="round" stroke-linejoin="round"/>
  </g>
</svg>
