<?xml version="1.0" ?>
<svg xmlns="http://www.w3.org/2000/svg" version="1.1" width="320" height="320">
  <defs/>
  <g>
    <path d="M 194.24559020996094 48.96006393432617 C 209.32608032226562 62.135826110839844 214.19764709472656 64.08723449707031 218.67825317382812 66.12413024902344 C 227.46054077148438 74.41878509521484 229.5877227783203 78.21477508544922 231.9991455078125 87.70541381835938 C 224.30816650390625 112.21672821044922 229.7724609375 95.97405242919922 214.38723754882812 99.55471801757812 C 208.22177124023438 106.75533294677734 204.7185516357422 108.43431854248047 207.72024536132812 120.20333099365234 C 193.18130493164062 130.00213623046875 214.77053833007812 132.3266143798828 196.8656005859375 137.83596801757812 C 199.99478149414062 127.02757263183594 202.11166381835938 140.39639282226562 197.11708068847656 146.4724884033203 C 177.21728515625 197.3600616455078 184.32196044921875 162.64410400390625 202.60084533691406 213.61668395996094 C 188.2421875 199.17955017089844 186.3655548095703 205.28671264648438 186.07852172851562 204.74813842773438 C 181.59152221679688 210.5492706298828 180.86439514160156 215.10125732421875 168.7941131591797 234.359130859375 C 183.91098022460938 222.5506134033203 174.07156372070312 241.8440399169922 166.26153564453125 249.67576599121094 C 160.61099243164062 237.5240020751953 171.1942596435547 259.45928955078125 159.5999755859375 261.1750183105469 C 157.9328155517578 276.9980163574219 147.71597290039062 298.88128662109375 126.51126861572266 298.5158996582031 C 105.06137084960938 292.48822021484375 100.8742446899414 282.9580383300781 100.58169555664062 263.2846374511719 C 100.15755462646484 262.48309326171875 109.25782775878906 237.5537567138672 107.39028930664062 232.5794219970703 C 98.34063720703125 226.60496520996094 95.56167602539062 270.6408386230469 107.30958557128906 236.6981201171875 C 111.15545654296875 226.64352416992188 108.65641021728516 229.62368774414062 110.21687316894531 225.4622039794922 C 111.62425994873047 220.15625 111.02289581298828 221.3608856201172 111.50475311279297 210.99179077148438 C 113.48229217529297 217.01284790039062 113.51670837402344 216.87359619140625 110.6297607421875 208.628173828125 C 93.03970336914062 205.99484252929688 112.03165435791016 194.3131866455078 142.7352294921875 190.9549560546875 C 142.8054962158203 190.1566162109375 152.2034454345703 191.74058532714844 154.92889404296875 199.45155334472656 C 144.92510986328125 198.27532958984375 133.0991668701172 200.768798828125 136.18992614746094 204.96749877929688 C 158.9914093017578 203.08526611328125 144.4322509765625 223.95167541503906 132.45166015625 233.359130859375 C 124.68052673339844 224.7823944091797 144.4864959716797 238.33261108398438 143.5723114013672 201.16331481933594 C 130.7322235107422 216.99969482421875 134.86891174316406 231.37701416015625 131.65675354003906 243.23342895507812 C 133.12319946289062 236.52281188964844 127.7156982421875 218.86927795410156 138.46902465820312 232.36471557617188 C 136.53880310058594 245.73191833496094 127.50920104980469 239.0979766845703 123.49481964111328 265.1417541503906 C 128.31130981445312 272.6760559082031 133.35731506347656 243.04092407226562 135.26158142089844 234.02456665039062 C 148.22402954101562 212.65440368652344 154.71865844726562 200.14146423339844 164.97450256347656 168.62838745117188 C 143.6895294189453 208.1870574951172 164.0560760498047 185.13084411621094 172.71336364746094 151.46127319335938 C 171.7147674560547 164.25160217285156 173.4004669189453 157.6064910888672 181.32803344726562 139.4464874267578 C 185.56622314453125 127.97100830078125 194.29347229003906 117.35122680664062 194.5000762939453 103.436767578125 C 203.14779663085938 99.3040542602539 206.38844299316406 89.2959976196289 198.47518920898438 102.10066223144531 C 196.7949676513672 82.75820922851562 235.0371856689453 96.48719787597656 217.58175659179688 74.96376037597656 C 213.21542358398438 71.70076751708984 212.3898468017578 70.65650939941406 210.43612670898438 68.17757415771484 C 210.95510864257812 68.32115936279297 204.75955200195312 66.4425048828125 205.00946044921875 62.726680755615234 C 208.58419799804688 63.64461135864258 180.25372314453125 65.27278137207031 194.24559020996094 48.96006393432617" stroke-width="0.0" fill="rgb(0, 0, 0)" opacity="1.0" stroke="rgb(0, 0, 0)" stroke-opacity="1" stroke-linecap="round" stroke-linejoin="round"/>
  </g>
</svg>
