<?xml version="1.0" ?>
<svg xmlns="http://www.w3.org/2000/svg" version="1.1" width="320" height="320">
  <defs/>
  <g>
    <path d="M 174.63893127441406 233.10462951660156 C 172.3135528564453 230.04196166992188 170.4532012939453 221.5800018310547 169.40943908691406 209.96812438964844 C 168.79225158691406 197.95245361328125 169.06777954101562 185.47027587890625 160.92225646972656 147.1185302734375 C 163.07827758789062 144.4936065673828 154.85653686523438 146.03488159179688 149.80722045898438 151.15968322753906 C 134.35684204101562 154.03746032714844 150.33631896972656 150.52499389648438 131.10531616210938 143.58267211914062 C 118.55833435058594 189.54527282714844 104.68333435058594 213.5294647216797 97.42759704589844 238.07022094726562 C 95.21907806396484 240.66030883789062 105.61885070800781 256.1072082519531 116.62924194335938 273.43475341796875 C 99.70626831054688 278.7210388183594 80.24845123291016 261.5821228027344 80.23334503173828 262.6891784667969 C 78.38329315185547 261.4800720214844 81.10021209716797 250.98558044433594 76.37506103515625 249.24395751953125 C 75.88660430908203 246.82876586914062 76.28883361816406 242.8383331298828 75.87205505371094 247.62417602539062 C 77.45687866210938 242.39463806152344 77.59528350830078 236.6125030517578 78.94342803955078 219.95782470703125 C 76.68819427490234 224.9060516357422 81.41947937011719 214.1099090576172 85.21532440185547 201.9133758544922 C 88.71121978759766 191.343505859375 89.54273986816406 186.9822998046875 91.34273529052734 167.9029541015625 C 91.22090911865234 161.41004943847656 84.79766845703125 154.99440002441406 78.64564514160156 155.682861328125 C 79.33858489990234 152.6759033203125 77.41801452636719 154.29544067382812 76.41517639160156 158.99295043945312 C 76.67308044433594 154.26632690429688 82.7075424194336 151.720458984375 77.94851684570312 155.69024658203125 C 78.24180603027344 158.49566650390625 86.01421356201172 143.85235595703125 88.25886535644531 136.99256896972656 C 92.30127716064453 123.17218017578125 92.77949523925781 125.50924682617188 91.60163879394531 117.96870422363281 C 89.92574310302734 110.31908416748047 88.85792541503906 104.12448120117188 87.3095932006836 92.81478881835938 C 87.34439086914062 77.49951171875 89.93354034423828 69.14379119873047 113.35470581054688 54.45879364013672 C 134.39080810546875 93.67938232421875 130.25018310546875 86.60137176513672 108.27609252929688 39.003692626953125 C 110.95304870605469 4.265985488891602 139.6072998046875 29.392902374267578 137.5411376953125 27.45168685913086 C 137.1650390625 27.19925880432129 134.82199096679688 29.136863708496094 140.17022705078125 50.19999313354492 C 132.0530548095703 54.93808364868164 144.72494506835938 60.61225128173828 132.2926788330078 61.40132522583008 C 125.92256164550781 66.5669937133789 125.05838012695312 68.44658660888672 134.2650604248047 93.68091583251953 C 135.66343688964844 73.71333312988281 134.1650390625 91.96893310546875 135.21542358398438 105.15313720703125 C 135.58921813964844 119.04096984863281 135.09552001953125 122.52641296386719 133.82537841796875 131.35134887695312 C 151.0077362060547 130.06076049804688 145.4123077392578 133.52706909179688 149.77395629882812 131.44935607910156 C 151.07568359375 128.0298309326172 154.44082641601562 128.25022888183594 165.6592254638672 128.3665008544922 C 165.82447814941406 128.1497802734375 165.83187866210938 114.57584381103516 170.95223999023438 102.87405395507812 C 176.00030517578125 91.07681274414062 181.8358917236328 83.2516098022461 184.7346649169922 77.47559356689453 C 185.10418701171875 76.6365966796875 191.50503540039062 66.20240783691406 174.33163452148438 68.27518463134766 C 175.72988891601562 68.03053283691406 177.67669677734375 49.24473190307617 182.7258758544922 32.76893615722656 C 202.4938507080078 24.91485595703125 207.6197967529297 44.397666931152344 208.47361755371094 44.61955261230469 C 209.496337890625 39.583641052246094 211.28292846679688 39.81489181518555 204.40032958984375 54.435813903808594 C 202.96554565429688 58.192626953125 194.15492248535156 73.1893310546875 200.77096557617188 62.95545959472656 C 210.63467407226562 71.77287292480469 216.80755615234375 82.42847442626953 221.4103240966797 91.4493179321289 C 210.1043243408203 93.63565063476562 221.67385864257812 90.53018188476562 220.71905517578125 92.10824584960938 C 212.99583435058594 103.4583969116211 225.20321655273438 84.90465545654297 219.1981964111328 98.3166275024414 C 214.54440307617188 110.86802673339844 211.86691284179688 125.86331176757812 210.222412109375 127.99359130859375 C 211.20468139648438 127.32518768310547 211.17510986328125 124.93098449707031 209.69598388671875 134.77609252929688 C 214.83815002441406 137.30470275878906 211.38540649414062 155.21937561035156 218.7848358154297 169.27110290527344 C 217.61204528808594 168.21441650390625 215.81689453125 171.14926147460938 214.81016540527344 170.33279418945312 C 214.2498779296875 170.6514129638672 204.5992431640625 173.39566040039062 201.27520751953125 172.2760772705078 C 200.65390014648438 174.5702667236328 198.84841918945312 172.91310119628906 197.4913787841797 178.98777770996094 C 203.81320190429688 165.569580078125 198.36209106445312 181.78262329101562 195.26531982421875 194.94976806640625 C 194.46290588378906 202.22283935546875 193.5347137451172 209.36001586914062 193.4640350341797 214.5499725341797 C 195.1671600341797 220.4140167236328 197.26817321777344 227.45521545410156 197.107421875 232.1880340576172 C 197.5128173828125 237.2538604736328 199.36363220214844 247.79306030273438 194.85879516601562 261.0758056640625 C 195.06007385253906 265.5088806152344 189.3240509033203 265.8034362792969 189.67245483398438 278.5055847167969 C 189.4350128173828 280.3151550292969 188.34536743164062 285.574462890625 188.70632934570312 283.311279296875 C 179.5919189453125 282.7518005371094 184.99838256835938 284.8631896972656 177.3065643310547 280.9592590332031 C 180.67721557617188 289.1578063964844 153.84437561035156 291.2168273925781 146.80694580078125 276.67572021484375 C 174.98934936523438 274.71197509765625 177.2322998046875 254.43508911132812 176.57472229003906 253.72096252441406 C 174.4838409423828 249.9854278564453 178.50634765625 267.6473388671875 168.0717010498047 263.6811218261719 C 166.6859130859375 264.15948486328125 153.8557891845703 263.6732482910156 147.21522521972656 257.85723876953125 C 146.123291015625 257.92767333984375 142.50311279296875 246.8589630126953 146.7736358642578 258.23193359375 C 144.3638916015625 252.99331665039062 143.40359497070312 250.1448974609375 160.70773315429688 253.49386596679688 C 176.53109741210938 232.50540161132812 175.44688415527344 236.0514678955078 174.63893127441406 233.10462951660156" stroke-width="0.0" fill="rgb(0, 0, 0)" opacity="1.0" stroke="rgb(0, 0, 0)" stroke-opacity="1" stroke-linecap="round" stroke-linejoin="round"/>
  </g>
</svg>
