<?xml version="1.0" ?>
<svg xmlns="http://www.w3.org/2000/svg" version="1.1" width="320" height="320">
  <defs/>
  <g>
    <path d="M 172.2650146484375 233.8074188232422 C 169.51438903808594 229.66082763671875 167.46905517578125 222.17251586914062 168.2604522705078 211.32220458984375 C 168.41461181640625 198.62010192871094 170.12295532226562 186.9525909423828 168.20167541503906 157.28302001953125 C 166.36380004882812 157.65493774414062 160.82469177246094 158.1181182861328 155.11550903320312 163.7495574951172 C 138.9520263671875 166.1274871826172 156.1996612548828 165.72698974609375 135.37692260742188 153.2237548828125 C 118.03755187988281 188.1587371826172 107.18022155761719 209.96759033203125 97.94194030761719 235.45509338378906 C 94.55307006835938 238.14727783203125 103.44078063964844 252.70816040039062 116.67534637451172 272.4438171386719 C 98.4059829711914 277.476318359375 80.82064056396484 262.1246032714844 78.69911193847656 258.1709289550781 C 78.54033660888672 258.157958984375 80.69729614257812 247.88705444335938 76.96534729003906 246.5357208251953 C 76.64691925048828 244.82977294921875 76.91747283935547 241.20541381835938 76.69589233398438 243.45155334472656 C 78.58352661132812 238.24200439453125 78.97598266601562 232.33749389648438 82.19981384277344 214.499755859375 C 79.93980407714844 218.36309814453125 84.90313720703125 209.20285034179688 89.16064453125 198.33566284179688 C 92.58841705322266 190.28538513183594 93.55621337890625 184.67063903808594 97.29224395751953 164.5092010498047 C 98.27980041503906 161.62081909179688 94.3678207397461 153.94203186035156 88.6341323852539 151.20263671875 C 87.99490356445312 153.13572692871094 87.42127990722656 151.3356475830078 85.1023178100586 155.5793914794922 C 87.51720428466797 150.8282012939453 93.90058135986328 149.72372436523438 88.46965789794922 151.84786987304688 C 88.33609771728516 151.1842041015625 92.30034637451172 144.24014282226562 94.70328521728516 139.02793884277344 C 101.09867858886719 125.93132019042969 101.04972076416016 128.1707305908203 101.51178741455078 123.58499145507812 C 101.61456298828125 117.44063568115234 101.27384948730469 108.70248413085938 102.13423919677734 98.20896911621094 C 100.82439422607422 76.58413696289062 103.25396728515625 69.6624984741211 130.1281280517578 55.37931442260742 C 147.2753448486328 93.6610107421875 145.8865509033203 90.94093322753906 127.6755599975586 42.62971115112305 C 129.18832397460938 10.364727020263672 157.14593505859375 31.11865997314453 157.10939025878906 30.97775650024414 C 159.1594696044922 30.12839126586914 153.07879638671875 33.574310302734375 158.58091735839844 52.51789093017578 C 149.62777709960938 57.59218215942383 162.32891845703125 64.42557525634766 147.66702270507812 64.25811767578125 C 141.16360473632812 69.07894134521484 139.3072052001953 73.17642974853516 148.8723907470703 101.8119125366211 C 153.338623046875 81.36585998535156 147.57740783691406 107.46612548828125 145.27838134765625 119.8602294921875 C 142.77642822265625 132.57884216308594 142.5732421875 133.13392639160156 141.18923950195312 141.5440216064453 C 156.3135986328125 142.23622131347656 152.0952911376953 144.31622314453125 156.46543884277344 142.97987365722656 C 157.892578125 141.00953674316406 160.46144104003906 140.8190155029297 172.96624755859375 139.564697265625 C 174.57200622558594 136.71153259277344 175.2361297607422 119.85968780517578 181.31666564941406 106.64547729492188 C 186.80953979492188 95.35263061523438 193.5506134033203 87.89473724365234 199.80447387695312 80.6985092163086 C 201.1653594970703 78.65451049804688 210.77444458007812 67.26676940917969 192.36807250976562 69.00807189941406 C 192.67074584960938 68.58927154541016 196.59893798828125 49.397010803222656 204.64987182617188 30.586536407470703 C 228.96310424804688 23.44390106201172 231.85205078125 45.6001091003418 232.32406616210938 45.49344253540039 C 232.675537109375 45.50055694580078 233.0836181640625 45.57365417480469 222.11529541015625 61.81599426269531 C 220.94007873535156 65.32159423828125 211.44142150878906 77.09327697753906 220.13389587402344 66.49105072021484 C 227.06976318359375 75.59107208251953 232.4712371826172 85.52608489990234 237.6280975341797 97.74897766113281 C 223.77902221679688 97.72129821777344 237.1791229248047 97.50886535644531 237.99917602539062 97.74308776855469 C 230.61058044433594 105.95069885253906 243.12466430664062 89.46734619140625 234.32302856445312 109.13621520996094 C 226.98902893066406 122.02574920654297 223.03134155273438 134.6444854736328 221.43287658691406 136.68020629882812 C 221.00067138671875 137.92214965820312 220.4630584716797 138.643310546875 217.24403381347656 145.69017028808594 C 221.5638885498047 148.1953582763672 217.6174774169922 156.79962158203125 221.20477294921875 171.77027893066406 C 221.32510375976562 176.12696838378906 220.77182006835938 178.2772216796875 219.7272491455078 177.85862731933594 C 219.3159637451172 178.2591094970703 214.95594787597656 181.1005859375 211.7838134765625 180.7304229736328 C 208.6308135986328 179.47703552246094 208.77822875976562 182.48512268066406 205.97268676757812 181.12164306640625 C 208.68792724609375 169.4277801513672 205.1222686767578 184.98336791992188 202.56565856933594 199.07626342773438 C 202.32882690429688 203.5072479248047 201.54544067382812 210.4435577392578 201.48741149902344 214.5126953125 C 202.380859375 220.85804748535156 203.32797241210938 226.17916870117188 203.34503173828125 236.419921875 C 202.8599090576172 237.8136444091797 202.48138427734375 247.9341278076172 196.1731414794922 262.0796203613281 C 196.02053833007812 265.3415832519531 190.84811401367188 264.7298583984375 190.29306030273438 278.0169677734375 C 189.38125610351562 277.2311706542969 189.31900024414062 282.0978698730469 189.39956665039062 280.4765625 C 181.0684356689453 281.2409973144531 182.89041137695312 282.4913024902344 177.6422576904297 278.3151550292969 C 180.5469970703125 287.40057373046875 153.93301391601562 290.2760314941406 147.71337890625 276.2122497558594 C 176.07412719726562 273.49542236328125 177.9927978515625 252.80233764648438 177.39923095703125 251.97381591796875 C 174.41116333007812 247.0654754638672 178.54649353027344 269.5498046875 167.7980499267578 263.3069763183594 C 167.08387756347656 263.6591796875 155.88189697265625 264.4211120605469 150.17469787597656 259.7886047363281 C 147.15931701660156 260.7132873535156 143.9939422607422 249.53237915039062 146.78530883789062 257.84442138671875 C 145.4073028564453 253.42022705078125 144.7537078857422 250.4751434326172 160.12008666992188 253.7800750732422 C 173.4061737060547 232.76373291015625 173.0377197265625 235.76449584960938 172.2650146484375 233.8074188232422" stroke-width="0.0" fill="rgb(0, 0, 0)" opacity="1.0" stroke="rgb(0, 0, 0)" stroke-opacity="1" stroke-linecap="round" stroke-linejoin="round"/>
  </g>
</svg>
