<?xml version="1.0" ?>
<svg xmlns="http://www.w3.org/2000/svg" version="1.1" width="320" height="320">
  <defs/>
  <g>
    <path d="M 174.7187042236328 237.22357177734375 C 171.6749267578125 232.82164001464844 169.04150390625 224.7887420654297 170.4967498779297 214.0787811279297 C 169.89407348632812 204.41949462890625 167.2304229736328 190.0655975341797 165.17230224609375 153.06326293945312 C 167.05099487304688 150.75209045410156 157.50567626953125 150.68951416015625 152.4403839111328 153.53994750976562 C 141.16146850585938 163.04478454589844 160.08056640625 159.41769409179688 134.93792724609375 146.65811157226562 C 120.1902847290039 189.19668579101562 104.99317932128906 211.6604766845703 97.48757934570312 237.69775390625 C 95.0772476196289 240.2227325439453 105.65338897705078 255.97164916992188 117.0274429321289 272.982666015625 C 102.24263000488281 278.517333984375 81.65071868896484 265.0694274902344 79.24934387207031 260.20233154296875 C 79.058349609375 260.1973876953125 80.75484466552734 250.72023010253906 76.91989135742188 250.0255584716797 C 76.22948455810547 248.3389892578125 76.20565032958984 244.11514282226562 75.99229431152344 248.10646057128906 C 77.46857452392578 242.07333374023438 77.41422271728516 235.51953125 79.84722900390625 219.41806030273438 C 77.77942657470703 224.3019256591797 82.73892974853516 212.29861450195312 87.57917022705078 199.9389190673828 C 90.6233901977539 190.38209533691406 91.33735656738281 186.44630432128906 94.23934173583984 167.7215576171875 C 95.35639953613281 164.26840209960938 90.29270935058594 157.22239685058594 85.04313659667969 154.96517944335938 C 84.49117279052734 157.30882263183594 83.69194030761719 155.78468322753906 81.88038635253906 159.751953125 C 83.5240249633789 154.93173217773438 89.75751495361328 153.81346130371094 85.07826232910156 156.11167907714844 C 83.66131591796875 150.98281860351562 87.1424331665039 152.9964599609375 92.36701202392578 139.6680450439453 C 97.72603607177734 124.33869934082031 97.84529113769531 127.95752716064453 97.25477600097656 122.47384643554688 C 96.80123901367188 115.66175842285156 96.66647338867188 108.49968719482422 95.58291625976562 96.98979949951172 C 93.67433166503906 77.69384002685547 96.56634521484375 70.15574645996094 123.20337677001953 54.914146423339844 C 143.1580810546875 97.46028900146484 141.7452392578125 93.70976257324219 118.31571960449219 40.420654296875 C 120.79373931884766 4.226226806640625 150.13275146484375 27.923357009887695 149.05030822753906 27.004840850830078 C 149.81773376464844 26.634960174560547 145.4485626220703 29.541452407836914 151.18089294433594 49.95629119873047 C 142.38330078125 55.10272979736328 155.3888397216797 61.307373046875 141.86785888671875 62.349822998046875 C 135.75743103027344 67.4281005859375 133.8138885498047 71.11488342285156 143.37533569335938 101.13607025146484 C 146.30332946777344 75.50542449951172 143.25473022460938 101.69580078125 142.56576538085938 115.91838073730469 C 140.24330139160156 125.74394226074219 139.99317932128906 127.14060974121094 138.91265869140625 134.0308837890625 C 139.14126586914062 133.86367797851562 151.87940979003906 135.84732055664062 154.9647674560547 134.37936401367188 C 156.01943969726562 132.5041961669922 159.22816467285156 132.83897399902344 170.6890869140625 135.300537109375 C 169.804443359375 141.41798400878906 170.58914184570312 119.46105194091797 177.99319458007812 105.48606872558594 C 184.78790283203125 92.84828186035156 192.29458618164062 85.06185150146484 196.0502166748047 80.28811645507812 C 196.7588348388672 79.09029388427734 207.00909423828125 67.14582824707031 187.8600311279297 66.21321105957031 C 188.6605987548828 64.31950378417969 193.26255798339844 45.485740661621094 201.91221618652344 26.512718200683594 C 229.52578735351562 17.917139053344727 231.42779541015625 42.30101776123047 231.9093780517578 42.17866897583008 C 232.5515899658203 40.85313415527344 233.8724822998047 41.33639144897461 221.8380584716797 59.916202545166016 C 220.64312744140625 63.36882781982422 210.43521118164062 74.53531646728516 218.18556213378906 64.39049530029297 C 226.37913513183594 76.10163116455078 231.72708129882812 90.359130859375 235.29281616210938 103.90382385253906 C 219.94944763183594 102.75708770751953 236.1693572998047 103.44593811035156 235.7335205078125 104.21595764160156 C 224.90887451171875 115.16734313964844 242.06008911132812 96.26647186279297 233.3000030517578 111.6347885131836 C 226.3865203857422 123.53565979003906 221.04054260253906 138.01246643066406 220.54815673828125 138.6856689453125 C 220.18055725097656 139.83758544921875 219.43251037597656 140.57257080078125 214.43658447265625 152.52935791015625 C 219.42730712890625 155.20220947265625 215.75437927246094 164.81982421875 219.82432556152344 179.1982879638672 C 220.2052001953125 183.5277099609375 219.6975860595703 185.71693420410156 218.39173889160156 185.47467041015625 C 217.9903564453125 186.07321166992188 214.06736755371094 189.5568389892578 210.06512451171875 189.62203979492188 C 207.04774475097656 188.48297119140625 202.93739318847656 186.722900390625 202.00120544433594 192.55419921875 C 207.6031494140625 176.05880737304688 202.1806640625 189.1573944091797 201.3343963623047 200.05111694335938 C 200.7314910888672 207.74221801757812 199.94833374023438 214.90199279785156 199.82725524902344 219.26974487304688 C 200.11521911621094 222.8831024169922 202.2668914794922 228.257568359375 202.3894805908203 235.99005126953125 C 201.47332763671875 239.44012451171875 201.9923095703125 248.37344360351562 196.09619140625 262.03271484375 C 195.90017700195312 265.94366455078125 190.25079345703125 265.9663391113281 189.9329376220703 277.72637939453125 C 189.49920654296875 279.6021728515625 187.8880615234375 284.49505615234375 188.39004516601562 282.7267761230469 C 179.9074249267578 281.3766784667969 184.65977478027344 283.6236267089844 177.81407165527344 279.9814147949219 C 180.6725616455078 288.88665771484375 153.4893035888672 291.4413757324219 146.8257293701172 276.4841003417969 C 175.6521453857422 274.12445068359375 178.62147521972656 254.41734313964844 177.9701385498047 253.65084838867188 C 174.9867401123047 249.1239013671875 178.6985626220703 269.28973388671875 168.1386260986328 264.0287170410156 C 164.8355255126953 262.8556213378906 157.55369567871094 265.26336669921875 149.54739379882812 259.8362121582031 C 146.902587890625 260.75421142578125 143.49050903320312 248.67681884765625 147.23281860351562 259.3829040527344 C 145.11083984375 253.32916259765625 144.2277069091797 249.7224884033203 160.1837921142578 253.34718322753906 C 175.37612915039062 232.50186157226562 174.3244171142578 235.62701416015625 174.7187042236328 237.22357177734375" stroke-width="0.0" fill="rgb(0, 0, 0)" opacity="1.0" stroke="rgb(0, 0, 0)" stroke-opacity="1" stroke-linecap="round" stroke-linejoin="round"/>
  </g>
</svg>
