<?xml version="1.0" ?>
<svg xmlns="http://www.w3.org/2000/svg" version="1.1" width="320" height="320">
  <defs/>
  <g>
    <path d="M 174.5038604736328 234.6480712890625 C 171.35079956054688 230.2738037109375 168.98309326171875 222.71337890625 169.71469116210938 212.21588134765625 C 167.9639129638672 202.13148498535156 166.59703063964844 190.1322479248047 162.41871643066406 156.7025909423828 C 165.35711669921875 153.48143005371094 157.88218688964844 153.73719787597656 153.12522888183594 158.3601837158203 C 136.41146850585938 162.58506774902344 152.68780517578125 161.6968536376953 133.08578491210938 150.76748657226562 C 118.99505615234375 189.2454833984375 104.97386932373047 211.77713012695312 97.5146255493164 237.61141967773438 C 95.0635986328125 240.0775604248047 105.14550018310547 255.49256896972656 116.73472595214844 272.75238037109375 C 102.13888549804688 278.0721435546875 81.52019500732422 264.7798767089844 79.10673522949219 260.033935546875 C 78.59934997558594 259.6791687011719 80.64600372314453 250.1224365234375 76.31153869628906 248.45785522460938 C 75.9379653930664 246.4987335205078 76.34637451171875 242.98391723632812 76.00247955322266 247.3041229248047 C 77.4561767578125 241.37095642089844 77.7227783203125 235.0726318359375 79.81725311279297 218.8812255859375 C 77.52958679199219 222.84349060058594 82.2152099609375 211.6929931640625 86.79051208496094 200.15708923339844 C 89.9830093383789 190.60609436035156 90.95564270019531 186.12295532226562 93.6678237915039 167.83335876464844 C 94.48509979248047 163.8152313232422 88.92806243896484 156.21566772460938 82.95108795166016 154.0203857421875 C 82.58552551269531 156.61581420898438 81.26624298095703 154.51559448242188 79.7635269165039 159.2512664794922 C 81.5718002319336 153.8720703125 88.29102325439453 151.77359008789062 82.48572540283203 154.7186279296875 C 82.2997055053711 153.99429321289062 89.42948150634766 142.9751434326172 91.89128875732422 137.33897399902344 C 96.97513580322266 123.93830108642578 96.75879669189453 126.96588897705078 95.81806182861328 121.65583038330078 C 95.35659790039062 115.09053802490234 94.77959442138672 108.384033203125 94.3668441772461 96.04417419433594 C 93.13065338134766 76.97598266601562 95.95556640625 69.12238311767578 122.88026428222656 55.028907775878906 C 143.7496337890625 98.07510375976562 139.9740447998047 91.68177795410156 118.78934478759766 39.37961959838867 C 123.8744125366211 5.784075736999512 150.69488525390625 28.594703674316406 150.2055206298828 28.047868728637695 C 151.38980102539062 27.36932373046875 146.20716857910156 30.793201446533203 152.63531494140625 50.68840408325195 C 143.29092407226562 56.276649475097656 156.05551147460938 62.50712966918945 141.83746337890625 63.188106536865234 C 135.40003967285156 68.3666763305664 134.2255859375 70.61805725097656 142.4745635986328 98.2562484741211 C 144.68270874023438 74.48237609863281 142.31935119628906 100.57595825195312 142.31884765625 115.79961395263672 C 140.41738891601562 125.81023406982422 139.9201202392578 128.47012329101562 137.41094970703125 138.58897399902344 C 153.4656219482422 138.98391723632812 148.89059448242188 141.01638793945312 152.9842529296875 138.20346069335938 C 153.89242553710938 136.645263671875 156.9422607421875 136.80848693847656 168.89425659179688 137.6988983154297 C 169.14410400390625 137.48109436035156 169.42440795898438 116.90815734863281 177.4207763671875 104.33341979980469 C 183.79812622070312 92.20116424560547 191.1602783203125 84.65950012207031 195.53468322753906 79.2325210571289 C 196.45037841796875 77.56157684326172 205.03335571289062 67.31320190429688 186.6734161376953 65.885986328125 C 187.27734375 65.83855438232422 193.29612731933594 44.73674774169922 202.14309692382812 26.98530387878418 C 229.3298797607422 20.075435638427734 230.73204040527344 43.3969612121582 231.13436889648438 43.38105773925781 C 231.8706817626953 41.7688102722168 233.89047241210938 42.604644775390625 221.38223266601562 59.3703727722168 C 219.9314422607422 62.35102081298828 208.72320556640625 73.85317993164062 216.3568878173828 64.62442016601562 C 225.0948486328125 77.6307144165039 229.57159423828125 90.59893798828125 232.72500610351562 103.62874603271484 C 217.85862731933594 102.33805084228516 233.3157196044922 103.3392562866211 233.20989990234375 103.63473510742188 C 223.19595336914062 114.3846435546875 240.30545043945312 95.61100006103516 230.59559631347656 110.21226501464844 C 223.09536743164062 122.26895141601562 218.0725860595703 135.40493774414062 216.9710693359375 136.5989227294922 C 216.68495178222656 137.64356994628906 216.07923889160156 138.26454162597656 211.42906188964844 149.207275390625 C 215.934814453125 151.8925018310547 210.94540405273438 162.26202392578125 215.3038787841797 179.3314971923828 C 214.84707641601562 181.73129272460938 213.98780822753906 183.5076446533203 212.85302734375 182.90850830078125 C 212.27528381347656 183.41305541992188 207.29025268554688 186.14697265625 203.94744873046875 185.37600708007812 C 204.16932678222656 187.02511596679688 200.2333984375 183.9070281982422 199.1746368408203 189.20437622070312 C 203.19610595703125 175.13201904296875 199.06414794921875 186.98776245117188 198.71768188476562 197.9820556640625 C 198.10667419433594 204.1677703857422 197.26133728027344 211.5670166015625 197.07745361328125 215.757080078125 C 197.94851684570312 220.10499572753906 200.2091064453125 226.70025634765625 201.09906005859375 234.03884887695312 C 199.8022918701172 236.01930236816406 201.8045196533203 246.4467315673828 196.3142547607422 260.8249206542969 C 195.90162658691406 265.9342041015625 190.31651306152344 265.989013671875 189.51597595214844 277.4356384277344 C 189.06744384765625 279.2684631347656 187.28976440429688 284.3117980957031 187.51754760742188 282.8640441894531 C 179.15377807617188 280.57672119140625 184.42816162109375 283.79925537109375 176.86676025390625 279.95074462890625 C 180.367431640625 288.52484130859375 154.26861572265625 291.281005859375 147.19969177246094 276.8113708496094 C 176.3863983154297 273.7305908203125 177.63050842285156 253.71340942382812 177.09719848632812 253.09356689453125 C 174.27684020996094 249.21861267089844 179.1197052001953 269.4205322265625 167.12423706054688 264.14349365234375 C 166.33782958984375 264.43768310546875 155.3805694580078 264.78070068359375 148.814453125 259.16973876953125 C 146.4436798095703 259.9406433105469 142.70071411132812 247.3644561767578 146.86900329589844 257.9051208496094 C 144.2520751953125 249.9248809814453 144.516845703125 250.60606384277344 161.2017364501953 253.30751037597656 C 175.409423828125 231.5999298095703 175.26351928710938 237.20558166503906 174.5038604736328 234.6480712890625" stroke-width="0.0" fill="rgb(0, 0, 0)" opacity="1.0" stroke="rgb(0, 0, 0)" stroke-opacity="1" stroke-linecap="round" stroke-linejoin="round"/>
  </g>
</svg>
