<?xml version="1.0" ?>
<svg xmlns="http://www.w3.org/2000/svg" version="1.1" width="320" height="320">
  <defs/>
  <g>
    <path d="M 174.10589599609375 235.5006866455078 C 171.13514709472656 231.75225830078125 169.04159545898438 223.53514099121094 169.75082397460938 213.4022216796875 C 168.93125915527344 202.17335510253906 170.33517456054688 190.79043579101562 165.52346801757812 162.59886169433594 C 162.61062622070312 163.48948669433594 158.4019317626953 164.07156372070312 151.70518493652344 171.32472229003906 C 134.2433319091797 172.7455291748047 152.8934326171875 174.27589416503906 131.57862854003906 158.00999450683594 C 113.70246887207031 188.2041778564453 104.02407836914062 209.55844116210938 97.39950561523438 236.8632354736328 C 95.23114013671875 238.97085571289062 104.84266662597656 254.47398376464844 117.10167694091797 272.5685729980469 C 101.198486328125 278.3355407714844 80.86087799072266 263.9959716796875 78.64865112304688 259.9320373535156 C 78.45868682861328 259.895263671875 80.57781982421875 249.2688751220703 75.94408416748047 247.46522521972656 C 75.72547912597656 245.4782257080078 76.18749237060547 241.96214294433594 75.88532257080078 246.80551147460938 C 77.29686737060547 240.73931884765625 77.19981384277344 234.36392211914062 79.72335052490234 217.10670471191406 C 77.61785888671875 221.2745361328125 82.0679931640625 210.27647399902344 86.43753814697266 198.9547882080078 C 89.24031066894531 190.38343811035156 90.15355682373047 185.2526092529297 92.81024932861328 167.4298553466797 C 95.18159484863281 162.4730224609375 90.3999252319336 153.14971923828125 83.29893493652344 150.47463989257812 C 82.9090347290039 152.85890197753906 81.98546600341797 150.63461303710938 79.77139282226562 155.43577575683594 C 82.95597839355469 148.59884643554688 90.27335357666016 148.01600646972656 82.19119262695312 150.65188598632812 C 82.16661071777344 148.27394104003906 85.85405731201172 143.4785919189453 89.66070556640625 137.24374389648438 C 97.73118591308594 124.68268585205078 97.42561340332031 126.73420715332031 99.08745574951172 120.74182891845703 C 99.69232940673828 116.99486541748047 99.6754379272461 109.679931640625 101.7289047241211 98.75328826904297 C 101.17862701416016 78.8736801147461 103.98995971679688 70.41571807861328 133.81143188476562 57.141536712646484 C 150.189453125 98.97025299072266 145.26632690429688 91.82270812988281 134.29733276367188 46.9126091003418 C 140.5133819580078 13.855960845947266 163.2123565673828 34.4720573425293 163.30149841308594 34.37383270263672 C 166.28468322753906 33.433135986328125 161.55738830566406 35.41459274291992 165.2493438720703 57.74928665161133 C 155.47308349609375 61.99037551879883 167.72190856933594 70.34467315673828 151.24366760253906 68.63384246826172 C 144.30685424804688 72.52652740478516 141.9205322265625 76.01862335205078 148.740966796875 101.55014038085938 C 152.71641540527344 81.14936065673828 147.6051025390625 108.92347717285156 145.56295776367188 121.56714630126953 C 141.49075317382812 134.27838134765625 141.20252990722656 134.95870971679688 138.37037658691406 147.55441284179688 C 154.38809204101562 150.06668090820312 149.32208251953125 152.0934600830078 151.8828887939453 150.25311279296875 C 152.78176879882812 148.57626342773438 155.66976928710938 147.84523010253906 169.47528076171875 144.2385711669922 C 170.57879638671875 140.37693786621094 169.02761840820312 119.630126953125 176.41989135742188 104.78575134277344 C 182.20518493652344 93.15497589111328 187.7445831298828 85.69750213623047 191.9208221435547 79.07506561279297 C 192.30935668945312 78.28331756591797 199.68521118164062 67.45561218261719 181.78443908691406 69.6159896850586 C 182.0876922607422 67.9004135131836 183.7088623046875 47.08900451660156 189.98062133789062 31.181171417236328 C 214.405029296875 22.790603637695312 216.74429321289062 44.73084259033203 217.1510009765625 44.71876525878906 C 217.81396484375 40.98094940185547 219.02972412109375 41.20610809326172 212.37081909179688 56.154747009277344 C 211.64642333984375 60.06825256347656 202.1666717529297 74.64701843261719 209.6876678466797 63.8736457824707 C 221.02374267578125 74.26565551757812 227.81277465820312 85.2728500366211 232.08595275878906 98.51434326171875 C 218.25714111328125 99.48735809326172 232.06045532226562 97.97394561767578 232.03485107421875 98.16162872314453 C 222.2317352294922 111.12943267822266 236.28805541992188 91.00846099853516 228.5108642578125 105.8263168334961 C 222.90234375 118.64337921142578 219.74703979492188 133.50570678710938 217.55908203125 135.9818115234375 C 217.78048706054688 135.90567016601562 217.3612060546875 136.39756774902344 215.82305908203125 143.32688903808594 C 221.91384887695312 146.27195739746094 218.56851196289062 154.94004821777344 224.31942749023438 173.6995086669922 C 222.9252471923828 176.9847412109375 221.89071655273438 177.90243530273438 219.32635498046875 178.2075653076172 C 219.15696716308594 179.5487518310547 209.034423828125 178.59542846679688 207.21908569335938 180.53805541992188 C 205.9690399169922 179.0467987060547 205.2344207763672 182.78126525878906 205.21270751953125 186.29568481445312 C 207.90106201171875 172.07997131347656 205.4342041015625 187.29454040527344 202.9427947998047 201.58444213867188 C 202.9849395751953 205.26951599121094 201.74253845214844 212.2840576171875 201.6351776123047 215.66847229003906 C 202.60084533691406 221.5242919921875 203.44017028808594 228.12989807128906 203.7695770263672 235.82135009765625 C 202.78684997558594 237.7100067138672 203.18446350097656 248.66827392578125 196.07662963867188 262.82940673828125 C 195.97613525390625 266.28155517578125 190.2052001953125 265.796142578125 189.74221801757812 278.6553649902344 C 189.10409545898438 278.0789794921875 188.87359619140625 282.7054138183594 188.79464721679688 281.1736755371094 C 180.69215393066406 281.7679748535156 183.0254364013672 283.2940368652344 177.44320678710938 279.4568786621094 C 180.09808349609375 288.2594909667969 153.6676483154297 291.18585205078125 147.12008666992188 276.61883544921875 C 175.93865966796875 274.241455078125 178.42092895507812 253.42364501953125 177.91897583007812 252.7203369140625 C 174.76815795898438 247.84486389160156 179.26593017578125 270.04217529296875 167.4440460205078 263.5903015136719 C 166.5338897705078 263.9692077636719 155.03529357910156 264.32684326171875 148.9464111328125 259.2320251464844 C 146.60304260253906 259.9732360839844 143.31692504882812 247.3904266357422 147.3171844482422 259.21441650390625 C 144.8459014892578 251.16226196289062 144.9091796875 251.3483428955078 160.26962280273438 253.4586639404297 C 175.69337463378906 233.12277221679688 174.0284423828125 231.76109313964844 174.10589599609375 235.5006866455078" stroke-width="0.0" fill="rgb(0, 0, 0)" opacity="1.0" stroke="rgb(0, 0, 0)" stroke-opacity="1" stroke-linecap="round" stroke-linejoin="round"/>
  </g>
</svg>
