<?xml version="1.0" ?>
<svg xmlns="http://www.w3.org/2000/svg" version="1.1" width="320" height="320">
  <defs/>
  <g>
    <path d="M 175.92469787597656 236.38958740234375 C 174.56178283691406 234.7898712158203 171.6390838623047 229.69650268554688 171.76133728027344 219.7781219482422 C 170.4688262939453 207.45628356933594 171.8926239013672 195.68142700195312 163.80003356933594 163.6660614013672 C 161.7332000732422 164.6456298828125 158.02621459960938 166.09854125976562 150.0946044921875 175.1279296875 C 132.33749389648438 175.06900024414062 151.3279571533203 176.15188598632812 128.7297821044922 161.60153198242188 C 113.91636657714844 194.5150146484375 104.56124114990234 215.72763061523438 97.54190826416016 238.10690307617188 C 95.60802459716797 240.12574768066406 105.8602066040039 256.3351135253906 116.99473571777344 273.2950744628906 C 102.42393493652344 278.7078552246094 81.73108673095703 265.4585266113281 79.10152435302734 260.4876708984375 C 78.5976791381836 260.1894226074219 81.13229370117188 250.784912109375 76.81967163085938 249.27720642089844 C 76.2757568359375 246.99244689941406 76.77997589111328 242.99400329589844 76.42584991455078 247.5712432861328 C 77.54110717773438 241.95628356933594 77.39854431152344 235.41586303710938 79.04666137695312 220.2850799560547 C 76.70482635498047 225.67752075195312 80.23442077636719 215.25637817382812 84.30361938476562 203.63095092773438 C 87.15753936767578 194.7722930908203 88.22857666015625 190.36622619628906 90.62590789794922 172.51864624023438 C 93.21395874023438 165.17489624023438 85.70867156982422 157.015869140625 77.66265869140625 155.43515014648438 C 78.50514221191406 158.70684814453125 76.32105255126953 156.0727996826172 74.78487396240234 161.43893432617188 C 76.66690063476562 154.5979461669922 84.65188598632812 152.91717529296875 77.70930480957031 156.815673828125 C 77.65876007080078 155.91087341308594 79.55854034423828 153.53567504882812 83.14276885986328 146.2052764892578 C 90.47450256347656 132.38037109375 90.88069915771484 134.89852905273438 90.75337219238281 123.98007202148438 C 91.75859069824219 114.44793701171875 90.8656005859375 108.79236602783203 88.47996520996094 95.18272399902344 C 86.55769348144531 79.36531066894531 90.03892517089844 70.45661926269531 113.87700653076172 54.718963623046875 C 135.5751495361328 95.2789306640625 132.93032836914062 90.24584197998047 108.28325653076172 39.36134719848633 C 110.71002960205078 3.827260971069336 140.36758422851562 29.109519958496094 137.54664611816406 26.757366180419922 C 140.00820922851562 25.43647003173828 134.75396728515625 29.74248504638672 141.98129272460938 49.13050079345703 C 134.21714782714844 54.96770477294922 147.05642700195312 60.40203094482422 133.3371124267578 61.69828796386719 C 127.10304260253906 66.83453369140625 125.75727844238281 69.95777130126953 136.10824584960938 97.28002166748047 C 138.57192993164062 75.06925201416016 135.88743591308594 99.30877685546875 135.96556091308594 115.47760009765625 C 133.51194763183594 129.932373046875 133.36520385742188 131.28924560546875 135.38189697265625 151.49354553222656 C 151.80081176757812 151.9584197998047 148.2441864013672 153.51727294921875 149.49404907226562 152.4696807861328 C 150.23443603515625 150.05044555664062 152.20037841796875 149.13124084472656 166.7657928466797 142.335693359375 C 166.88534545898438 141.4393768310547 165.59768676757812 124.17010498046875 169.54934692382812 108.8874740600586 C 175.87722778320312 94.4604721069336 181.53875732421875 86.24964141845703 184.4514923095703 79.30635833740234 C 185.2569580078125 77.34033203125 192.26251220703125 65.85265350341797 174.14529418945312 67.4564437866211 C 176.47088623046875 67.29925537109375 178.0659942626953 48.395408630371094 183.03182983398438 30.790908813476562 C 203.91355895996094 20.74908447265625 209.29544067382812 41.42888641357422 209.74819946289062 41.46416473388672 C 210.25880432128906 38.67867660522461 212.08514404296875 39.032432556152344 204.3348846435547 56.05598068237305 C 203.33543395996094 60.97305679321289 194.1219940185547 72.63545989990234 201.53964233398438 61.169925689697266 C 214.12109375 73.40524291992188 220.5855712890625 86.7960205078125 224.24032592773438 97.81805419921875 C 210.89596557617188 98.48779296875 223.94631958007812 97.28501892089844 223.18759155273438 98.68115997314453 C 217.03736877441406 106.45416259765625 228.88739013671875 87.31820678710938 221.07315063476562 102.53878784179688 C 216.67242431640625 114.4224853515625 213.89683532714844 130.3492889404297 213.06423950195312 131.69528198242188 C 213.09262084960938 132.20492553710938 212.77780151367188 132.79238891601562 213.1651611328125 139.260009765625 C 218.91903686523438 141.8378143310547 215.84999084472656 157.58450317382812 223.22901916503906 172.8880157470703 C 222.45001220703125 174.6588592529297 220.72329711914062 173.4773712158203 218.8643341064453 173.99253845214844 C 218.86090087890625 175.12481689453125 205.3218231201172 176.5679473876953 203.3888702392578 178.96026611328125 C 202.42864990234375 177.78013610839844 201.634033203125 182.18267822265625 201.80470275878906 186.37142944335938 C 203.70809936523438 172.33470153808594 200.5286102294922 189.45761108398438 198.6827850341797 203.32972717285156 C 198.97341918945312 209.76022338867188 199.20045471191406 217.05270385742188 200.09182739257812 224.18516540527344 C 199.46319580078125 221.80714416503906 202.09129333496094 227.9541778564453 202.5345916748047 237.58407592773438 C 201.66217041015625 239.8272247314453 201.29666137695312 249.84597778320312 195.15333557128906 263.88427734375 C 195.18582153320312 267.9135437011719 189.23193359375 267.7264709472656 189.25857543945312 279.4535217285156 C 188.9565887451172 281.584716796875 187.72019958496094 286.5589904785156 187.94186401367188 285.0146484375 C 179.14622497558594 283.6260986328125 183.02694702148438 285.9154968261719 177.92991638183594 281.9942932128906 C 180.6263427734375 290.2957458496094 153.35833740234375 292.342529296875 147.13609313964844 277.0020751953125 C 175.51715087890625 275.03619384765625 179.281982421875 255.28759765625 178.2489471435547 253.81724548339844 C 175.47120666503906 248.4592742919922 178.96600341796875 271.0104064941406 167.92520141601562 265.19317626953125 C 167.35818481445312 265.10162353515625 153.56744384765625 264.5763854980469 147.2371063232422 257.9243469238281 C 146.46453857421875 257.8639831542969 143.69644165039062 247.3528289794922 147.0883026123047 259.17620849609375 C 145.379638671875 252.90806579589844 144.8689422607422 250.30899047851562 160.5568084716797 253.57179260253906 C 177.23719787597656 232.00579833984375 175.6038818359375 234.52732849121094 175.92469787597656 236.38958740234375" stroke-width="0.0" fill="rgb(0, 0, 0)" opacity="1.0" stroke="rgb(0, 0, 0)" stroke-opacity="1" stroke-linecap="round" stroke-linejoin="round"/>
  </g>
</svg>
