<?xml version="1.0" ?>
<svg xmlns="http://www.w3.org/2000/svg" version="1.1" width="320" height="320">
  <defs/>
  <g>
    <path d="M 172.06494140625 232.57138061523438 C 169.5213165283203 228.30186462402344 167.88815307617188 221.2374725341797 168.92758178710938 210.7339324951172 C 168.2373046875 197.3111114501953 170.1899871826172 185.39639282226562 168.6234588623047 155.1855926513672 C 165.68740844726562 155.7860565185547 159.48272705078125 156.41766357421875 154.0135498046875 160.91583251953125 C 140.0411376953125 163.5463409423828 157.1145477294922 162.89627075195312 136.12730407714844 150.37417602539062 C 118.16885375976562 188.0102081298828 107.31938934326172 209.47903442382812 98.2396011352539 234.9416961669922 C 94.45258331298828 237.71168518066406 103.30230712890625 251.70956420898438 115.84841918945312 272.22357177734375 C 97.11263275146484 276.6094970703125 81.02618408203125 261.6583251953125 78.84198760986328 257.294921875 C 78.63653564453125 257.30535888671875 80.9520034790039 247.22862243652344 77.32756042480469 246.1025848388672 C 76.95416259765625 244.2801513671875 77.07166290283203 240.01974487304688 76.6090087890625 243.24853515625 C 78.56118774414062 237.1945037841797 79.12602996826172 231.2216796875 82.4990005493164 214.15135192871094 C 80.35405731201172 217.62344360351562 85.21747589111328 208.95458984375 89.23485565185547 198.10227966308594 C 92.8673324584961 189.87753295898438 93.96043395996094 184.29104614257812 97.37088775634766 163.7386474609375 C 98.1478271484375 161.67840576171875 94.45647430419922 153.3411407470703 88.45468139648438 150.24021911621094 C 87.61734771728516 152.30557250976562 87.02114868164062 150.31907653808594 84.3829116821289 154.71746826171875 C 86.92269897460938 150.05165100097656 93.63784790039062 148.9192352294922 88.45310974121094 151.31130981445312 C 88.35438537597656 150.96987915039062 92.45198059082031 143.77500915527344 94.54447937011719 138.94644165039062 C 100.70242309570312 126.02835083007812 100.67012023925781 128.64114379882812 101.4288330078125 123.56210327148438 C 101.61080932617188 117.08771514892578 101.42156982421875 108.78601837158203 102.19580841064453 97.9519271850586 C 100.90022277832031 76.99788665771484 103.09310913085938 69.68574523925781 129.9893035888672 55.246604919433594 C 146.6935272216797 92.05318450927734 145.6179962158203 89.71293640136719 127.76348114013672 42.756103515625 C 130.26760864257812 11.667633056640625 157.37344360351562 31.482378005981445 157.41473388671875 31.34925651550293 C 159.3008575439453 30.604015350341797 153.4375457763672 33.92939376831055 158.61895751953125 52.98652648925781 C 149.93621826171875 57.75603485107422 162.2187957763672 64.44898986816406 147.82887268066406 64.21383666992188 C 140.7765350341797 69.33023071289062 138.65196228027344 74.04805755615234 148.51353454589844 102.30139923095703 C 153.37387084960938 82.68479919433594 147.23367309570312 108.37108612060547 144.97930908203125 120.33305358886719 C 142.2003173828125 132.70887756347656 142.026611328125 133.1573028564453 141.15899658203125 139.39889526367188 C 154.9589385986328 140.03858947753906 151.35858154296875 141.75033569335938 156.07131958007812 140.8800048828125 C 157.14996337890625 139.27578735351562 160.867431640625 138.4467010498047 173.40060424804688 137.37782287597656 C 174.6273651123047 135.46438598632812 175.3322296142578 119.44706726074219 181.08206176757812 106.5031509399414 C 186.4167022705078 95.38557434082031 192.86923217773438 88.03248596191406 198.95947265625 80.46671295166016 C 200.68096923828125 77.93008422851562 209.23397827148438 67.59330749511719 191.40484619140625 69.56169128417969 C 191.68092346191406 69.36067962646484 195.36111450195312 49.3802490234375 203.43032836914062 31.166378021240234 C 226.775390625 24.776887893676758 230.43112182617188 45.63971710205078 230.9010772705078 45.57119369506836 C 231.2214813232422 45.54811096191406 231.55755615234375 45.575626373291016 221.2924346923828 61.23606872558594 C 220.06951904296875 64.90990447998047 210.79348754882812 77.00816345214844 218.84898376464844 66.50032043457031 C 226.63128662109375 75.87338256835938 232.02342224121094 85.59901428222656 236.87405395507812 97.57392120361328 C 223.2076873779297 97.70097351074219 236.71286010742188 97.3537368774414 237.240966796875 97.53673553466797 C 229.52438354492188 106.48307037353516 241.79583740234375 90.18495178222656 233.11605834960938 108.46536254882812 C 226.46536254882812 120.54158020019531 222.4561309814453 133.05186462402344 221.01730346679688 135.10430908203125 C 220.48121643066406 136.83041381835938 219.78302001953125 137.78759765625 217.1378936767578 144.1633758544922 C 222.68211364746094 147.91415405273438 218.3444061279297 155.98385620117188 221.18994140625 169.46432495117188 C 221.28965759277344 174.3884735107422 220.61744689941406 176.64474487304688 219.65110778808594 176.17047119140625 C 219.20831298828125 176.5935821533203 214.3961639404297 179.30589294433594 211.78160095214844 178.8921356201172 C 208.75634765625 177.76776123046875 209.2368927001953 180.93740844726562 206.38308715820312 179.7058563232422 C 209.06710815429688 167.94326782226562 205.56805419921875 183.7770538330078 202.6855010986328 198.1409149169922 C 202.4210968017578 202.3732452392578 201.86697387695312 209.66281127929688 201.63873291015625 214.02774047851562 C 202.70013427734375 220.16165161132812 203.65985107421875 226.18898010253906 203.58383178710938 237.0736541748047 C 203.05271911621094 238.43356323242188 202.46328735351562 247.77769470214844 196.4341583251953 261.7186279296875 C 196.35333251953125 264.882568359375 190.91751098632812 264.220947265625 190.41859436035156 277.6292724609375 C 189.49229431152344 276.82037353515625 189.41244506835938 281.52227783203125 189.42762756347656 280.04742431640625 C 180.9969940185547 280.8376159667969 182.89820861816406 282.13555908203125 177.8603515625 278.0758361816406 C 180.56639099121094 287.1043395996094 153.6063690185547 289.6441650390625 148.00924682617188 276.05755615234375 C 176.24266052246094 272.89715576171875 177.8258056640625 252.30641174316406 177.4763641357422 251.8307342529297 C 174.49838256835938 246.84567260742188 178.31338500976562 269.25384521484375 167.93435668945312 263.18109130859375 C 166.81243896484375 263.8268127441406 155.9807586669922 264.3852844238281 149.99526977539062 259.6462707519531 C 147.2438201904297 260.4855041503906 144.26690673828125 249.8961639404297 146.6602020263672 257.3643798828125 C 145.49549865722656 253.23789978027344 144.84100341796875 250.29052734375 160.38397216796875 253.61441040039062 C 173.362548828125 233.92904663085938 172.82215881347656 234.54733276367188 172.06494140625 232.57138061523438" stroke-width="0.0" fill="rgb(0, 0, 0)" opacity="1.0" stroke="rgb(0, 0, 0)" stroke-opacity="1" stroke-linecap="round" stroke-linejoin="round"/>
  </g>
</svg>
