<?xml version="1.0" ?>
<svg xmlns="http://www.w3.org/2000/svg" version="1.1" width="320" height="320">
  <defs/>
  <g>
    <path d="M 172.65487670898438 232.15638732910156 C 168.23770141601562 227.68801879882812 164.88446044921875 219.655517578125 165.50393676757812 207.7006378173828 C 165.0482940673828 198.3306427001953 167.27780151367188 189.24169921875 161.12887573242188 147.58473205566406 C 163.56671142578125 144.7572021484375 156.24615478515625 145.842041015625 150.6322784423828 151.20811462402344 C 134.9727783203125 155.03582763671875 151.82167053222656 152.04391479492188 132.0256805419922 143.21461486816406 C 119.77579498291016 188.62132263183594 104.57642364501953 212.66464233398438 97.69100189208984 237.68003845214844 C 95.09984588623047 240.2005615234375 105.48674774169922 255.89100646972656 116.6241455078125 273.5499267578125 C 99.71417236328125 279.4271240234375 79.69207763671875 261.3661193847656 79.6448745727539 262.1618347167969 C 78.34751892089844 261.26678466796875 80.87953186035156 250.5432891845703 76.41570281982422 249.0003204345703 C 75.97124481201172 246.97332763671875 76.44921875 242.39308166503906 75.83152770996094 247.0800323486328 C 77.35340118408203 241.36953735351562 77.54594421386719 235.01889038085938 79.73811340332031 219.12191772460938 C 77.77880859375 224.86056518554688 81.73353576660156 213.17027282714844 86.29228210449219 201.66993713378906 C 89.60697174072266 191.52015686035156 90.10083770751953 186.8538055419922 92.14393615722656 166.75115966796875 C 92.05888366699219 161.18360900878906 85.46760559082031 155.2804412841797 79.9244384765625 153.87142944335938 C 79.9373779296875 156.36233520507812 78.03103637695312 154.60107421875 77.59191131591797 159.58172607421875 C 78.117431640625 153.83306884765625 85.32584381103516 151.00506591796875 80.64089965820312 154.1018524169922 C 80.7970199584961 157.320068359375 87.2798843383789 142.08921813964844 89.54464721679688 136.0525665283203 C 93.87703704833984 122.69343566894531 94.33740234375 126.29096984863281 93.63327026367188 118.2397689819336 C 92.40225219726562 108.59986877441406 91.22085571289062 102.89727020263672 89.39437866210938 90.12651824951172 C 89.64500427246094 77.40867614746094 91.72562408447266 69.26542663574219 116.32833862304688 54.96352767944336 C 137.7605438232422 94.74494171142578 133.54835510253906 88.5235824584961 111.58222198486328 39.24109649658203 C 114.97796630859375 5.697596549987793 143.26336669921875 29.53757095336914 140.9995574951172 27.409753799438477 C 142.40777587890625 26.655986785888672 137.4156036376953 30.495906829833984 144.22694396972656 49.03014373779297 C 135.76803588867188 54.7340087890625 147.93299865722656 60.66411590576172 134.97903442382812 61.748409271240234 C 128.9741668701172 67.27494049072266 127.87954711914062 69.57456970214844 134.8626708984375 90.88665008544922 C 134.62527465820312 68.62284851074219 135.62869262695312 88.7109146118164 137.9366455078125 105.56282043457031 C 136.09352111816406 119.72411346435547 135.78469848632812 122.56808471679688 134.51364135742188 130.63217163085938 C 151.87594604492188 130.4698486328125 146.61903381347656 133.25369262695312 150.6444854736328 130.66018676757812 C 151.97537231445312 127.79086303710938 154.48822021484375 128.05508422851562 166.7291259765625 128.60874938964844 C 166.9161376953125 128.459228515625 166.9374542236328 113.82980346679688 171.9679412841797 102.25543975830078 C 177.71603393554688 90.7960205078125 184.1467742919922 83.16056823730469 189.02500915527344 76.9465103149414 C 189.83767700195312 75.41584014892578 196.57546997070312 65.72517395019531 179.30551147460938 66.84042358398438 C 179.85964965820312 66.69981384277344 183.83572387695312 48.49445343017578 191.19834899902344 31.94107437133789 C 212.75665283203125 24.972875595092773 216.1477813720703 44.84223556518555 216.56053161621094 44.82615280151367 C 217.0773162841797 43.619667053222656 218.10198974609375 43.89997100830078 210.5470733642578 56.15811538696289 C 208.39028930664062 59.81028747558594 197.15611267089844 74.27741241455078 205.70455932617188 64.61420440673828 C 215.53665161132812 76.61093139648438 220.58262634277344 88.04949951171875 223.8435516357422 97.70539855957031 C 213.20077514648438 96.61678314208984 224.40692138671875 96.3720932006836 223.54905700683594 97.42033386230469 C 217.00196838378906 104.45379638671875 228.74050903320312 86.91756439208984 220.3909912109375 101.08594512939453 C 214.67514038085938 113.66796112060547 211.3031768798828 127.729736328125 210.53123474121094 128.68359375 C 210.7345428466797 128.64710998535156 210.37008666992188 129.02322387695312 207.86599731445312 139.20606994628906 C 212.5021209716797 142.1681365966797 207.5357666015625 153.80032348632812 212.824462890625 171.00717163085938 C 212.46514892578125 170.7977294921875 210.19935607910156 172.97433471679688 208.62037658691406 172.95359802246094 C 208.30831909179688 174.06301879882812 200.98626708984375 173.59579467773438 200.045654296875 174.1993865966797 C 199.84429931640625 175.25636291503906 198.4542694091797 173.8606414794922 196.74783325195312 179.32803344726562 C 201.47882080078125 165.51168823242188 193.35565185546875 187.3225555419922 189.36367797851562 201.30247497558594 C 189.5663604736328 200.530517578125 187.462158203125 209.0457763671875 186.95492553710938 213.87435913085938 C 188.0854034423828 219.31834411621094 192.05902099609375 226.94845581054688 193.47637939453125 235.0508270263672 C 192.08242797851562 236.73240661621094 196.02078247070312 249.39149475097656 193.29974365234375 260.78173828125 C 193.94607543945312 264.83697509765625 190.79151916503906 264.64593505859375 190.40447998046875 279.0346374511719 C 189.4082489013672 278.245361328125 189.8479461669922 281.9872131347656 189.5679931640625 280.4112243652344 C 181.86355590820312 282.2421569824219 183.03195190429688 282.85308837890625 177.467041015625 279.81829833984375 C 180.96656799316406 287.5425720214844 155.27328491210938 291.8707580566406 147.2906494140625 276.3266296386719 C 174.685791015625 274.1268005371094 174.19679260253906 257.0687255859375 172.28387451171875 254.3101043701172 C 171.27316284179688 252.30189514160156 177.0706329345703 265.6875915527344 167.1646270751953 264.06976318359375 C 166.2566375732422 264.5198059082031 154.5598602294922 264.41363525390625 147.44619750976562 258.21826171875 C 146.16111755371094 256.9132080078125 143.27017211914062 248.2262725830078 147.16343688964844 258.30706787109375 C 144.99655151367188 252.70814514160156 144.65576171875 251.45445251464844 162.0068817138672 253.29046630859375 C 174.1365509033203 234.6749267578125 173.53567504882812 234.41436767578125 172.65487670898438 232.15638732910156" stroke-width="0.0" fill="rgb(0, 0, 0)" opacity="1.0" stroke="rgb(0, 0, 0)" stroke-opacity="1" stroke-linecap="round" stroke-linejoin="round"/>
  </g>
</svg>
