<?xml version="1.0" ?>
<svg xmlns="http://www.w3.org/2000/svg" version="1.1" width="320" height="320">
  <defs/>
  <g>
    <path d="M 176.03076171875 236.67318725585938 C 173.9845733642578 232.13375854492188 173.25802612304688 225.76980590820312 174.38510131835938 214.5741729736328 C 173.8543243408203 204.88986206054688 173.61302185058594 197.7377166748047 163.0192108154297 160.38526916503906 C 162.68716430664062 160.39471435546875 158.7804718017578 161.05836486816406 151.36825561523438 166.88360595703125 C 132.3748779296875 170.26129150390625 151.84275817871094 169.5377960205078 130.1580810546875 156.31088256835938 C 112.79618835449219 192.3395233154297 103.18270111083984 213.87086486816406 97.60120391845703 237.41029357910156 C 95.08409881591797 240.18350219726562 106.0600357055664 257.78289794921875 116.7879867553711 273.0224609375 C 100.59585571289062 279.3809509277344 81.69464111328125 262.5724792480469 81.57555389404297 264.0422668457031 C 77.6628189086914 260.4457702636719 81.7901382446289 250.8535614013672 76.65814208984375 249.40667724609375 C 76.0964584350586 247.00875854492188 76.97509002685547 241.89956665039062 76.3194580078125 246.1832275390625 C 77.99861907958984 241.1592254638672 77.70296478271484 235.1068572998047 79.4675521850586 220.80157470703125 C 77.49569702148438 225.6806182861328 81.31798553466797 214.957763671875 85.00941467285156 203.70069885253906 C 87.465087890625 195.58270263671875 87.80963134765625 189.45736694335938 90.95790100097656 169.18557739257812 C 92.56476593017578 162.82998657226562 85.64817810058594 153.19215393066406 77.61016845703125 151.16213989257812 C 77.4050521850586 153.43380737304688 75.9624252319336 150.5023193359375 74.01375579833984 156.97817993164062 C 76.07073211669922 150.77503967285156 84.47631072998047 148.7653045654297 77.05973052978516 152.9554443359375 C 76.92573547363281 151.6090087890625 78.29094696044922 149.24346923828125 83.66507720947266 140.15711975097656 C 91.62229919433594 125.70767974853516 91.53544616699219 129.68174743652344 92.32101440429688 120.28556060791016 C 92.57820129394531 113.79398345947266 92.8768310546875 107.73249053955078 93.4828109741211 102.0019302368164 C 92.52653503417969 78.63961029052734 95.24999237060547 66.92428588867188 127.1739273071289 55.029422760009766 C 150.73043823242188 106.61797332763672 136.91049194335938 88.02606964111328 123.07395935058594 40.18081283569336 C 129.85675048828125 4.660427093505859 155.8304443359375 31.634231567382812 153.9604034423828 28.952604293823242 C 156.36740112304688 27.662933349609375 151.449951171875 30.27773094177246 156.21014404296875 51.86949157714844 C 145.85171508789062 57.053016662597656 158.94174194335938 65.24356079101562 144.6387176513672 64.99085998535156 C 136.24188232421875 69.04903411865234 133.44595336914062 72.54222106933594 142.42434692382812 98.40118408203125 C 144.7741241455078 76.17820739746094 142.3214874267578 105.10344696044922 141.20286560058594 120.15078735351562 C 137.8558349609375 132.15057373046875 137.5565185546875 133.05886840820312 135.12628173828125 145.3434295654297 C 148.77098083496094 147.44078063964844 150.79859924316406 147.7523193359375 152.34805297851562 146.44427490234375 C 153.7814178466797 143.74693298339844 157.36349487304688 143.75723266601562 169.47607421875 143.6495361328125 C 169.71951293945312 143.2673797607422 168.9078826904297 125.24268341064453 172.99151611328125 111.75740814208984 C 179.96530151367188 96.59390258789062 186.1619415283203 88.0196533203125 190.47926330566406 80.88780212402344 C 192.6754150390625 78.04551696777344 200.43685913085938 66.47171020507812 181.02952575683594 68.27335357666016 C 181.32000732421875 67.13341522216797 182.53176879882812 47.6942138671875 188.14381408691406 27.046907424926758 C 214.874267578125 13.090517044067383 218.9230194091797 39.35627365112305 219.35189819335938 39.28267288208008 C 219.93136596679688 37.72369384765625 220.44381713867188 37.68256378173828 213.04469299316406 55.55706787109375 C 211.72511291503906 59.207481384277344 200.50270080566406 71.06007385253906 210.22984313964844 60.600425720214844 C 219.5894775390625 72.26045227050781 227.93197631835938 88.78299713134766 231.8453826904297 103.29405212402344 C 217.44496154785156 102.67891693115234 233.17355346679688 102.96487426757812 232.89663696289062 103.54280090332031 C 222.1664581298828 115.43045043945312 238.56588745117188 94.36981964111328 229.70358276367188 108.95071411132812 C 224.24220275878906 122.61865997314453 220.8701171875 137.0218963623047 220.17471313476562 138.1410369873047 C 220.36126708984375 138.11790466308594 219.60064697265625 139.39129638671875 218.10543823242188 146.35984802246094 C 223.6561279296875 148.95091247558594 220.18971252441406 163.56381225585938 227.00430297851562 179.2346649169922 C 226.7579803466797 181.9561767578125 225.94969177246094 185.18870544433594 224.28033447265625 184.37266540527344 C 223.50247192382812 185.26608276367188 214.01858520507812 191.3447723388672 207.92654418945312 190.26104736328125 C 208.2600860595703 193.8281707763672 205.63458251953125 192.59059143066406 206.3614044189453 195.65525817871094 C 210.9928436279297 180.66403198242188 206.99163818359375 192.34671020507812 205.3420867919922 203.5610809326172 C 205.25645446777344 208.6110382080078 204.13958740234375 215.85208129882812 203.86508178710938 220.80435180664062 C 203.7449493408203 226.7567596435547 204.7572784423828 231.61907958984375 203.94569396972656 241.8679962158203 C 203.4368133544922 243.90077209472656 202.83619689941406 252.65145874023438 196.02061462402344 265.14324951171875 C 195.9792938232422 268.5526123046875 189.8399200439453 268.0475158691406 189.3965301513672 279.7943420410156 C 189.00193786621094 282.400634765625 187.6600799560547 286.4937744140625 187.9998321533203 285.0973815917969 C 179.81651306152344 283.482177734375 183.38002014160156 285.7264099121094 178.15089416503906 281.8753356933594 C 180.59835815429688 290.3329162597656 153.38461303710938 292.0120544433594 147.4521484375 276.9888916015625 C 173.77444458007812 276.40264892578125 179.64694213867188 256.11639404296875 179.02682495117188 255.26419067382812 C 176.3585205078125 250.4912872314453 178.1301727294922 271.04095458984375 168.0032958984375 265.25238037109375 C 166.3857879638672 264.13580322265625 154.47821044921875 264.72076416015625 148.18963623046875 258.5542297363281 C 146.8138427734375 258.5937805175781 144.83767700195312 246.70590209960938 147.47134399414062 259.0764465332031 C 146.0811004638672 253.35519409179688 145.6280059814453 249.50221252441406 160.22515869140625 253.71324157714844 C 177.27464294433594 233.23275756835938 176.37953186035156 238.2855224609375 176.03076171875 236.67318725585938" stroke-width="0.0" fill="rgb(0, 0, 0)" opacity="1.0" stroke="rgb(0, 0, 0)" stroke-opacity="1" stroke-linecap="round" stroke-linejoin="round"/>
  </g>
</svg>
