<?xml version="1.0" ?>
<svg xmlns="http://www.w3.org/2000/svg" version="1.1" width="320" height="320">
  <defs/>
  <g>
    <path d="M 174.65174865722656 235.76458740234375 C 171.33480834960938 231.34439086914062 169.16156005859375 223.15997314453125 169.46510314941406 212.9053497314453 C 168.5236358642578 202.87547302246094 168.28668212890625 190.67098999023438 164.03890991210938 155.10411071777344 C 164.958251953125 153.98178100585938 156.52655029296875 155.12808227539062 150.8479461669922 160.302001953125 C 135.03021240234375 162.35572814941406 151.67764282226562 162.48902893066406 132.26437377929688 151.07254028320312 C 116.49836730957031 188.31716918945312 103.59508514404297 210.23080444335938 97.45633697509766 236.8625946044922 C 94.78955078125 239.41574096679688 104.94906616210938 254.56727600097656 116.67506408691406 272.6925048828125 C 100.79621887207031 278.2157287597656 80.77537536621094 264.0313720703125 78.76034545898438 259.9256896972656 C 78.60089874267578 259.93109130859375 80.48397827148438 249.7484893798828 76.1407241821289 248.20333862304688 C 75.85406494140625 246.25489807128906 76.3607406616211 242.8521728515625 76.38231658935547 247.53663635253906 C 77.47376251220703 241.16961669921875 77.43607330322266 234.619384765625 79.89922332763672 217.94760131835938 C 77.7264633178711 222.70957946777344 82.31640625 211.52371215820312 86.39869689941406 199.37005615234375 C 89.58715057373047 190.4521942138672 90.33535766601562 185.61021423339844 92.94148254394531 166.3561248779297 C 94.00448608398438 161.13543701171875 89.01335906982422 152.99560546875 82.06770324707031 152.2969512939453 C 82.93952178955078 149.97987365722656 80.8557357788086 151.6985626220703 79.2522964477539 155.77085876464844 C 80.32491302490234 150.88307189941406 86.80774688720703 149.0396728515625 81.47083282470703 151.9431610107422 C 81.21549224853516 150.73110961914062 87.8843765258789 141.69805908203125 90.54740905761719 136.07418823242188 C 96.5302505493164 123.67057800292969 96.39314270019531 126.4557113647461 96.44310760498047 121.36223602294922 C 96.37458801269531 116.0157470703125 96.10880279541016 109.61766815185547 96.58304595947266 97.43511962890625 C 95.97820281982422 76.85446166992188 99.14948272705078 69.14960479736328 127.20452117919922 55.62192916870117 C 145.03347778320312 98.15562438964844 142.48863220214844 92.87062072753906 124.91097259521484 42.15903854370117 C 128.6375732421875 7.983405113220215 155.5721893310547 31.647991180419922 154.7108154296875 30.730804443359375 C 156.48965454101562 29.89750862121582 151.0387725830078 33.192630767822266 156.10406494140625 52.247161865234375 C 147.13316345214844 57.28429412841797 160.07650756835938 64.83060455322266 145.73580932617188 64.4524917602539 C 138.7749786376953 69.48880767822266 136.83694458007812 72.53486633300781 145.23306274414062 101.2601547241211 C 148.5012969970703 78.14421844482422 144.11509704589844 104.98735809326172 143.00074768066406 118.31755065917969 C 139.46475219726562 130.18922424316406 138.83872985839844 131.91030883789062 137.05905151367188 139.78709411621094 C 153.0121612548828 140.82510375976562 148.2495574951172 142.80331420898438 151.87924194335938 140.6694793701172 C 153.6667022705078 137.28598022460938 157.1172637939453 137.57931518554688 168.8262481689453 138.13650512695312 C 168.9235076904297 137.99606323242188 169.2388153076172 119.57115936279297 176.84243774414062 105.30882263183594 C 183.14622497558594 92.84235382080078 189.53717041015625 85.69200134277344 193.98733520507812 79.2546615600586 C 194.7884521484375 77.95520782470703 203.14163208007812 67.1058578491211 184.54052734375 67.17315673828125 C 185.62088012695312 67.10514068603516 189.2241668701172 47.516300201416016 196.6338348388672 28.433074951171875 C 221.6688995361328 18.972434997558594 225.02392578125 42.7255859375 225.39883422851562 42.59728240966797 C 225.74102783203125 42.52328872680664 226.2632598876953 42.562564849853516 216.8247833251953 58.60355758666992 C 215.27008056640625 62.234500885009766 204.28981018066406 75.26647186279297 213.89407348632812 64.61965942382812 C 222.0541229248047 74.70350646972656 228.41505432128906 86.56391906738281 232.6852569580078 100.96495819091797 C 217.58404541015625 100.38717651367188 233.10745239257812 100.56078338623047 232.75230407714844 101.22183990478516 C 221.97958374023438 112.27069854736328 238.3269500732422 93.23062896728516 230.1226043701172 108.31790161132812 C 223.29693603515625 121.74252319335938 219.29689025878906 135.8562774658203 217.65223693847656 137.84259033203125 C 217.6397247314453 138.02395629882812 217.20269775390625 138.45172119140625 214.2357940673828 147.12258911132812 C 218.94703674316406 149.92726135253906 215.71949768066406 157.71136474609375 220.2028045654297 177.2272186279297 C 219.62062072753906 180.02232360839844 218.590087890625 182.17694091796875 217.23992919921875 181.4628143310547 C 216.655517578125 182.0225372314453 210.27801513671875 185.48825073242188 206.09420776367188 184.62843322753906 C 202.98251342773438 182.0133056640625 204.3962860107422 187.70643615722656 202.77493286132812 186.44273376464844 C 206.4718475341797 173.75143432617188 202.25828552246094 186.91700744628906 201.60516357421875 199.40771484375 C 201.40969848632812 203.88648986816406 200.38482666015625 211.97689819335938 200.22959899902344 215.96640014648438 C 201.25946044921875 221.78854370117188 202.66897583007812 228.68724060058594 202.63136291503906 235.780029296875 C 201.92431640625 239.11427307128906 202.4020538330078 248.24513244628906 196.19943237304688 262.3106994628906 C 196.0620880126953 266.0536193847656 190.03231811523438 265.35040283203125 189.52581787109375 278.8997802734375 C 188.87286376953125 278.33026123046875 188.6881866455078 282.8271484375 188.56982421875 281.3334045410156 C 180.36233520507812 282.0764465332031 182.1638946533203 283.2662048339844 177.47276306152344 279.59344482421875 C 180.1178436279297 288.3016662597656 153.6304473876953 290.8102111816406 147.17237854003906 276.4626770019531 C 175.94979858398438 274.2889404296875 178.47576904296875 253.691650390625 178.0477294921875 253.06991577148438 C 174.98683166503906 248.55555725097656 178.758544921875 269.7206115722656 167.51654052734375 263.820068359375 C 166.96731567382812 263.9720458984375 154.78480529785156 264.5521240234375 148.46531677246094 259.0706787109375 C 146.30018615722656 259.7066955566406 143.3406219482422 246.902587890625 147.05284118652344 258.6997375488281 C 145.26620483398438 253.328369140625 144.49156188964844 250.26760864257812 160.15765380859375 253.85891723632812 C 175.40707397460938 233.49110412597656 174.20896911621094 232.47052001953125 174.65174865722656 235.76458740234375" stroke-width="0.0" fill="rgb(0, 0, 0)" opacity="1.0" stroke="rgb(0, 0, 0)" stroke-opacity="1" stroke-linecap="round" stroke-linejoin="round"/>
  </g>
</svg>
