<?xml version="1.0" ?>
<svg xmlns="http://www.w3.org/2000/svg" version="1.1" width="320" height="320">
  <defs/>
  <g>
    <path d="M 174.2234649658203 237.27130126953125 C 171.77601623535156 233.66973876953125 169.45005798339844 226.16258239746094 170.26834106445312 216.84234619140625 C 168.573486328125 204.9215850830078 170.36460876464844 194.3565673828125 164.60586547851562 166.62742614746094 C 166.15733337402344 164.4982147216797 160.70069885253906 166.10533142089844 153.39639282226562 172.99241638183594 C 134.88031005859375 176.2366180419922 152.64395141601562 177.02685546875 131.01136779785156 161.67694091796875 C 115.8576431274414 191.35980224609375 105.60529327392578 212.97923278808594 97.60655975341797 238.10105895996094 C 95.50361633300781 240.14707946777344 105.56230163574219 256.2520751953125 117.06615447998047 273.1819763183594 C 103.16813659667969 278.5699462890625 82.46695709228516 265.8236389160156 79.4897232055664 260.5206604003906 C 78.41670227050781 259.7272033691406 80.88780975341797 250.4786376953125 76.54202270507812 249.34068298339844 C 76.07215118408203 247.36863708496094 76.49181365966797 243.15280151367188 76.32481384277344 247.282958984375 C 77.89591979980469 241.3385009765625 77.78970336914062 234.85133361816406 80.02577209472656 218.36810302734375 C 77.94268798828125 223.2348175048828 82.53384399414062 213.00985717773438 86.9769058227539 201.67636108398438 C 89.89958190917969 193.1946563720703 90.66374969482422 188.112060546875 93.15312194824219 170.69606018066406 C 95.01400756835938 167.5843963623047 91.01748657226562 157.98641967773438 84.3733139038086 155.03170776367188 C 83.82268524169922 156.77601623535156 83.23920440673828 154.32879638671875 80.44969940185547 158.59266662597656 C 84.79363250732422 152.11016845703125 91.53215789794922 152.11724853515625 83.27307891845703 154.54689025878906 C 83.22594451904297 152.20936584472656 86.89736938476562 147.10556030273438 90.4744644165039 141.14642333984375 C 96.36564636230469 130.79612731933594 96.31852722167969 132.72882080078125 96.55876922607422 125.99040222167969 C 96.69709014892578 118.34932708740234 96.04039764404297 110.38819885253906 95.92591857910156 100.05866241455078 C 94.17924499511719 78.89441680908203 97.41014862060547 70.29331970214844 124.3603515625 55.40882873535156 C 144.7675018310547 99.28858947753906 142.21176147460938 94.20335388183594 120.08885955810547 40.750389099121094 C 123.84538269042969 4.203878402709961 152.23855590820312 29.294784545898438 151.1167755126953 28.12792205810547 C 153.1351318359375 27.050289154052734 148.28152465820312 30.358436584472656 153.3195037841797 51.02367401123047 C 144.70733642578125 55.99623107910156 158.6248779296875 63.473838806152344 143.01702880859375 63.725948333740234 C 136.25424194335938 68.7775650024414 134.082763671875 72.7203598022461 144.61441040039062 104.92010498046875 C 149.27870178222656 79.36671447753906 144.39755249023438 105.72602844238281 142.56202697753906 119.54010009765625 C 140.0593719482422 132.9927520751953 139.64364624023438 134.73301696777344 137.7122802734375 150.44232177734375 C 153.2432403564453 152.91966247558594 149.8190460205078 154.26263427734375 153.23574829101562 151.37466430664062 C 155.23182678222656 147.8424835205078 153.92660522460938 149.55337524414062 169.51478576660156 147.08465576171875 C 171.32916259765625 143.65492248535156 170.76446533203125 121.99103546142578 177.8794403076172 107.0499038696289 C 184.1930694580078 95.21650695800781 191.35751342773438 87.49712371826172 196.24476623535156 80.968994140625 C 197.08998107910156 79.72645568847656 208.4728546142578 68.15777587890625 187.4901885986328 66.6497802734375 C 188.5547637939453 64.08206939697266 193.0684051513672 45.94695281982422 201.9823455810547 26.65875816345215 C 230.2666778564453 17.43726348876953 231.5199737548828 43.202049255371094 231.9468231201172 43.12946701049805 C 232.2784423828125 42.826332092285156 233.56044006347656 43.24169158935547 220.8267822265625 60.78456115722656 C 219.29708862304688 63.82831954956055 209.6764373779297 73.83981323242188 218.39073181152344 65.25422668457031 C 225.6205596923828 75.2562484741211 232.36441040039062 90.02198028564453 236.21566772460938 106.06922912597656 C 219.79429626464844 105.27676391601562 237.049560546875 105.60838317871094 236.52468872070312 106.6882553100586 C 224.8586883544922 117.29872131347656 243.15005493164062 98.94881439208984 233.59324645996094 113.88538360595703 C 225.76458740234375 127.08103942871094 220.8762969970703 139.27296447753906 219.64401245117188 140.650390625 C 219.3181610107422 141.66168212890625 218.56492614746094 142.36276245117188 213.97042846679688 152.2371063232422 C 219.41488647460938 155.50555419921875 214.38543701171875 166.04940795898438 218.76889038085938 181.09922790527344 C 218.4980926513672 183.87635803222656 218.09854125976562 185.5912322998047 217.0311279296875 186.11465454101562 C 216.6878662109375 185.7962646484375 212.54019165039062 189.50045776367188 207.8981475830078 189.0029296875 C 203.389892578125 185.7735137939453 202.94558715820312 190.6056671142578 203.2178955078125 192.77481079101562 C 205.0482177734375 179.24681091308594 202.7077178955078 192.39498901367188 200.8700408935547 205.28604125976562 C 200.5456085205078 207.53770446777344 200.0698699951172 215.64830017089844 200.01467895507812 218.6865234375 C 200.54425048828125 222.96563720703125 201.95266723632812 227.83453369140625 202.05804443359375 236.35003662109375 C 201.78883361816406 240.4796905517578 201.81272888183594 248.9150848388672 195.53366088867188 263.2401428222656 C 195.37864685058594 266.90631103515625 189.9833984375 266.60162353515625 189.60617065429688 279.1886901855469 C 188.8383331298828 278.5196838378906 188.89486694335938 282.7151794433594 188.8969268798828 281.4953308105469 C 180.70657348632812 282.1664123535156 183.33123779296875 283.80224609375 177.53306579589844 280.1504821777344 C 180.0997314453125 288.70098876953125 153.43284606933594 291.4986572265625 147.01205444335938 276.5832214355469 C 175.56802368164062 274.38800048828125 178.9557647705078 254.1927947998047 178.45167541503906 253.40509033203125 C 175.44622802734375 248.91055297851562 179.01280212402344 269.9818420410156 168.16482543945312 264.5550842285156 C 167.5186309814453 264.65277099609375 155.6891326904297 264.9512939453125 149.13363647460938 259.56103515625 C 146.90476989746094 260.2218322753906 143.67987060546875 248.0042724609375 147.45994567871094 259.4966735839844 C 144.9215850830078 250.95716857910156 145.01950073242188 251.23876953125 160.42575073242188 253.6934356689453 C 174.94654846191406 232.55963134765625 173.74111938476562 235.22113037109375 174.2234649658203 237.27130126953125" stroke-width="0.0" fill="rgb(0, 0, 0)" opacity="1.0" stroke="rgb(0, 0, 0)" stroke-opacity="1" stroke-linecap="round" stroke-linejoin="round"/>
  </g>
</svg>
