<?xml version="1.0" ?>
<svg xmlns="http://www.w3.org/2000/svg" version="1.1" width="320" height="320">
  <defs/>
  <g>
    <path d="M 174.89234924316406 235.85357666015625 C 173.28379821777344 232.671630859375 172.01222229003906 227.57298278808594 174.10086059570312 214.65322875976562 C 172.7035369873047 203.7536163330078 168.68299865722656 189.5921173095703 162.52108764648438 147.49740600585938 C 158.67201232910156 147.1107940673828 154.92787170410156 146.90811157226562 148.4739532470703 150.5518341064453 C 136.28440856933594 154.7124786376953 154.54806518554688 152.29220581054688 133.21165466308594 143.00807189941406 C 117.9946060180664 191.33399963378906 103.44781494140625 213.99627685546875 97.4218521118164 237.8837890625 C 95.22978973388672 240.08090209960938 105.67237854003906 256.575927734375 116.93894958496094 273.5563049316406 C 100.1903305053711 279.0993347167969 79.89974975585938 261.5386962890625 79.84429168701172 262.358642578125 C 78.1123046875 261.19818115234375 81.27047729492188 250.92123413085938 77.02837371826172 250.19754028320312 C 76.13416290283203 248.05746459960938 76.55958557128906 242.55809020996094 76.40159606933594 246.73507690429688 C 77.7394027709961 241.3109130859375 77.52393341064453 235.1131591796875 79.1183853149414 220.73204040527344 C 77.4836196899414 225.2037353515625 81.21287536621094 214.47767639160156 84.64470672607422 202.51222229003906 C 87.99022674560547 192.93624877929688 89.00529479980469 188.42945861816406 91.3810806274414 168.0504913330078 C 91.8707275390625 161.5936279296875 85.7509536743164 155.54367065429688 79.09454345703125 153.9005584716797 C 79.71490478515625 157.14405822753906 77.43589782714844 155.28187561035156 76.71414947509766 159.8712158203125 C 77.39234924316406 153.88450622558594 84.34483337402344 151.41928100585938 78.6236572265625 155.4136505126953 C 78.80192565917969 157.86680603027344 86.424560546875 143.61363220214844 88.53865814208984 138.3517608642578 C 93.25880432128906 124.37135314941406 93.56617736816406 127.24530029296875 92.95291900634766 121.48567199707031 C 92.36961364746094 114.02006530761719 91.7857437133789 108.45042419433594 91.07418823242188 98.91522216796875 C 87.71730041503906 80.57422637939453 90.179443359375 70.3857421875 118.21399688720703 54.58013153076172 C 139.43972778320312 94.3182601928711 134.8427734375 87.09782409667969 113.05339050292969 37.56635284423828 C 116.93817138671875 2.8707942962646484 146.98553466796875 28.228164672851562 142.7818145751953 24.637104034423828 C 144.7034454345703 23.600406646728516 139.93856811523438 27.359642028808594 146.4591522216797 48.473243713378906 C 137.867431640625 53.49103546142578 151.42910766601562 59.59484100341797 137.3302764892578 61.4448356628418 C 131.44088745117188 66.90928649902344 129.7935791015625 70.71866607666016 138.7312469482422 97.03422546386719 C 138.6203155517578 72.98797607421875 139.06637573242188 99.18311309814453 138.1774444580078 113.27882385253906 C 136.26263427734375 123.47331237792969 135.8761444091797 125.67927551269531 135.3638153076172 130.77658081054688 C 145.48538208007812 130.02833557128906 149.95016479492188 131.90609741210938 150.64161682128906 131.5787811279297 C 153.19586181640625 128.20510864257812 156.71047973632812 128.5146942138672 168.1683349609375 131.447509765625 C 168.2157745361328 131.84539794921875 167.3198699951172 116.91734313964844 172.45729064941406 106.52910614013672 C 177.76467895507812 93.56146240234375 183.63819885253906 85.16954040527344 187.3754425048828 78.13312530517578 C 187.7240447998047 77.51602172851562 194.62005615234375 66.44297790527344 177.06387329101562 68.37393188476562 C 177.9160614013672 64.78912353515625 180.08560180664062 48.10566711425781 184.90301513671875 28.420387268066406 C 207.5489501953125 15.257855415344238 213.90591430664062 39.182064056396484 214.3717041015625 39.122161865234375 C 215.15643310546875 34.79918670654297 216.32052612304688 34.95096206665039 208.02490234375 55.605445861816406 C 207.05921936035156 58.95634460449219 197.2644500732422 70.55963897705078 205.07679748535156 59.99602508544922 C 215.24166870117188 71.44068908691406 223.09007263183594 87.13311767578125 227.734375 100.9681396484375 C 212.29638671875 101.2447738647461 227.85321044921875 100.39947509765625 227.51861572265625 100.9800033569336 C 218.67510986328125 110.89572143554688 234.2978515625 90.29483032226562 225.0387725830078 105.42464447021484 C 220.1443634033203 115.87633514404297 217.3793487548828 131.81289672851562 216.85096740722656 132.8262176513672 C 217.2460174560547 132.61410522460938 216.84878540039062 133.0923309326172 214.33287048339844 142.9029083251953 C 220.57260131835938 145.86038208007812 217.6132049560547 159.11476135253906 225.38772583007812 176.26539611816406 C 224.97604370117188 177.26620483398438 224.2173309326172 179.79006958007812 222.19776916503906 178.56875610351562 C 221.2572021484375 179.38510131835938 210.39808654785156 185.45811462402344 206.4513702392578 184.32241821289062 C 204.7473907470703 182.37863159179688 204.2457275390625 187.01034545898438 203.91998291015625 192.58755493164062 C 210.33995056152344 172.81991577148438 204.87522888183594 186.01014709472656 202.60940551757812 198.1658172607422 C 201.97637939453125 206.16729736328125 200.99105834960938 214.62997436523438 201.52760314941406 219.78504943847656 C 203.23715209960938 226.1868896484375 203.64552307128906 229.95404052734375 203.58802795410156 236.99398803710938 C 202.91796875 238.40235900878906 202.9716339111328 248.9156036376953 195.39212036132812 263.5521545410156 C 195.59832763671875 268.40020751953125 189.73841857910156 267.9798583984375 189.2950439453125 279.51220703125 C 189.0047607421875 281.8980712890625 187.8314666748047 286.5688781738281 188.1320037841797 284.7473449707031 C 179.90419006347656 283.7144470214844 183.17855834960938 285.650146484375 177.78330993652344 281.9047546386719 C 180.59910583496094 290.465087890625 153.49415588378906 292.50537109375 147.14810180664062 277.0221862792969 C 176.01617431640625 275.14361572265625 179.66831970214844 255.720458984375 178.8450927734375 254.86465454101562 C 175.60910034179688 249.41241455078125 179.75234985351562 271.1536560058594 167.78334045410156 264.78759765625 C 167.09652709960938 264.79736328125 154.77076721191406 264.9365234375 147.30029296875 258.2511291503906 C 146.3949737548828 257.1112976074219 144.45838928222656 245.82049560546875 147.69717407226562 258.40802001953125 C 146.20645141601562 252.91815185546875 145.7681427001953 250.10061645507812 160.2198028564453 253.7604217529297 C 176.51686096191406 234.148193359375 175.14479064941406 237.17703247070312 174.89234924316406 235.85357666015625" stroke-width="0.0" fill="rgb(0, 0, 0)" opacity="1.0" stroke="rgb(0, 0, 0)" stroke-opacity="1" stroke-linecap="round" stroke-linejoin="round"/>
  </g>
</svg>
