<?xml version="1.0" ?>
<svg xmlns="http://www.w3.org/2000/svg" version="1.1" width="320" height="320">
  <defs/>
  <g>
    <path d="M 173.26783752441406 233.93814086914062 C 170.4622802734375 230.16574096679688 168.55862426757812 223.17604064941406 169.64987182617188 213.55575561523438 C 168.71490478515625 200.68226623535156 170.71324157714844 188.9832305908203 165.98678588867188 158.95091247558594 C 167.0184783935547 157.4158172607422 159.71652221679688 159.0416259765625 152.74539184570312 165.8153533935547 C 136.6177215576172 167.22413635253906 153.6511993408203 167.57742309570312 133.4402313232422 153.99215698242188 C 115.35051727294922 187.82998657226562 103.94673156738281 209.36756896972656 97.36864471435547 235.9911346435547 C 94.88621520996094 238.65968322753906 104.63606262207031 254.19821166992188 116.96722412109375 272.8436279296875 C 100.37583923339844 278.45849609375 80.56288146972656 263.3587951660156 78.62506103515625 259.8101806640625 C 78.40132904052734 259.9440612792969 80.95915222167969 250.32742309570312 76.5339126586914 249.07981872558594 C 76.08377075195312 246.68031311035156 76.37506866455078 242.3382568359375 75.91067504882812 245.61306762695312 C 77.42621612548828 239.7664794921875 77.69547271728516 233.83633422851562 79.85673522949219 216.87496948242188 C 78.01668548583984 221.02056884765625 82.589599609375 210.20150756835938 86.90567779541016 198.91229248046875 C 89.74519348144531 190.24484252929688 90.5283432006836 184.51992797851562 93.64967346191406 164.83563232421875 C 93.8052978515625 162.24208068847656 92.4893798828125 153.37200927734375 85.7065200805664 150.8939208984375 C 85.35619354248047 152.36151123046875 84.73152923583984 149.114501953125 82.69227600097656 151.3903350830078 C 78.91661071777344 154.36184692382812 86.43385314941406 149.38807678222656 83.21241760253906 151.24717712402344 C 83.04544067382812 149.12860107421875 88.34290313720703 142.1152801513672 91.77416229248047 136.59336853027344 C 99.65416717529297 123.06485748291016 99.26321411132812 125.96308898925781 100.22956085205078 121.27520751953125 C 101.1482162475586 115.2266845703125 101.02324676513672 107.43299102783203 102.21620178222656 98.63381958007812 C 102.1614761352539 78.82656860351562 104.8059310913086 70.38677215576172 134.01544189453125 56.91708755493164 C 150.33859252929688 96.27940368652344 146.73947143554688 90.7425308227539 133.7962646484375 46.13551712036133 C 138.3436279296875 12.607202529907227 162.75094604492188 33.457237243652344 162.9199981689453 33.3378791809082 C 165.53746032714844 32.436065673828125 160.84182739257812 34.573997497558594 164.66697692871094 56.94742202758789 C 154.83383178710938 60.94533157348633 167.2364501953125 68.76151275634766 151.9275665283203 67.59330749511719 C 145.45855712890625 71.80038452148438 143.19949340820312 75.39339447021484 149.84371948242188 102.60282897949219 C 153.649658203125 81.05564880371094 149.21890258789062 108.17843627929688 146.05984497070312 121.69020080566406 C 142.7503204345703 133.69491577148438 142.25656127929688 134.8160400390625 139.59375 143.24009704589844 C 155.37924194335938 144.9167938232422 150.96063232421875 146.60272216796875 154.14306640625 144.6673583984375 C 155.27774047851562 142.36019897460938 157.83436584472656 142.0861053466797 170.08839416503906 141.16574096679688 C 171.00791931152344 139.23269653320312 170.42324829101562 119.13919067382812 176.92236328125 105.28663635253906 C 182.58221435546875 93.49899291992188 188.34130859375 86.12004089355469 193.17684936523438 79.1120376586914 C 193.7247314453125 78.14523315429688 201.66366577148438 67.18461608886719 183.7906951904297 68.78815460205078 C 184.13284301757812 67.16372680664062 186.5033721923828 47.00852584838867 193.31434631347656 30.96646499633789 C 217.69210815429688 23.009098052978516 219.87232971191406 44.068687438964844 220.69534301757812 43.645294189453125 C 221.2349090576172 41.03676986694336 222.5311737060547 41.338966369628906 214.58811950683594 57.09162139892578 C 213.71693420410156 60.25556182861328 204.99842834472656 73.68704223632812 212.20034790039062 64.31172943115234 C 221.98202514648438 74.12920379638672 228.74179077148438 85.28772735595703 232.52694702148438 98.72413635253906 C 219.15721130371094 99.0855484008789 232.80319213867188 98.37765502929688 232.39920043945312 99.04979705810547 C 223.52479553222656 110.29508209228516 237.56260681152344 91.25465393066406 229.02005004882812 106.7176513671875 C 223.09793090820312 120.013916015625 219.42857360839844 134.34115600585938 217.8140411376953 136.37741088867188 C 217.85208129882812 136.47242736816406 217.32290649414062 137.17041015625 215.65765380859375 143.4945068359375 C 220.9020538330078 146.16896057128906 217.1561279296875 156.11915588378906 223.03932189941406 173.87271118164062 C 221.7277374267578 177.00762939453125 220.33602905273438 178.88587951660156 219.21131896972656 178.04727172851562 C 218.5872802734375 178.4663543701172 209.73988342285156 180.85003662109375 206.62698364257812 179.6734161376953 C 206.42581176757812 182.2607879638672 206.3290252685547 183.05218505859375 205.42283630371094 182.49172973632812 C 208.035888671875 170.51637268066406 204.9585723876953 186.03060913085938 202.3071746826172 200.16136169433594 C 201.9737548828125 203.798828125 201.22808837890625 211.4682159423828 201.26736450195312 214.47384643554688 C 202.417724609375 221.2694549560547 203.5228729248047 227.0496368408203 203.43624877929688 235.3572235107422 C 202.91517639160156 237.62110900878906 202.9241943359375 248.9798126220703 196.0714874267578 262.5053405761719 C 195.95895385742188 265.9815368652344 190.30862426757812 265.3376770019531 189.55735778808594 278.7593688964844 C 188.94386291503906 278.2035827636719 188.4228515625 283.2585144042969 188.8631134033203 281.2109680175781 C 180.1597900390625 281.7586364746094 182.4506072998047 283.3175048828125 177.2647247314453 279.2698059082031 C 180.06106567382812 288.0614318847656 153.68368530273438 290.5040588378906 147.2125701904297 276.4730529785156 C 175.42483520507812 274.54583740234375 178.32777404785156 253.54776000976562 177.835205078125 252.8545379638672 C 174.74673461914062 247.65011596679688 178.98651123046875 269.9130554199219 167.5014190673828 263.7260437011719 C 167.02090454101562 263.7945861816406 154.80316162109375 264.409912109375 148.75880432128906 259.247802734375 C 146.33636474609375 260.0529479980469 143.26705932617188 247.69482421875 146.8721466064453 258.68878173828125 C 145.14736938476562 253.53099060058594 144.31668090820312 250.2258758544922 160.20729064941406 253.4785614013672 C 174.57167053222656 232.13885498046875 174.11669921875 236.6747283935547 173.26783752441406 233.93814086914062" stroke-width="0.0" fill="rgb(0, 0, 0)" opacity="1.0" stroke="rgb(0, 0, 0)" stroke-opacity="1" stroke-linecap="round" stroke-linejoin="round"/>
  </g>
</svg>
