<?xml version="1.0" ?>
<svg xmlns="http://www.w3.org/2000/svg" version="1.1" width="320" height="320">
  <defs/>
  <g>
    <path d="M 174.39012145996094 238.09104919433594 C 172.88026428222656 235.3634490966797 172.07135009765625 228.81727600097656 173.1642303466797 219.84970092773438 C 173.11036682128906 207.3772735595703 175.7554473876953 197.25730895996094 166.52212524414062 165.55198669433594 C 161.33230590820312 168.0826873779297 154.38070678710938 171.26303100585938 144.65464782714844 184.58592224121094 C 121.89695739746094 186.3611602783203 141.83848571777344 191.26248168945312 121.49444580078125 167.67233276367188 C 106.92631530761719 194.25123596191406 100.48260498046875 214.97903442382812 97.52859497070312 237.3557891845703 C 95.1083755493164 241.0692596435547 105.97429656982422 256.3526306152344 116.36061096191406 273.67596435546875 C 101.99821472167969 279.271728515625 81.61556243896484 265.7535705566406 79.07276153564453 261.1026916503906 C 78.70499420166016 261.44805908203125 80.20355224609375 252.39418029785156 75.27369689941406 251.09068298339844 C 74.68154907226562 248.477783203125 75.17768096923828 244.1647186279297 74.61913299560547 248.824462890625 C 75.61821746826172 243.96505737304688 74.7735824584961 236.87159729003906 76.17208862304688 220.5915985107422 C 74.40501403808594 226.97186279296875 77.70356750488281 216.5141143798828 81.01443481445312 203.95933532714844 C 83.50471496582031 196.5070343017578 84.21293640136719 191.9392852783203 86.5755386352539 173.2493133544922 C 86.78947448730469 155.36422729492188 78.47286987304688 157.51197814941406 72.61460876464844 148.06224060058594 C 70.80094146728516 149.79330444335938 74.07171630859375 145.23291015625 68.9988784790039 145.98046875 C 68.13136291503906 146.94076538085938 77.36480712890625 144.65863037109375 71.32989501953125 146.7716522216797 C 71.9149169921875 144.87205505371094 74.24577331542969 143.43785095214844 79.0098648071289 138.46702575683594 C 87.56294250488281 126.35552215576172 87.53250122070312 126.95457458496094 90.90376281738281 117.67584228515625 C 91.09857177734375 109.88261413574219 91.72821044921875 104.1603012084961 92.77577209472656 91.47598266601562 C 94.24378967285156 76.98963165283203 98.8922119140625 67.3347396850586 125.2074203491211 57.61952209472656 C 144.57908630371094 104.68741607666016 141.48439025878906 95.37493133544922 126.4726791381836 56.58876037597656 C 124.2492904663086 3.0174922943115234 160.03456115722656 35.7244758605957 159.2731170654297 34.5511589050293 C 160.3406982421875 34.09601593017578 154.37771606445312 35.97848892211914 157.67337036132812 56.69709777832031 C 147.5282440185547 60.98544692993164 159.15208435058594 70.55160522460938 142.59170532226562 68.03311920166016 C 135.44058227539062 71.70328521728516 133.33535766601562 74.50725555419922 140.58314514160156 104.27640533447266 C 146.95278930664062 80.05941772460938 140.99612426757812 104.0411148071289 137.9748992919922 121.31339263916016 C 132.7604522705078 135.53964233398438 132.40219116210938 136.3185577392578 130.58152770996094 158.57720947265625 C 145.3535919189453 162.8063507080078 146.76602172851562 163.3007049560547 148.52467346191406 161.69903564453125 C 149.50250244140625 156.44204711914062 156.0084228515625 153.2653045654297 170.6577911376953 146.6631317138672 C 172.15760803222656 144.03805541992188 171.53250122070312 124.39229583740234 177.13427734375 110.56622314453125 C 183.55421447753906 97.1312255859375 190.59703063964844 88.91358947753906 196.00753784179688 81.72515869140625 C 197.15318298339844 79.896484375 207.40045166015625 67.55186462402344 187.02847290039062 68.51644897460938 C 187.23843383789062 68.33277893066406 188.25277709960938 47.163665771484375 195.48895263671875 27.567399978637695 C 223.03213500976562 14.786774635314941 227.53582763671875 39.10786056518555 228.0278778076172 39.03849792480469 C 228.58311462402344 36.36918258666992 230.3286590576172 36.819915771484375 217.09078979492188 63.8945198059082 C 220.19158935546875 64.84021759033203 210.36634826660156 73.28443145751953 218.48802185058594 64.54275512695312 C 226.64529418945312 75.44746398925781 235.0821075439453 91.5327377319336 238.94403076171875 107.01285552978516 C 224.65464782714844 106.36516571044922 239.93356323242188 106.27100372314453 238.9114227294922 108.35942840576172 C 232.277099609375 116.87065124511719 247.07040405273438 95.85049438476562 235.1604461669922 113.30540466308594 C 228.28013610839844 127.88832092285156 225.01702880859375 142.14625549316406 224.25535583496094 143.12164306640625 C 224.7123565673828 142.9101104736328 223.4563751220703 144.51995849609375 221.41712951660156 152.46759033203125 C 226.78187561035156 155.46310424804688 222.48126220703125 166.18817138671875 227.43235778808594 183.66757202148438 C 227.06329345703125 186.62013244628906 226.43629455566406 188.91793823242188 224.8396759033203 188.3394012451172 C 224.32473754882812 188.99317932128906 217.62789916992188 193.73704528808594 211.315185546875 192.89366149902344 C 211.64279174804688 195.29576110839844 208.57037353515625 193.86717224121094 208.5282745361328 198.50811767578125 C 212.93145751953125 182.88662719726562 209.4630126953125 194.96339416503906 206.2869415283203 208.7346954345703 C 205.9341278076172 212.0257568359375 205.57077026367188 218.94825744628906 205.50233459472656 222.97071838378906 C 205.18702697753906 229.07005310058594 205.27891540527344 233.2622528076172 205.41928100585938 238.9654083251953 C 204.97337341308594 242.2030487060547 204.166015625 251.89425659179688 195.4320526123047 266.1707763671875 C 195.1960906982422 269.2554016113281 189.27760314941406 269.0127868652344 188.9363250732422 280.53826904296875 C 188.5044708251953 282.5994873046875 187.6212921142578 286.5274353027344 188.0077362060547 284.83447265625 C 179.84864807128906 283.8766784667969 183.68905639648438 286.36016845703125 177.49832153320312 282.27593994140625 C 180.03717041015625 290.7837829589844 152.99354553222656 292.2886047363281 147.05709838867188 277.600341796875 C 174.2789306640625 277.00640869140625 180.93231201171875 256.5448913574219 179.6734619140625 254.9574737548828 C 176.2318878173828 249.10824584960938 178.93264770507812 272.0516357421875 168.93927001953125 265.9789733886719 C 167.45677185058594 265.0579833984375 153.85699462890625 265.1203918457031 147.67300415039062 258.8304748535156 C 146.46038818359375 258.92694091796875 144.32614135742188 248.11196899414062 147.08834838867188 260.1489562988281 C 145.4507598876953 254.392333984375 144.73558044433594 250.06817626953125 159.4589080810547 254.1105499267578 C 175.4894561767578 235.6944122314453 174.55409240722656 234.50308227539062 174.39012145996094 238.09104919433594" stroke-width="0.0" fill="rgb(0, 0, 0)" opacity="1.0" stroke="rgb(0, 0, 0)" stroke-opacity="1" stroke-linecap="round" stroke-linejoin="round"/>
  </g>
</svg>
